<svg width="91" height="90" viewBox="0 0 91 90" fill="none" xmlns="http://www.w3.org/2000/svg">
<g clip-path="url(#clip0_59_884)">
<path d="M66.6384 24.7976H64.4605L57.3395 22.763C54.3879 21.9176 51.2357 22.2185 48.4991 23.5797L44.8168 25.428C43.4699 26.1014 42.4383 27.262 41.9368 28.6662L36.8934 42.5501C36.4778 43.6677 37.3232 44.8569 38.5124 44.8569H40.1888C42.8108 44.8569 45.218 43.4527 46.5218 41.1889L51.1068 33.1652" stroke="white" stroke-width="3" stroke-linejoin="round"/>
<path d="M22.8809 23.6221C23.9268 24.668 25.4026 25.1408 26.8497 24.8973L31.8789 24.0519C33.5982 23.7654 35.3606 23.7654 37.0943 24.0519L46.1066 25.2698" stroke="white" stroke-width="3" stroke-linejoin="round"/>
<path d="M19.9143 55.9033L21.9775 52.8657C23.2671 50.9744 22.7799 48.3954 20.8743 47.1058C18.983 45.8163 16.4039 46.3035 15.1144 48.2091L13.0511 51.2466C11.7616 53.138 12.2488 55.717 14.1544 57.0065C16.06 58.2961 18.6248 57.8089 19.9143 55.9033Z" stroke="white" stroke-width="3" stroke-linejoin="round"/>
<path d="M25.3733 62.7527L30.8036 54.772C32.0931 52.8807 31.606 50.3016 29.7003 49.0121C27.809 47.7226 25.23 48.2097 23.9405 50.1153L18.5101 58.0961C17.2206 59.9874 17.7078 62.5664 19.6134 63.856C21.519 65.1455 24.0838 64.6583 25.3733 62.7527Z" stroke="white" stroke-width="3" stroke-linejoin="round"/>
<path d="M32.0364 67.753L36.65 60.8325C37.9252 58.9269 37.4094 56.3478 35.5038 55.087C33.5981 53.8118 31.0191 54.3276 29.7582 56.2332L25.1446 63.1537C23.8694 65.0593 24.3852 67.6383 26.2908 68.8992C28.1964 70.1744 30.7755 69.6586 32.0364 67.753Z" stroke="white" stroke-width="3" stroke-linejoin="round"/>
<path d="M40.0745 70.7193L42.109 67.6675C43.3842 65.7618 42.8684 63.1828 40.9628 61.9219C39.0572 60.6467 36.4781 61.1625 35.2172 63.0682L33.1827 66.12C31.9075 68.0257 32.4233 70.6047 34.3289 71.8656C36.2345 73.1408 38.8136 72.625 40.0745 70.7193Z" stroke="white" stroke-width="3" stroke-linejoin="round"/>
<path d="M41.7646 69.4298L45.447 71.5504C47.4242 72.6966 49.9746 72.0232 51.1065 70.0316C52.2528 68.0543 51.565 65.5039 49.5878 64.372C49.5734 64.372 53.7429 66.5785 53.7429 66.5785C55.7202 67.7248 58.2706 67.0513 59.4025 65.0597C60.5487 63.0825 59.861 60.5321 57.8837 59.4002L62.0389 61.6067C64.0161 62.7529 66.5665 62.0795 67.6984 60.0879C68.8447 58.1106 68.1569 55.5602 66.1797 54.4283L70.3348 56.6348C72.3121 57.7811 74.8625 57.1077 75.9944 55.1161C77.1406 53.1388 76.4529 50.5884 74.4756 49.4565L50.4475 35.5869" stroke="white" stroke-width="3" stroke-linejoin="round"/>
<path d="M67.469 55.2442L54.2012 46.9482" stroke="white" stroke-width="3" stroke-linejoin="round"/>
<path d="M60.2765 60.8472L49.0576 53.8408" stroke="white" stroke-width="3" stroke-linejoin="round"/>
<path d="M50.8202 65.1739L44.874 61.4629" stroke="white" stroke-width="3" stroke-linejoin="round"/>
<path d="M71.9822 18.8554L65.0684 23.2295L81.2243 48.7659L88.1381 44.3918L71.9822 18.8554Z" stroke="white" stroke-width="3" stroke-linejoin="round"/>
<path d="M1.93187 42.9735L8.8457 47.3477L25.0016 21.8113L18.0878 17.4371L1.93187 42.9735Z" stroke="white" stroke-width="3" stroke-linejoin="round"/>
</g>
<defs>
<clipPath id="clip0_59_884">
<rect width="89.0776" height="58" fill="white" transform="translate(0.5 16)"/>
</clipPath>
</defs>
</svg>
