<svg width="91" height="85" viewBox="0 0 91 85" fill="none" xmlns="http://www.w3.org/2000/svg">
<path d="M15.4929 50.7891L2.65918 68.1664L15.9161 70.7252L21.8234 82.8471L34.2339 65.8919" stroke="white" stroke-width="3" stroke-linecap="round" stroke-linejoin="round"/>
<path d="M75.8196 51L88.1352 67.869L74.8783 70.4278L68.971 82.5498L56.5 65.5343" stroke="white" stroke-width="3" stroke-linecap="round" stroke-linejoin="round"/>
<path d="M74.9374 37.5638L79.2729 26.6222L69.3151 20.307L66.3701 8.91742L54.5987 9.6325L45.5045 2.1543L36.4018 9.6325L24.6303 8.91742L21.6853 20.307L11.7275 26.6222L16.063 37.5638L11.7275 48.514L21.6853 54.8291L24.6303 66.2188L36.4018 65.5037L45.5045 72.9819L54.5987 65.5037L66.3701 66.2188L69.3151 54.8291L79.2729 48.514L74.9374 37.5638Z" stroke="white" stroke-width="3" stroke-linecap="round" stroke-linejoin="round"/>
<path d="M45.5041 61.4194C58.7115 61.4194 69.4183 50.7386 69.4183 37.5632C69.4183 24.3878 58.7115 13.707 45.5041 13.707C32.2966 13.707 21.5898 24.3878 21.5898 37.5632C21.5898 50.7386 32.2966 61.4194 45.5041 61.4194Z" stroke="white" stroke-width="3" stroke-linecap="round" stroke-linejoin="round"/>
<path d="M47.6371 23.2709L50.3057 31.4728H58.9508C61.1272 31.4728 62.0253 34.247 60.2722 35.522L53.2853 40.5879L55.9539 48.7898C56.6276 50.8489 54.2612 52.572 52.4994 51.2969L45.5125 46.231L38.5257 51.2969C36.7638 52.572 34.3975 50.8575 35.0711 48.7898L37.7398 40.5879L30.7529 35.522C28.9911 34.247 29.8979 31.4728 32.0743 31.4728H40.7193L43.388 23.2709C44.0616 21.2118 46.9807 21.2118 47.6544 23.2709H47.6371Z" fill="white"/>
</svg>
