<svg width="84" height="90" viewBox="0 0 84 90" fill="none" xmlns="http://www.w3.org/2000/svg">
<g clip-path="url(#clip0_59_1035)">
<path d="M76.3604 42.4305H4.79043C3.49043 42.4305 2.44043 41.3805 2.44043 40.0805C2.44043 38.7805 3.49043 37.7305 4.79043 37.7305H76.3604C77.6604 37.7305 78.7104 38.7805 78.7104 40.0805C78.7104 41.3805 77.6604 42.4305 76.3604 42.4305Z" fill="white"/>
<path d="M40.5805 78.2104C39.2805 78.2104 38.2305 77.1604 38.2305 75.8604V4.29043C38.2305 2.99043 39.2805 1.94043 40.5805 1.94043C41.8805 1.94043 42.9305 2.99043 42.9305 4.29043V75.8604C42.9305 77.1604 41.8805 78.2104 40.5805 78.2104Z" fill="white"/>
<path d="M40.58 80.15C26.49 80.15 15.46 62.55 15.46 40.07C15.46 17.59 26.49 0 40.58 0C54.67 0 65.7 17.6 65.7 40.08C65.7 62.56 54.66 80.16 40.58 80.16V80.15ZM40.58 4.7C29.32 4.7 20.16 20.57 20.16 40.08C20.16 59.59 29.32 75.46 40.58 75.46C51.84 75.46 61 59.59 61 40.08C61 20.57 51.84 4.7 40.58 4.7Z" fill="white"/>
<path d="M40.58 80.15C18.48 80.15 0.5 62.18 0.5 40.08C0.5 17.98 18.48 0 40.58 0C62.68 0 80.66 17.98 80.66 40.08C80.66 62.18 62.68 80.16 40.58 80.16V80.15ZM40.58 4.7C21.07 4.7 5.2 20.57 5.2 40.08C5.2 59.59 21.07 75.46 40.58 75.46C60.09 75.46 75.96 59.59 75.96 40.08C75.96 20.57 60.08 4.7 40.58 4.7Z" fill="white"/>
<path d="M76.7745 76.2902C83.1645 69.9002 83.1645 59.5402 76.7745 53.1402C70.3845 46.7502 60.0145 46.7502 53.6245 53.1402C47.2345 59.5302 47.2345 69.9002 53.6245 76.2902L65.1945 87.8702L76.7745 76.2902Z" fill="#329D37"/>
<path d="M65.205 90.22C64.585 90.22 63.985 89.97 63.545 89.53L51.975 77.95C44.675 70.65 44.675 58.78 51.975 51.48C55.515 47.94 60.215 46 65.215 46C70.215 46 74.915 47.95 78.455 51.48C85.755 58.78 85.755 70.65 78.455 77.95L66.875 89.53C66.435 89.97 65.835 90.22 65.215 90.22H65.205ZM65.205 50.7C61.465 50.7 57.945 52.16 55.295 54.81C49.835 60.28 49.835 69.17 55.295 74.63L65.205 84.54L75.115 74.63C80.575 69.16 80.575 60.27 75.115 54.81C72.465 52.16 68.945 50.7 65.205 50.7Z" fill="white"/>
<path d="M65.18 72.5699C62.96 72.5699 60.87 71.6999 59.29 70.1299C56.04 66.8799 56.04 61.5999 59.29 58.3599C60.86 56.7899 62.95 55.9199 65.18 55.9199C67.41 55.9199 69.49 56.7899 71.07 58.3599C74.32 61.6099 74.32 66.8899 71.07 70.1299C69.5 71.6999 67.41 72.5699 65.18 72.5699ZM65.18 60.6199C64.21 60.6199 63.3 60.9999 62.62 61.6799C61.21 63.0899 61.21 65.3899 62.62 66.8099C63.99 68.1799 66.38 68.1799 67.75 66.8099C69.16 65.3999 69.16 63.0999 67.75 61.6799C67.07 60.9999 66.16 60.6199 65.19 60.6199H65.18Z" fill="white"/>
</g>
<defs>
<clipPath id="clip0_59_1035">
<rect width="83.39" height="89.74" fill="white" transform="translate(0.5)"/>
</clipPath>
</defs>
</svg>
