<svg width="89" height="90" viewBox="0 0 89 90" fill="none" xmlns="http://www.w3.org/2000/svg">
<g clip-path="url(#clip0_59_849)">
<path d="M36.2411 44.8836C46.7992 44.8836 55.3582 36.3246 55.3582 25.7665C55.3582 15.2084 46.7992 6.64941 36.2411 6.64941C25.683 6.64941 17.124 15.2084 17.124 25.7665C17.124 36.3246 25.683 44.8836 36.2411 44.8836Z" fill="white"/>
<path d="M78.6305 66.4944V61.6237C78.6305 59.7286 77.1012 58.1826 75.1895 58.1826" stroke="white" stroke-width="3" stroke-linejoin="round"/>
<path d="M38.2852 54.492C38.2852 56.5367 39.6649 58.1824 41.3771 58.1824H75.522C77.2342 58.1824 78.6139 56.5367 78.6139 54.492V50.2363C78.6139 48.1916 77.2342 46.5459 75.522 46.5459H61.9904" stroke="white" stroke-width="3" stroke-linejoin="round"/>
<path d="M58.6826 46.5457H75.5389C77.2511 46.5457 78.6309 44.8999 78.6309 42.8552V38.5996C78.6309 36.5549 77.2511 34.9092 75.5389 34.9092H66.9944" stroke="white" stroke-width="3" stroke-linejoin="round"/>
<path d="M66.9942 34.9099H73.8929C76.5028 34.9099 78.6307 33.2642 78.6307 31.2195V26.9639C78.6307 24.9192 76.5195 23.2734 73.8929 23.2734H60.3447" stroke="white" stroke-width="3" stroke-linejoin="round"/>
<path d="M36.2409 49.8705C49.5533 49.8705 60.3451 39.0787 60.3451 25.7663C60.3451 12.4539 49.5533 1.66211 36.2409 1.66211C22.9285 1.66211 12.1367 12.4539 12.1367 25.7663C12.1367 39.0787 22.9285 49.8705 36.2409 49.8705Z" stroke="white" stroke-width="3" stroke-linejoin="round"/>
<path d="M61.1264 71.8965L81.59 69.0539C84.3495 68.6715 86.8098 70.8824 86.6934 73.6918C86.6436 74.7225 85.9287 75.6035 84.9646 75.936L50.6037 87.9549C49.2904 88.3538 47.9106 88.4369 46.5641 88.2208L12.8515 83.1174H12.1367" stroke="white" stroke-width="3" stroke-linejoin="round"/>
<path d="M38.7337 73.1434H58.3994C59.7293 73.1434 61.0093 72.0628 61.1091 70.7329C61.3917 66.6103 58.1334 63.1692 54.0773 63.1692H43.4382C39.5317 63.1692 36.7888 62.2051 33.5306 60.5759C30.2723 58.9302 26.7648 58.0325 21.2457 58.1822C15.4275 58.3484 12.1028 62.338 10.4404 62.338" stroke="white" stroke-width="3" stroke-linejoin="round"/>
<path d="M10.4739 58.1826H2.16211V84.7803H10.4739V58.1826Z" stroke="white" stroke-width="3" stroke-linejoin="round"/>
<path d="M36.3568 37.1538C35.1599 37.1538 34.0128 36.9709 32.9323 36.5886C31.8518 36.2062 30.9042 35.6909 30.0897 35.0093C29.2917 34.3277 28.6933 33.5631 28.3276 32.682C28.1447 32.283 28.1447 31.9173 28.3276 31.5849C28.5271 31.2524 28.8595 31.0363 29.325 30.9365C29.6575 30.87 29.9899 30.9199 30.3224 31.0862C30.6549 31.269 30.9042 31.535 31.0705 31.8841C31.3032 32.3495 31.6689 32.7818 32.1842 33.1807C32.6996 33.5797 33.3146 33.8955 34.0461 34.1283C34.7775 34.3776 35.5422 34.494 36.3568 34.494C37.2544 34.494 38.0856 34.361 38.8503 34.0784C39.615 33.7958 40.23 33.3968 40.6955 32.8649C41.161 32.3329 41.3937 31.668 41.3937 30.8867C41.3937 29.8893 41.0114 29.0082 40.23 28.2269C39.4487 27.4456 38.1687 26.9469 36.39 26.764C34.0627 26.5313 32.2341 25.8497 30.9208 24.7193C29.591 23.5723 28.926 22.1593 28.926 20.4803C28.926 19.2502 29.2751 18.2029 29.9567 17.3385C30.6549 16.474 31.5858 15.8257 32.7827 15.3769C33.963 14.928 35.2928 14.6953 36.7557 14.6953C37.9027 14.6953 38.9002 14.8615 39.748 15.1774C40.5958 15.4932 41.3438 15.9421 41.9755 16.4907C42.6072 17.0392 43.1558 17.7208 43.6379 18.4855C43.9039 18.9011 44.0036 19.2834 43.9537 19.6491C43.9039 20.0149 43.721 20.2975 43.4052 20.5136C43.0561 20.7463 42.6737 20.7795 42.2581 20.6466C41.8425 20.5136 41.5433 20.2642 41.3272 19.9151C41.028 19.3665 40.6623 18.9177 40.23 18.5354C39.7978 18.153 39.2991 17.8704 38.7173 17.6543C38.1355 17.4382 37.4539 17.3385 36.6726 17.3385C35.2928 17.3218 34.1292 17.5712 33.1983 18.1031C32.2674 18.6351 31.8019 19.4497 31.8019 20.5634C31.8019 21.1286 31.9515 21.6606 32.2341 22.1759C32.5167 22.6912 33.0653 23.1401 33.83 23.5058C34.6113 23.8881 35.7251 24.1375 37.1879 24.2871C39.4155 24.5198 41.161 25.1848 42.3911 26.3318C43.6379 27.4622 44.253 28.9583 44.253 30.8036C44.253 31.8675 44.0368 32.7984 43.588 33.5797C43.1558 34.361 42.5574 35.0259 41.8259 35.5579C41.0779 36.0898 40.2467 36.4888 39.2991 36.7548C38.3516 37.0208 37.3708 37.1538 36.3568 37.1538Z" fill="#98C36C" stroke="#98C36C" stroke-width="0.5" stroke-miterlimit="10"/>
<path d="M35.4092 9.97461V16.624" stroke="#98C36C" stroke-width="2" stroke-linejoin="round"/>
<path d="M35.4092 34.9102V41.5596" stroke="#98C36C" stroke-width="2" stroke-linejoin="round"/>
</g>
<defs>
<clipPath id="clip0_59_849">
<rect width="87.8722" height="90" fill="white" transform="translate(0.5)"/>
</clipPath>
</defs>
</svg>
