<svg width="91" height="90" viewBox="0 0 91 90" fill="none" xmlns="http://www.w3.org/2000/svg">
<g id="Layer_1" clip-path="url(#clip0_59_1116)">
<g id="Group">
<path id="Vector" d="M51.7876 5.95005C51.8096 6.26592 51.6333 6.49363 51.3909 6.69197C50.4212 7.49265 49.4663 8.30069 48.4893 9.08668C48.2249 9.29971 48.1661 9.49804 48.2543 9.82125C48.5628 11.0113 48.8419 12.2013 49.1431 13.3986C49.2533 13.8541 49.1431 14.236 48.7758 14.5225C48.4526 14.7723 48.0118 14.7576 47.5931 14.5005C46.5133 13.8247 45.4261 13.1489 44.361 12.451C44.1259 12.2968 43.9717 12.3115 43.744 12.451C42.7156 13.1048 41.6725 13.7365 40.6367 14.3903C40.3429 14.5739 40.0344 14.6768 39.6891 14.596C39.1676 14.4711 38.8664 13.9496 38.9986 13.406C39.3218 12.1058 39.645 10.8129 39.9829 9.51273C40.0344 9.3144 39.9903 9.20421 39.8507 9.07933C38.9325 8.30803 38.0216 7.52938 37.0961 6.75808C36.7582 6.4716 36.4496 6.18511 36.4864 5.67826C36.5231 5.19344 36.8904 4.80411 37.3826 4.77473C38.7342 4.68658 40.0784 4.59109 41.4301 4.51028C41.6431 4.49559 41.7092 4.38541 41.7753 4.2238C42.2307 3.10725 42.6935 1.9907 43.149 0.874143C43.193 0.771303 43.2298 0.668462 43.2812 0.565622C43.4648 0.205681 43.7734 0 44.1994 0C44.6328 0 44.934 0.227718 45.0882 0.624388C45.5657 1.82909 46.0505 3.02644 46.5207 4.23849C46.6162 4.4809 46.7263 4.59843 47.0128 4.61312C48.1955 4.67189 49.3782 4.77473 50.5608 4.87023C50.7371 4.88492 50.9134 4.90695 51.0824 4.95103C51.5158 5.07591 51.7802 5.45788 51.7729 5.95005H51.7876Z" fill="white"/>
<path id="Vector_2" d="M77.5644 21.832C77.3587 22.0671 77.0722 22.1112 76.7564 22.0818C75.5076 21.9642 74.2588 21.8614 73.01 21.7218C72.6721 21.6851 72.4885 21.7806 72.3269 22.0744C71.7098 23.1322 71.0634 24.1753 70.4243 25.2258C70.1819 25.6298 69.8367 25.8208 69.3666 25.762C68.9552 25.7106 68.654 25.3874 68.5512 24.9099C68.2647 23.6685 67.9782 22.4197 67.7138 21.1782C67.655 20.9065 67.5375 20.8036 67.273 20.7449C66.083 20.4804 64.893 20.1866 63.7103 19.9148C63.3724 19.834 63.0786 19.6871 62.895 19.3932C62.6085 18.9305 62.7701 18.3501 63.2476 18.0637C64.3935 17.3732 65.5394 16.69 66.7001 16.0142C66.8764 15.9114 66.9278 15.8012 66.9131 15.6175C66.8102 14.4202 66.7074 13.2302 66.6046 12.0328C66.5678 11.5921 66.5531 11.166 66.9351 10.8428C67.3024 10.5196 67.8386 10.5122 68.2059 10.8354C69.2196 11.7243 70.2407 12.6131 71.2544 13.5093C71.416 13.6489 71.5409 13.6195 71.7025 13.546C72.8117 13.0759 73.9283 12.6131 75.0448 12.1503C75.1477 12.1063 75.2505 12.0622 75.3533 12.0255C75.7573 11.8932 76.1246 11.9593 76.4258 12.2679C76.727 12.5764 76.7858 12.9437 76.6168 13.3403C76.1099 14.5304 75.5957 15.7204 75.0742 16.9104C74.9714 17.1454 74.964 17.307 75.1623 17.5274C75.9557 18.4089 76.7196 19.3124 77.4909 20.216C77.6085 20.3482 77.7187 20.4951 77.8068 20.642C78.0272 21.0313 77.939 21.4868 77.5864 21.8394L77.5644 21.832Z" fill="white"/>
<path id="Vector_3" d="M84.5574 51.2876C84.2416 51.3096 84.0139 51.1333 83.8155 50.8909C83.0148 49.9212 82.2068 48.9663 81.4208 47.9893C81.2078 47.7249 81.0095 47.6661 80.6862 47.7543C79.4962 48.0628 78.3062 48.3419 77.1089 48.6431C76.6534 48.7533 76.2715 48.6431 75.985 48.2758C75.7352 47.9526 75.7499 47.5118 76.007 47.0931C76.6828 46.0133 77.3586 44.9261 78.0565 43.861C78.2107 43.6259 78.196 43.4717 78.0565 43.244C77.4027 42.2156 76.771 41.1725 76.1172 40.1367C75.9335 39.8429 75.8307 39.5344 75.9115 39.1891C76.0364 38.6676 76.5579 38.3664 77.1015 38.4986C78.4017 38.8218 79.6946 39.145 80.9948 39.4829C81.1931 39.5344 81.3033 39.4903 81.4282 39.3507C82.1995 38.4325 82.9781 37.5216 83.7421 36.5961C84.0285 36.2582 84.315 35.9496 84.8219 35.9864C85.3067 36.0231 85.696 36.3904 85.7254 36.8826C85.8136 38.2342 85.9091 39.5784 85.9899 40.9301C86.0046 41.1431 86.1147 41.2092 86.2763 41.2753C87.3929 41.7307 88.5095 42.1935 89.626 42.649C89.7288 42.693 89.8317 42.7298 89.9345 42.7812C90.3165 42.9722 90.5295 43.2734 90.5222 43.7067C90.5222 44.1401 90.2945 44.4413 89.8978 44.5956C88.6931 45.0804 87.4957 45.5579 86.2837 46.028C86.0413 46.1235 85.9237 46.2337 85.9091 46.5202C85.8503 47.7028 85.7475 48.8855 85.652 50.0682C85.6373 50.2445 85.6152 50.4208 85.5712 50.5897C85.4463 51.0231 85.0643 51.2876 84.5721 51.2802L84.5574 51.2876Z" fill="white"/>
<path id="Vector_4" d="M68.6689 77.0639C68.4339 76.8583 68.3898 76.5718 68.4192 76.2559C68.5367 75.0071 68.6395 73.7583 68.7791 72.5096C68.8158 72.1717 68.7203 71.988 68.4265 71.8191C67.3687 71.202 66.3256 70.5556 65.2752 69.9165C64.8712 69.6741 64.6802 69.3289 64.7389 68.8587C64.7904 68.4474 65.1136 68.1462 65.5911 68.0434C66.8325 67.7569 68.0813 67.4704 69.3227 67.2059C69.5945 67.1472 69.6973 67.0297 69.7561 66.7652C70.0205 65.5752 70.3144 64.3852 70.5862 63.2025C70.667 62.8646 70.8139 62.5708 71.1077 62.3871C71.5705 62.1007 72.1508 62.2623 72.4373 62.7397C73.1278 63.8857 73.8109 65.0316 74.4867 66.1922C74.5896 66.3685 74.6998 66.42 74.8834 66.4053C76.0808 66.3024 77.2708 66.1996 78.4681 66.0967C78.9089 66.06 79.3276 66.0453 79.6581 66.4273C79.9814 66.7946 79.9887 67.3308 79.6655 67.6981C78.7767 68.7118 77.8878 69.7329 76.9916 70.7466C76.8521 70.9082 76.8815 71.0331 76.9549 71.1947C77.425 72.3039 77.8878 73.4204 78.3506 74.537C78.3947 74.6398 78.4388 74.7427 78.4755 74.8455C78.6077 75.2495 78.5416 75.6168 78.2331 75.918C77.9246 76.2192 77.5573 76.2779 77.1606 76.109C75.9706 75.6021 74.7806 75.0879 73.5906 74.5664C73.3555 74.4635 73.1939 74.4562 72.9735 74.6545C72.092 75.4479 71.1885 76.2118 70.285 76.9831C70.1528 77.1007 70.0058 77.2109 69.8589 77.299C69.4696 77.5194 69.0142 77.4312 68.6616 77.0786L68.6689 77.0639Z" fill="white"/>
<path id="Vector_5" d="M39.2118 84.0574C39.1898 83.7416 39.3661 83.5139 39.6085 83.3155C40.5781 82.5148 41.5331 81.7068 42.5101 80.9208C42.7745 80.7078 42.8333 80.5095 42.7451 80.1862C42.4366 78.9962 42.1575 77.8062 41.8563 76.6089C41.7461 76.1534 41.8563 75.7715 42.2236 75.485C42.5468 75.2352 42.9875 75.2499 43.4062 75.507C44.4861 76.1828 45.5732 76.8586 46.6384 77.5565C46.8734 77.7107 47.0277 77.696 47.2554 77.5565C48.2838 76.9027 49.3269 76.271 50.3627 75.6172C50.6565 75.4335 50.965 75.3307 51.3103 75.4115C51.8318 75.5364 52.133 76.0579 52.0008 76.6015C51.6775 77.9017 51.3543 79.1946 51.0164 80.4948C50.965 80.6931 51.0091 80.8033 51.1486 80.9282C52.0669 81.6995 52.9777 82.4781 53.9033 83.2494C54.2412 83.5359 54.5497 83.8224 54.513 84.3292C54.4763 84.8141 54.109 85.2034 53.6168 85.2328C52.2652 85.3209 50.9209 85.4164 49.5693 85.4972C49.3563 85.5119 49.2902 85.6221 49.2241 85.7837C48.7686 86.9002 48.3058 88.0168 47.8504 89.1333C47.8063 89.2362 47.7696 89.339 47.7182 89.4419C47.5272 89.8238 47.226 90.0369 46.7926 90.0295C46.3592 90.0295 46.0581 89.8018 45.9038 89.4051C45.4263 88.2004 44.9415 87.0031 44.4714 85.791C44.3759 85.5486 44.2657 85.4311 43.9792 85.4164C42.7965 85.3576 41.6139 85.2548 40.4312 85.1593C40.2549 85.1446 40.0786 85.1226 39.9097 85.0785C39.4763 84.9536 39.2118 84.5716 39.2192 84.0795L39.2118 84.0574Z" fill="white"/>
<path id="Vector_6" d="M13.4431 68.1689C13.6488 67.9339 13.9353 67.8898 14.2511 67.9192C15.4999 68.0367 16.7487 68.1395 17.9975 68.2791C18.3354 68.3158 18.519 68.2203 18.688 67.9265C19.305 66.8687 19.9514 65.8256 20.5905 64.7752C20.8329 64.3712 21.1782 64.1802 21.6483 64.2389C22.0597 64.2904 22.3608 64.6136 22.4637 65.0911C22.7502 66.3325 23.0366 67.5813 23.3011 68.8227C23.3598 69.0945 23.4774 69.1973 23.7418 69.2561C24.9318 69.5205 26.1218 69.8144 27.3045 70.0862C27.6424 70.167 27.9362 70.3139 28.1199 70.6077C28.4064 71.0705 28.2448 71.6508 27.7673 71.9373C26.6214 72.6278 25.4754 73.3109 24.3148 73.9867C24.1385 74.0896 24.0871 74.1998 24.1018 74.3834C24.2046 75.5808 24.3074 76.7708 24.4103 77.9681C24.447 78.4089 24.4617 78.8349 24.0797 79.1581C23.7124 79.4814 23.1762 79.4887 22.8089 79.1655C21.7952 78.2767 20.7741 77.3878 19.7604 76.4916C19.5988 76.3521 19.474 76.3815 19.3123 76.4549C18.2031 76.925 17.0866 77.3878 15.97 77.8506C15.8672 77.8947 15.7644 77.9388 15.6615 77.9755C15.2575 78.1077 14.8902 78.0416 14.589 77.7331C14.2879 77.4246 14.2291 77.0573 14.398 76.6606C14.9049 75.4706 15.4191 74.2806 15.9407 73.0906C16.0435 72.8555 16.0508 72.6939 15.8525 72.4735C15.0592 71.592 14.2952 70.6885 13.5239 69.785C13.4064 69.6528 13.2962 69.5058 13.208 69.3589C12.9877 68.9696 13.0758 68.5142 13.4284 68.1616L13.4431 68.1689Z" fill="white"/>
<path id="Vector_7" d="M6.45005 38.7118C6.76592 38.6898 6.99363 38.8661 7.19197 39.1085C7.99265 40.0781 8.80069 41.0331 9.58668 42.0101C9.79971 42.2745 9.99804 42.3333 10.3213 42.2451C11.5113 41.9366 12.7013 41.6575 13.8986 41.3563C14.3541 41.2461 14.736 41.3563 15.0225 41.7236C15.2723 42.0468 15.2576 42.4875 15.0005 42.9062C14.3247 43.9861 13.6489 45.0732 12.951 46.1384C12.7968 46.3734 12.8115 46.5277 12.951 46.7554C13.6048 47.7838 14.2365 48.8269 14.8903 49.8627C15.0739 50.1565 15.1768 50.465 15.096 50.8103C14.9711 51.3318 14.4496 51.633 13.906 51.5008C12.6058 51.1775 11.3129 50.8543 10.0127 50.5164C9.8144 50.465 9.70421 50.5091 9.57933 50.6486C8.80803 51.5669 8.02938 52.4777 7.26543 53.4033C6.97894 53.7412 6.69246 54.0497 6.1856 54.013C5.70078 53.9763 5.31146 53.609 5.28208 53.1168C5.19393 51.7652 5.09843 50.4209 5.01763 49.0693C5.00294 48.8563 4.89275 48.7902 4.73115 48.7241C3.61459 48.2686 2.49804 47.8058 1.38149 47.3504C1.27865 47.3063 1.17581 47.2696 1.07297 47.2182C0.705681 47.0345 0.5 46.7334 0.5 46.3C0.5 45.8666 0.727718 45.5654 1.12439 45.4111C2.32909 44.9263 3.52644 44.4488 4.73849 43.9787C4.9809 43.8832 5.09843 43.773 5.11312 43.4866C5.17189 42.3039 5.27473 41.1212 5.37023 39.9386C5.38492 39.7623 5.40695 39.586 5.45103 39.417C5.57591 38.9836 5.95788 38.7192 6.45005 38.7265V38.7118Z" fill="white"/>
<path id="Vector_8" d="M22.332 12.9431C22.5671 13.1488 22.6112 13.4353 22.5818 13.7511C22.4642 14.9999 22.3614 16.2487 22.2218 17.4975C22.1851 17.8354 22.2806 18.019 22.5744 18.188C23.6322 18.805 24.6753 19.4514 25.7258 20.0905C26.1298 20.3329 26.3208 20.6782 26.262 21.1483C26.2106 21.5597 25.8874 21.8608 25.4099 21.9637C24.1685 22.2502 22.9197 22.5366 21.6782 22.8011C21.4065 22.8598 21.3036 22.9774 21.2449 23.2418C20.9804 24.4318 20.6866 25.6218 20.4148 26.8045C20.334 27.1424 20.1871 27.4362 19.8932 27.6199C19.4305 27.9064 18.8501 27.7448 18.5637 27.2673C17.8732 26.1214 17.19 24.9754 16.5142 23.8148C16.4114 23.6385 16.3012 23.5871 16.1175 23.6018C14.9202 23.7046 13.7302 23.8074 12.5328 23.9103C12.0921 23.947 11.6734 23.9617 11.3428 23.5797C11.0196 23.2124 11.0122 22.6762 11.3354 22.3089C12.2243 21.2952 13.1131 20.2741 14.0093 19.2604C14.1489 19.0988 14.1195 18.974 14.046 18.8123C13.5759 17.7031 13.1131 16.5866 12.6503 15.47C12.6063 15.3672 12.5622 15.2644 12.5255 15.1615C12.3932 14.7575 12.4593 14.3902 12.7679 14.089C13.0764 13.7879 13.4437 13.7291 13.8403 13.898C15.0304 14.4049 16.2204 14.9191 17.4104 15.4407C17.6454 15.5435 17.807 15.5508 18.0274 15.3525C18.9089 14.5592 19.8124 13.7952 20.716 13.0239C20.8482 12.9064 20.9951 12.7962 21.142 12.708C21.5313 12.4877 21.9868 12.5758 22.3394 12.9284L22.332 12.9431Z" fill="white"/>
</g>
<g id="Group_2">
<path id="Vector_9" d="M65.1352 35.9652L64.9662 35.8477C64.9075 35.7962 64.8781 35.7816 64.856 35.7595L64.7458 35.6934C64.7458 35.6934 64.6944 35.6567 64.665 35.642L64.4447 35.5391C64.3492 35.4951 64.2463 35.451 64.1215 35.4143C62.3658 34.856 60.4559 35.0837 58.6562 35.2747C58.6122 35.2747 58.5314 35.2747 58.4212 35.2894C58.2669 35.2894 58.0539 35.2894 57.7968 35.3114C57.6939 35.3114 57.5838 35.3114 57.4589 35.3114C57.3707 35.3114 57.2826 35.3114 57.1871 35.3114C56.8124 35.3114 56.4011 35.3335 56.0118 35.3555C55.9236 35.3555 55.8355 35.3555 55.7547 35.3702C55.6886 35.3702 55.6371 35.3702 55.5784 35.3849C55.4608 35.3849 55.3433 35.3996 55.2405 35.4069C54.998 35.429 54.785 35.4583 54.6234 35.4877C54.5647 35.4877 54.5132 35.5098 54.4692 35.5171C54.4692 35.5171 54.4643 35.5171 54.4545 35.5171C54.4545 35.5171 54.4398 35.5171 54.4251 35.5171C54.3737 35.5171 54.3296 35.4657 54.3296 35.4143C54.3296 35.4143 54.3296 35.3922 54.3296 35.3849L54.8658 33.5852C55.189 32.5054 55.5123 31.3961 55.8575 30.3163C56.357 28.7443 56.5113 27.4882 56.3644 26.2394C56.1881 24.6748 55.2772 23.2424 53.9476 22.405C53.1837 21.9275 52.3315 21.6777 51.4794 21.6777C51.406 21.6777 51.3472 21.6777 51.2738 21.6777C50.451 21.7145 49.9515 22.1846 49.8707 22.9926C49.7605 24.0431 49.6504 24.998 49.5181 25.8942C49.261 27.4882 48.835 28.8104 48.1886 29.949C47.8286 30.5955 47.4099 31.1758 46.8957 31.712C46.2199 32.4319 45.4853 33.2179 44.692 34.1214L42.8776 36.2003C42.4515 36.6851 42.0181 37.1626 41.548 37.6106C41.4599 37.7061 41.3423 37.809 41.2028 37.9412C40.8869 38.213 40.5416 38.4407 40.1523 38.617C39.9319 38.7198 39.6455 38.8007 39.2414 38.9182C37.7062 39.3442 36.8173 39.7776 36.7586 40.7105C36.7219 41.2247 36.6998 41.6655 36.6851 42.0769V42.3707C36.6704 42.7674 36.6631 43.1493 36.6631 43.5387V57.8702H39.0578L39.1753 57.8849C40.0054 58.0098 40.8648 58.1567 41.9667 58.3477L42.4515 58.4285C44.6112 58.7884 46.6019 59.1263 48.5926 59.354C53.4848 59.927 59.4202 61.3594 62.9829 56.9152C64.4373 55.1009 64.5842 52.5298 64.9148 50.3188C65.4657 46.69 66.0754 43.0685 66.5823 39.4397C66.7659 38.1616 66.1856 36.7585 65.1278 35.9579L65.1352 35.9652Z" stroke="white" stroke-width="3" stroke-miterlimit="10"/>
<path id="Vector_10" d="M32.4244 37.0596H25.9235C25.0715 37.0596 24.3809 37.7502 24.3809 38.6022V57.9362C24.3809 58.7881 25.0715 59.4788 25.9235 59.4788H32.4244C33.2764 59.4788 33.9671 58.7881 33.9671 57.9362V38.6022C33.9671 37.7502 33.2764 37.0596 32.4244 37.0596Z" stroke="white" stroke-width="3" stroke-miterlimit="10"/>
</g>
</g>
<defs>
<clipPath id="clip0_59_1116">
<rect width="90" height="90" fill="white" transform="translate(0.5)"/>
</clipPath>
</defs>
</svg>
