<?xml version="1.0" encoding="UTF-8"?>
<svg xmlns="http://www.w3.org/2000/svg" width="1042.5" height="1042.5" version="1.1" viewBox="0 0 1042.5 1042.5">
  <defs>
    <style>
      .cls-1 {
        fill: #fff;
      }

      .cls-2 {
        opacity: .3;
      }

      .cls-3 {
        fill: #19883b;
      }
    </style>
  </defs>
  <!-- Generator: Adobe Illustrator 28.7.3, SVG Export Plug-In . SVG Version: 1.2.0 Build 164)  -->
  <g>
    <g id="_레이어_1" data-name="레이어_1">
      <path class="cls-2" d="M498.6,21.1h516.9v527.3c0,261.3-212.1,473.4-473.4,473.4H25.2V494.5C25.2,233.2,237.3,21.1,498.6,21.1Z"/>
      <g id="_레이어_1-2" data-name="_레이어_1">
        <path class="cls-3" d="M579.8,1042.5H0V462.7c0-62.4,12.2-123,36.4-180.1,23.3-55.1,56.7-104.6,99.2-147.1s92-75.8,147.1-99.2C339.7,12.2,400.3,0,462.7,0h579.8v579.8c0,62.5-12.2,123.1-36.4,180.1-23.3,55.1-56.7,104.6-99.2,147.1s-92,75.9-147.1,99.2c-57.1,24.1-117.7,36.4-180.1,36.4h.1ZM51,991.5h528.8c227,0,411.7-184.7,411.7-411.7V51H462.7c-227,0-411.7,184.7-411.7,411.7v528.8Z"/>
        <g>
          <polygon class="cls-1" points="315.7 516.3 315.7 504.2 264.5 504.2 264.5 584.2 278.9 584.2 278.9 550.2 312.2 550.2 312.2 538.2 278.9 538.2 278.9 516.3 315.7 516.3"/>
          <path class="cls-1" d="M373.2,551.8c4.3-2.1,7.5-5,9.7-8.7,2.2-3.8,3.3-8.2,3.3-13.3s-1.1-9.6-3.2-13.5-5.3-6.8-9.6-8.9c-4.2-2.1-9.4-3.1-15.4-3.1h-29.9v80h14.4v-29.3h14.9l15.7,29.3h16.1l-17.3-31.7c.5-.2,1-.4,1.5-.7h-.2ZM342.3,516.2h13.4c3.6,0,6.6.5,8.9,1.6,2.3,1,4,2.6,5.2,4.6,1.1,2,1.7,4.5,1.7,7.4s-.6,5.3-1.7,7.2-2.8,3.4-5.1,4.4c-2.3,1-5.2,1.5-8.9,1.5h-13.4v-26.6h-.1Z"/>
          <rect class="cls-1" x="398.6" y="504.2" width="14.4" height="80"/>
          <polygon class="cls-1" points="479.8 516.3 479.8 504.2 427.8 504.2 427.8 584.2 480 584.2 480 572.1 442.2 572.1 442.2 550.2 477.1 550.2 477.1 538.2 442.2 538.2 442.2 516.3 479.8 516.3"/>
          <polygon class="cls-1" points="508 529.6 508.7 529.6 546.5 584.2 559.3 584.2 559.3 504.2 545 504.2 545 558.9 544.3 558.9 506.5 504.2 493.6 504.2 493.6 584.2 508 584.2 508 529.6"/>
          <path class="cls-1" d="M622.1,579.4c5.8-3.2,10.3-7.8,13.3-13.8,3.1-6,4.6-13.1,4.6-21.4s-1.5-15.4-4.6-21.4-7.5-10.6-13.2-13.8-12.6-4.8-20.5-4.8h-27.6v80h27.1c8.1,0,15-1.6,20.8-4.8h.1ZM588.6,571.7v-55h12.4c5.5,0,10.1,1,13.7,3,3.7,2,6.4,5.1,8.3,9.1,1.8,4.1,2.8,9.2,2.8,15.3s-.9,11.2-2.8,15.3c-1.9,4.1-4.7,7.1-8.4,9.2-3.7,2.1-8.4,3.1-14,3.1h-12Z"/>
          <polygon class="cls-1" points="652.9 504.2 652.9 584.2 702.6 584.2 702.6 572.1 667.3 572.1 667.3 504.2 652.9 504.2"/>
          <polygon class="cls-1" points="737.3 539.6 736.5 539.6 716.9 504.2 700.7 504.2 729.7 554.2 729.7 584.2 744.1 584.2 744.1 554.2 773.2 504.2 756.9 504.2 737.3 539.6"/>
          <polygon class="cls-1" points="371.3 438.2 291.7 438.2 291.7 392 365.1 392 365.1 366.8 291.7 366.8 291.7 320.8 370.8 320.8 370.8 295.3 261.5 295.3 261.5 463.6 371.3 463.6 371.3 438.2"/>
          <path class="cls-1" d="M477.1,327.1c7.1-4.6,15.2-6.9,24.5-6.9s13.1,1.3,18.8,3.8,10.4,6.2,14.2,11,6.2,10.5,7.3,17.1h30.6c-1.8-12.2-5.9-22.8-12.4-31.7-6.5-8.9-14.8-15.7-25-20.3-10.2-4.7-21.5-7-33.9-7s-28,3.4-39.6,10.3-20.7,16.9-27.4,29.9c-6.7,13-10,28.4-10,46.3s3.3,33,9.9,46.1,15.7,23.1,27.4,30c11.7,6.9,24.9,10.4,39.7,10.4s24.5-2.6,34.8-7.7,18.5-12.1,24.8-20.9,10.2-18.6,11.7-29.4h-30.6c-1.3,6.3-3.9,11.9-7.7,16.5s-8.5,8.2-14.1,10.6-11.7,3.7-18.5,3.7-17.3-2.3-24.3-6.9c-7.1-4.6-12.6-11.3-16.6-20.2-4-8.9-6-19.6-6-32.3s2-23.2,6-32.1,9.5-15.7,16.6-20.3h-.2Z"/>
          <path class="cls-1" d="M660.1,455.5c11.7,6.9,24.9,10.4,39.7,10.4s28-3.5,39.7-10.4,20.9-16.9,27.5-30,9.9-28.4,9.9-46.1-3.3-33.2-9.9-46.3c-6.6-13-15.8-23-27.5-29.9s-25-10.3-39.7-10.3-28,3.4-39.7,10.3-20.8,16.9-27.5,29.9-10,28.4-10,46.3,3.3,32.9,10,46,15.8,23.1,27.5,30h0ZM658.8,347.3c3.9-8.9,9.4-15.7,16.5-20.2,7.1-4.6,15.2-6.9,24.5-6.9s17.6,2.3,24.6,6.9,12.5,11.3,16.4,20.2c3.9,8.9,5.9,19.6,5.9,32.2s-2,23.3-5.9,32.2c-3.9,8.9-9.4,15.7-16.4,20.2-7,4.6-15.2,6.9-24.6,6.9s-17.4-2.3-24.5-6.9-12.6-11.3-16.5-20.2c-3.9-8.9-5.9-19.6-5.9-32.2s2-23.3,5.9-32.2Z"/>
          <polygon class="cls-1" points="264.4 774.4 292.1 774.4 292.1 708.7 356.4 708.7 356.4 685.6 292.1 685.6 292.1 643.4 363.2 643.4 363.2 620 264.4 620 264.4 774.4"/>
          <rect class="cls-1" x="399.9" y="620" width="27.7" height="154.4"/>
          <polygon class="cls-1" points="497.2 620 469.4 620 469.4 774.4 565.4 774.4 565.4 751 497.2 751 497.2 620"/>
          <polygon class="cls-1" points="682.5 732.2 680.7 732.2 634.8 620 600.8 620 600.8 774.4 627.5 774.4 627.5 667.9 628.8 667.9 671.7 773.9 691.6 773.9 734.3 668.1 735.8 668.1 735.8 774.4 762.5 774.4 762.5 620 728.5 620 682.5 732.2"/>
        </g>
      </g>
    </g>
  </g>
</svg>