<svg width="118" height="128" viewBox="0 0 118 128" fill="none" xmlns="http://www.w3.org/2000/svg">
<path d="M118 14.4072C118 13.9495 117.854 13.5127 117.542 13.2006L105.538 0.530988C104.894 -0.155542 103.833 -0.176346 103.146 0.468576L98.6523 4.73339L95.4485 1.34234C94.8036 0.655812 93.7426 0.635008 93.0561 1.27993L38.8202 52.6657C38.4873 52.9777 38.3001 53.3938 38.3001 53.8515C38.3001 54.3092 38.4457 54.7461 38.7578 55.0581L42.4609 58.9693L34.8674 66.1674C34.5346 66.4795 34.3473 66.8956 34.3473 67.3533C34.3473 67.811 34.4929 68.2478 34.805 68.5599L36.5525 70.4115L30.2906 76.3406C29.604 76.9855 29.5832 78.0465 30.2281 78.733L35.4083 84.2045C35.7204 84.5373 36.1365 84.7246 36.5941 84.7246C36.5941 84.7246 36.615 84.7246 36.6358 84.7246C37.0726 84.7246 37.4887 84.5581 37.8008 84.2669L44.0628 78.3378L45.8103 80.1893C46.1224 80.5222 46.5384 80.7094 46.9961 80.7094C46.9961 80.7094 47.0169 80.7094 47.0377 80.7094C47.4746 80.7094 47.8907 80.543 48.2028 80.2517L55.7962 73.0536L59.4993 76.9647C59.8322 77.3184 60.2898 77.4848 60.7267 77.4848C61.1428 77.4848 61.5589 77.3392 61.8918 77.0271L68.8819 70.4115C71.524 72.5751 74.8526 73.9481 78.4725 74.1562C83.2158 88.3861 74.4157 101.825 68.2578 108.982H10.2355C4.59767 108.982 0 113.58 0 119.218V125.75C0 126.686 0.748942 127.435 1.68512 127.435H107.764C108.701 127.435 109.45 126.686 109.45 125.75V119.218C109.45 114.079 105.642 109.814 100.691 109.086C107.244 99.9323 112.965 83.4347 95.7398 61.4658C96.0726 60.1551 96.2391 58.8029 96.2391 57.409C96.2391 53.7059 95.0324 50.294 93.0145 47.5271L116.107 25.6414C116.44 25.3293 116.627 24.9132 116.627 24.4555C116.627 23.9978 116.481 23.561 116.169 23.2489L112.965 19.8579L117.459 15.593C117.792 15.281 117.979 14.8649 117.979 14.4072H118ZM36.6982 80.647L33.848 77.6304L38.8826 72.8663L41.7327 75.8829L36.6982 80.647ZM47.1001 76.6318L45.3526 74.7803L40.1724 69.3088L38.4249 67.4573L44.7909 61.4241L53.487 70.5987L47.1209 76.6318H47.1001ZM92.8688 57.409C92.8688 64.7944 86.8565 70.8067 79.4711 70.8067C72.0857 70.8067 66.0733 64.7944 66.0733 57.409C66.0733 50.0236 72.0857 44.0112 79.4711 44.0112C86.8565 44.0112 92.8688 50.0236 92.8688 57.409ZM106.079 119.238V124.086H3.39104V119.238C3.39104 115.452 6.47003 112.394 10.2355 112.394H99.214C103 112.394 106.059 115.473 106.059 119.238H106.079ZM96.5303 109.003H72.6266C78.8886 101.056 86.17 88.0532 81.9676 74.0105C87.335 73.1992 91.891 69.8497 94.3251 65.2105C109.845 86.2225 102.73 101.389 96.5095 109.003H96.5303ZM90.7676 45.0098C87.7927 42.3053 83.8191 40.641 79.4919 40.641C70.2341 40.641 62.7031 48.172 62.7031 57.4298C62.7031 61.445 64.1178 65.1273 66.4894 68.019L60.7891 73.4072L57.1068 69.5169L46.1016 57.8875L42.3984 53.9763L94.1379 4.89982L109.346 20.9397L112.549 24.3307L90.7468 44.989L90.7676 45.0098ZM110.635 17.403L100.962 7.20906L104.228 4.10927L113.902 14.3032L110.635 17.403Z" fill="white"/>
<path d="M79.4711 50.543C75.6848 50.543 72.585 53.622 72.585 57.4291C72.585 61.2362 75.6639 64.3152 79.4711 64.3152C83.2782 64.3152 86.3572 61.2362 86.3572 57.4291C86.3572 53.622 83.2782 50.543 79.4711 50.543ZM79.4711 60.9033C77.5363 60.9033 75.976 59.343 75.976 57.4083C75.976 55.4735 77.5363 53.9132 79.4711 53.9132C81.4058 53.9132 82.9661 55.4735 82.9661 57.4083C82.9661 59.343 81.4058 60.9033 79.4711 60.9033Z" fill="white"/>
<path d="M14.8961 105.3H45.0618C45.998 105.3 46.7469 104.551 46.7469 103.615C46.7469 102.679 45.998 101.93 45.0618 101.93H14.8961C13.9599 101.93 13.2109 102.679 13.2109 103.615C13.2109 104.551 13.9599 105.3 14.8961 105.3Z" fill="white"/>
</svg>
