<svg width="115" height="112" viewBox="0 0 115 112" fill="none" xmlns="http://www.w3.org/2000/svg">
<g clip-path="url(#clip0_59_2027)">
<path d="M112.96 91.0574H95.0559V11.484C95.0559 5.15735 89.9138 0 83.6059 0H11.5125C5.16291 0 0 5.17823 0 11.5466V17.5392C0 18.4787 0.770274 19.2513 1.70709 19.2513H14.4895C15.4263 19.2513 16.1966 18.4787 16.1966 17.5392C16.1966 16.5996 15.4263 15.827 14.4895 15.827H3.41419V11.5466C3.41419 7.0783 7.05737 3.42431 11.5125 3.42431C15.9676 3.42431 19.6107 7.0783 19.6107 11.5466V100.641C19.6107 106.905 24.6904 112 30.9358 112H103.571C103.571 112 103.675 112 103.716 112C109.795 111.708 114.646 106.655 114.646 100.474V92.7696C114.646 91.83 113.876 91.0574 112.939 91.0574H112.96ZM83.6059 3.42431C88.0402 3.42431 91.6417 7.03654 91.6417 11.484V91.0574H40.9286C39.9918 91.0574 39.2215 91.83 39.2215 92.7696V100.474C39.2215 104.963 35.5783 108.597 31.1232 108.597C26.6681 108.597 23.0249 104.943 23.0249 100.474V11.5466C23.0249 8.37286 21.755 5.5123 19.694 3.42431H83.6267H83.6059ZM111.252 100.453C111.252 104.943 107.609 108.576 103.154 108.576H39.284C41.345 106.488 42.6149 103.627 42.6149 100.453V94.4609H111.232V100.453H111.252Z" fill="white"/>
<path d="M57.9782 59.1112C67.0966 59.1112 74.5287 51.678 74.5287 42.5117C74.5287 33.3454 67.1174 25.9121 57.9782 25.9121C48.839 25.9121 41.4277 33.3454 41.4277 42.5117C41.4277 51.678 48.839 59.1112 57.9782 59.1112ZM57.9782 29.3573C65.2229 29.3573 71.1145 35.2663 71.1145 42.5325C71.1145 49.7988 65.2229 55.7078 57.9782 55.7078C50.7335 55.7078 44.8419 49.7988 44.8419 42.5325C44.8419 35.2663 50.7335 29.3573 57.9782 29.3573Z" fill="white"/>
<path d="M33.3919 77.3806L41.9482 75.9399L45.175 84.2083C45.404 84.8139 45.9869 85.2314 46.6323 85.2941C46.6739 85.2941 46.7155 85.2941 46.7572 85.2941C47.3609 85.2941 47.923 84.9809 48.2353 84.438L57.9782 67.5253L67.7211 84.438C68.0334 84.96 68.5955 85.2941 69.1992 85.2941C69.2408 85.2941 69.2825 85.2941 69.3241 85.2941C69.9695 85.2523 70.5524 84.8139 70.7814 84.2083L74.0082 75.9399L82.5645 77.3806C83.2099 77.485 83.876 77.2136 84.2508 76.6707C84.6255 76.1278 84.6463 75.4179 84.334 74.8332L75.6737 59.7997C76.7562 59.2568 77.8179 58.5678 78.5882 57.5029C79.7124 55.9578 79.8789 54.0786 80.0455 52.4082C80.1288 51.4477 80.2328 50.5499 80.4618 49.8191C80.6908 49.13 81.128 48.3784 81.6068 47.5849C82.4604 46.1233 83.4389 44.4738 83.4389 42.4902C83.4389 40.5066 82.4604 38.8571 81.6068 37.3955C81.128 36.6021 80.6908 35.8504 80.4618 35.1613C80.212 34.4305 80.1288 33.5118 80.0455 32.5722C79.8789 30.9018 79.6916 29.0226 78.5882 27.4775C77.464 25.9324 75.7153 25.1599 74.1956 24.4917C73.3212 24.1159 72.5093 23.7609 71.8847 23.3015C71.281 22.8631 70.6981 22.1949 70.0736 21.485C68.9702 20.2113 67.7003 18.7706 65.8475 18.186C64.0779 17.6013 62.2459 18.0189 60.6221 18.3739C59.6645 18.5827 58.7693 18.7706 57.9782 18.7706C57.1871 18.7706 56.2711 18.5827 55.3343 18.3739C53.7105 18.0189 51.8785 17.6222 50.1089 18.186C48.2561 18.7915 47.007 20.2322 45.8828 21.485C45.2583 22.1949 44.6754 22.8631 44.0716 23.3015C43.4471 23.74 42.6352 24.1159 41.7608 24.4917C40.2203 25.1599 38.4924 25.9115 37.3682 27.4775C36.244 29.0226 36.0774 30.9018 35.9109 32.5722C35.8276 33.5327 35.7235 34.4305 35.4945 35.1613C35.2655 35.8504 34.8283 36.6021 34.3495 37.3955C33.496 38.8571 32.5175 40.5066 32.5175 42.4902C32.5175 44.4738 33.496 46.1233 34.3495 47.5849C34.8283 48.3784 35.2655 49.13 35.4945 49.8191C35.7443 50.5499 35.8276 51.4686 35.9109 52.4082C36.0774 54.0786 36.2648 55.9578 37.3682 57.5029C38.1384 58.5678 39.2002 59.2568 40.2827 59.7997L31.6223 74.8332C31.2893 75.397 31.3309 76.1278 31.7056 76.6707C32.0803 77.2136 32.7257 77.485 33.3919 77.3806ZM73.1755 72.3485C72.3844 72.2232 71.5933 72.6617 71.3018 73.4134L68.8661 79.6565L61.4548 66.7945C62.2251 66.9615 63.037 67.0868 63.8697 67.0868C64.5151 67.0868 65.1605 67.0033 65.8058 66.7945C67.6587 66.1889 68.9077 64.7482 70.0319 63.4954C70.6565 62.7855 71.2394 62.1174 71.8431 61.6789C72.0513 61.5327 72.2803 61.3866 72.5301 61.2613L79.525 73.4134L73.1755 72.3485ZM39.3043 52.1159C39.2002 51.0301 39.0961 49.9026 38.7422 48.7959C38.4091 47.752 37.847 46.7915 37.3057 45.8728C36.5979 44.6826 35.9317 43.5551 35.9317 42.532C35.9317 41.5089 36.5979 40.3813 37.3057 39.1912C37.847 38.2725 38.4091 37.312 38.7422 36.268C39.0961 35.1822 39.2002 34.0547 39.3043 32.9481C39.4292 31.5909 39.5541 30.3172 40.137 29.5446C40.7199 28.7512 41.8857 28.2292 43.1348 27.6863C44.1341 27.2478 45.175 26.8094 46.091 26.1203C46.9862 25.4522 47.7356 24.617 48.4435 23.8027C49.3386 22.7795 50.1922 21.7982 51.1498 21.485C52.045 21.1927 53.2733 21.485 54.5848 21.7564C55.6674 21.9861 56.7916 22.2367 57.9574 22.2367C59.1232 22.2367 60.2474 21.9861 61.3299 21.7564C62.6415 21.4641 63.8697 21.1927 64.7649 21.485C65.7226 21.7982 66.5761 22.7587 67.4713 23.8027C68.1791 24.617 68.9286 25.4522 69.8237 26.1203C70.7397 26.7885 71.7807 27.2478 72.7799 27.6863C74.029 28.2292 75.1948 28.7512 75.7778 29.5446C76.3398 30.3381 76.4648 31.6118 76.6105 32.9481C76.7146 34.0338 76.8187 35.1613 77.1726 36.268C77.5057 37.312 78.0677 38.2725 78.609 39.1912C79.3168 40.3813 79.983 41.5089 79.983 42.532C79.983 43.5551 79.3168 44.6826 78.609 45.8728C78.0677 46.7915 77.5057 47.752 77.1726 48.7959C76.8187 49.8817 76.7146 51.0092 76.6105 52.1159C76.4856 53.4731 76.3607 54.7467 75.7778 55.5193C75.1948 56.3127 74.029 56.8347 72.7799 57.3776C71.7807 57.8161 70.7397 58.2546 69.8237 58.9436C68.9286 59.6118 68.1791 60.447 67.4713 61.2613C66.5761 62.2844 65.7226 63.2658 64.7649 63.5789C63.8697 63.8713 62.6415 63.5789 61.3299 63.3075C60.4972 63.1196 59.6436 62.9317 58.7693 62.869C58.5195 62.7646 58.228 62.7229 57.9574 62.7437C57.6867 62.7229 57.3953 62.7438 57.1455 62.869C56.2711 62.9525 55.4175 63.1405 54.5848 63.3075C53.2733 63.5998 52.045 63.8713 51.1498 63.5789C50.1922 63.2658 49.3386 62.3053 48.4435 61.2613C47.7356 60.447 46.9862 59.6118 46.091 58.9436C45.175 58.2754 44.1341 57.8161 43.1348 57.3776C41.8857 56.8347 40.7199 56.3127 40.137 55.5193C39.5749 54.7259 39.45 53.4522 39.3043 52.1159ZM43.3846 61.2613C43.6344 61.3866 43.8634 61.5327 44.0716 61.6789C44.6754 62.1174 45.2583 62.7855 45.8828 63.4954C46.9862 64.7691 48.2561 66.1889 50.1089 66.7945C51.5662 67.2747 53.0651 67.0868 54.4599 66.7945L47.0486 79.6565L44.6129 73.4134C44.3214 72.6617 43.5304 72.2232 42.7393 72.3485L36.3897 73.4134L43.3846 61.2613Z" fill="white"/>
</g>
<defs>
<clipPath id="clip0_59_2027">
<rect width="114.667" height="112" fill="white"/>
</clipPath>
</defs>
</svg>
