<svg width="115" height="108" viewBox="0 0 115 108" fill="none" xmlns="http://www.w3.org/2000/svg">
<g clip-path="url(#clip0_59_2031)">
<path d="M78.1942 59.1444C79.2894 66.989 84.7658 72.7614 91.2783 72.7614C97.7908 72.7614 103.282 66.9742 104.363 59.1444C105.591 58.9668 106.523 57.9011 106.523 56.6282C106.523 54.8965 105.621 53.298 104.185 52.3951C102.749 45.0833 97.3912 39.8438 91.2783 39.8438C85.1655 39.8438 79.7927 45.0833 78.3718 52.3951C76.9361 53.298 76.0332 54.8965 76.0332 56.6282C76.0332 57.9011 76.9657 58.952 78.1942 59.1444ZM91.2783 70.3488C86.0831 70.3488 81.6724 65.6273 80.6363 59.174H101.92C100.884 65.6273 96.4735 70.3488 91.2783 70.3488ZM79.9555 54.2748C80.3255 54.112 80.5771 53.7716 80.6363 53.372C81.2136 49.8641 82.8121 46.8743 84.9583 44.8909L85.6391 47.8215C85.7723 48.384 86.2608 48.754 86.8084 48.754C86.8972 48.754 86.986 48.754 87.0896 48.7244C87.7409 48.5764 88.1405 47.9251 87.9925 47.2739L87.0748 43.3664C88.3773 42.656 89.7834 42.2711 91.2635 42.2711C92.7436 42.2711 94.1497 42.656 95.4522 43.3664L94.5346 47.2739C94.3866 47.9251 94.7862 48.5764 95.4374 48.7244C95.5263 48.7392 95.6299 48.754 95.7187 48.754C96.2663 48.754 96.7695 48.384 96.8879 47.8215L97.5688 44.8909C99.7298 46.8743 101.313 49.8641 101.891 53.372C101.95 53.7716 102.216 54.112 102.572 54.2748C103.489 54.7041 104.081 55.6217 104.081 56.6282C104.081 56.7022 104.022 56.7614 103.948 56.7614H78.5346C78.5346 56.7614 78.4014 56.7022 78.4014 56.6282C78.4014 55.6217 78.9934 54.6892 79.9111 54.2748H79.9555Z" fill="white"/>
<path d="M98.7681 75.4863H83.7894C80.1335 75.4863 76.6109 76.7148 73.7543 78.9646C70.9865 76.7888 67.5082 75.4863 63.7339 75.4863H48.7552C39.8153 75.4863 32.5332 82.7685 32.5332 91.7083V106.687C32.5332 107.353 33.0808 107.901 33.7469 107.901C34.4129 107.901 34.9606 107.353 34.9606 106.687V91.7083C34.9606 84.1006 41.1474 77.8989 48.77 77.8989H63.7487C71.3565 77.8989 77.5581 84.0858 77.5581 91.7083V106.687C77.5581 107.353 78.1058 107.901 78.7718 107.901C79.4379 107.901 79.9855 107.353 79.9855 106.687V91.7083C79.9855 87.4308 78.313 83.5233 75.5896 80.6223C77.9578 78.861 80.844 77.8989 83.819 77.8989H98.7977C106.405 77.8989 112.607 84.0858 112.607 91.7083V106.687C112.607 107.353 113.155 107.901 113.821 107.901C114.487 107.901 115.035 107.353 115.035 106.687V91.7083C115.035 82.7685 107.752 75.4863 98.8125 75.4863H98.7681Z" fill="white"/>
<path d="M103.933 93.1426C103.267 93.1426 102.72 93.6902 102.72 94.3563V106.597C102.72 107.263 103.267 107.81 103.933 107.81C104.599 107.81 105.147 107.263 105.147 106.597V94.3563C105.147 93.6902 104.599 93.1426 103.933 93.1426Z" fill="white"/>
<path d="M68.8992 93.1426C68.2332 93.1426 67.6855 93.6902 67.6855 94.3563V106.597C67.6855 107.263 68.2332 107.81 68.8992 107.81C69.5653 107.81 70.1129 107.263 70.1129 106.597V94.3563C70.1129 93.6902 69.5653 93.1426 68.8992 93.1426Z" fill="white"/>
<path d="M43.6043 93.1426C42.9383 93.1426 42.3906 93.6902 42.3906 94.3563V106.597C42.3906 107.263 42.9383 107.81 43.6043 107.81C44.2704 107.81 44.818 107.263 44.818 106.597V94.3563C44.818 93.6902 44.2704 93.1426 43.6043 93.1426Z" fill="white"/>
<path d="M44.6549 73.6947V69.654C45.6466 69.4319 46.6383 69.1507 47.6003 68.8251C49.9241 71.2821 52.9583 72.7622 56.2442 72.7622C62.7567 72.7622 68.2479 66.975 69.3283 59.1452C70.5568 58.9676 71.4893 57.9019 71.4893 56.629C71.4893 54.8973 70.5864 53.2988 69.1507 52.3959C68.8843 51.0638 68.4995 49.8057 67.9962 48.6216C68.011 48.592 68.0258 48.5624 68.0406 48.518C68.4699 47.2599 68.8103 45.9722 69.0767 44.6549H73.6799C74.3459 44.6549 74.8935 44.1073 74.8935 43.4412V31.4375C74.8935 30.7715 74.3459 30.2238 73.6799 30.2238H68.7363C67.8778 26.7752 66.4569 23.5337 64.5032 20.5439L68.159 16.8881C68.6327 16.4144 68.6327 15.6448 68.159 15.1859L59.678 6.7049C59.2044 6.23126 58.4347 6.23126 57.9759 6.7049L54.1572 10.5236C51.2118 8.73265 48.0148 7.44495 44.6549 6.67529V1.21369C44.6549 0.547641 44.1073 0 43.4412 0H31.4375C30.7715 0 30.2238 0.547641 30.2238 1.21369V6.6901C26.864 7.45975 23.667 8.74745 20.7215 10.5384L16.9029 6.7197C16.4292 6.24606 15.6596 6.24606 15.2007 6.7197L6.7197 15.2007C6.24606 15.6744 6.24606 16.444 6.7197 16.9029L10.3756 20.5587C8.43663 23.5337 7.01572 26.79 6.14246 30.2386H1.21369C0.547641 30.2386 0 30.7863 0 31.4523V43.456C0 44.1221 0.547641 44.6697 1.21369 44.6697H5.81683C6.55689 48.296 7.90379 51.7298 9.82793 54.8973L6.7345 57.9907C6.51248 58.2127 6.37927 58.5235 6.37927 58.8492C6.37927 59.1748 6.51248 59.4708 6.7345 59.7076L15.2155 68.1887C15.6892 68.6623 16.4588 68.6623 16.9177 68.1887L19.8483 65.258C23.0453 67.345 26.5384 68.8251 30.2386 69.6688V73.7095C30.2386 74.3755 30.7863 74.9231 31.4523 74.9231H43.456C44.1221 74.9231 44.6697 74.3755 44.6697 73.7095L44.6549 73.6947ZM56.2442 70.3496C51.049 70.3496 46.6383 65.6281 45.6022 59.1748H66.8862C65.8501 65.6281 61.4394 70.3496 56.2442 70.3496ZM50.1609 41.6799C47.5115 43.382 45.3654 46.1498 44.1221 49.5689C44.0925 49.5689 44.0629 49.5985 44.0333 49.6133C43.678 49.8205 43.3228 49.9981 42.9528 50.1609C42.9528 50.1609 42.9232 50.1609 42.9084 50.1757C42.8048 50.2201 42.6864 50.2793 42.5088 50.3533C40.9102 51.0194 39.2081 51.3598 37.4468 51.3598C35.6854 51.3598 33.9833 51.0194 32.3552 50.3385C32.2072 50.2793 32.0888 50.2201 31.9852 50.1757C31.9852 50.1757 31.9556 50.1757 31.9408 50.1609C28.8325 48.74 26.42 46.1942 25.1619 42.9972C25.0583 42.7456 24.9843 42.5088 24.8954 42.2719C24.4662 40.9546 24.2442 39.5781 24.2442 38.172C24.2442 36.4255 24.5846 34.7234 25.2507 33.0953C25.3987 32.74 25.5615 32.3848 25.7687 32.0148C27.1156 29.4542 29.3062 27.382 31.9556 26.1683C32.4144 25.9611 32.8732 25.7687 33.3469 25.6207C34.6642 25.1915 36.0407 24.9695 37.4468 24.9695C38.8529 24.9695 40.2294 25.1915 41.5615 25.6355C42.0203 25.7835 42.4791 25.9611 42.938 26.1831C45.5726 27.382 47.7631 29.4542 49.11 32.0148C49.3025 32.3848 49.4801 32.74 49.6281 33.1101C50.2941 34.7234 50.6346 36.4255 50.6346 38.172C50.6346 39.3709 50.4717 40.5402 50.1461 41.6799H50.1609ZM69.0767 56.629C69.0767 56.629 69.0175 56.7622 68.9435 56.7622H43.53C43.53 56.7622 43.3968 56.703 43.3968 56.629C43.3968 55.6225 43.9889 54.6901 44.9065 54.2756C45.2766 54.1128 45.5282 53.7724 45.5874 53.3728C46.1646 49.8649 47.7631 46.8751 49.9093 44.8917L50.5901 47.8223C50.7234 48.3848 51.2118 48.7548 51.7594 48.7548C51.8482 48.7548 51.937 48.7548 52.0407 48.7252C52.6919 48.5772 53.0915 47.926 52.9435 47.2747L52.0259 43.3672C53.3284 42.6568 54.7345 42.2719 56.2146 42.2719C57.6947 42.2719 59.1008 42.6568 60.4033 43.3672L59.4856 47.2747C59.3376 47.926 59.7372 48.5772 60.3885 48.7252C60.4773 48.74 60.5809 48.7548 60.6697 48.7548C61.2173 48.7548 61.7206 48.3848 61.839 47.8223L62.5198 44.8917C64.6808 46.8751 66.2645 49.8649 66.8418 53.3728C66.901 53.7724 67.1674 54.1128 67.5226 54.2756C68.4403 54.7049 69.0323 55.6225 69.0323 56.629H69.0767ZM42.2423 68.6771V72.4958H32.6512V68.6771C32.6512 68.0998 32.2368 67.5966 31.6743 67.493C27.604 66.6937 23.8002 65.0804 20.3811 62.6974C19.9075 62.357 19.2562 62.4162 18.8418 62.8307L16.0592 65.6133L9.28029 58.8344L12.2109 55.9037C12.6105 55.5041 12.6845 54.8677 12.3737 54.394C10.1684 50.9898 8.70304 47.2451 8.02219 43.2488C7.91859 42.6716 7.41535 42.2423 6.83811 42.2423H2.41258V32.6512H7.10453C7.66697 32.6512 8.17021 32.2516 8.28861 31.7039C9.13228 27.8853 10.6864 24.3182 12.9214 21.1064C13.2618 20.6327 13.2026 19.9815 12.7881 19.5671L9.29509 16.074L16.074 9.29509L19.7151 12.9362C20.1147 13.3358 20.7511 13.4098 21.2248 13.099C24.4218 11.0268 27.9445 9.59111 31.6891 8.86586C32.2516 8.76225 32.666 8.25901 32.666 7.68177V2.41258H42.2571V7.66697C42.2571 8.24421 42.6716 8.74745 43.234 8.85106C46.9787 9.57631 50.5013 11.012 53.6984 13.0842C54.172 13.395 54.8085 13.3358 55.2081 12.9214L58.8492 9.28029L65.6281 16.0592L62.135 19.5522C61.7206 19.9667 61.6614 20.6179 62.0018 21.0916C64.2368 24.3034 65.8057 27.8705 66.6345 31.6891C66.7529 32.2368 67.2414 32.6364 67.8186 32.6364H72.5106V42.2275H68.0998C67.5078 42.2275 67.0046 42.6568 66.9158 43.234C66.7825 44.0481 66.6049 44.8473 66.3977 45.6466C63.9259 42.0647 60.2701 39.8298 56.2738 39.8298C55.1193 39.8298 54.0092 40.0074 52.9287 40.3626C53.0323 39.6373 53.0915 38.8973 53.0915 38.1572C53.0915 36.0851 52.6919 34.0721 51.8926 32.1628C51.715 31.7336 51.5078 31.3043 51.2858 30.8751C49.6873 27.8409 47.0971 25.3987 44.0037 23.9778C43.456 23.7114 42.8788 23.4893 42.3459 23.3265C40.7918 22.8085 39.1489 22.5569 37.4912 22.5569C35.8335 22.5569 34.1905 22.8233 32.6512 23.3265C32.0888 23.5041 31.5263 23.7262 30.9935 23.9778C27.8853 25.3987 25.2803 27.8557 23.6966 30.8751C23.4597 31.3191 23.2673 31.7336 23.0897 32.1628C22.2905 34.0721 21.8908 36.0851 21.8908 38.1572C21.8908 39.815 22.1572 41.4579 22.6605 42.9972C22.7493 43.2932 22.8529 43.5744 22.9713 43.8704C24.4514 47.6447 27.2932 50.6346 30.9787 52.3219C31.1415 52.3959 31.3191 52.4847 31.4967 52.5587C33.3913 53.358 35.419 53.7576 37.4912 53.7576C39.2969 53.7576 41.073 53.4468 42.7456 52.8547C41.6799 53.7872 41.0434 55.1489 41.0434 56.6142C41.0434 57.8871 41.9759 58.938 43.2044 59.1304C43.604 62.0314 44.6105 64.6364 46.0462 66.7825C45.1285 67.049 44.2109 67.2858 43.2784 67.4634C42.716 67.567 42.3015 68.0702 42.3015 68.6475L42.2423 68.6771Z" fill="white"/>
</g>
<defs>
<clipPath id="clip0_59_2031">
<rect width="114.99" height="107.9" fill="white"/>
</clipPath>
</defs>
</svg>
