<svg width="39" height="43" viewBox="0 0 39 43" fill="none" xmlns="http://www.w3.org/2000/svg">
<path d="M35.2948 43H35.7232C36.3771 42.9885 36.9352 42.5214 37.0818 41.8757L38.9646 33.4114C39.1225 32.7022 38.7391 31.9815 38.0683 31.7335L29.8773 28.7122C29.4827 28.5566 29.0261 28.4701 28.5413 28.4701C26.8106 28.4701 25.0687 29.5829 24.1386 30.2921C19.392 28.3029 12.6272 20.6862 11.2122 15.7391C12.2664 14.6205 14.0309 12.3257 13.4446 10.0597L11.4828 1.12846C11.325 0.413493 10.6711 -0.0766041 9.95512 0.00988358L1.52172 0.920887C0.873432 0.990077 0.354805 1.50324 0.270245 2.16631C-0.998146 11.9336 2.23766 22.168 9.14898 30.246C16.0885 38.3527 25.6155 43 35.2891 43H35.2948ZM35.9318 34.0168L34.5845 40.0998C25.9707 39.8749 17.5091 35.6197 11.2799 28.3432C5.16905 21.2051 2.16437 12.2738 2.94796 3.67119L9.00241 3.01965L10.6992 10.7459C10.9247 11.6281 9.68453 13.3059 8.70927 14.1996C8.34285 14.534 8.16809 15.0472 8.25829 15.5431C9.40266 21.7817 17.9319 31.4107 23.9863 33.3076C24.4542 33.4575 24.9672 33.3422 25.3337 33.0078C26.0383 32.3736 27.5322 31.3645 28.5356 31.3645C28.6709 31.3645 28.7837 31.3818 28.8795 31.4222L35.9205 34.0226L35.9318 34.0168Z" fill="black"/>
</svg>
