<?xml version="1.0" encoding="utf-8"?>
<!-- Generator: Adobe Illustrator 28.2.0, SVG Export Plug-In . SVG Version: 6.00 Build 0)  -->
<svg version="1.1" id="레이어_1" xmlns="http://www.w3.org/2000/svg" xmlns:xlink="http://www.w3.org/1999/xlink" x="0px"
	 y="0px" viewBox="0 0 1920 1307.8" style="enable-background:new 0 0 1920 1307.8;" xml:space="preserve">
<style type="text/css">
	.st0{clip-path:url(#SVGID_00000154410532004574738000000004639116283936039041_);}
	.st1{fill:#E9EDF0;}
</style>
<g>
	<defs>
		<rect id="SVGID_1_" y="-408" width="1920" height="1715.8"/>
	</defs>
	<clipPath id="SVGID_00000127758871012502862840000000471546956286460597_">
		<use xlink:href="#SVGID_1_"  style="overflow:visible;"/>
	</clipPath>
	<g style="clip-path:url(#SVGID_00000127758871012502862840000000471546956286460597_);">
		<g>
			<g id="triangle36_00000096048349685107640380000011771706090403009451_">
				<g>
					<g>
						<path class="st1" d="M1045.9,1635.3l0.1-0.1l853.2,837.3l-0.2,0.3L880.6,1723.9l-0.2-0.2L1045.9,1635.3z M1046,1635.7
							l-165,88.1l1016.1,747.1L1046,1635.7z"/>
					</g>
				</g>
			</g>
			<g id="triangle36_00000014595736820632367560000001761662183386085523_">
				<g>
					<g>
						<path class="st1" d="M1854.9,1699.3l0-0.6l215.4,288.3l-170.9,485.8l-0.3,0.9L1854.9,1699.3z M1855.4,1699.9l43.9,771.8
							l170.5-484.7L1855.4,1699.9z"/>
					</g>
				</g>
			</g>
			<g id="triangle36_00000065034866859719952400000004947861837583101584_">
				<g>
					<g>
						<polygon class="st1" points="1046,1635.7 1855,1699.4 1899,2472.7 1899.4,2472.6 1855.3,1699.1 1855.1,1699.1 1046,1635.3 
													"/>
					</g>
				</g>
			</g>
			<g id="triangle36_00000124129562608973178900000001686166169205890181_">
				<g>
					<g>
						
							<rect x="1597.1" y="852.5" transform="matrix(0.1217 -0.9926 0.9926 0.1217 688.7442 2483.7771)" class="st1" width="301.4" height="0.4"/>
					</g>
				</g>
			</g>
			<g id="triangle36_00000002370871404844530430000013632079164973659569_">
				<g>
					<g>
						<polygon class="st1" points="1362.6,1166.8 1362.8,1167 1613.7,1442.8 1613.9,1442.5 1363.3,1166.9 1729.6,1002.5 
							1729.5,1002.2 						"/>
					</g>
				</g>
			</g>
			<g id="triangle36_00000111155220974924927880000017746914659855694220_">
				<g>
					<g>
						<path class="st1" d="M1765.9,703l0.4-0.5l-36.5,299.8l0,0.1L1363,1167l-0.8,0.4L1765.9,703z M1765.8,703.7l-402.1,462.6
							l365.7-164.1L1765.8,703.7z"/>
					</g>
				</g>
			</g>
			<g id="triangle36_00000108296376812701582310000018191951155898983836_">
				<g>
					<g>
						<path class="st1" d="M1265.9,479.6l0-0.3L1766.1,703l0.2,0.1L1363.1,1167l-0.3,0.3L1265.9,479.6z M1266.3,479.8l96.8,686.5
							l402.6-463.2L1266.3,479.8z"/>
					</g>
				</g>
			</g>
			<g id="triangle36_00000112627928441908661340000014119744667218729883_">
				<g>
					<g>
						<path class="st1" d="M1362.8,1166.7l0.3,0.2l-316.9,468.7l-0.1,0.1l-74.3-16.9l-0.3-0.1L1362.8,1166.7z M1361,1169.4
							l-388.8,449.1l73.8,16.8L1361,1169.4z"/>
					</g>
				</g>
			</g>
			<g id="triangle36_00000136398816701297964970000004834933980851821729_">
				<g>
					<g>
						<path class="st1" d="M1362.9,1166.7l0.6-0.2L972,1618.7l-0.1,0.1l-409.1-209.1l-0.4-0.2L1362.9,1166.7z M1362.4,1167.2
							l-799,242.4l408.5,208.8L1362.4,1167.2z"/>
					</g>
				</g>
			</g>
			<g id="triangle36_00000172423091263875740960000004848291451823376525_">
				<g>
					<g>
						<path class="st1" d="M1362.8,1166.7l0.1-0.2l251,276l0.2,0.2l-568,192.9l-0.5,0.2L1362.8,1166.7z M1363,1167.1l-316.5,468
							l567-192.6L1363,1167.1z"/>
					</g>
				</g>
			</g>
			<g>
				<g>
					<g>
						<path class="st1" d="M564,1400.9c4.5,1.5,6.9,6.4,5.4,10.9c-1.5,4.5-6.4,6.9-10.9,5.4c-4.5-1.5-6.9-6.4-5.4-10.9
							C554.6,1401.8,559.5,1399.3,564,1400.9z"/>
					</g>
				</g>
			</g>
			<g>
				<g>
					<g>
						<path class="st1" d="M883.3,1715.8c4.4,1.5,6.8,6.2,5.3,10.6c-1.5,4.4-6.2,6.8-10.6,5.3c-4.4-1.5-6.8-6.2-5.3-10.6
							C874.2,1716.7,878.9,1714.3,883.3,1715.8z"/>
					</g>
				</g>
			</g>
			<g>
				<g>
					<g>
						<path class="st1" d="M974.5,1610.8c4.3,1.5,6.7,6.1,5.2,10.5c-1.5,4.3-6.1,6.7-10.5,5.2c-4.3-1.4-6.7-6.1-5.2-10.5
							C965.5,1611.6,970.1,1609.3,974.5,1610.8z"/>
					</g>
				</g>
			</g>
			<g>
				<g>
					<g>
						<path class="st1" d="M1049.5,1625.1c5.7,1.9,8.8,8.1,6.9,13.9c-1.9,5.7-8.1,8.8-13.9,6.9c-5.7-1.9-8.8-8.1-6.9-13.9
							C1037.6,1626.3,1043.8,1623.2,1049.5,1625.1z"/>
					</g>
				</g>
			</g>
			<g>
				<g>
					<g>
						<path class="st1" d="M1906.2,2451.8c11.5,3.9,17.7,16.3,13.8,27.8c-3.9,11.5-16.3,17.7-27.8,13.8
							c-11.5-3.9-17.7-16.3-13.8-27.8C1882.2,2454.1,1894.6,2447.9,1906.2,2451.8z"/>
					</g>
				</g>
			</g>
			<g>
				<g>
					<g>
						<path class="st1" d="M1862.1,1678.4c11.5,3.9,17.7,16.3,13.8,27.8c-3.9,11.5-16.3,17.7-27.8,13.8
							c-11.5-3.9-17.7-16.3-13.8-27.8C1838.2,1680.8,1850.6,1674.6,1862.1,1678.4z"/>
					</g>
				</g>
			</g>
			<g>
				<g>
					<g>
						
							<ellipse transform="matrix(0.4266 -0.9044 0.9044 0.4266 -610.1331 3011.502)" class="st1" cx="2070.1" cy="1987" rx="22" ry="22"/>
					</g>
				</g>
			</g>
			<g>
				<g>
					<g>
						<path class="st1" d="M1365.2,1160.1c3.7,1.3,5.8,5.3,4.5,9c-1.3,3.7-5.3,5.8-9,4.5c-3.7-1.3-5.8-5.3-4.5-9
							C1357.4,1160.8,1361.5,1158.8,1365.2,1160.1z"/>
					</g>
				</g>
			</g>
			<g>
				<g>
					<g>
						<path class="st1" d="M1619.1,1426.8c8.7,2.9,13.5,12.4,10.5,21.2c-2.9,8.7-12.4,13.5-21.2,10.5c-8.8-2.9-13.5-12.4-10.5-21.2
							C1600.9,1428.6,1610.4,1423.9,1619.1,1426.8z"/>
					</g>
				</g>
			</g>
			<g>
				<g>
					<g>
						<path class="st1" d="M1734.9,986.5c8.7,2.9,13.5,12.4,10.5,21.2c-2.9,8.7-12.4,13.5-21.2,10.5c-8.8-2.9-13.5-12.4-10.5-21.2
							C1716.6,988.3,1726.1,983.5,1734.9,986.5z"/>
					</g>
				</g>
			</g>
			<g>
				<g>
					<g>
						
							<ellipse transform="matrix(0.8953 -0.4455 0.4455 0.8953 -128.3016 860.4738)" class="st1" cx="1766" cy="703.1" rx="7.1" ry="7.1"/>
					</g>
				</g>
			</g>
			<g>
				<g>
					<g>
						<path class="st1" d="M1269.5,469.3c5.6,1.9,8.7,8,6.8,13.6c-1.9,5.6-8,8.7-13.6,6.8c-5.6-1.9-8.7-8-6.8-13.6
							C1257.8,470.5,1263.9,467.5,1269.5,469.3z"/>
					</g>
				</g>
			</g>
			<g>
				<g>
					<g>
						<path class="st1" d="M2865.8-101.2c10.5,3.5,16.1,14.8,12.6,25.3c-3.5,10.5-14.8,16.1-25.3,12.6
							c-10.5-3.5-16.1-14.8-12.6-25.3C2844-99.1,2855.3-104.7,2865.8-101.2z"/>
					</g>
				</g>
			</g>
		</g>
		<g>
			<g id="triangle36_00000149340492733575672720000011838778834993992322_">
				<g>
					<g>
						<path class="st1" d="M439.1,1907.4l-0.4-0.2L845.8,638l144,136l-0.1,0.1L439.1,1907.4z M846,638.8l-406.1,1266L989.3,774.1
							L846,638.8z"/>
					</g>
				</g>
			</g>
			<g id="triangle36_00000168800847388127300590000014364147573381870992_">
				<g>
					<g>
						<path class="st1" d="M989.8,774.6l-0.4-0.4L845,637.8l1,0.4l135.8,55.9l0,0.1L989.8,774.6z M846.8,639l142.5,134.6l-7.9-79.2
							L846.8,639z"/>
					</g>
				</g>
			</g>
			<g id="triangle36_00000011014384737762973540000009319675278837873281_">
				<g>
					<g>
						<path class="st1" d="M2466.6,231.2l-0.5,0.4l-151.7,127.8l-0.1-0.1l-168.1-112.1l0.6,0L2466.6,231.2z M2314.4,358.8
							l151.1-127.2l-318,15.9L2314.4,358.8z"/>
					</g>
				</g>
			</g>
			<g id="triangle36_00000125567071123232047550000006084645793929404290_">
				<g>
					<g>
						<path class="st1" d="M2746.4,222.9l-1,0.7L2218.2,607l0.2-0.6l95.8-247.5l0.1,0L2746.4,222.9z M2219,605.9l525.2-382
							l-429.7,135.3L2219,605.9z"/>
					</g>
				</g>
			</g>
			<g id="triangle36_00000000181292810731467930000013318990266001678235_">
				<g>
					<g>
						<polygon class="st1" points="2162.8,1181.3 1851.5,1245.1 1851.4,1244.8 2162.7,1180.9 						"/>
					</g>
				</g>
			</g>
			<g id="triangle36_00000101096578054601753800000002162271236734987916_">
				<g>
					<g>
						<path class="st1" d="M2322.3,1356.7"/>
					</g>
				</g>
			</g>
			<g id="triangle36_00000021087592995023326580000018120782478311469697_">
				<g>
					<g>
						<polygon class="st1" points="1851.6,1244.8 1851.3,1245.1 1564.2,934 1372.8,1277 1372.5,1276.8 1564.1,933.4 1564.3,933.6 
													"/>
					</g>
				</g>
			</g>
			<g id="triangle36_00000132777267497822531040000003810026392647806123_">
				<g>
					<g>
						<path class="st1" d="M2163.4,1181.2l-0.6,0.1l-311.4,63.9l-288-312l0.8,0.3L2163.4,1181.2z M1851.6,1244.7l310.5-63.7
							l-597.1-246.8L1851.6,1244.7z"/>
					</g>
				</g>
			</g>
			<g id="triangle36_00000076571664621662490650000006362408767383359122_">
				<g>
					<g>
						<path class="st1" d="M2218.9,606.6l-655.1,327.5l0.2-0.5l303.4-846.3l0.2,0.3L2218.9,606.6z M1564.5,933.3l653.8-326.9
							L1867.5,88.2L1564.5,933.3z"/>
					</g>
				</g>
			</g>
			<g id="triangle36_00000065067440881188542700000012071427204982805180_">
				<g>
					<g>
						<path class="st1" d="M2162.9,1181.4l-0.2-0.1l-599-247.6l0.4-0.2l654.7-327.4l0,0.4L2162.9,1181.4z M1564.7,933.7l597.9,247.1
							l55.8-574L1564.7,933.7z"/>
					</g>
				</g>
			</g>
			<g id="triangle36_00000022527883838265270510000009770592791828287656_">
				<g>
					<g>
						<path class="st1" d="M1564.1,933.9L989.4,774.2l0-0.1l-8-80.1l0.3,0.1l582.6,239.4L1564.1,933.9z M989.7,773.9L1561,932.6
							l-579.2-238L989.7,773.9z"/>
					</g>
				</g>
			</g>
			<g id="triangle36_00000137095718279541213240000017562922832317385884_">
				<g>
					<g>
						<path class="st1" d="M1372.7,1277.2l-0.2-0.2L989,773.7l0.6,0.2l574.9,159.7l-0.1,0.2L1372.7,1277.2z M990.1,774.4
							l382.5,502.1l191.3-342.7L990.1,774.4z"/>
					</g>
				</g>
			</g>
			<g>
				<g>
					<g>
						<path class="st1" d="M864.4,638.4c0,10.2-8.3,18.5-18.5,18.5s-18.5-8.3-18.5-18.5s8.3-18.5,18.5-18.5S864.4,628.2,864.4,638.4
							z"/>
					</g>
				</g>
			</g>
			<g>
				<g>
					<g>
						<path class="st1" d="M990.3,694.3c0,4.8-3.9,8.7-8.7,8.7s-8.7-3.9-8.7-8.7c0-4.8,3.9-8.7,8.7-8.7S990.3,689.5,990.3,694.3z"/>
					</g>
				</g>
			</g>
			<g>
				<g>
					<g>
						<circle class="st1" cx="989.6" cy="774.1" r="23.2"/>
					</g>
				</g>
			</g>
			<g>
				<g>
					<g>
						<path class="st1" d="M1581.8,933.7c0,9.7-7.9,17.6-17.6,17.6c-9.7,0-17.6-7.9-17.6-17.6c0-9.7,7.9-17.6,17.6-17.6
							C1573.9,916.1,1581.8,924,1581.8,933.7z"/>
					</g>
				</g>
			</g>
			<g>
				<g>
					<g>
						<path class="st1" d="M1382.6,1276.9c0,5.5-4.4,9.9-9.9,9.9s-9.9-4.4-9.9-9.9c0-5.5,4.4-9.9,9.9-9.9
							S1382.6,1271.4,1382.6,1276.9z"/>
					</g>
				</g>
			</g>
			<g>
				<g>
					<g>
						<path class="st1" d="M1869.1,1244.9c0,9.7-7.9,17.6-17.6,17.6c-9.7,0-17.6-7.9-17.6-17.6c0-9.7,7.9-17.6,17.6-17.6
							C1861.2,1227.3,1869.1,1235.2,1869.1,1244.9z"/>
					</g>
				</g>
			</g>
			<g>
				<g>
					<g>
						<path class="st1" d="M461.2,1907.3c0,12.4-10.1,22.5-22.5,22.5c-12.4,0-22.5-10.1-22.5-22.5c0-12.4,10.1-22.5,22.5-22.5
							C451.1,1884.8,461.2,1894.9,461.2,1907.3z"/>
					</g>
				</g>
			</g>
			<g>
				<g>
					<g>
						<path class="st1" d="M252.9,2542.6c0,12.4-10.1,22.5-22.5,22.5c-12.4,0-22.5-10.1-22.5-22.5c0-12.4,10.1-22.5,22.5-22.5
							C242.9,2520.1,252.9,2530.2,252.9,2542.6z"/>
					</g>
				</g>
			</g>
			<g>
				<g>
					<g>
						<path class="st1" d="M2180.3,1181.1c0,9.7-7.9,17.6-17.6,17.6c-9.7,0-17.6-7.9-17.6-17.6c0-9.7,7.9-17.6,17.6-17.6
							C2172.5,1163.5,2180.3,1171.4,2180.3,1181.1z"/>
					</g>
				</g>
			</g>
			<g>
				<g>
					<g>
						<path class="st1" d="M2240.4,606.5c0,12-9.8,21.8-21.8,21.8c-12,0-21.8-9.8-21.8-21.8c0-12,9.8-21.8,21.8-21.8
							C2230.6,584.7,2240.4,594.4,2240.4,606.5z"/>
					</g>
				</g>
			</g>
			<g>
				<g>
					<g>
						<path class="st1" d="M2155.8,247.4c0,5-4,9-9,9c-5,0-9-4-9-9c0-5,4-9,9-9C2151.8,238.3,2155.8,242.4,2155.8,247.4z"/>
					</g>
				</g>
			</g>
			<g>
				<g>
					<g>
						<path class="st1" d="M1876.8,87.7c0,5.2-4.2,9.4-9.4,9.4s-9.4-4.2-9.4-9.4c0-5.2,4.2-9.4,9.4-9.4S1876.8,82.6,1876.8,87.7z"/>
					</g>
				</g>
			</g>
			<g>
				<g>
					<g>
						<path class="st1" d="M2766.4,223.4c0,11.6-9.4,21-21,21s-21.1-9.4-21.1-21c0-11.6,9.4-21.1,21.1-21.1
							S2766.4,211.8,2766.4,223.4z"/>
					</g>
				</g>
			</g>
			<g>
				<g>
					<g>
						<path class="st1" d="M2323,359.1c0,4.8-3.9,8.6-8.6,8.6c-4.8,0-8.6-3.9-8.6-8.6c0-4.8,3.9-8.6,8.6-8.6
							C2319.1,350.4,2323,354.3,2323,359.1z"/>
					</g>
				</g>
			</g>
			<g>
				<g>
					<g>
						<path class="st1" d="M2473.9,231.4c0,4.3-3.5,7.9-7.9,7.9c-4.3,0-7.9-3.5-7.9-7.9c0-4.3,3.5-7.9,7.9-7.9
							C2470.3,223.5,2473.9,227,2473.9,231.4z"/>
					</g>
				</g>
			</g>
		</g>
	</g>
</g>
</svg>
