<svg width="146" height="58" viewBox="0 0 146 58" fill="none" xmlns="http://www.w3.org/2000/svg">
<g clip-path="url(#clip0_12_42)">
<path d="M11.0772 52.6594C11.1414 52.8303 11.1842 53.0012 11.2056 53.2148C11.227 53.4284 11.2484 53.642 11.2484 53.8557C11.2484 54.0693 11.2484 54.2829 11.2056 54.4966C11.1842 54.7102 11.1414 54.8811 11.0986 55.0306C10.906 55.6929 10.5208 56.2483 9.96437 56.6969C9.38658 57.1455 8.74459 57.466 8.01699 57.6582C7.2894 57.8505 6.5404 57.936 5.74861 57.8719C4.97822 57.8078 4.27202 57.6155 3.67283 57.2951C3.28763 57.0815 2.96663 56.8251 2.68844 56.5047C2.41024 56.2056 2.17484 55.8424 2.00364 55.4792C1.93944 55.3511 1.89664 55.2015 1.87524 55.0306C1.87524 54.8597 1.87524 54.6888 1.91804 54.5393C1.96084 54.3684 2.04644 54.2402 2.15344 54.112C2.26044 53.9838 2.41024 53.8984 2.60284 53.8557C2.73124 53.8343 2.85964 53.8129 3.00943 53.8129C3.15923 53.8129 3.30903 53.8129 3.43743 53.877C3.58723 53.9198 3.71563 53.9838 3.82263 54.0693C3.95103 54.1547 4.03663 54.2829 4.10082 54.4325C4.22922 54.6888 4.42182 54.9024 4.65722 55.1161C4.89262 55.3297 5.14942 55.5006 5.42761 55.6288C5.81281 55.757 6.21941 55.8211 6.6046 55.7997C7.0112 55.7783 7.3536 55.6929 7.69599 55.5433C8.01699 55.3938 8.29519 55.1802 8.48779 54.9024C8.68039 54.6461 8.78738 54.3257 8.78738 53.9838C8.78738 53.7061 8.74459 53.4711 8.65899 53.2789C8.57339 53.0866 8.46639 52.9371 8.31659 52.8089C8.16679 52.6807 7.99559 52.5739 7.78159 52.4885C7.56759 52.403 7.3536 52.3389 7.0968 52.2748C6.8186 52.2107 6.519 52.168 6.24081 52.1466C5.94121 52.1253 5.66301 52.1039 5.36341 52.0612C5.06382 52.0185 4.78562 51.9757 4.48602 51.9117C4.20782 51.8476 3.92963 51.7621 3.65143 51.6553C3.11643 51.4203 2.68844 51.0785 2.41024 50.6299C2.13204 50.1599 1.96084 49.6686 1.89664 49.1345C1.85384 48.6004 1.89664 48.0664 2.08924 47.5536C2.26044 47.0196 2.56004 46.571 2.94524 46.1864C3.33043 45.8446 3.77983 45.5883 4.31482 45.4387C4.84982 45.2892 5.42761 45.2037 6.06961 45.1824C6.4334 45.1824 6.7758 45.1824 7.1396 45.2251C7.5034 45.2678 7.84579 45.3106 8.18819 45.396C8.53059 45.4815 8.85158 45.5883 9.12978 45.7164C9.42938 45.8446 9.66478 45.9942 9.87878 46.1864C10.0286 46.3146 10.1784 46.4641 10.3496 46.6564C10.4994 46.8487 10.6278 47.0623 10.7134 47.2759C10.799 47.4896 10.8204 47.7032 10.799 47.9168C10.7776 48.1091 10.6492 48.28 10.4138 48.4295C10.2212 48.5577 10.05 48.6004 9.87878 48.5791C9.70758 48.5791 9.53638 48.515 9.38658 48.4295C9.23678 48.3441 9.08698 48.2373 8.93718 48.1091C8.78738 47.9809 8.65899 47.8741 8.55199 47.7886C8.23099 47.5536 7.82439 47.3827 7.3536 47.3187C6.8828 47.2332 6.4334 47.2118 6.02681 47.2759C5.77001 47.3187 5.51321 47.3614 5.29921 47.4468C5.06382 47.5323 4.87122 47.6391 4.72142 47.7886C4.55022 47.9382 4.44322 48.1091 4.35762 48.3227C4.27202 48.5363 4.22922 48.7713 4.25062 49.0277C4.25062 49.2199 4.31482 49.3695 4.42182 49.4977C4.52882 49.6258 4.65722 49.7326 4.78562 49.8181C4.93542 49.9036 5.10662 49.9676 5.27782 50.0104C5.44901 50.0531 5.64161 50.0958 5.81281 50.1172C6.34781 50.1813 6.8828 50.2454 7.4178 50.2667C7.95279 50.3094 8.46639 50.4163 8.97998 50.6299C9.49358 50.8222 9.94298 51.0999 10.3068 51.4417C10.6706 51.7835 10.9274 52.2107 11.0986 52.6807L11.0772 52.6594Z" fill="white"/>
<path d="M18.353 55.9492V54.5393L18.3958 51.933C18.3958 51.5485 18.3958 51.164 18.3958 50.7581V48.3654C18.3958 48.0236 18.3958 47.6605 18.4386 47.2546V47.1905C18.4386 47.0623 18.4386 46.9555 18.46 46.8273C18.46 46.6991 18.46 46.571 18.46 46.4428C18.46 46.2292 18.5456 45.9942 18.6526 45.7592C18.7382 45.5883 18.8666 45.4601 19.0164 45.3319C19.209 45.2465 19.3802 45.1824 19.5728 45.1824C19.6584 45.1824 19.744 45.1824 19.8296 45.1824C19.9152 45.1824 19.9794 45.1824 20.0436 45.2037C20.1934 45.2251 20.3432 45.2892 20.4502 45.4174C20.5144 45.4815 20.5786 45.5669 20.6428 45.6951C20.6642 45.7592 20.6856 45.8233 20.707 45.9087C20.707 45.9728 20.7498 46.0369 20.7498 46.1223C20.7498 46.2078 20.7498 46.2719 20.7712 46.3573C20.7712 46.4214 20.7712 46.5069 20.7712 46.571C20.7712 46.6564 20.7712 46.7205 20.7712 46.7846C20.7712 46.8487 20.7712 46.9128 20.7712 46.9982V47.2973L20.6642 56.526V56.6969C20.6642 56.6969 20.6642 56.7824 20.6642 56.8251C20.6642 56.8678 20.6642 56.9319 20.6428 57.0174C20.6214 57.0815 20.6 57.1455 20.5786 57.2096C20.5786 57.2737 20.5358 57.3378 20.5144 57.4233C20.4716 57.4873 20.4502 57.5301 20.4074 57.5942C20.3646 57.6369 20.3218 57.701 20.2576 57.7437C20.172 57.8292 20.0008 57.8932 19.7868 57.936C19.4658 58.0001 19.1662 57.9787 18.888 57.8505C18.7382 57.7651 18.6526 57.6369 18.5884 57.4873C18.5456 57.4446 18.5456 57.4233 18.5456 57.3805C18.5456 57.3592 18.5242 57.3378 18.5028 57.3378C18.5028 57.3378 18.4814 57.3164 18.46 57.2737C18.4386 57.2096 18.4172 57.1455 18.3958 57.0815C18.3958 57.0174 18.3958 56.9533 18.3958 56.8678C18.3958 56.8037 18.3958 56.7397 18.3744 56.6969C18.3744 56.6328 18.3744 56.5687 18.353 56.526C18.353 56.4406 18.353 56.3338 18.353 56.2269V55.9706V55.9492Z" fill="white"/>
<path d="M37.613 56.4832C37.613 56.6755 37.5702 56.8891 37.5274 57.1241C37.4846 57.3591 37.3776 57.53 37.185 57.6795C37.0352 57.8077 36.8855 57.8718 36.7143 57.8932C36.5431 57.9145 36.3505 57.8932 36.1793 57.8718C36.0081 57.8291 35.8369 57.765 35.6871 57.6795C35.5373 57.5941 35.4089 57.4873 35.3233 57.3591C34.9167 56.8678 34.5529 56.3551 34.2105 55.821C33.8681 55.2869 33.5257 54.7528 33.1833 54.2401L31.6853 51.9757C31.4927 51.6552 31.2787 51.2921 31.0433 50.9075C30.8079 50.5016 30.5939 50.1385 30.3585 49.7967L30.3157 56.59V56.7396C30.3157 56.9319 30.2729 57.1241 30.2087 57.295C30.1445 57.4873 30.0375 57.6368 29.8877 57.765C29.7593 57.8505 29.6095 57.9145 29.4169 57.9573C29.1173 58.0214 28.8819 58 28.6679 57.9145C28.4753 57.8291 28.3255 57.6795 28.1971 57.53C28.0901 57.3591 28.0045 57.1668 27.9617 56.9532C27.9189 56.7396 27.9189 56.526 27.9403 56.3123V56.0132L27.9831 54.6247V52.0398C28.0045 51.6552 28.0259 51.2707 28.0259 50.8648V49.6471C28.0259 49.1344 28.0259 48.6004 28.0259 48.0236C28.0259 47.4468 28.0687 46.9127 28.0901 46.4214C28.1115 46.1436 28.1757 45.9086 28.2827 45.7377C28.3255 45.5668 28.4539 45.4387 28.6465 45.3105C28.7749 45.225 28.9461 45.1823 29.1601 45.1609C29.3741 45.1396 29.5453 45.1609 29.6951 45.1609C29.7593 45.1823 29.8235 45.2037 29.8663 45.2464C29.9091 45.2891 29.9947 45.3105 30.0375 45.3532C30.1017 45.3959 30.1445 45.4387 30.2087 45.5028C30.2729 45.5668 30.3157 45.6096 30.3585 45.6523C30.4227 45.7164 30.4655 45.7805 30.5297 45.8446C30.5725 45.9086 30.6153 45.9727 30.6795 46.0368C30.7223 46.1009 30.7437 46.165 30.7865 46.2291C30.8293 46.2932 30.8721 46.3573 30.9149 46.4L31.1075 46.6777L35.2163 53.1506V51.9757C35.2163 51.5912 35.2163 51.2066 35.2163 50.8007C35.2163 50.3948 35.2163 49.9889 35.1949 49.5617C35.1949 49.0703 35.1949 48.5363 35.1949 47.9595C35.1949 47.3827 35.1949 46.8486 35.2377 46.3573C35.2377 46.165 35.3019 45.93 35.4089 45.6737C35.4731 45.5241 35.5801 45.3959 35.7085 45.3105C35.8583 45.225 36.0081 45.161 36.1793 45.1182C36.3505 45.0755 36.5431 45.0755 36.7143 45.1182C36.8855 45.161 37.0566 45.225 37.185 45.3319C37.2278 45.3746 37.2492 45.4173 37.292 45.46C37.3348 45.5028 37.3562 45.5668 37.3776 45.6096C37.4418 45.7591 37.4632 45.9086 37.4846 46.0155C37.5274 46.1864 37.5274 46.3359 37.5274 46.4641C37.5274 47.9381 37.5274 49.4549 37.5274 50.993C37.5274 52.5311 37.5274 54.0479 37.5488 55.5219C37.5488 55.6928 37.5488 55.8423 37.5488 56.0132C37.5488 56.1628 37.5488 56.3337 37.5488 56.5046L37.613 56.4832Z" fill="white"/>
<path d="M53.6415 54.8598C53.7913 55.2016 53.8127 55.5434 53.6415 55.8639C53.4917 56.1843 53.2777 56.4834 52.9567 56.7611C52.6571 57.0388 52.2933 57.2738 51.8867 57.4661C51.4801 57.6584 51.1163 57.8079 50.7525 57.8934C50.3673 57.9788 49.9393 58.0215 49.5113 58.0002C49.0833 58.0002 48.6553 57.9361 48.2059 57.8293C47.7779 57.7224 47.3499 57.5729 46.9434 57.3806C46.5368 57.1884 46.1516 56.9534 45.8092 56.6543C45.4026 56.3125 45.0602 55.9066 44.8462 55.4153C44.6108 54.9453 44.4396 54.4326 44.3326 53.8771C44.2256 53.3217 44.1614 52.7876 44.1614 52.2322C44.1614 51.6768 44.1614 51.1641 44.2042 50.6727C44.247 50.2241 44.3326 49.7755 44.461 49.3055C44.6108 48.8355 44.8034 48.3655 45.0602 47.9169C45.317 47.4683 45.6166 47.041 45.9804 46.6352C46.3442 46.2506 46.7722 45.9088 47.2643 45.6311C47.6281 45.4175 48.0347 45.2679 48.5055 45.2038C48.9549 45.1184 49.4257 45.1184 49.8965 45.1611C50.3673 45.2038 50.8167 45.3107 51.2233 45.4602C51.6513 45.6311 51.9937 45.8447 52.2933 46.1011C52.4859 46.272 52.6785 46.507 52.8925 46.7847C53.1065 47.0838 53.2563 47.3829 53.3419 47.6819C53.4275 47.981 53.4489 48.2801 53.3419 48.5364C53.2563 48.7928 53.0209 48.9851 52.6143 49.0705C52.4431 49.1132 52.2933 49.1346 52.1649 49.0919C52.0365 49.0705 51.9081 49.0064 51.8011 48.9423C51.6941 48.8569 51.5871 48.7714 51.5015 48.6646C51.4159 48.5578 51.3089 48.451 51.2447 48.3442C50.9665 48.0024 50.6241 47.7674 50.2389 47.6392C49.8537 47.511 49.4899 47.4897 49.1047 47.5538C48.7409 47.6178 48.3771 47.7674 48.0561 48.0237C47.7351 48.2587 47.4783 48.5792 47.3071 48.9637C47.1145 49.3696 46.9648 49.8182 46.8578 50.2882C46.7508 50.7582 46.6866 51.2495 46.6652 51.7409C46.6652 52.2322 46.708 52.7022 46.7936 53.1722C46.9006 53.6422 47.0718 54.048 47.3285 54.3898C47.5211 54.6676 47.7565 54.9026 48.0347 55.0735C48.3129 55.2444 48.6125 55.3725 48.9335 55.4366C49.2545 55.5007 49.5755 55.5221 49.8965 55.4794C50.2175 55.4366 50.5385 55.3298 50.8595 55.1589C50.9451 55.1162 51.0521 55.0521 51.1805 54.9453C51.2875 54.8598 51.4159 54.7744 51.5229 54.6676C51.6513 54.5821 51.7583 54.4753 51.8867 54.4112C52.0151 54.3258 52.1435 54.2617 52.2933 54.2403C52.5073 54.1762 52.7427 54.1762 52.9995 54.2403C53.2563 54.3258 53.4489 54.4967 53.5773 54.753L53.6415 54.8598Z" fill="white"/>
<path d="M62.7578 47.3829L62.715 50.1814H63.4212C63.9134 50.1814 64.3414 50.1814 64.7266 50.1814C65.1118 50.1814 65.5184 50.1814 65.9891 50.1814H66.0748C66.2245 50.1814 66.3529 50.1814 66.5027 50.1814C66.6311 50.1814 66.7809 50.1814 66.9093 50.1814C67.0591 50.1814 67.1875 50.2241 67.3159 50.2455C67.4443 50.2668 67.5727 50.3096 67.7011 50.3523C67.8937 50.4164 68.0649 50.5232 68.1933 50.6727C68.3217 50.8223 68.3645 50.9932 68.3645 51.1854V51.3991C68.3645 51.3991 68.3645 51.5486 68.3217 51.6127C68.3003 51.7409 68.2147 51.869 68.0863 51.9759C68.0221 52.0613 67.9151 52.1254 67.7439 52.1468C67.5941 52.1895 67.4443 52.2322 67.2731 52.2322C67.1019 52.2749 66.9307 52.2963 66.7809 52.2963H62.6508L62.608 55.7998L66.1603 55.8425H67.2731C67.2731 55.8425 67.4229 55.8425 67.5085 55.8425C67.5941 55.8639 67.7011 55.8853 67.7653 55.8853C67.8509 55.8853 67.9151 55.8853 67.9793 55.928C68.1291 55.9707 68.2361 56.0348 68.3431 56.1202C68.4715 56.2484 68.5357 56.3552 68.5785 56.4834C68.5785 56.5475 68.5785 56.6116 68.5999 56.6757C68.5999 56.7398 68.5999 56.8039 68.5999 56.8893C68.5999 57.0816 68.5357 57.2525 68.4287 57.402C68.2789 57.5729 68.1291 57.6797 67.9365 57.7225C67.6797 57.8293 67.4229 57.872 67.1233 57.872C66.9949 57.872 66.8665 57.872 66.7167 57.872C66.5669 57.872 66.4385 57.872 66.3101 57.872H66.2031C65.283 57.8934 64.32 57.8934 63.3142 57.872C63.0788 57.872 62.8862 57.872 62.7364 57.872C62.5866 57.872 62.4582 57.872 62.3512 57.872H61.538C61.2598 57.8934 61.0458 57.8506 60.8532 57.7225C60.7248 57.637 60.6178 57.5302 60.5536 57.3807C60.5108 57.3379 60.5108 57.3166 60.5108 57.2738C60.5108 57.2525 60.4894 57.2311 60.468 57.2097C60.468 57.2097 60.4466 57.1884 60.4252 57.167C60.4038 57.1029 60.3824 57.0388 60.3824 56.9748C60.3824 56.9107 60.3824 56.8466 60.3824 56.7825C60.3824 56.7184 60.3824 56.6543 60.361 56.6116C60.361 56.5475 60.361 56.4834 60.3396 56.4407V56.163C60.3396 56.163 60.3396 56.0775 60.3396 56.0134C60.3396 55.9707 60.3396 55.928 60.3396 55.8639V54.4753L60.3824 51.9118V49.5405C60.3824 49.1132 60.3824 48.7287 60.3824 48.4083C60.3824 48.0665 60.3824 47.7247 60.4038 47.3188V47.2333C60.4038 47.1051 60.4038 46.977 60.4252 46.8702C60.4252 46.7633 60.4252 46.6352 60.4252 46.5284C60.4252 46.2934 60.5108 46.0584 60.6178 45.8447C60.6606 45.7593 60.7248 45.6738 60.7676 45.5884C60.8104 45.5243 60.896 45.4602 60.9816 45.4175C61.1528 45.3107 61.3454 45.2466 61.538 45.2466C61.6236 45.2466 61.7092 45.2466 61.752 45.2466C61.966 45.2466 62.1372 45.2466 62.2656 45.2466H62.6508C62.7792 45.2466 62.9076 45.2466 63.0574 45.2466C63.2072 45.2466 63.3998 45.2466 63.6352 45.2466C64.106 45.2466 64.5554 45.2466 64.9834 45.2466C65.4114 45.2466 65.8394 45.2466 66.3101 45.2466H66.3743C66.5027 45.2466 66.6311 45.2466 66.7809 45.2466C66.9307 45.2466 67.0591 45.2466 67.1875 45.2466C67.3159 45.2466 67.4443 45.2466 67.5727 45.2893C67.7011 45.3107 67.8295 45.3534 67.9579 45.3961C68.1505 45.4602 68.3217 45.5457 68.4501 45.6952C68.5571 45.8661 68.5999 46.037 68.5999 46.1865V46.4002C68.5999 46.4002 68.5999 46.5283 68.5571 46.5924C68.5571 46.7206 68.4715 46.8274 68.3431 46.9556C68.3003 46.977 68.2361 46.9983 68.1933 47.0411C68.1505 47.0838 68.0863 47.1051 68.0007 47.1265C67.9365 47.1479 67.8509 47.1692 67.7867 47.1692C67.7011 47.1692 67.6369 47.1692 67.5727 47.1906C67.4871 47.212 67.3801 47.2333 67.3159 47.2333H62.6936V47.2974L62.7578 47.3829Z" fill="white"/>
<path d="M78.2299 44.9901C78.2299 44.9901 78.3797 44.9474 78.4653 44.926C78.5509 44.9047 78.6151 44.8833 78.6793 44.8833C78.7649 44.8619 78.8719 44.8406 79.0003 44.8406C79.1287 44.8406 79.2356 44.8406 79.364 44.8406C79.471 44.8406 79.578 44.8833 79.685 44.9474C79.792 44.9901 79.8562 45.0756 79.899 45.1824C79.9418 45.3106 79.9846 45.4387 80.006 45.6096C80.006 45.7592 80.0274 45.9301 80.0274 46.101C80.0274 46.2719 80.0274 46.4214 80.0274 46.5923C80.0274 46.7632 80.0274 46.8914 80.0274 47.0196V56.0988C80.0274 56.2269 80.0274 56.3551 80.0274 56.5047C80.0274 56.6328 80.0274 56.7824 80.0274 56.9319C80.0274 57.0815 79.9846 57.2096 79.9204 57.3378C79.8562 57.466 79.7706 57.5728 79.6636 57.6583C79.4924 57.7864 79.2784 57.8505 79.0003 57.8719C78.7221 57.8719 78.4867 57.8505 78.2727 57.7651C78.0587 57.701 77.9303 57.5514 77.8875 57.3592C77.8447 57.1669 77.8233 56.9533 77.8233 56.761C77.7377 55.2015 77.6949 53.6634 77.7163 52.168C77.7163 50.6726 77.7163 49.1345 77.7163 47.5323C77.6949 47.5964 77.6093 47.6391 77.4809 47.7032C77.3525 47.7459 77.1813 47.7886 77.0101 47.8314C76.8389 47.8741 76.6677 47.8955 76.5179 47.9168C76.3681 47.9382 76.2611 47.9595 76.2183 47.9595C75.9187 48.0023 75.6191 47.9595 75.3623 47.8527C75.1055 47.7459 74.9557 47.5109 74.9343 47.1478C74.8915 46.7632 74.9771 46.4641 75.1911 46.2505C75.4051 46.0369 75.6833 45.8874 76.0471 45.7805C76.4323 45.6524 76.7961 45.5242 77.1599 45.3746C77.5237 45.2465 77.8875 45.1183 78.2727 45.0115L78.2299 44.9901Z" fill="white"/>
<path d="M91.7759 57.872C91.2409 57.872 90.7059 57.8079 90.1923 57.6797C89.6787 57.5516 89.2293 57.3166 88.8013 56.932C88.6515 56.7825 88.5017 56.633 88.3733 56.4407C88.245 56.2484 88.138 56.0775 88.0952 55.8853C88.0524 55.693 88.0524 55.5221 88.0952 55.3298C88.1594 55.1376 88.3092 54.988 88.5446 54.8385C88.6944 54.753 88.8442 54.6889 88.9726 54.6889C89.1009 54.6889 89.2079 54.7103 89.3363 54.7744C89.4433 54.8385 89.5503 54.9239 89.6573 55.0094C89.7643 55.1162 89.8713 55.2016 89.9783 55.3085C90.2565 55.5435 90.5347 55.6716 90.8557 55.7571C91.1767 55.8212 91.4977 55.8639 91.8401 55.8639C92.2253 55.8639 92.5891 55.7784 92.9315 55.5862C93.2739 55.3939 93.5521 55.1589 93.7875 54.8385C94.0229 54.5394 94.1941 54.1762 94.3011 53.7917C94.4081 53.4072 94.4295 53.0013 94.3653 52.6168C94.0229 52.809 93.6377 52.9799 93.1883 53.0867C92.7389 53.1935 92.3323 53.2576 91.9257 53.2576C91.2837 53.2576 90.7059 53.1722 90.1923 52.9799C89.6787 52.7877 89.2293 52.5313 88.8656 52.1895C88.5018 51.8477 88.2022 51.4418 88.0096 50.9505C87.817 50.4591 87.71 49.925 87.71 49.3269C87.71 48.7287 87.817 48.1306 88.031 47.6179C88.245 47.0838 88.5446 46.6352 88.9297 46.2506C89.3149 45.8661 89.7857 45.567 90.3421 45.3534C90.8771 45.1398 91.4977 45.033 92.1611 45.033C92.9101 45.033 93.5521 45.1398 94.0657 45.3534C94.5793 45.567 95.0501 45.9088 95.4781 46.3361C95.9275 46.8061 96.2485 47.4042 96.4411 48.1519C96.6551 48.8996 96.7621 49.8823 96.7621 51.1C96.7621 52.104 96.6551 53.0013 96.4411 53.8344C96.2271 54.6676 95.9061 55.3726 95.4781 55.9707C95.0715 56.5689 94.5365 57.0175 93.9159 57.3379C93.2953 57.6584 92.5891 57.8293 91.7973 57.8293L91.7759 57.872ZM92.1825 47.212C91.9685 47.212 91.7545 47.212 91.5405 47.2333C91.3265 47.2547 91.1553 47.2974 90.9841 47.3615C90.6631 47.4897 90.4063 47.7033 90.2137 48.0024C90.0211 48.3015 89.9141 48.6005 89.8499 48.9637C89.8071 49.3055 89.8499 49.6473 89.9355 49.9891C90.0425 50.3309 90.2137 50.6086 90.4705 50.8436C90.7059 51.0573 90.9627 51.2068 91.2623 51.2709C91.5619 51.335 91.8829 51.3563 92.2039 51.3136C92.5249 51.2709 92.8245 51.1854 93.1027 51.0573C93.3809 50.9077 93.6163 50.7368 93.8089 50.5018C94.0015 50.2668 94.1299 50.0319 94.1941 49.7755C94.2583 49.5191 94.2797 49.2628 94.2369 49.0064C94.1941 48.7501 94.1085 48.5151 93.9801 48.2801C93.8517 48.0451 93.6805 47.8528 93.5093 47.6606C93.3381 47.5324 93.1455 47.4256 92.9101 47.3401C92.6747 47.2547 92.4393 47.212 92.1611 47.1906L92.1825 47.212Z" fill="white"/>
<path d="M107.804 57.8293C107.441 57.8293 107.077 57.8293 106.713 57.7865C106.349 57.7438 105.985 57.6797 105.622 57.5729C105.279 57.4661 104.937 57.2952 104.637 57.1029C104.338 56.9107 104.081 56.633 103.888 56.3125C103.653 55.9707 103.503 55.6075 103.417 55.2016C103.332 54.7958 103.289 54.3899 103.31 53.984C103.375 53.3431 103.589 52.809 103.952 52.339C104.316 51.8904 104.808 51.5486 105.365 51.3136C105.322 51.3136 105.236 51.2923 105.151 51.2282C105.044 51.1641 104.937 51.1 104.83 51.0145C104.723 50.9291 104.616 50.8436 104.53 50.7796C104.445 50.6941 104.38 50.6514 104.338 50.63C104.188 50.4805 104.081 50.2882 103.995 50.0959C103.91 49.9037 103.824 49.69 103.781 49.4978C103.631 48.9637 103.61 48.4083 103.738 47.8101C103.867 47.2333 104.102 46.7206 104.466 46.272C104.616 46.0797 104.808 45.9088 105.044 45.7593C105.279 45.6098 105.536 45.4816 105.814 45.3961C106.092 45.2893 106.371 45.2252 106.649 45.1611C106.927 45.097 107.184 45.0757 107.398 45.0757C107.697 45.0757 108.018 45.0757 108.297 45.0757C108.596 45.0757 108.896 45.0757 109.195 45.1184C109.559 45.1825 109.902 45.2893 110.223 45.4816C110.544 45.6525 110.822 45.8875 111.057 46.1438C111.528 46.6565 111.828 47.2547 111.977 47.8956C112.106 48.5365 112.084 49.1987 111.913 49.8823C111.849 50.0746 111.763 50.2455 111.656 50.4164C111.528 50.5659 111.4 50.7368 111.25 50.865C111.207 50.8864 111.164 50.9291 111.079 50.9932C110.993 51.0573 110.907 51.1214 110.8 51.1854C110.693 51.2495 110.608 51.3136 110.501 51.335C110.415 51.3777 110.33 51.3991 110.287 51.3777C110.565 51.5486 110.843 51.7195 111.1 51.9118C111.357 52.0827 111.571 52.3177 111.742 52.6381C111.913 52.9372 112.02 53.279 112.106 53.6208C112.191 53.9626 112.213 54.3044 112.191 54.6462C112.191 54.988 112.106 55.3298 111.977 55.6503C111.849 55.9707 111.678 56.2698 111.464 56.5261C111.228 56.7825 110.972 56.9961 110.693 57.167C110.394 57.3379 110.094 57.4875 109.773 57.5943C109.452 57.7011 109.131 57.7865 108.789 57.8293C108.446 57.872 108.125 57.8934 107.804 57.8934V57.8293ZM107.847 52.6381C107.59 52.6381 107.312 52.6808 107.055 52.7449C106.799 52.809 106.542 52.8945 106.328 53.0226C106.114 53.1508 105.921 53.3217 105.771 53.514C105.622 53.7276 105.515 53.984 105.493 54.283C105.472 54.518 105.493 54.7317 105.6 54.9239C105.686 55.1162 105.814 55.2657 105.964 55.3939C106.114 55.5221 106.285 55.6289 106.499 55.7144C106.692 55.7998 106.906 55.8425 107.098 55.8639C107.569 55.928 108.04 55.928 108.468 55.8639C108.639 55.8212 108.789 55.7998 108.939 55.7571C109.088 55.7357 109.217 55.693 109.345 55.6289C109.474 55.5648 109.581 55.5007 109.688 55.3939C109.795 55.2871 109.88 55.1589 109.944 54.9667C110.051 54.7103 110.094 54.4326 110.073 54.1335C110.051 53.8344 109.966 53.5567 109.773 53.3644C109.516 53.0654 109.217 52.8517 108.917 52.7663C108.596 52.6808 108.254 52.6381 107.869 52.6595L107.847 52.6381ZM107.869 46.9983C107.59 47.0197 107.334 47.0624 107.077 47.1265C106.82 47.1906 106.606 47.2761 106.413 47.4042C106.221 47.5324 106.071 47.7033 105.985 47.9169C105.878 48.1306 105.836 48.4083 105.857 48.7074C105.857 48.9423 105.9 49.1346 105.964 49.3482C106.028 49.5405 106.135 49.7328 106.306 49.8823C106.499 50.1173 106.756 50.2668 107.034 50.3096C107.312 50.3523 107.612 50.3737 107.89 50.3523C108.318 50.3523 108.703 50.2882 109.046 50.16C109.367 50.0319 109.645 49.7541 109.837 49.3269C109.987 48.9851 110.03 48.6646 109.966 48.3656C109.902 48.0665 109.752 47.8101 109.559 47.6179C109.367 47.4042 109.11 47.2547 108.81 47.1479C108.511 47.0411 108.211 46.9983 107.89 47.0197L107.869 46.9983Z" fill="white"/>
<path d="M119.168 45.3746C119.317 45.3105 119.467 45.2678 119.638 45.2465C119.81 45.2465 120.002 45.2251 120.216 45.2251H126.657C126.829 45.2251 127 45.2251 127.192 45.2251C127.385 45.2251 127.556 45.2465 127.706 45.3319C127.92 45.4601 128.048 45.631 128.07 45.8873C128.113 46.1437 128.07 46.4214 128.006 46.7419C127.92 47.0623 127.813 47.3827 127.663 47.7459C127.513 48.0877 127.342 48.4295 127.192 48.75C127.021 49.0704 126.871 49.3481 126.7 49.6045C126.55 49.8608 126.443 50.0531 126.379 50.1813C126.187 50.5444 126.015 50.8649 125.844 51.164C125.673 51.463 125.523 51.7621 125.373 52.0612C125.224 52.3603 125.074 52.6594 124.903 52.9584C124.753 53.2575 124.56 53.578 124.368 53.9411C124.132 54.4325 123.854 54.9238 123.555 55.4579C123.255 55.9919 122.955 56.4833 122.699 56.9319C122.613 57.0815 122.527 57.2096 122.42 57.3592C122.313 57.5087 122.185 57.6155 122.057 57.7223C121.928 57.8078 121.757 57.8719 121.586 57.8932C121.415 57.9146 121.222 57.8932 121.029 57.7864C120.73 57.6155 120.516 57.3805 120.43 57.0601C120.345 56.7396 120.366 56.4406 120.516 56.1629C120.751 55.757 120.965 55.3511 121.179 54.9452C121.393 54.5393 121.607 54.1334 121.821 53.7275C122.142 53.1293 122.442 52.5525 122.72 51.9757C122.998 51.4203 123.298 50.8435 123.619 50.224C123.704 50.0531 123.854 49.8395 124.004 49.5831C124.175 49.3268 124.325 49.0704 124.475 48.7927C124.625 48.515 124.732 48.2586 124.839 47.9809C124.946 47.7032 124.946 47.4896 124.924 47.2759C124.518 47.2332 124.132 47.2332 123.79 47.2332C123.448 47.2332 123.084 47.2332 122.677 47.2332H120.944C120.73 47.2332 120.494 47.2332 120.259 47.2332C120.024 47.2332 119.788 47.2332 119.574 47.1905C119.36 47.1477 119.189 47.0623 119.039 46.9341C118.889 46.8059 118.804 46.5923 118.761 46.2932C118.74 46.0369 118.761 45.8446 118.825 45.7164C118.889 45.5669 118.996 45.4601 119.125 45.396L119.168 45.3746Z" fill="white"/>
<path d="M141.381 21.192C141.381 21.2347 141.359 21.2775 141.359 21.2988C141.359 21.3202 141.359 21.3416 141.359 21.3629C141.359 21.4911 141.359 21.6193 141.359 21.7475C141.359 21.8329 141.359 21.3843 141.402 21.1707" fill="white"/>
<path d="M136.138 25.7637C136.202 25.8919 136.309 25.9773 136.437 26.0628C136.566 26.1269 136.737 26.1482 136.908 26.1482C137.079 26.1482 137.229 26.1482 137.357 26.0842C137.507 26.0414 137.636 25.956 137.764 25.8705C137.892 25.7851 137.978 25.6783 138.042 25.5501C138.106 25.4219 138.128 25.2724 138.128 25.1015C138.128 24.9306 138.106 24.7597 138.042 24.6315C137.978 24.5033 137.892 24.3538 137.764 24.247C137.636 24.1401 137.507 24.0761 137.357 24.012C137.208 23.9692 137.036 23.9265 136.844 23.9265H136.801H136.78C136.78 23.9265 136.737 23.9265 136.651 23.9692C136.587 23.9906 136.501 24.0333 136.394 24.0974C136.287 24.1615 136.202 24.247 136.159 24.311C136.116 24.4179 136.052 24.546 136.009 24.6315C135.966 24.7383 135.924 24.8238 135.881 24.8878C135.924 25.0801 135.966 25.2724 136.031 25.4005C136.073 25.5287 136.116 25.6569 136.18 25.721" fill="white"/>
<path d="M142.322 36.1033C142.322 36.1033 142.322 36.0819 142.322 36.0605C142.322 36.0392 142.322 36.0178 142.301 35.9965C142.301 35.9965 142.301 35.9751 142.301 35.9537V35.911C142.301 35.911 142.258 35.911 142.172 35.911C142.087 35.8896 141.98 35.8683 141.851 35.8683C141.787 35.8683 141.723 35.8683 141.659 35.8469C141.595 35.8469 141.552 35.8469 141.509 35.8469C141.466 35.8469 141.423 35.8469 141.423 35.8469C141.402 35.8469 141.381 35.8469 141.359 35.8469C141.359 35.8469 141.316 35.8469 141.252 35.8469C141.209 35.8469 141.145 35.8469 141.102 35.8469C141.038 35.8469 140.974 35.8469 140.91 35.8469C140.846 35.8469 140.76 35.8469 140.696 35.8469C140.525 35.8683 140.396 35.8683 140.289 35.8896H139.99C139.99 35.8896 139.925 35.8896 139.861 35.8683C139.861 35.8683 139.818 35.8683 139.797 35.8683C139.797 35.8683 139.754 35.8683 139.733 35.8683C139.711 35.8683 139.69 35.8683 139.669 35.8683H139.647C139.647 35.8683 139.647 35.8683 139.626 35.8683C139.626 35.8683 139.604 35.8683 139.562 35.8683C139.562 35.8683 139.54 35.8683 139.519 35.8683C139.497 35.8683 139.455 35.8683 139.433 35.8896C139.412 35.8896 139.369 35.8896 139.348 35.8896H137.743C137.743 35.8896 137.657 35.8896 137.593 35.8896C137.55 35.8896 137.507 35.8896 137.464 35.8896H137.079C136.908 35.8896 136.78 35.8896 136.694 35.8896H136.416C136.416 35.8896 136.33 35.9751 136.309 36.0178C136.309 36.0392 136.266 36.0819 136.245 36.0819C136.287 36.1246 136.309 36.1674 136.33 36.1674C136.352 36.1674 136.352 36.2101 136.352 36.2315V36.2742C136.352 36.2955 136.33 36.3169 136.309 36.3383C136.287 36.3383 136.266 36.381 136.266 36.4024C136.266 36.4024 136.266 36.4451 136.266 36.4664C136.266 36.5092 136.266 36.5519 136.266 36.616C136.266 36.6801 136.266 36.7228 136.309 36.7655C136.309 36.8296 136.33 36.8937 136.352 36.9364C136.352 36.9792 136.394 37.0432 136.394 37.086C136.394 37.1287 136.416 37.1501 136.437 37.1928C136.437 37.2355 136.437 37.2569 136.437 37.2782C136.48 37.3423 136.566 37.4064 136.651 37.4491C136.737 37.4919 136.865 37.5346 136.994 37.5559C137.058 37.5559 137.122 37.5559 137.229 37.5559C137.336 37.5559 137.464 37.5559 137.636 37.5559H137.807C137.807 37.5559 137.85 37.5559 137.871 37.5559C137.892 37.5559 137.914 37.5559 137.935 37.5559C138.085 37.5346 138.192 37.5132 138.278 37.5132C138.363 37.5132 138.427 37.5132 138.449 37.5132C138.534 37.5132 138.62 37.5132 138.706 37.5132C138.791 37.5132 138.898 37.5132 138.984 37.5132C139.069 37.5132 139.155 37.5132 139.241 37.5132C139.326 37.5132 139.433 37.5132 139.519 37.5346H140.439C140.439 37.5346 140.482 37.5346 140.525 37.5346C140.546 37.5346 140.589 37.5346 140.632 37.5346C140.674 37.5346 140.717 37.5346 140.739 37.5132C140.781 37.5132 140.824 37.5132 140.867 37.4919C141.06 37.4491 141.188 37.4491 141.316 37.4278C141.423 37.4064 141.509 37.385 141.552 37.385C141.552 37.385 141.595 37.385 141.637 37.385C141.68 37.385 141.744 37.4064 141.809 37.4278C141.83 37.4278 141.851 37.4278 141.894 37.4278C141.937 37.4278 141.958 37.4278 142.001 37.4278H142.087C142.087 37.4278 142.108 37.4278 142.13 37.4278C142.13 37.4278 142.172 37.4278 142.194 37.4278C142.215 37.4278 142.258 37.4278 142.258 37.4278C142.258 37.4278 142.301 37.4278 142.322 37.4278V36.2955C142.322 36.2955 142.344 36.2315 142.322 36.2101C142.322 36.1887 142.301 36.146 142.301 36.1033" fill="white"/>
<path d="M141.595 17.603H137.571C135.41 17.603 133.634 19.3548 133.634 21.5338V36.1887C133.634 38.3463 135.41 40.1194 137.571 40.1194H141.595C143.756 40.1194 145.532 38.3463 145.532 36.1887V21.5338C145.532 19.3761 143.777 17.603 141.595 17.603ZM140.182 20.252C140.182 20.252 140.225 20.1238 140.225 20.0384C140.225 19.9529 140.225 19.8888 140.268 19.8248C140.289 19.782 140.332 19.7179 140.396 19.6966H140.824C140.824 19.6966 140.974 19.7393 141.06 19.7607C141.145 19.7607 141.188 19.782 141.252 19.8248C141.274 19.9529 141.295 20.0598 141.316 20.1452C141.338 20.252 141.359 20.3375 141.359 20.4443C141.359 20.5084 141.359 20.5511 141.359 20.5938C141.359 20.6365 141.359 20.7006 141.359 20.7434C141.359 20.7861 141.359 20.8288 141.359 20.8715V21.0424C141.359 21.0424 141.359 21.0638 141.359 21.0852C141.359 21.192 141.359 21.2774 141.359 21.3629C141.381 21.4483 141.381 21.5338 141.402 21.5979C141.402 21.6833 141.402 21.7474 141.402 21.8115C141.402 21.8756 141.402 21.9397 141.402 21.9824V22.0679C141.402 22.0679 141.402 22.1319 141.381 22.1747C141.381 22.2174 141.381 22.2601 141.338 22.3028C141.338 22.3456 141.338 22.4097 141.338 22.4524C141.338 22.5165 141.338 22.5806 141.338 22.6233C141.338 22.6874 141.338 22.7087 141.338 22.7515C141.338 22.7942 141.338 22.8156 141.338 22.8369C141.338 22.8583 141.338 22.8796 141.338 22.901C141.423 22.8796 141.509 22.8583 141.573 22.8369C141.637 22.8156 141.702 22.7942 141.744 22.7728C141.809 22.7728 141.894 22.7301 141.98 22.7301C142.044 22.7301 142.108 22.7301 142.172 22.7301C142.258 22.7301 142.301 22.7301 142.386 22.7301C142.451 22.7301 142.515 22.7515 142.579 22.7728L142.536 21.9824L142.579 21.9183V21.8115C142.579 21.8115 142.579 21.7047 142.6 21.6406C142.6 21.5765 142.6 21.5124 142.6 21.4697C142.6 21.427 142.6 21.4056 142.6 21.3629C142.6 21.3629 142.6 21.3415 142.6 21.2988C142.6 21.2774 142.6 21.2347 142.6 21.2133C142.6 21.1706 142.6 21.1279 142.579 21.0852C142.579 21.0424 142.579 20.9997 142.579 20.9356C142.558 20.8288 142.536 20.7647 142.515 20.6793C142.515 20.5938 142.515 20.5297 142.515 20.487L142.6 20.3802V20.2947C142.6 20.2947 142.6 20.1238 142.6 20.0384C142.6 19.9529 142.643 19.8888 142.686 19.8248C142.75 19.8248 142.814 19.8034 142.9 19.782C142.986 19.782 143.071 19.7607 143.135 19.7607C143.2 19.7607 143.307 19.7607 143.392 19.782C143.478 19.8034 143.542 19.8248 143.628 19.8461C143.628 19.8888 143.628 19.9743 143.628 20.0598C143.628 20.1452 143.649 20.252 143.67 20.3588C143.67 20.487 143.692 20.5938 143.713 20.6793C143.713 20.7647 143.713 20.8502 143.713 20.8929V20.9783C143.713 20.9783 143.713 21.0211 143.713 21.0638V21.1706C143.713 21.3202 143.67 21.4056 143.67 21.4911V21.897C143.67 21.897 143.67 22.0679 143.692 22.1533C143.692 22.3028 143.692 21.2347 143.713 21.3415C143.713 21.4697 143.734 21.5551 143.734 21.6192C143.734 21.7047 143.734 21.7688 143.734 21.8115C143.734 21.8542 143.734 21.897 143.734 21.897C143.734 21.9397 143.734 22.0038 143.734 22.0251C143.734 22.0679 143.734 22.1106 143.734 22.1533C143.734 22.196 143.734 22.2388 143.734 22.2815V22.431C143.713 22.666 143.692 22.8583 143.692 23.0078C143.692 23.1574 143.692 23.2428 143.692 23.2855V23.6273C143.692 23.7555 143.692 23.8837 143.713 24.0546C143.713 24.14 143.713 24.2255 143.713 24.2896C143.713 24.3537 143.713 24.4178 143.713 24.4818C143.713 24.5459 143.713 24.5887 143.713 24.6314C143.713 24.6741 143.713 24.7168 143.713 24.7382C143.713 24.7596 143.713 24.7809 143.713 24.8023C143.713 24.8023 143.713 24.845 143.713 24.8877C143.713 24.9091 143.713 24.9305 143.713 24.9518V25.0373C143.713 25.0373 143.692 25.1655 143.692 25.2082V25.5286C143.692 25.5286 143.692 25.6568 143.713 25.7423C143.713 25.8277 143.713 25.8918 143.734 25.9559C143.734 25.9986 143.734 26.02 143.734 26.02C143.734 26.0413 143.734 26.0841 143.734 26.1054V26.319C143.734 26.319 143.734 26.3618 143.734 26.3831C143.734 26.4045 143.734 26.4472 143.734 26.4686C143.734 26.554 143.734 26.5968 143.734 26.6181V26.7036C143.734 26.7036 143.734 26.7677 143.756 26.8318C143.756 26.8745 143.756 26.9172 143.777 26.9386C143.777 26.9599 143.777 26.9813 143.777 27.0027C143.777 27.0881 143.777 27.1308 143.756 27.1736C143.756 27.2163 143.735 27.259 143.713 27.2804C143.628 27.3231 143.542 27.3658 143.478 27.3872C143.414 27.4086 143.371 27.4299 143.328 27.4513C143.242 27.494 143.178 27.5367 143.114 27.5367C143.071 27.5367 143.007 27.5581 142.964 27.5581C142.9 27.5581 142.857 27.5581 142.793 27.5581C142.75 27.5581 142.707 27.5367 142.686 27.5154C142.643 27.4726 142.6 27.4513 142.579 27.3872C142.558 27.3445 142.536 27.2804 142.536 27.1949C142.515 27.1308 142.515 27.0667 142.515 27.0027V26.7249C142.515 26.7249 142.515 26.6822 142.536 26.6395C142.536 26.5968 142.536 26.5754 142.536 26.554C142.536 26.5327 142.536 27.2377 142.536 26.2977C142.536 26.2336 142.536 26.1695 142.536 26.1054C142.536 26.0413 142.536 25.9772 142.536 25.9132C142.493 25.7423 142.472 25.6141 142.472 25.5286C142.451 25.4218 142.451 25.3577 142.451 25.2936C142.451 25.2509 142.451 25.1868 142.451 25.1227C142.472 25.0373 142.493 24.9732 142.515 24.8877C142.515 24.7809 142.536 24.7168 142.558 24.6314C142.558 24.5673 142.558 24.5032 142.558 24.4391C142.558 24.4391 142.536 24.4391 142.536 24.4178C142.536 24.4178 142.536 24.4178 142.536 24.3964H142.001C141.851 24.3964 141.744 24.3964 141.637 24.3537C141.552 24.3323 141.466 24.2682 141.423 24.2041C141.402 24.3109 141.381 24.3964 141.359 24.4818C141.359 24.5673 141.359 24.6528 141.359 24.7382C141.359 24.8237 141.338 24.9305 141.338 25.0159V25.2723C141.338 25.2723 141.338 25.3577 141.338 25.4432C141.338 25.5286 141.338 25.6354 141.381 25.7423C141.381 25.785 141.381 25.8063 141.381 25.8491C141.381 25.8704 141.381 25.8918 141.381 25.9132C141.381 25.9345 141.381 25.9559 141.402 25.9772V26.1481C141.402 26.1481 141.402 26.2122 141.381 26.255V26.2977C141.402 26.4259 141.423 26.5327 141.445 26.6395C141.445 26.7249 141.466 26.8104 141.466 26.8745C141.466 26.9599 141.466 27.0454 141.445 27.1095C141.423 27.1736 141.402 27.2163 141.359 27.259C141.274 27.3017 141.209 27.3445 141.145 27.3658C141.081 27.3872 141.038 27.4086 141.017 27.4299C140.91 27.4726 140.846 27.494 140.781 27.5154C140.717 27.5154 140.674 27.5367 140.632 27.5367C140.567 27.5367 140.525 27.5367 140.482 27.5367C140.439 27.5367 140.396 27.5154 140.353 27.494C140.311 27.4513 140.268 27.4086 140.246 27.3658C140.225 27.3231 140.182 27.2804 140.182 27.2377C140.161 27.1949 140.139 27.1522 140.139 27.1095C140.139 27.0667 140.139 27.024 140.139 26.9599C140.139 26.8318 140.139 26.6822 140.139 26.5327C140.139 26.3831 140.139 26.1909 140.161 26.02C140.161 25.8063 140.161 26.8104 140.182 26.6395C140.182 26.4686 140.182 26.3191 140.225 26.1909C140.225 26.0627 140.225 25.9559 140.225 25.8704C140.225 25.7636 140.225 25.6995 140.225 25.6354V23.7769C140.225 23.5846 140.225 23.4351 140.225 23.3283C140.225 23.2001 140.204 23.136 140.182 23.0719C140.182 23.0719 140.161 23.0719 140.139 23.0719C140.139 23.0719 140.139 23.0505 140.139 23.0292C140.139 23.0292 140.139 23.0292 140.139 23.0078V22.9651C140.139 22.9651 140.139 22.9224 140.139 22.901C140.139 22.8796 140.139 22.8583 140.139 22.8369C140.139 22.8369 140.139 22.8156 140.139 22.7942V22.7515C140.139 22.6874 140.139 22.6446 140.139 22.5806C140.139 22.5378 140.139 22.4737 140.139 22.4097V22.1106C140.139 22.1106 140.139 22.0038 140.139 21.9183C140.139 21.9824 140.118 22.0251 140.118 22.0679C140.118 22.1319 140.118 22.1747 140.118 22.196C140.118 22.2388 140.118 21.1493 140.118 21.3202C140.118 21.4697 140.118 21.6833 140.161 21.9183C140.161 21.8756 140.161 21.8542 140.161 21.7901C140.161 21.7688 140.161 21.726 140.161 21.6833C140.161 21.6192 140.161 21.5979 140.161 21.5551C140.161 21.4911 140.161 21.427 140.161 21.3629C140.161 21.2774 140.161 21.192 140.161 21.0638C140.161 21.0211 140.161 20.9784 140.139 20.9143C140.139 20.8715 140.139 20.8074 140.139 20.7647C140.139 20.722 140.139 20.6793 140.118 20.6365V20.5084C140.118 20.5084 140.139 20.4443 140.161 20.4016M141.316 33.561C141.316 33.561 141.274 33.4756 141.274 33.4115L141.316 32.7279V32.4288C141.316 32.4288 141.316 32.2152 141.316 32.1084C141.316 32.0016 141.316 31.8947 141.316 31.7879C141.316 31.6598 141.316 31.5529 141.316 31.4248C141.316 30.8266 141.274 30.3566 141.274 29.9721C141.274 29.6089 141.274 29.3526 141.274 29.1817C141.316 29.1389 141.316 29.0962 141.338 29.0535C141.338 28.9894 141.359 28.9039 141.359 28.8185C141.359 28.733 141.359 28.6476 141.381 28.5835C141.381 28.5194 141.423 28.4767 141.466 28.434C141.509 28.434 141.53 28.4126 141.573 28.3912C141.616 28.3912 141.659 28.3912 141.702 28.3912C141.809 28.3912 141.894 28.3912 142.001 28.434C142.108 28.434 142.194 28.4767 142.301 28.4981C142.386 28.5194 142.451 28.5835 142.515 28.6262C142.558 28.669 142.6 28.733 142.6 28.8185V29.4167C142.6 29.4167 142.6 29.5235 142.579 29.5876C142.579 29.6516 142.579 29.7157 142.579 29.7798C142.558 29.8439 142.536 29.908 142.536 29.9294V30.1003C142.536 30.1003 142.536 30.1644 142.536 30.1857C142.536 30.2284 142.536 30.2712 142.558 30.3139C142.558 30.3566 142.558 30.3993 142.558 30.4421C142.558 30.4848 142.558 30.5275 142.558 30.5702C142.579 30.613 142.579 30.6557 142.579 30.6771C142.579 30.7198 142.579 30.7411 142.579 30.7625C142.579 30.7839 142.579 30.8052 142.579 30.8266C142.579 30.8693 142.579 30.8907 142.579 30.9334C142.579 30.9761 142.558 30.9975 142.558 31.0189C142.558 31.0616 142.515 31.083 142.515 31.1257C142.515 31.1257 142.515 31.1684 142.515 31.1898C142.515 31.2752 142.515 31.382 142.515 31.4888C142.515 31.5957 142.515 31.7238 142.558 31.8947C142.558 31.9802 142.558 32.0443 142.558 32.1084C142.558 32.1725 142.558 32.2365 142.558 32.2793C142.579 32.322 142.579 32.3861 142.579 32.4074C142.579 32.4502 142.579 32.4715 142.579 32.4929V32.7493C142.579 32.7493 142.6 32.9415 142.622 33.0697C142.622 33.1338 142.622 33.1979 142.622 33.262C142.622 33.326 142.622 33.3901 142.622 33.4115C142.622 33.4756 142.622 33.5183 142.622 33.5397C142.622 33.5824 142.622 33.6038 142.622 33.6251C142.622 33.6679 142.622 33.7319 142.6 33.796C142.558 33.8601 142.558 33.9456 142.515 34.031C142.472 34.1165 142.429 34.1806 142.408 34.2447C142.386 34.2874 142.386 34.3301 142.386 34.3515C142.365 34.3728 142.322 34.3942 142.279 34.4156C142.237 34.4156 142.172 34.4156 142.108 34.4156L141.809 34.3728C141.809 34.3728 141.766 34.3728 141.744 34.3301C141.744 34.3087 141.702 34.2874 141.702 34.266H141.637C141.637 34.266 141.53 34.266 141.488 34.266C141.445 34.266 141.423 34.2233 141.402 34.1592C141.402 34.1165 141.381 34.0737 141.381 34.0097C141.381 33.9669 141.381 33.9028 141.381 33.8388C141.381 33.8388 141.381 33.8388 141.381 33.8174C141.381 33.8174 141.381 33.8174 141.381 33.796V33.7319C141.381 33.7319 141.381 33.6892 141.359 33.6465M134.725 21.897C134.725 21.897 134.725 21.8329 134.725 21.7901C134.725 21.7047 134.725 21.6406 134.725 21.5765C134.725 21.5124 134.725 21.4697 134.747 21.4483C134.768 21.4056 134.832 21.3629 134.918 21.3202C134.982 21.2774 135.089 21.2561 135.239 21.2561C135.303 21.2561 135.389 21.2561 135.453 21.2561C135.517 21.2561 135.581 21.2561 135.667 21.2561C135.688 21.2561 135.731 21.2774 135.774 21.2988C135.817 21.2988 135.838 21.2988 135.881 21.2988C135.924 21.2988 135.966 21.2988 136.009 21.3202C136.052 21.3202 136.116 21.3202 136.159 21.3415C136.18 21.3415 136.223 21.3202 136.245 21.2988C136.245 21.2988 136.287 21.2347 136.287 21.192C136.287 21.192 136.287 21.1279 136.287 21.0852C136.287 21.0424 136.287 20.9784 136.287 20.9143V20.5297C136.287 20.4016 136.287 20.2947 136.287 20.2093C136.287 20.1238 136.287 20.0384 136.33 19.9529C136.352 19.8675 136.373 19.782 136.416 19.6752C136.416 19.6325 136.416 19.6111 136.459 19.5898C136.48 19.5684 136.523 19.547 136.587 19.547H136.673C136.673 19.547 136.737 19.547 136.78 19.547C136.822 19.547 136.865 19.547 136.908 19.547C136.972 19.547 137.015 19.547 137.079 19.547C137.165 19.5684 137.272 19.5898 137.336 19.5898C137.422 19.5898 137.486 19.5898 137.55 19.5898C137.55 19.6325 137.571 19.6752 137.593 19.7179C137.593 19.7607 137.614 19.8034 137.614 19.8248V19.9529C137.614 19.9529 137.614 19.9957 137.614 20.017C137.614 20.017 137.614 20.0597 137.614 20.0811C137.614 20.1025 137.614 20.1238 137.614 20.1452C137.614 20.1452 137.614 20.1879 137.614 20.2093V20.3588C137.614 20.3588 137.614 20.487 137.614 20.5511V20.9143V20.9997C137.614 20.9997 137.614 21.0211 137.614 21.0424C137.614 21.0424 137.614 21.0638 137.614 21.0852C137.614 21.0852 137.636 21.1065 137.636 21.1279C137.636 21.1279 137.678 21.1706 137.678 21.192C137.678 21.192 137.678 21.192 137.721 21.192C137.721 21.192 137.785 21.192 137.828 21.192H137.914C137.914 21.192 137.957 21.192 137.999 21.192H138.106C138.106 21.192 138.192 21.192 138.235 21.192C138.278 21.192 138.32 21.192 138.363 21.192H138.513C138.513 21.192 138.663 21.192 138.748 21.192C138.834 21.192 138.92 21.2133 138.984 21.2347C139.005 21.2988 139.027 21.3629 139.048 21.3842C139.069 21.427 139.091 21.4697 139.112 21.5124C139.112 21.5551 139.112 21.5979 139.155 21.662C139.155 21.7047 139.155 21.7474 139.155 21.8115C139.155 21.9183 139.134 22.0038 139.069 22.0679C139.005 22.1319 138.92 22.1533 138.791 22.1533C138.727 22.1533 138.641 22.1747 138.577 22.196C138.513 22.196 138.449 22.196 138.406 22.196H137.25H135.56C135.538 22.196 135.517 22.196 135.474 22.1747C135.453 22.1747 135.41 22.1747 135.389 22.1747C135.303 22.1747 135.217 22.196 135.153 22.196C135.11 22.196 135.068 22.196 135.046 22.196H134.768C134.768 22.196 134.704 22.0465 134.682 21.9824C134.682 21.9183 134.64 21.8542 134.64 21.7901C134.64 21.7901 134.64 21.7688 134.64 21.7474M134.747 25.3577C134.768 25.1227 134.789 24.9305 134.832 24.7596C134.854 24.5887 134.875 24.4605 134.896 24.375C134.939 24.2255 135.003 24.076 135.089 23.9264C135.175 23.7769 135.282 23.6487 135.431 23.5205C135.453 23.4778 135.496 23.4351 135.538 23.3923C135.581 23.3496 135.624 23.2855 135.645 23.2428C135.795 23.136 135.966 23.0505 136.138 22.9865C136.309 22.9224 136.501 22.901 136.715 22.901H136.887C136.887 22.901 137.015 22.901 137.058 22.901C137.101 22.901 137.186 22.901 137.229 22.901C137.293 22.901 137.357 22.901 137.422 22.901C137.55 22.901 137.657 22.9437 137.743 22.9651C137.828 22.9651 137.914 23.0078 137.978 23.0292H138.021C138.128 23.0292 138.256 23.0719 138.385 23.136C138.513 23.2001 138.641 23.3069 138.748 23.4351C138.855 23.5419 138.941 23.6487 139.005 23.7769C139.069 23.9051 139.134 24.0119 139.198 24.14C139.198 24.2041 139.198 24.2682 139.219 24.3323C139.219 24.4178 139.241 24.5032 139.241 24.5887C139.241 24.6528 139.241 24.6955 139.241 24.7596C139.241 24.8023 139.241 24.845 139.241 24.9091C139.241 24.9732 139.241 25.0159 139.241 25.0586C139.241 25.1014 139.241 25.1441 139.241 25.2082C139.241 25.4005 139.219 25.5927 139.134 25.785C139.069 25.9559 138.962 26.1268 138.855 26.2763C138.855 26.2763 138.834 26.3191 138.791 26.3404C138.77 26.3618 138.727 26.4045 138.684 26.4472C138.641 26.49 138.577 26.554 138.513 26.6181C138.449 26.6822 138.385 26.7463 138.32 26.8318C138.256 26.8531 138.192 26.8745 138.149 26.9172C138.085 26.9386 138.021 26.9599 137.978 26.9813C137.935 26.9813 137.871 27.024 137.807 27.024C137.764 27.024 137.7 27.0667 137.657 27.0667C137.55 27.0881 137.464 27.1308 137.336 27.1308C137.229 27.1522 137.143 27.1736 137.036 27.1736C136.994 27.1736 136.929 27.1736 136.865 27.1736C136.801 27.1736 136.737 27.1522 136.651 27.1308C136.566 27.1095 136.501 27.0881 136.459 27.0881C136.416 27.0881 136.394 27.0881 136.394 27.0881C136.33 27.0667 136.287 27.0454 136.223 27.024C136.159 27.0027 136.073 26.9813 136.009 26.9599C135.902 26.9386 135.838 26.9172 135.795 26.8958C135.752 26.8958 135.71 26.8745 135.688 26.8531C135.581 26.8104 135.474 26.7249 135.367 26.6181C135.26 26.5113 135.175 26.3831 135.089 26.2122C135.025 26.1054 134.961 25.9986 134.896 25.8491C134.832 25.6995 134.768 25.55 134.704 25.3364M134.939 33.5824C134.939 33.4542 134.918 33.2833 134.918 33.1124C134.918 32.9415 134.918 32.7279 134.918 32.4929V32.0229C134.918 31.852 134.918 31.6811 134.918 31.5316C134.918 31.3607 134.918 31.2111 134.918 31.0402C134.918 30.8693 134.918 30.6984 134.939 30.5275V30.4421C134.939 30.4421 134.939 30.3993 134.939 30.378V30.2712C134.939 30.2712 134.939 30.2498 134.939 30.2284C134.939 30.2071 134.939 30.1644 134.896 30.1216C134.896 30.0789 134.896 30.0362 134.875 29.9935C134.875 29.9294 134.854 29.8653 134.832 29.8012C134.832 29.7585 134.832 29.6944 134.875 29.6303C134.875 29.5876 134.875 29.5235 134.875 29.4594C134.875 29.4167 134.875 29.3739 134.896 29.3098C134.896 29.2671 134.896 29.203 134.918 29.1389C134.939 29.0535 135.003 29.0108 135.11 28.968C135.217 28.9253 135.346 28.9039 135.56 28.9039C135.624 28.9039 135.71 28.9039 135.752 28.9039C135.795 28.9039 135.859 28.9253 135.902 28.9253C135.924 28.9467 135.945 28.9894 135.966 29.0321C135.966 29.0749 136.009 29.1389 136.031 29.203C136.031 29.2671 136.031 29.3739 136.052 29.4594C136.052 29.5662 136.052 29.6944 136.052 29.8225V30.0148C136.052 30.0148 136.052 30.1216 136.052 30.1857V30.4848C136.052 30.4848 136.052 30.5702 136.031 30.613V31.147C136.031 31.147 136.031 31.2966 136.052 31.3607C136.052 31.4461 136.052 31.5102 136.052 31.5743C136.052 31.617 136.052 31.6597 136.052 31.6597C136.052 31.7025 136.052 31.7238 136.052 31.7879C136.052 31.8307 136.052 31.8734 136.052 31.9375C136.031 32.0016 136.031 32.0443 136.031 32.087V32.3861C136.031 32.3861 136.031 32.5143 136.073 32.5784C136.073 32.6424 136.095 32.7065 136.116 32.792C136.138 32.8774 136.159 32.9629 136.223 33.0911C136.309 33.0911 136.373 33.0911 136.459 33.0911C136.523 33.0911 136.63 33.0911 136.715 33.0483C136.822 33.0483 136.951 33.027 137.101 33.0056C137.229 33.0056 137.357 33.0056 137.443 32.9629C137.55 32.9629 137.657 32.9629 137.721 32.9415C137.785 32.9415 137.85 32.9415 137.914 32.9415C137.957 32.9415 137.999 32.9415 138.021 32.9415C138.021 32.9415 138.064 32.9415 138.085 32.9415C138.106 32.9415 138.149 32.9415 138.171 32.9415C138.213 32.9415 138.256 32.9415 138.299 32.9415C138.342 32.9415 138.385 32.9415 138.427 32.9415C138.513 32.9415 138.599 32.9842 138.663 32.9842C138.727 32.9842 138.791 32.9842 138.834 32.9842H138.92C138.92 32.9842 138.984 32.9842 139.005 32.9842C139.048 32.9842 139.091 32.9842 139.112 32.9842C139.155 32.9842 139.176 32.9842 139.198 32.9842C139.198 32.9842 139.241 32.9842 139.241 32.9629C139.241 32.9629 139.241 32.9629 139.262 32.9629C139.262 32.9629 139.262 32.9629 139.283 32.9629C139.283 32.9629 139.326 32.9629 139.348 32.9629H139.433C139.433 32.9629 139.497 32.9629 139.519 32.9629C139.562 32.9629 139.583 32.9629 139.604 32.9629C139.626 32.9629 139.647 32.9629 139.669 32.9629H139.711C139.711 32.9629 139.733 32.9629 139.754 32.9629C139.797 32.9629 139.84 32.9629 139.904 33.027C139.947 33.0697 139.99 33.1338 140.011 33.2192C140.011 33.3047 140.054 33.3901 140.054 33.4542C140.054 33.5397 140.054 33.6038 140.054 33.6679C140.032 33.6679 140.011 33.7106 139.968 33.7319C139.947 33.7533 139.904 33.7747 139.883 33.796C139.861 33.796 139.84 33.8388 139.797 33.8601C139.776 33.8815 139.754 33.9028 139.733 33.9242H139.54C139.54 33.9242 139.412 33.9242 139.369 33.9242C139.305 33.9242 139.219 33.9242 139.155 33.9242C139.091 33.9242 138.984 33.9242 138.898 33.9242H138.577C138.363 33.9456 138.192 33.9456 138.085 33.9456H137.871C137.743 33.9456 137.593 33.9456 137.464 33.9456C137.315 33.9456 137.143 33.9456 136.951 33.9883C136.758 33.9883 136.63 34.0097 136.523 34.0097H136.33C136.33 34.0097 136.18 34.0097 136.095 34.0097C136.009 34.0097 135.902 34.0097 135.817 33.9883C135.71 33.9883 135.603 33.9669 135.517 33.9456C135.431 33.9456 135.367 33.9456 135.324 33.9456H135.175C135.175 33.9456 135.089 33.9456 135.068 33.9456H135.003C135.003 33.9456 134.939 33.8601 134.918 33.7747C134.918 33.6892 134.875 33.5824 134.875 33.4329M143.435 37.6841C143.435 37.6841 143.435 37.8122 143.435 37.855C143.435 37.8977 143.435 37.9404 143.392 37.9831C143.392 37.9831 143.392 38.0259 143.371 38.0472C143.371 38.09 143.349 38.1113 143.328 38.1327C143.328 38.154 143.285 38.1968 143.285 38.2395C143.285 38.2822 143.242 38.3036 143.242 38.3677C143.135 38.4104 143.007 38.4531 142.9 38.4745C142.793 38.4745 142.686 38.4958 142.579 38.4958C142.558 38.4958 142.515 38.4958 142.472 38.4958C142.408 38.4958 142.386 38.4958 142.322 38.4745C142.258 38.4745 142.215 38.4745 142.172 38.4531C142.13 38.4531 142.087 38.4531 142.065 38.4531H141.316C141.316 38.4531 141.252 38.4531 141.209 38.4745C141.167 38.4745 141.124 38.4745 141.06 38.4958C140.995 38.4958 140.931 38.5172 140.888 38.5172H140.353C140.353 38.5172 140.225 38.5172 140.075 38.5172C139.925 38.5172 139.733 38.5172 139.476 38.5172C139.326 38.5172 139.219 38.5172 139.112 38.5172C139.005 38.5172 138.92 38.5172 138.834 38.5172H137.55C137.55 38.5172 137.4 38.5172 137.293 38.5172C137.186 38.5172 137.101 38.5172 136.972 38.5599C136.908 38.5599 136.844 38.5599 136.801 38.5599C136.737 38.5599 136.694 38.5599 136.673 38.5599C136.63 38.5599 136.587 38.5599 136.566 38.5599H136.501C136.501 38.5599 136.416 38.5599 136.373 38.5599C136.33 38.5599 136.309 38.5386 136.287 38.5172C136.223 38.5172 136.18 38.4958 136.116 38.4958C136.073 38.4958 136.009 38.4958 135.945 38.4958C135.902 38.4958 135.881 38.4958 135.859 38.4958C135.838 38.4958 135.817 38.4958 135.795 38.4958C135.774 38.4958 135.752 38.4958 135.731 38.4958C135.731 38.4958 135.71 38.4958 135.688 38.4958H135.645C135.645 38.4958 135.603 38.4958 135.581 38.4958C135.56 38.4958 135.538 38.4958 135.517 38.4958C135.496 38.4958 135.474 38.4745 135.453 38.4745C135.389 38.4531 135.324 38.4318 135.282 38.4104C135.239 38.4104 135.175 38.389 135.153 38.3677C135.132 38.3463 135.11 38.3036 135.11 38.2609C135.11 38.2181 135.11 38.154 135.11 38.09V37.9618C135.11 37.9618 135.11 37.8763 135.11 37.8336V37.7268C135.11 37.7268 135.11 37.6627 135.11 37.6413C135.11 37.5986 135.11 37.5559 135.11 37.5132C135.11 37.4704 135.11 37.4277 135.11 37.385V37.1927C135.11 37.0005 135.089 36.8295 135.068 36.7227V35.9323C135.068 35.9323 135.068 35.8682 135.068 35.8469C135.068 35.8041 135.068 35.7828 135.068 35.74C135.068 35.6973 135.068 35.676 135.089 35.6332L135.046 35.4837C135.046 35.4837 135.089 35.2701 135.153 35.1846C135.196 35.0778 135.26 34.9923 135.324 34.8855C135.389 34.8855 135.453 34.8428 135.538 34.8428C135.624 34.8428 135.688 34.8214 135.774 34.8214C135.774 34.8214 135.795 34.8214 135.817 34.8214H136.544C136.673 34.8214 136.822 34.8214 136.994 34.8214C137.143 34.8214 137.272 34.8214 137.357 34.8001C137.443 34.8001 137.529 34.8001 137.55 34.8001H137.7C137.7 34.8001 137.743 34.8428 137.785 34.8428H138.213C138.213 34.8428 138.278 34.8428 138.32 34.8428C138.342 34.8428 138.363 34.8428 138.406 34.8428C138.427 34.8428 138.47 34.8428 138.534 34.8642C138.556 34.8642 138.599 34.8642 138.62 34.8642H138.877C138.877 34.8642 139.027 34.8642 139.134 34.8642C139.241 34.8642 139.305 34.8642 139.39 34.8642C139.476 34.8642 139.54 34.8642 139.626 34.8642C139.69 34.8642 139.754 34.8642 139.797 34.8642C139.84 34.8642 139.883 34.8642 139.904 34.8642L140.439 34.8214C140.439 34.8214 140.653 34.8214 140.76 34.8214C140.888 34.8214 140.995 34.8214 141.124 34.8214H141.851C142.087 34.8214 142.322 34.8214 142.536 34.8428C142.75 34.8428 142.986 34.8855 143.199 34.9069C143.221 34.9069 143.242 34.9496 143.264 34.9923C143.264 35.0137 143.285 35.0564 143.285 35.0992V35.3769C143.285 35.5051 143.285 35.6332 143.307 35.8041C143.307 35.8896 143.307 35.9537 143.307 36.0178C143.307 36.0819 143.307 36.1459 143.307 36.1673C143.307 36.21 143.307 36.2314 143.307 36.2528V36.3168C143.307 36.3168 143.307 36.3809 143.307 36.445C143.307 36.5091 143.307 36.5732 143.328 36.6373C143.328 36.7227 143.328 36.7868 143.371 36.8509C143.371 36.8936 143.371 36.9577 143.371 37.0005V37.7054L143.435 37.6841ZM144.676 31.5957C144.676 31.5957 144.59 31.8093 144.548 31.9161C144.483 32.0229 144.398 32.1084 144.334 32.1725C144.248 32.2365 144.162 32.2579 144.077 32.2579C143.884 32.2579 143.713 32.2579 143.585 32.2579C143.456 32.2579 143.349 32.2152 143.285 32.1725C143.157 32.1084 143.071 32.0443 143.007 31.9375C142.943 31.8093 142.9 31.6811 142.9 31.5102C142.9 31.4034 142.9 31.2966 142.943 31.1684C142.943 31.0616 143.007 30.9761 143.071 30.8907C143.114 30.8052 143.2 30.7412 143.285 30.7198C143.371 30.6771 143.478 30.6343 143.606 30.6343H144.141C144.141 30.6343 144.291 30.6557 144.355 30.6984C144.419 30.7198 144.505 30.7839 144.569 30.848C144.633 30.9121 144.676 30.9975 144.697 31.0616C144.74 31.1257 144.762 31.2111 144.762 31.2966C144.762 31.4034 144.74 31.5102 144.697 31.617" fill="white"/>
<path d="M5.44899 24.6313H11.8689C14.8435 24.6313 17.2403 22.2386 17.2403 19.2692V6.6438C17.2403 3.69573 14.8435 1.28174 11.8689 1.28174H5.44899C2.47442 1.28174 0.0776367 3.69573 0.0776367 6.6438V19.2692C0.0776367 22.2173 2.47442 24.6313 5.44899 24.6313ZM3.56581 6.6438C3.56581 5.59702 4.4218 4.76387 5.44899 4.76387H11.8689C12.9175 4.76387 13.7521 5.59702 13.7521 6.6438V19.2692C13.7521 20.316 12.8961 21.1491 11.8689 21.1491H5.44899C4.4004 21.1491 3.56581 20.2946 3.56581 19.2692V6.6438Z" fill="white"/>
<path d="M26.4423 0.469971C25.4793 0.469971 24.7089 1.23903 24.7089 2.20036V22.5805C21.0067 23.3709 18.2034 26.6821 18.2034 30.6129C18.2034 35.1418 21.9055 38.8376 26.4423 38.8376C30.9791 38.8376 34.6812 35.1418 34.6812 30.6129C34.6812 26.6821 31.8779 23.3709 28.1757 22.5805V2.22172C28.1757 1.26039 27.4053 0.491334 26.4423 0.491334M31.1931 30.6342C31.1931 33.2619 29.0531 35.3768 26.4423 35.3768C23.8315 35.3768 21.6915 33.2619 21.6915 30.6342C21.6915 28.0066 23.8315 25.8917 26.4423 25.8917C29.0531 25.8917 31.1931 28.028 31.1931 30.6342Z" fill="white"/>
<path d="M21.135 10.9591C22.3334 10.9591 23.2964 9.99776 23.2964 8.80144C23.2964 7.60512 22.3334 6.6438 21.135 6.6438C19.9366 6.6438 18.9736 7.60512 18.9736 8.80144C18.9736 9.99776 19.9366 10.9591 21.135 10.9591Z" fill="white"/>
<path d="M21.135 17.0475C22.3334 17.0475 23.2964 16.0648 23.2964 14.8898C23.2964 13.7149 22.3334 12.7322 21.135 12.7322C19.9366 12.7322 18.9736 13.6935 18.9736 14.8898C18.9736 16.0861 19.9366 17.0475 21.135 17.0475Z" fill="white"/>
<path d="M102.968 25.8063C103.203 25.8063 103.439 25.8063 103.696 25.8063H110.972C110.972 25.8063 112.256 25.7849 113.026 26.5112C113.518 26.9812 113.754 27.7076 113.754 28.6689V33.0269C113.754 33.9241 114.481 34.6291 115.358 34.6291C116.236 34.6291 116.963 33.9241 116.963 33.0269V28.6689C116.963 26.319 116.022 24.9304 115.23 24.1827C113.54 22.5805 111.293 22.5805 110.843 22.6018H103.76C103.482 22.6018 103.225 22.6018 102.925 22.6018C101.62 22.6018 101.213 22.5591 100.892 21.9823C100.314 18.607 98.0888 16.5989 94.9003 16.5989H84.3074V13.1808H92.5035C93.4023 13.1808 94.1085 12.4545 94.1085 11.5786C94.1085 10.7028 93.3809 9.97643 92.5035 9.97643H76.9886C76.9886 9.97643 75.5548 10.0192 74.656 9.16464C74.0996 8.63057 73.8215 7.81879 73.8215 6.72928V1.60221C73.8215 0.726335 73.0939 0 72.2165 0C71.3391 0 70.6115 0.726335 70.6115 1.60221V6.70792C70.6115 8.71602 71.2321 10.3182 72.4305 11.4718C74.0783 13.0313 76.2182 13.1595 76.9244 13.1595C76.9886 13.1595 77.0528 13.1595 77.0956 13.1595H81.0546V16.5775H69.9695C69.0921 16.5775 68.3645 17.3039 68.3645 18.1797C68.3645 19.0556 69.0707 19.782 69.9695 19.782H94.8789C95.4781 19.782 97.3399 19.782 97.7464 22.6873C97.7464 22.8368 97.8106 22.9864 97.8748 23.1359C99.116 25.8276 101.513 25.8063 102.947 25.7849" fill="white"/>
<path d="M127.535 36.7653H108.596C108.596 36.7653 107.291 36.7867 106.499 36.039C106.028 35.5904 105.793 34.864 105.793 33.9027V30.1642C105.793 29.2883 105.065 28.562 104.188 28.562C103.31 28.562 102.583 29.267 102.583 30.1642V33.9027C102.583 36.2526 103.524 37.6412 104.316 38.3889C105.857 39.8629 107.869 39.9911 108.553 39.9911C108.618 39.9911 108.682 39.9911 108.703 39.9911H127.535C128.412 39.9911 129.14 39.2861 129.14 38.3889C129.14 37.4917 128.434 36.7867 127.535 36.7867" fill="white"/>
<path d="M82.7023 21.5552C77.9302 21.5552 74.0354 25.4432 74.0354 30.2071C74.0354 34.971 77.9088 38.859 82.7023 38.859C87.4959 38.859 91.3692 34.971 91.3692 30.2071C91.3692 25.4432 87.4745 21.5552 82.7023 21.5552ZM82.7023 35.6546C79.7063 35.6546 77.2454 33.2193 77.2454 30.2285C77.2454 27.2377 79.6849 24.781 82.7023 24.781C85.7197 24.781 88.1593 27.2163 88.1593 30.2285C88.1593 33.2406 85.7197 35.6546 82.7023 35.6546Z" fill="white"/>
<path d="M111.87 18.0942C116.343 18.0942 119.981 14.4626 119.981 9.97638C119.981 5.4902 116.343 1.87988 111.87 1.87988C107.398 1.87988 103.76 5.51156 103.76 9.97638C103.76 14.4412 107.398 18.0942 111.87 18.0942ZM111.87 5.0843C114.588 5.0843 116.771 7.28467 116.771 9.97638C116.771 12.6681 114.567 14.8898 111.87 14.8898C109.174 14.8898 106.97 12.6895 106.97 9.97638C106.97 7.26331 109.174 5.0843 111.87 5.0843Z" fill="white"/>
<path d="M125.288 2.34985V21.2559C125.288 21.2559 125.288 22.3882 124.667 23.0504C124.261 23.4777 123.64 23.6699 122.784 23.6699H120.323C119.446 23.6699 118.718 24.3963 118.718 25.2721C118.718 26.148 119.446 26.8743 120.323 26.8743H122.784C124.988 26.8743 126.315 25.9985 127.021 25.2508C128.519 23.6699 128.541 21.555 128.519 21.1278V2.34985C127.214 2.60621 125.909 2.45667 125.309 2.34985H125.288Z" fill="white"/>
<path d="M65.9676 0.469971H62.0514C59.6546 0.469971 58.2423 1.4313 57.4719 2.24308C55.8455 3.95211 55.8241 6.23793 55.8455 6.70791V22.4096H39.4746C38.4474 22.4096 37.5914 21.726 37.5914 20.8714V16.4066C37.5914 15.6376 38.3832 14.9967 39.3462 14.9967H46.0444C48.9333 14.9967 51.2659 12.7963 51.2659 10.1046V6.28065C51.2659 3.50349 48.8691 1.26039 45.8946 1.26039H36.1577C35.1947 1.26039 34.4243 2.05082 34.4243 2.99078C34.4243 3.93074 35.2161 4.74253 36.1577 4.74253H45.8946C46.9218 4.74253 47.7778 5.42614 47.7778 6.28065V10.1046C47.7778 10.8737 46.986 11.5145 46.023 11.5145H39.3248C36.4359 11.5145 34.1033 13.6935 34.1033 16.4066V20.8714C34.1033 23.6272 36.5001 25.8917 39.4746 25.8917H50.8807C49.9177 27.2376 49.3613 28.8611 49.3613 30.6342C49.3613 34.5223 52.0791 37.7694 55.7171 38.6239V38.7094C56.3805 38.8162 57.7929 38.9657 59.2053 38.7094C62.993 37.9617 65.8392 34.6291 65.8392 30.6342C65.8392 26.6394 63.0572 23.3923 59.3551 22.6018V6.57973C59.3551 6.57973 59.3337 5.36205 60.0398 4.63572C60.4678 4.1871 61.1526 3.95211 62.0942 3.95211H66.0104C66.9734 3.95211 67.7438 3.18305 67.7438 2.22172C67.7438 1.26039 66.952 0.491334 66.0104 0.491334L65.9676 0.469971ZM62.3296 30.6342C62.3296 33.2619 60.1896 35.3768 57.5789 35.3768C54.9681 35.3768 52.8281 33.2619 52.8281 30.6342C52.8281 28.0066 54.9681 25.8917 57.5789 25.8917C60.1896 25.8917 62.3296 28.028 62.3296 30.6342Z" fill="white"/>
<path d="M126.893 0C126.015 0 125.288 0.704972 125.288 1.60221V20.316H128.476V1.60221C128.476 0.726335 127.77 0 126.893 0Z" fill="white"/>
</g>
<defs>
<clipPath id="clip0_12_42">
<rect width="145.455" height="58" fill="white" transform="translate(0.0776367)"/>
</clipPath>
</defs>
</svg>
