<?xml version="1.0" encoding="UTF-8"?><svg id="_레이어_2" xmlns="http://www.w3.org/2000/svg" viewBox="0 0 136.78 46.38"><defs><style>.cls-1{fill:#fff;stroke-width:0px;}</style></defs><g id="_레이어_1-2"><path class="cls-1" d="M21.45,29.83c3.14,2.71,6.2,5.35,9.27,7.99,1.9,1.63,3.79,3.27,5.7,4.89.81.69,1.31,1.5.55,2.44-.83,1.02-1.75.64-2.61-.1-5-4.31-10.01-8.62-15.01-12.93-.56-.48-1.13-.95-1.8-1.52-.97,1.34-1.85,2.54-2.72,3.75-2.54,3.53-5.09,7.06-7.6,10.61-.73,1.04-1.6,1.7-2.91,1.29-1.32-.41-1.59-1.47-1.59-2.73.02-8.04,0-16.09.04-24.13,0-1.1-.22-1.94-1.18-2.54C.31,16.06-.04,14.9,0,13.41c.1-3.65.04-7.29.03-10.94C.02,1.31.03.16,1.54,0c1.08-.11,1.6.75,1.6,2.53,0,4.6-.04,9.19.05,13.79.01.72.43,1.64.97,2.12,4,3.55,8.08,7.02,12.15,10.51.33.29.69.55,1.15.9.35-.45.66-.82.94-1.21,3.8-5.28,7.59-10.56,11.38-15.83.26-.36.47-.91.82-1.04.63-.22,1.55-.48,1.99-.18.41.27.47,1.26.43,1.91-.03.43-.5.84-.8,1.24-3.27,4.55-6.53,9.1-9.8,13.64-.31.44-.61.89-.97,1.43ZM3.66,19.19c-.05.82-.1,1.25-.1,1.68,0,7.48-.03,14.97.04,22.45,0,.71.42,1.73.97,2.06.99.59,1.58-.38,2.12-1.12,2.73-3.81,5.47-7.62,8.2-11.44.57-.8,1.13-1.61,1.74-2.49-4.29-3.69-8.49-7.3-12.97-11.15Z"/><path class="cls-1" d="M67.98,33.96c-1.12.33-1.62.16-1.61-.94.04-3.29-.02-6.59.06-9.88.01-.47.63-1.32.9-1.3.54.05,1.32.47,1.52.94,1,2.34,1.81,4.75,2.77,7.11.19.48.73.81,1.11,1.21.33-.4.78-.75.96-1.21.92-2.32,1.71-4.69,2.67-6.99.21-.5.94-.77,1.43-1.15.25.52.69,1.04.7,1.57.07,3.19.06,6.39,0,9.58,0,.41-.41.8-.64,1.21-.19-.38-.52-.76-.54-1.15-.07-1.44.04-2.9-.06-4.34-.03-.49-.5-.94-.76-1.41-.36.35-.87.63-1.05,1.06-.65,1.51-1.14,3.09-1.78,4.6-.2.48-.68.84-1.03,1.25-.32-.39-.76-.73-.95-1.17-.67-1.61-1.22-3.27-1.89-4.88-.16-.38-.66-.62-1-.92-.27.41-.75.82-.77,1.24-.09,1.83-.04,3.68-.04,5.57Z"/><path class="cls-1" d="M108.05,27.57c1.73.91,2.33,2.18,2.08,3.84-.23,1.57-1.19,2.55-2.78,2.64-1.79.11-3.6.12-5.4.03-.4-.02-1.08-.65-1.09-1.02-.08-3.39-.09-6.78,0-10.17.01-.41.73-1.12,1.15-1.14,1.64-.09,3.34-.18,4.92.16.92.2,1.94,1.05,2.41,1.9.76,1.38.1,2.69-1.3,3.76ZM104.52,33.33c1.18-.14,1.97-.22,2.76-.34,1.02-.16,1.59-.76,1.68-1.79.09-1.06-.04-2.23-1.14-2.48-1.56-.36-3.22-.33-4.84-.42-.18-.01-.55.26-.55.41-.04,1.32-.22,2.7.1,3.94.11.43,1.51.54,2,.69ZM104.62,27.3c.69-.07,1.41-.06,2.08-.22,1.49-.35,2.15-1.74,1.54-3.12-.53-1.21-4.9-1.87-5.75-.87-.06.07-.12.16-.16.25-.95,2.02.15,3.91,2.29,3.97Z"/><path class="cls-1" d="M136.78,27.36c0,5.2-2.88,7.8-7.11,7.02-.2-.04-.4-.07-.58-.13-3.22-.99-4.8-5.33-3.36-9.25,1.13-3.09,4.51-4.53,7.64-3.18,2.67,1.16,3.35,3.49,3.42,5.53ZM135.11,28.03c0-.55.02-1.1,0-1.65-.08-2.44-1.56-3.94-3.92-4-2.37-.06-4.06,1.35-4.27,3.69-.11,1.24-.11,2.5,0,3.74.19,2.33,1.89,3.77,4.26,3.7,2.38-.07,3.86-1.56,3.94-3.99.02-.5,0-1,0-1.5Z"/><path class="cls-1" d="M50.92,22.22c-1.25,1.14-2.46,2.31-3.75,3.39-1.02.85-1.08,1.58-.2,2.62,1.54,1.82,2.95,3.75,4.42,5.63-.09.13-.18.26-.27.39-.51-.3-1.15-.49-1.51-.92-1.07-1.25-1.99-2.63-3.07-3.87-.46-.53-1.18-.84-1.78-1.25-.56.82-1.37,1.58-1.62,2.49-.28,1.01-.06,2.16-.06,3.24-1.09.37-1.51.13-1.5-.93.03-3.39-.01-6.79.05-10.18,0-.37.51-.74.78-1.11.22.36.6.71.64,1.09.09.99-.01,2,.06,2.99.03.4.26,1.07.49,1.1.39.06.96-.15,1.26-.45,1.34-1.27,2.59-2.64,3.93-3.91.45-.43,1.08-.67,1.63-1l.52.67Z"/><path class="cls-1" d="M85.66,30.34c.28.3.75.56.81.91.5,2.46,4.05,2.8,5.45,1.74.58-.44,1.1-1.4,1.07-2.08-.04-.68-.68-1.57-1.31-1.91-1.03-.56-2.27-.73-3.41-1.09-2.03-.64-2.85-1.69-2.72-3.39.13-1.71,1.28-2.78,3.31-3.06,2.84-.4,4.7.89,4.95,3.96-.57-.47-1-.66-1.15-.98-.85-1.79-2.65-2.64-4.43-1.74-.68.34-1.43,1.29-1.44,1.98-.02.66.74,1.58,1.4,1.97.87.51,1.99.6,2.99.91,2.4.75,3.27,1.92,3,3.96-.25,1.83-1.56,2.87-3.86,3.03-3.02.22-4.71-1.05-5.02-3.79.12-.13.25-.26.37-.39Z"/><path class="cls-1" d="M59.24,27.95c0,1.65.05,3.3-.04,4.95-.02.41-.49.81-.75,1.21-.29-.38-.82-.76-.83-1.14-.07-3.35-.07-6.7,0-10.04,0-.38.55-.76.84-1.14.25.41.71.81.73,1.22.09,1.64.03,3.3.03,4.95Z"/><path class="cls-1" d="M118.43,27.85c0,1.7.05,3.4-.04,5.09-.02.4-.52.77-.8,1.16-.28-.4-.79-.79-.8-1.2-.07-3.29-.07-6.59,0-9.88,0-.42.5-.82.76-1.23.29.42.8.83.83,1.27.1,1.59.04,3.19.04,4.79Z"/></g></svg>