<?xml version="1.0" encoding="utf-8"?>
<!-- Generator: Adobe Illustrator 28.2.0, SVG Export Plug-In . SVG Version: 6.00 Build 0)  -->
<svg version="1.1" id="레이어_1" xmlns="http://www.w3.org/2000/svg" xmlns:xlink="http://www.w3.org/1999/xlink" x="0px"
	 y="0px" viewBox="0 0 100 30" style="enable-background:new 0 0 100 30;" xml:space="preserve">
<style type="text/css">
	.st0{fill:#DBDBDB;}
	.st1{fill:#727171;}
</style>
<rect class="st0" width="100" height="30"/>
<g>
	<path d="M21.2,19.5V3.3h2.9v13.8h6.8v2.3H21.2z"/>
	<path d="M40,19.7c-2.2,0-4-0.7-5.3-2.1c-1.3-1.4-2-3.4-2-6v-0.5c0-2.6,0.7-4.5,2-5.9c1.3-1.4,3.1-2.1,5.4-2.1c2.2,0,4,0.7,5.3,2.1
		c1.3,1.4,2,3.4,2,6v0.5c0,2.6-0.7,4.5-2,5.9C44,19,42.2,19.7,40,19.7z M40.1,17.5c1.4,0,2.4-0.5,3.1-1.5c0.7-1,1.1-2.3,1.1-4v-0.8
		c0-3.9-1.4-5.8-4.3-5.8c-1.4,0-2.4,0.5-3.1,1.5c-0.7,1-1.1,2.3-1.1,4v0.8C35.8,15.5,37.2,17.5,40.1,17.5z"/>
	<path d="M57.3,19.7c-2.5,0-4.4-0.6-5.7-1.9c-1.3-1.3-2-3.3-2-6.1v-0.5c0-1.5,0.2-2.8,0.6-3.8c0.4-1.1,1-1.9,1.8-2.6
		c0.8-0.6,1.6-1.1,2.5-1.3c0.9-0.3,1.9-0.4,3-0.4c1.8,0,3.2,0.3,4.4,0.9v2.3c-1.4-0.6-2.8-0.9-4.3-0.9c-3.3,0-4.9,1.9-4.9,5.6v0.7
		c0,1.8,0.3,3.3,1,4.2c0.7,1,1.9,1.5,3.7,1.5c0.9,0,1.7-0.1,2.5-0.4v-3.7h-3v-2.2h5.8v7.5C60.9,19.4,59.1,19.7,57.3,19.7z"/>
	<path d="M72.3,19.7c-2.2,0-4-0.7-5.3-2.1c-1.3-1.4-2-3.4-2-6v-0.5c0-2.6,0.7-4.5,2-5.9c1.3-1.4,3.1-2.1,5.4-2.1
		c2.2,0,4,0.7,5.3,2.1c1.3,1.4,2,3.4,2,6v0.5c0,2.6-0.7,4.5-2,5.9C76.3,19,74.5,19.7,72.3,19.7z M72.4,17.5c1.4,0,2.4-0.5,3.1-1.5
		c0.7-1,1.1-2.3,1.1-4v-0.8c0-3.9-1.4-5.8-4.3-5.8c-1.4,0-2.4,0.5-3.1,1.5c-0.7,1-1.1,2.3-1.1,4v0.8C68.1,15.5,69.5,17.5,72.4,17.5z
		"/>
</g>
<g>
	<path class="st1" d="M22.6,27c-0.6,0-1-0.3-1-0.9v-1.9h-0.5v-0.6h0.5v-0.8h0.7v0.8h0.8v0.6h-0.8V26c0,0.1,0,0.2,0.1,0.3
		c0.1,0.1,0.2,0.1,0.4,0.1c0.1,0,0.3,0,0.4-0.1v0.5C23.1,26.9,22.9,27,22.6,27z"/>
	<path class="st1" d="M24,26.9v-4.8h0.7v1.7h0c0.3-0.2,0.7-0.3,1.1-0.3c0.3,0,0.6,0.1,0.7,0.2s0.2,0.4,0.2,0.7v2.5H26v-2.3
		c0-0.2,0-0.3-0.1-0.4s-0.2-0.1-0.4-0.1c-0.3,0-0.5,0.1-0.8,0.2v2.6H24z"/>
	<path class="st1" d="M29.1,27c-0.5,0-1-0.1-1.2-0.4c-0.3-0.3-0.4-0.7-0.4-1.2v-0.1c0-0.5,0.1-1,0.4-1.2s0.7-0.4,1.1-0.4
		c0.5,0,0.8,0.1,1.1,0.4c0.2,0.3,0.3,0.7,0.3,1.2v0.3h-2.2c0,0.3,0.1,0.6,0.3,0.7c0.2,0.1,0.4,0.2,0.8,0.2c0.4,0,0.7-0.1,1-0.2v0.5
		C30,26.9,29.6,27,29.1,27z M29,24.1c-0.5,0-0.7,0.3-0.8,0.9h1.4c0-0.3-0.1-0.5-0.2-0.7C29.4,24.1,29.2,24.1,29,24.1z"/>
	<path class="st1" d="M31.1,26.9v-3.4h0.7v0.3h0c0.3-0.2,0.7-0.4,1-0.4c0.4,0,0.7,0.1,0.8,0.4h0c0.4-0.3,0.7-0.4,1.1-0.4
		c0.3,0,0.5,0.1,0.7,0.2c0.2,0.1,0.2,0.4,0.2,0.7v2.5H35v-2.3c0-0.2,0-0.3-0.1-0.4c-0.1-0.1-0.2-0.1-0.4-0.1c-0.2,0-0.4,0.1-0.7,0.2
		c0,0.1,0,0.1,0,0.2v2.4h-0.7v-2.3c0-0.2,0-0.3-0.1-0.4s-0.2-0.1-0.4-0.1c-0.2,0-0.5,0.1-0.7,0.2v2.6H31.1z"/>
	<path class="st1" d="M38.1,27c-0.5,0-1-0.1-1.2-0.4c-0.3-0.3-0.4-0.7-0.4-1.2v-0.1c0-0.5,0.1-1,0.4-1.2s0.7-0.4,1.1-0.4
		c0.5,0,0.8,0.1,1.1,0.4c0.2,0.3,0.3,0.7,0.3,1.2v0.3h-2.2c0,0.3,0.1,0.6,0.3,0.7c0.2,0.1,0.4,0.2,0.8,0.2c0.4,0,0.7-0.1,1-0.2v0.5
		C38.9,26.9,38.5,27,38.1,27z M37.9,24.1c-0.5,0-0.7,0.3-0.8,0.9h1.4c0-0.3-0.1-0.5-0.2-0.7C38.3,24.1,38.2,24.1,37.9,24.1z"/>
	<path class="st1" d="M39.6,27.6l1.6-5.5h0.7l-1.5,5.5H39.6z"/>
	<path class="st1" d="M42.4,23v-0.7h0.8V23H42.4z M42.4,26.9v-3.4h0.8v3.4H42.4z"/>
	<path class="st1" d="M44.1,26.9v-3.4h0.7v0.3h0c0.3-0.2,0.7-0.4,1-0.4c0.4,0,0.7,0.1,0.8,0.4h0c0.4-0.3,0.7-0.4,1.1-0.4
		c0.3,0,0.5,0.1,0.7,0.2c0.2,0.1,0.2,0.4,0.2,0.7v2.5h-0.7v-2.3c0-0.2,0-0.3-0.1-0.4c-0.1-0.1-0.2-0.1-0.4-0.1
		c-0.2,0-0.4,0.1-0.7,0.2c0,0.1,0,0.1,0,0.2v2.4H46v-2.3c0-0.2,0-0.3-0.1-0.4s-0.2-0.1-0.4-0.1c-0.2,0-0.5,0.1-0.7,0.2v2.6H44.1z"/>
	<path class="st1" d="M50.8,27.9c-0.5,0-0.9-0.1-1.2-0.2s-0.4-0.3-0.4-0.6c0-0.3,0.2-0.5,0.6-0.7v0c-0.1,0-0.2-0.1-0.3-0.2
		s-0.1-0.2-0.1-0.3c0-0.1,0-0.2,0.1-0.3c0.1-0.1,0.2-0.2,0.3-0.2c-0.3-0.2-0.4-0.4-0.4-0.8v-0.1c0-0.3,0.1-0.6,0.4-0.8
		s0.6-0.3,1-0.3c0.2,0,0.3,0,0.5,0.1h1.1v0.5h-0.5c0.1,0.1,0.2,0.3,0.2,0.5v0c0,0.3-0.1,0.6-0.4,0.8c-0.2,0.2-0.6,0.3-1,0.3
		c-0.2,0-0.4,0-0.5-0.1c0,0,0,0,0,0s0,0,0,0c0,0,0,0,0,0s0,0,0,0s0,0,0,0c0,0,0,0,0,0c0,0.1,0.1,0.2,0.3,0.2h0.9
		c0.7,0,1.1,0.3,1.1,0.8c0,0.3-0.1,0.6-0.4,0.8C51.8,27.8,51.3,27.9,50.8,27.9z M50.8,27.4c0.6,0,0.9-0.2,0.9-0.5
		c0-0.1,0-0.2-0.1-0.3s-0.2-0.1-0.4-0.1h-0.9C50.1,26.7,50,26.8,50,27C50,27.2,50.2,27.4,50.8,27.4z M50.8,25.1
		c0.4,0,0.6-0.2,0.6-0.5v-0.1c0-0.4-0.2-0.5-0.6-0.5c-0.4,0-0.6,0.2-0.6,0.5v0.1C50.2,25,50.4,25.1,50.8,25.1z"/>
	<path class="st1" d="M52.6,27.6l1.6-5.5h0.7l-1.5,5.5H52.6z"/>
	<path class="st1" d="M55.4,26.9v-4.8h0.8v4.8H55.4z"/>
	<path class="st1" d="M58.4,27c-0.5,0-0.9-0.1-1.2-0.4s-0.4-0.7-0.4-1.2v-0.1c0-0.5,0.1-0.9,0.4-1.2c0.3-0.3,0.7-0.5,1.2-0.5
		c0.5,0,0.9,0.1,1.2,0.4s0.4,0.7,0.4,1.2v0.1c0,0.5-0.1,0.9-0.4,1.2C59.3,26.8,58.9,27,58.4,27z M58.5,26.4c0.5,0,0.8-0.4,0.8-1.1
		v-0.2c0-0.4-0.1-0.7-0.2-0.9s-0.3-0.2-0.6-0.2c-0.3,0-0.5,0.1-0.6,0.3s-0.2,0.5-0.2,0.8v0.2c0,0.4,0.1,0.7,0.2,0.9
		C58,26.3,58.2,26.4,58.5,26.4z"/>
	<path class="st1" d="M62,27.9c-0.5,0-0.9-0.1-1.2-0.2s-0.4-0.3-0.4-0.6c0-0.3,0.2-0.5,0.6-0.7v0c-0.1,0-0.2-0.1-0.3-0.2
		s-0.1-0.2-0.1-0.3c0-0.1,0-0.2,0.1-0.3c0.1-0.1,0.2-0.2,0.3-0.2c-0.3-0.2-0.4-0.4-0.4-0.8v-0.1c0-0.3,0.1-0.6,0.4-0.8
		s0.6-0.3,1-0.3c0.2,0,0.3,0,0.5,0.1h1.1v0.5h-0.5c0.1,0.1,0.2,0.3,0.2,0.5v0c0,0.3-0.1,0.6-0.4,0.8c-0.2,0.2-0.6,0.3-1,0.3
		c-0.2,0-0.4,0-0.5-0.1c0,0,0,0,0,0s0,0,0,0c0,0,0,0,0,0s0,0,0,0s0,0,0,0s0,0,0,0c0,0.1,0.1,0.2,0.3,0.2h0.9c0.7,0,1.1,0.3,1.1,0.8
		c0,0.3-0.1,0.6-0.4,0.8C62.9,27.8,62.5,27.9,62,27.9z M61.9,27.4c0.6,0,0.9-0.2,0.9-0.5c0-0.1,0-0.2-0.1-0.3
		c-0.1,0-0.2-0.1-0.4-0.1h-0.9c-0.2,0.1-0.3,0.2-0.3,0.4C61.1,27.2,61.4,27.4,61.9,27.4z M62,25.1c0.4,0,0.6-0.2,0.6-0.5v-0.1
		c0-0.4-0.2-0.5-0.6-0.5c-0.4,0-0.6,0.2-0.6,0.5v0.1C61.4,25,61.6,25.1,62,25.1z"/>
	<path class="st1" d="M65.6,27c-0.5,0-0.9-0.1-1.2-0.4S64,25.8,64,25.3v-0.1c0-0.5,0.1-0.9,0.4-1.2s0.7-0.5,1.2-0.5
		c0.5,0,0.9,0.1,1.2,0.4c0.3,0.3,0.4,0.7,0.4,1.2v0.1c0,0.5-0.1,0.9-0.4,1.2C66.5,26.8,66.1,27,65.6,27z M65.6,26.4
		c0.5,0,0.8-0.4,0.8-1.1v-0.2c0-0.4-0.1-0.7-0.2-0.9c-0.1-0.2-0.3-0.2-0.6-0.2c-0.3,0-0.5,0.1-0.6,0.3s-0.2,0.5-0.2,0.8v0.2
		c0,0.4,0.1,0.7,0.2,0.9C65.2,26.3,65.4,26.4,65.6,26.4z"/>
	<path class="st1" d="M67.9,27v-0.8h0.8V27H67.9z"/>
	<path class="st1" d="M70.4,27c-0.5,0-0.8-0.1-1.1-0.2v-0.5c0.4,0.1,0.7,0.2,1,0.2c0.4,0,0.7-0.1,0.7-0.4c0-0.1,0-0.2-0.1-0.3
		c-0.1-0.1-0.2-0.1-0.4-0.2l-0.3-0.1c-0.3-0.1-0.5-0.2-0.6-0.3c-0.1-0.1-0.2-0.4-0.2-0.7c0-0.3,0.1-0.6,0.3-0.7
		c0.2-0.2,0.5-0.3,0.9-0.3c0.4,0,0.7,0.1,1,0.2v0.6c-0.3-0.1-0.6-0.2-0.9-0.2c-0.4,0-0.6,0.1-0.6,0.4c0,0.1,0,0.2,0.1,0.3
		c0.1,0.1,0.2,0.1,0.3,0.1l0.3,0.1c0.3,0.1,0.6,0.2,0.7,0.3c0.1,0.1,0.2,0.4,0.2,0.7c0,0.3-0.1,0.6-0.3,0.8
		C71.2,26.9,70.9,27,70.4,27z"/>
	<path class="st1" d="M73.3,26.9l-1.2-3.4h0.8l0.8,2.4h0l0.8-2.4h0.7l-1.2,3.4H73.3z"/>
	<path class="st1" d="M77.1,27.9c-0.5,0-0.9-0.1-1.2-0.2s-0.4-0.3-0.4-0.6c0-0.3,0.2-0.5,0.6-0.7v0c-0.1,0-0.2-0.1-0.3-0.2
		s-0.1-0.2-0.1-0.3c0-0.1,0-0.2,0.1-0.3c0.1-0.1,0.2-0.2,0.3-0.2c-0.3-0.2-0.4-0.4-0.4-0.8v-0.1c0-0.3,0.1-0.6,0.4-0.8
		s0.6-0.3,1-0.3c0.2,0,0.3,0,0.5,0.1h1.1v0.5h-0.5c0.1,0.1,0.2,0.3,0.2,0.5v0c0,0.3-0.1,0.6-0.4,0.8c-0.2,0.2-0.6,0.3-1,0.3
		c-0.2,0-0.4,0-0.5-0.1c0,0,0,0,0,0s0,0,0,0c0,0,0,0,0,0s0,0,0,0s0,0,0,0s0,0,0,0c0,0.1,0.1,0.2,0.3,0.2h0.9c0.7,0,1.1,0.3,1.1,0.8
		c0,0.3-0.1,0.6-0.4,0.8C78.1,27.8,77.7,27.9,77.1,27.9z M77.1,27.4c0.6,0,0.9-0.2,0.9-0.5c0-0.1,0-0.2-0.1-0.3
		c-0.1,0-0.2-0.1-0.4-0.1h-0.9c-0.2,0.1-0.3,0.2-0.3,0.4C76.3,27.2,76.6,27.4,77.1,27.4z M77.1,25.1c0.4,0,0.6-0.2,0.6-0.5v-0.1
		c0-0.4-0.2-0.5-0.6-0.5c-0.4,0-0.6,0.2-0.6,0.5v0.1C76.5,25,76.7,25.1,77.1,25.1z"/>
</g>
</svg>
