<?xml version="1.0" encoding="utf-8"?>
<!-- Generator: Adobe Illustrator 28.2.0, SVG Export Plug-In . SVG Version: 6.00 Build 0)  -->
<svg version="1.1" id="_레이어_2" xmlns="http://www.w3.org/2000/svg" xmlns:xlink="http://www.w3.org/1999/xlink" x="0px"
	 y="0px" viewBox="0 0 288.7 97.9" style="enable-background:new 0 0 288.7 97.9;" xml:space="preserve">
<style type="text/css">
	.st0{fill:#414042;}
</style>
<g id="_레이어_1-2">
	<path class="st0" d="M45.3,63c6.6,5.7,13.1,11.3,19.6,16.9c4,3.4,8,6.9,12,10.3c1.7,1.5,2.8,3.2,1.2,5.1c-1.8,2.2-3.7,1.4-5.5-0.2
		C62,86,51.4,76.9,40.8,67.8c-1.2-1-2.4-2-3.8-3.2c-2,2.8-3.9,5.4-5.7,7.9c-5.4,7.4-10.7,14.9-16,22.4c-1.5,2.2-3.4,3.6-6.1,2.7
		c-2.8-0.9-3.4-3.1-3.4-5.8c0-17,0-34,0.1-50.9c0-2.3-0.5-4.1-2.5-5.4c-2.7-1.7-3.4-4.1-3.4-7.3c0.2-7.7,0.1-15.4,0.1-23.1
		c0-2.4,0-4.9,3.2-5.2c2.3-0.2,3.4,1.6,3.4,5.3c0,9.7-0.1,19.4,0.1,29.1c0,1.5,0.9,3.5,2,4.5c8.4,7.5,17.1,14.8,25.6,22.2
		c0.7,0.6,1.5,1.2,2.4,1.9c0.7-0.9,1.4-1.7,2-2.6c8-11.1,16-22.3,24-33.4c0.5-0.8,1-1.9,1.7-2.2c1.3-0.5,3.3-1,4.2-0.4
		c0.9,0.6,1,2.7,0.9,4c-0.1,0.9-1.1,1.8-1.7,2.6c-6.9,9.6-13.8,19.2-20.7,28.8C46.7,60.8,46,61.8,45.3,63L45.3,63z M7.7,40.5
		c-0.1,1.7-0.2,2.6-0.2,3.5c0,15.8-0.1,31.6,0.1,47.4c0,1.5,0.9,3.7,2,4.3c2.1,1.2,3.3-0.8,4.5-2.4c5.8-8,11.5-16.1,17.3-24.1
		c1.2-1.7,2.4-3.4,3.7-5.3C26.1,56.2,17.2,48.6,7.7,40.5L7.7,40.5z"/>
	<path class="st0" d="M143.5,71.7c-2.4,0.7-3.4,0.3-3.4-2c0.1-6.9,0-13.9,0.1-20.8c0-1,1.3-2.8,1.9-2.7c1.1,0.1,2.8,1,3.2,2
		c2.1,4.9,3.8,10,5.8,15c0.4,1,1.5,1.7,2.3,2.6c0.7-0.8,1.6-1.6,2-2.6c1.9-4.9,3.6-9.9,5.6-14.8c0.4-1.1,2-1.6,3-2.4
		c0.5,1.1,1.5,2.2,1.5,3.3c0.1,6.7,0.1,13.5,0,20.2c0,0.9-0.9,1.7-1.4,2.6c-0.4-0.8-1.1-1.6-1.1-2.4c-0.1-3,0.1-6.1-0.1-9.2
		c-0.1-1-1.1-2-1.6-3c-0.8,0.7-1.8,1.3-2.2,2.2c-1.4,3.2-2.4,6.5-3.8,9.7c-0.4,1-1.4,1.8-2.2,2.6c-0.7-0.8-1.6-1.5-2-2.5
		c-1.4-3.4-2.6-6.9-4-10.3c-0.3-0.8-1.4-1.3-2.1-1.9c-0.6,0.9-1.6,1.7-1.6,2.6C143.4,63.8,143.5,67.7,143.5,71.7z"/>
	<path class="st0" d="M228,58.2c3.7,1.9,4.9,4.6,4.4,8.1c-0.5,3.3-2.5,5.4-5.9,5.6c-3.8,0.2-7.6,0.3-11.4,0.1
		c-0.8,0-2.3-1.4-2.3-2.2c-0.2-7.2-0.2-14.3,0-21.5c0-0.9,1.5-2.4,2.4-2.4c3.5-0.2,7-0.4,10.4,0.3c1.9,0.4,4.1,2.2,5.1,4
		C232.4,53.2,231,55.9,228,58.2L228,58.2z M220.6,70.3c2.5-0.3,4.2-0.5,5.8-0.7c2.2-0.3,3.4-1.6,3.5-3.8c0.2-2.2-0.1-4.7-2.4-5.2
		c-3.3-0.8-6.8-0.7-10.2-0.9c-0.4,0-1.2,0.5-1.2,0.9c-0.1,2.8-0.5,5.7,0.2,8.3C216.6,69.8,219.6,70,220.6,70.3L220.6,70.3z
		 M220.8,57.6c1.5-0.1,3-0.1,4.4-0.5c3.1-0.7,4.5-3.7,3.2-6.6c-1.1-2.6-10.3-3.9-12.1-1.8c-0.1,0.1-0.3,0.3-0.3,0.5
		C214,53.5,216.3,57.5,220.8,57.6L220.8,57.6z"/>
	<path class="st0" d="M288.7,57.7c0,11-6.1,16.5-15,14.8c-0.4-0.1-0.8-0.1-1.2-0.3c-6.8-2.1-10.1-11.2-7.1-19.5
		c2.4-6.5,9.5-9.6,16.1-6.7C287.1,48.5,288.5,53.4,288.7,57.7L288.7,57.7z M285.1,59.2c0-1.2,0-2.3,0-3.5c-0.2-5.1-3.3-8.3-8.3-8.4
		c-5-0.1-8.6,2.8-9,7.8c-0.2,2.6-0.2,5.3,0,7.9c0.4,4.9,4,8,9,7.8c5-0.1,8.1-3.3,8.3-8.4C285.2,61.2,285.2,60.2,285.1,59.2
		L285.1,59.2z"/>
	<path class="st0" d="M107.5,46.9c-2.6,2.4-5.2,4.9-7.9,7.2c-2.2,1.8-2.3,3.3-0.4,5.5c3.2,3.8,6.2,7.9,9.3,11.9
		c-0.2,0.3-0.4,0.5-0.6,0.8c-1.1-0.6-2.4-1-3.2-1.9c-2.3-2.6-4.2-5.6-6.5-8.2c-1-1.1-2.5-1.8-3.8-2.6c-1.2,1.7-2.9,3.3-3.4,5.3
		c-0.6,2.1-0.1,4.6-0.1,6.8c-2.3,0.8-3.2,0.3-3.2-2c0.1-7.2,0-14.3,0.1-21.5c0-0.8,1.1-1.6,1.6-2.3c0.5,0.8,1.3,1.5,1.4,2.3
		c0.2,2.1,0,4.2,0.1,6.3c0.1,0.8,0.5,2.3,1,2.3c0.8,0.1,2-0.3,2.7-0.9c2.8-2.7,5.5-5.6,8.3-8.3c0.9-0.9,2.3-1.4,3.4-2.1L107.5,46.9
		L107.5,46.9z"/>
	<path class="st0" d="M180.8,64c0.6,0.6,1.6,1.2,1.7,1.9c1.1,5.2,8.5,5.9,11.5,3.7c1.2-0.9,2.3-3,2.3-4.4c-0.1-1.4-1.4-3.3-2.8-4
		c-2.2-1.2-4.8-1.5-7.2-2.3c-4.3-1.4-6-3.6-5.7-7.2c0.3-3.6,2.7-5.9,7-6.5c6-0.8,9.9,1.9,10.4,8.4c-1.2-1-2.1-1.4-2.4-2.1
		c-1.8-3.8-5.6-5.6-9.3-3.7c-1.4,0.7-3,2.7-3,4.2c0,1.4,1.6,3.3,3,4.2c1.8,1.1,4.2,1.3,6.3,1.9c5.1,1.6,6.9,4.1,6.3,8.4
		c-0.5,3.9-3.3,6.1-8.1,6.4c-6.4,0.5-9.9-2.2-10.6-8C180.3,64.6,180.6,64.4,180.8,64L180.8,64z"/>
	<path class="st0" d="M125,59c0,3.5,0.1,7-0.1,10.4c0,0.9-1,1.7-1.6,2.6c-0.6-0.8-1.7-1.6-1.8-2.4c-0.1-7.1-0.1-14.1,0-21.2
		c0-0.8,1.2-1.6,1.8-2.4c0.5,0.9,1.5,1.7,1.5,2.6C125.1,52,125,55.5,125,59L125,59z"/>
	<path class="st0" d="M249.9,58.8c0,3.6,0.1,7.2-0.1,10.7c0,0.8-1.1,1.6-1.7,2.4c-0.6-0.8-1.7-1.7-1.7-2.5c-0.1-6.9-0.1-13.9,0-20.8
		c0-0.9,1.1-1.7,1.6-2.6c0.6,0.9,1.7,1.8,1.8,2.7C250,52,249.9,55.4,249.9,58.8L249.9,58.8z"/>
</g>
</svg>
