<?xml version="1.0" encoding="utf-8"?>
<!-- Generator: Adobe Illustrator 28.2.0, SVG Export Plug-In . SVG Version: 6.00 Build 0)  -->
<svg version="1.1" id="레이어_1" xmlns="http://www.w3.org/2000/svg" xmlns:xlink="http://www.w3.org/1999/xlink" x="0px"
	 y="0px" viewBox="0 0 100 30" style="enable-background:new 0 0 100 30;" xml:space="preserve">
<style type="text/css">
	.st0{fill:#FFFFFF;}
</style>
<g>
	<path class="st0" d="M21.2,19.5V3.3h2.9v13.8h6.8v2.3H21.2z"/>
	<path class="st0" d="M40,19.7c-2.2,0-4-0.7-5.3-2.1c-1.3-1.4-2-3.4-2-6v-0.5c0-2.6,0.7-4.5,2-5.9c1.3-1.4,3.1-2.1,5.4-2.1
		c2.2,0,4,0.7,5.3,2.1c1.3,1.4,2,3.4,2,6v0.5c0,2.6-0.7,4.5-2,5.9C44,19,42.2,19.7,40,19.7z M40.1,17.5c1.4,0,2.4-0.5,3.1-1.5
		c0.7-1,1.1-2.3,1.1-4v-0.8c0-3.9-1.4-5.8-4.3-5.8c-1.4,0-2.4,0.5-3.1,1.5c-0.7,1-1.1,2.3-1.1,4v0.8C35.8,15.5,37.2,17.5,40.1,17.5z
		"/>
	<path class="st0" d="M57.3,19.7c-2.5,0-4.4-0.6-5.7-1.9c-1.3-1.3-2-3.3-2-6.1v-0.5c0-1.5,0.2-2.8,0.6-3.8c0.4-1.1,1-1.9,1.8-2.6
		c0.8-0.6,1.6-1.1,2.5-1.3c0.9-0.3,1.9-0.4,3-0.4c1.8,0,3.2,0.3,4.4,0.9v2.3c-1.4-0.6-2.8-0.9-4.3-0.9c-3.3,0-4.9,1.9-4.9,5.6v0.7
		c0,1.8,0.3,3.3,1,4.2c0.7,1,1.9,1.5,3.7,1.5c0.9,0,1.7-0.1,2.5-0.4v-3.7h-3v-2.2h5.8v7.5C60.9,19.4,59.1,19.7,57.3,19.7z"/>
	<path class="st0" d="M72.3,19.7c-2.2,0-4-0.7-5.3-2.1c-1.3-1.4-2-3.4-2-6v-0.5c0-2.6,0.7-4.5,2-5.9c1.3-1.4,3.1-2.1,5.4-2.1
		c2.2,0,4,0.7,5.3,2.1c1.3,1.4,2,3.4,2,6v0.5c0,2.6-0.7,4.5-2,5.9C76.3,19,74.5,19.7,72.3,19.7z M72.4,17.5c1.4,0,2.4-0.5,3.1-1.5
		c0.7-1,1.1-2.3,1.1-4v-0.8c0-3.9-1.4-5.8-4.3-5.8c-1.4,0-2.4,0.5-3.1,1.5c-0.7,1-1.1,2.3-1.1,4v0.8C68.1,15.5,69.5,17.5,72.4,17.5z
		"/>
</g>
<g>
	<path class="st0" d="M13.3,27c-0.6,0-1-0.3-1-0.9v-1.9h-0.5v-0.6h0.5v-0.8h0.7v0.8h0.8v0.6h-0.8V26c0,0.1,0,0.2,0.1,0.3
		c0.1,0.1,0.2,0.1,0.4,0.1c0.1,0,0.3,0,0.4-0.1v0.5C13.7,26.9,13.5,27,13.3,27z"/>
	<path class="st0" d="M14.6,26.9v-4.8h0.7v1.7h0c0.3-0.2,0.7-0.3,1.1-0.3c0.3,0,0.6,0.1,0.7,0.2s0.2,0.4,0.2,0.7v2.5h-0.8v-2.3
		c0-0.2,0-0.3-0.1-0.4s-0.2-0.1-0.4-0.1c-0.3,0-0.5,0.1-0.8,0.2v2.6H14.6z"/>
	<path class="st0" d="M19.7,27c-0.5,0-1-0.1-1.2-0.4c-0.3-0.3-0.4-0.7-0.4-1.2v-0.1c0-0.5,0.1-1,0.4-1.2s0.7-0.4,1.1-0.4
		c0.5,0,0.8,0.1,1.1,0.4c0.2,0.3,0.3,0.7,0.3,1.2v0.3h-2.2c0,0.3,0.1,0.6,0.3,0.7c0.2,0.1,0.4,0.2,0.8,0.2c0.4,0,0.7-0.1,1-0.2v0.5
		C20.6,26.9,20.2,27,19.7,27z M19.6,24.1c-0.5,0-0.7,0.3-0.8,0.9h1.4c0-0.3-0.1-0.5-0.2-0.7C20,24.1,19.8,24.1,19.6,24.1z"/>
	<path class="st0" d="M21.7,26.9v-3.4h0.7v0.3h0c0.3-0.2,0.7-0.4,1-0.4c0.4,0,0.7,0.1,0.8,0.4h0c0.4-0.3,0.7-0.4,1.1-0.4
		c0.3,0,0.5,0.1,0.7,0.2c0.2,0.1,0.2,0.4,0.2,0.7v2.5h-0.7v-2.3c0-0.2,0-0.3-0.1-0.4c-0.1-0.1-0.2-0.1-0.4-0.1
		c-0.2,0-0.4,0.1-0.7,0.2c0,0.1,0,0.1,0,0.2v2.4h-0.7v-2.3c0-0.2,0-0.3-0.1-0.4s-0.2-0.1-0.4-0.1c-0.2,0-0.5,0.1-0.7,0.2v2.6H21.7z"
		/>
	<path class="st0" d="M28.7,27c-0.5,0-1-0.1-1.2-0.4c-0.3-0.3-0.4-0.7-0.4-1.2v-0.1c0-0.5,0.1-1,0.4-1.2s0.7-0.4,1.1-0.4
		c0.5,0,0.8,0.1,1.1,0.4c0.2,0.3,0.3,0.7,0.3,1.2v0.3h-2.2c0,0.3,0.1,0.6,0.3,0.7c0.2,0.1,0.4,0.2,0.8,0.2c0.4,0,0.7-0.1,1-0.2v0.5
		C29.6,26.9,29.2,27,28.7,27z M28.6,24.1c-0.5,0-0.7,0.3-0.8,0.9h1.4c0-0.3-0.1-0.5-0.2-0.7C29,24.1,28.8,24.1,28.6,24.1z"/>
	<path class="st0" d="M30.2,27.6l1.6-5.5h0.7l-1.5,5.5H30.2z"/>
	<path class="st0" d="M33,23v-0.7h0.8V23H33z M33,26.9v-3.4h0.8v3.4H33z"/>
	<path class="st0" d="M34.7,26.9v-3.4h0.7v0.3h0c0.3-0.2,0.7-0.4,1-0.4c0.4,0,0.7,0.1,0.8,0.4h0c0.4-0.3,0.7-0.4,1.1-0.4
		c0.3,0,0.5,0.1,0.7,0.2c0.2,0.1,0.2,0.4,0.2,0.7v2.5h-0.7v-2.3c0-0.2,0-0.3-0.1-0.4c-0.1-0.1-0.2-0.1-0.4-0.1
		c-0.2,0-0.4,0.1-0.7,0.2c0,0.1,0,0.1,0,0.2v2.4h-0.7v-2.3c0-0.2,0-0.3-0.1-0.4s-0.2-0.1-0.4-0.1c-0.2,0-0.5,0.1-0.7,0.2v2.6H34.7z"
		/>
	<path class="st0" d="M41.4,27.9c-0.5,0-0.9-0.1-1.2-0.2s-0.4-0.3-0.4-0.6c0-0.3,0.2-0.5,0.6-0.7v0c-0.1,0-0.2-0.1-0.3-0.2
		s-0.1-0.2-0.1-0.3c0-0.1,0-0.2,0.1-0.3c0.1-0.1,0.2-0.2,0.3-0.2c-0.3-0.2-0.4-0.4-0.4-0.8v-0.1c0-0.3,0.1-0.6,0.4-0.8
		s0.6-0.3,1-0.3c0.2,0,0.3,0,0.5,0.1h1.1v0.5h-0.5c0.1,0.1,0.2,0.3,0.2,0.5v0c0,0.3-0.1,0.6-0.4,0.8c-0.2,0.2-0.6,0.3-1,0.3
		c-0.2,0-0.4,0-0.5-0.1c0,0,0,0,0,0s0,0,0,0c0,0,0,0,0,0s0,0,0,0s0,0,0,0c0,0,0,0,0,0c0,0.1,0.1,0.2,0.3,0.2H42
		c0.7,0,1.1,0.3,1.1,0.8c0,0.3-0.1,0.6-0.4,0.8C42.4,27.8,42,27.9,41.4,27.9z M41.4,27.4c0.6,0,0.9-0.2,0.9-0.5c0-0.1,0-0.2-0.1-0.3
		s-0.2-0.1-0.4-0.1h-0.9c-0.2,0.1-0.3,0.2-0.3,0.4C40.6,27.2,40.9,27.4,41.4,27.4z M41.4,25.1c0.4,0,0.6-0.2,0.6-0.5v-0.1
		c0-0.4-0.2-0.5-0.6-0.5c-0.4,0-0.6,0.2-0.6,0.5v0.1C40.8,25,41,25.1,41.4,25.1z"/>
	<path class="st0" d="M43.2,27.6l1.6-5.5h0.7l-1.5,5.5H43.2z"/>
	<path class="st0" d="M46,26.9v-4.8h0.8v4.8H46z"/>
	<path class="st0" d="M49.1,27c-0.5,0-0.9-0.1-1.2-0.4c-0.3-0.3-0.4-0.7-0.4-1.2v-0.1c0-0.5,0.1-0.9,0.4-1.2s0.7-0.5,1.2-0.5
		c0.5,0,0.9,0.1,1.2,0.4c0.3,0.3,0.4,0.7,0.4,1.2v0.1c0,0.5-0.1,0.9-0.4,1.2C49.9,26.8,49.6,27,49.1,27z M49.1,26.4
		c0.5,0,0.8-0.4,0.8-1.1v-0.2c0-0.4-0.1-0.7-0.2-0.9s-0.3-0.2-0.6-0.2c-0.3,0-0.5,0.1-0.6,0.3s-0.2,0.5-0.2,0.8v0.2
		c0,0.4,0.1,0.7,0.2,0.9C48.6,26.3,48.8,26.4,49.1,26.4z"/>
	<path class="st0" d="M52.6,27.9c-0.5,0-0.9-0.1-1.2-0.2S51,27.4,51,27.1c0-0.3,0.2-0.5,0.6-0.7v0c-0.1,0-0.2-0.1-0.3-0.2
		s-0.1-0.2-0.1-0.3c0-0.1,0-0.2,0.1-0.3c0.1-0.1,0.2-0.2,0.3-0.2c-0.3-0.2-0.4-0.4-0.4-0.8v-0.1c0-0.3,0.1-0.6,0.4-0.8
		s0.6-0.3,1-0.3c0.2,0,0.3,0,0.5,0.1h1.1v0.5h-0.5c0.1,0.1,0.2,0.3,0.2,0.5v0c0,0.3-0.1,0.6-0.4,0.8c-0.2,0.2-0.6,0.3-1,0.3
		c-0.2,0-0.4,0-0.5-0.1c0,0,0,0,0,0c0,0,0,0,0,0c0,0,0,0,0,0s0,0,0,0s0,0,0,0c0,0,0,0,0,0c0,0.1,0.1,0.2,0.3,0.2h0.9
		c0.7,0,1.1,0.3,1.1,0.8c0,0.3-0.1,0.6-0.4,0.8C53.6,27.8,53.2,27.9,52.6,27.9z M52.6,27.4c0.6,0,0.9-0.2,0.9-0.5
		c0-0.1,0-0.2-0.1-0.3s-0.2-0.1-0.4-0.1h-0.9c-0.2,0.1-0.3,0.2-0.3,0.4C51.8,27.2,52,27.4,52.6,27.4z M52.6,25.1
		c0.4,0,0.6-0.2,0.6-0.5v-0.1c0-0.4-0.2-0.5-0.6-0.5c-0.4,0-0.6,0.2-0.6,0.5v0.1C52,25,52.2,25.1,52.6,25.1z"/>
	<path class="st0" d="M56.3,27c-0.5,0-0.9-0.1-1.2-0.4s-0.4-0.7-0.4-1.2v-0.1c0-0.5,0.1-0.9,0.4-1.2s0.7-0.5,1.2-0.5
		c0.5,0,0.9,0.1,1.2,0.4c0.3,0.3,0.4,0.7,0.4,1.2v0.1c0,0.5-0.1,0.9-0.4,1.2C57.1,26.8,56.7,27,56.3,27z M56.3,26.4
		c0.5,0,0.8-0.4,0.8-1.1v-0.2c0-0.4-0.1-0.7-0.2-0.9c-0.1-0.2-0.3-0.2-0.6-0.2c-0.3,0-0.5,0.1-0.6,0.3s-0.2,0.5-0.2,0.8v0.2
		c0,0.4,0.1,0.7,0.2,0.9C55.8,26.3,56,26.4,56.3,26.4z"/>
	<path class="st0" d="M58.4,25.4v-0.6h1.8v0.6H58.4z"/>
	<path class="st0" d="M61.6,26.9l-0.9-3.4h0.8l0.6,2.4h0l0.7-2.4h0.6l0.7,2.4h0l0.6-2.4h0.7l-0.9,3.4h-0.7l-0.7-2.3h0l-0.7,2.3H61.6
		z"/>
	<path class="st0" d="M66,26.9v-4.8h0.8v1.7h0c0.3-0.2,0.7-0.3,1.1-0.3c0.3,0,0.6,0.1,0.7,0.2c0.2,0.1,0.2,0.4,0.2,0.7v2.5h-0.8
		v-2.3c0-0.2,0-0.3-0.1-0.4s-0.2-0.1-0.4-0.1c-0.3,0-0.5,0.1-0.8,0.2v2.6H66z"/>
	<path class="st0" d="M69.7,23v-0.7h0.8V23H69.7z M69.7,26.9v-3.4h0.8v3.4H69.7z"/>
	<path class="st0" d="M72.5,27c-0.6,0-0.9-0.3-0.9-0.9v-1.9h-0.5v-0.6h0.5v-0.8h0.7v0.8h0.8v0.6h-0.8V26c0,0.1,0,0.2,0.1,0.3
		c0.1,0.1,0.2,0.1,0.4,0.1c0.1,0,0.3,0,0.4-0.1v0.5C72.9,26.9,72.7,27,72.5,27z"/>
	<path class="st0" d="M75.3,27c-0.5,0-1-0.1-1.2-0.4c-0.3-0.3-0.4-0.7-0.4-1.2v-0.1c0-0.5,0.1-1,0.4-1.2s0.7-0.4,1.1-0.4
		c0.5,0,0.8,0.1,1.1,0.4c0.2,0.3,0.3,0.7,0.3,1.2v0.3h-2.2c0,0.3,0.1,0.6,0.3,0.7c0.2,0.1,0.4,0.2,0.8,0.2c0.4,0,0.7-0.1,1-0.2v0.5
		C76.1,26.9,75.8,27,75.3,27z M75.1,24.1c-0.5,0-0.7,0.3-0.8,0.9h1.4c0-0.3-0.1-0.5-0.2-0.7C75.5,24.1,75.4,24.1,75.1,24.1z"/>
	<path class="st0" d="M77.2,27v-0.8H78V27H77.2z"/>
	<path class="st0" d="M79.8,27c-0.5,0-0.8-0.1-1.1-0.2v-0.5c0.4,0.1,0.7,0.2,1,0.2c0.4,0,0.7-0.1,0.7-0.4c0-0.1,0-0.2-0.1-0.3
		c-0.1-0.1-0.2-0.1-0.4-0.2l-0.3-0.1c-0.3-0.1-0.5-0.2-0.6-0.3c-0.1-0.1-0.2-0.4-0.2-0.7c0-0.3,0.1-0.6,0.3-0.7
		c0.2-0.2,0.5-0.3,0.9-0.3c0.4,0,0.7,0.1,1,0.2v0.6c-0.3-0.1-0.6-0.2-0.9-0.2c-0.4,0-0.6,0.1-0.6,0.4c0,0.1,0,0.2,0.1,0.3
		c0.1,0.1,0.2,0.1,0.3,0.1l0.3,0.1c0.3,0.1,0.6,0.2,0.7,0.3c0.1,0.1,0.2,0.4,0.2,0.7c0,0.3-0.1,0.6-0.3,0.8
		C80.5,26.9,80.2,27,79.8,27z"/>
	<path class="st0" d="M82.7,26.9l-1.2-3.4h0.8l0.8,2.4h0l0.8-2.4h0.7l-1.2,3.4H82.7z"/>
	<path class="st0" d="M86.5,27.9c-0.5,0-0.9-0.1-1.2-0.2s-0.4-0.3-0.4-0.6c0-0.3,0.2-0.5,0.6-0.7v0c-0.1,0-0.2-0.1-0.3-0.2
		s-0.1-0.2-0.1-0.3c0-0.1,0-0.2,0.1-0.3c0.1-0.1,0.2-0.2,0.3-0.2c-0.3-0.2-0.4-0.4-0.4-0.8v-0.1c0-0.3,0.1-0.6,0.4-0.8
		s0.6-0.3,1-0.3c0.2,0,0.3,0,0.5,0.1h1.1v0.5h-0.5c0.1,0.1,0.2,0.3,0.2,0.5v0c0,0.3-0.1,0.6-0.4,0.8c-0.2,0.2-0.6,0.3-1,0.3
		c-0.2,0-0.4,0-0.5-0.1c0,0,0,0,0,0s0,0,0,0c0,0,0,0,0,0s0,0,0,0s0,0,0,0s0,0,0,0c0,0.1,0.1,0.2,0.3,0.2h0.9c0.7,0,1.1,0.3,1.1,0.8
		c0,0.3-0.1,0.6-0.4,0.8C87.5,27.8,87.1,27.9,86.5,27.9z M86.5,27.4c0.6,0,0.9-0.2,0.9-0.5c0-0.1,0-0.2-0.1-0.3
		c-0.1,0-0.2-0.1-0.4-0.1H86c-0.2,0.1-0.3,0.2-0.3,0.4C85.7,27.2,85.9,27.4,86.5,27.4z M86.5,25.1c0.4,0,0.6-0.2,0.6-0.5v-0.1
		c0-0.4-0.2-0.5-0.6-0.5c-0.4,0-0.6,0.2-0.6,0.5v0.1C85.9,25,86.1,25.1,86.5,25.1z"/>
</g>
</svg>
