<?xml version="1.0" encoding="utf-8"?>
<!-- Generator: Adobe Illustrator 28.2.0, SVG Export Plug-In . SVG Version: 6.00 Build 0)  -->
<svg version="1.1" id="레이어_1" xmlns="http://www.w3.org/2000/svg" xmlns:xlink="http://www.w3.org/1999/xlink" x="0px"
	 y="0px" viewBox="0 0 919.6 542.1" style="enable-background:new 0 0 919.6 542.1;" xml:space="preserve">
<style type="text/css">
	.st0{fill:#818386;}
	.st1{fill:#126699;}
	.st2{opacity:0.3;fill:#003F66;enable-background:new    ;}
	.st3{fill:#FFFFFF;}
</style>
<path id="패스_11817" class="st0" d="M459.5,129.7h0.6V280h-0.6V129.7z"/>
<path id="패스_7477" class="st0" d="M70.7,376.8h-0.6V280h780.2v97h-0.6v-96.6H70.7V376.8z"/>
<path id="패스_7491" class="st1" d="M914.2,345.7H786c-3,0-5.5-2.5-5.5-5.5v-22.7c0-3,2.5-5.5,5.5-5.5h128.2c3,0,5.5,2.5,5.5,5.5
	v22.7C919.6,343.2,917.2,345.7,914.2,345.7"/>
<path id="패스_7506" class="st1" d="M133.7,345.7H5.5c-3,0-5.5-2.5-5.5-5.5v-22.7c0-3,2.5-5.5,5.5-5.5c0,0,0,0,0,0h128.2
	c3,0,5.5,2.5,5.5,5.5l0,0v22.7C139.1,343.2,136.7,345.7,133.7,345.7L133.7,345.7"/>
<path id="패스_11818" class="st0" d="M226.1,280.3h0.6v96.5h-0.6V280.3z"/>
<path id="패스_7526" class="st1" d="M290.4,345.7H162.3c-3,0-5.5-2.5-5.5-5.5l0,0v-22.7c0-3,2.5-5.5,5.5-5.5h0h128.2
	c3,0,5.5,2.5,5.5,5.5l0,0v22.7C295.9,343.2,293.5,345.7,290.4,345.7L290.4,345.7"/>
<path id="패스_11819" class="st0" d="M537.9,280.3h0.6v96.5h-0.6V280.3z"/>
<path id="패스_11820" class="st0" d="M380.1,280.3h0.6v96.5h-0.6V280.3z"/>
<path id="패스_11821" class="st0" d="M693.9,280.3h0.6v96.5h-0.6V280.3z"/>
<path id="패스_7565" class="st1" d="M758.2,345.7H630c-3,0-5.5-2.5-5.5-5.5v-22.7c0-3,2.5-5.5,5.5-5.5h128.2c3,0,5.5,2.5,5.5,5.5
	v22.7C763.7,343.2,761.3,345.7,758.2,345.7"/>
<path id="패스_7589" class="st1" d="M446.7,345.7H318.5c-3,0-5.5-2.5-5.5-5.5l0,0v-22.7c0-3,2.5-5.5,5.5-5.5l0,0h128.2
	c3,0,5.5,2.5,5.5,5.5l0,0v22.7C452.1,343.2,449.7,345.7,446.7,345.7L446.7,345.7"/>
<path id="패스_7764" class="st2" d="M459.8,0L459.8,0c-46.2,0-83.7,37.5-83.7,83.7c0,46.2,37.5,83.7,83.7,83.7
	c46.2,0,83.7-37.5,83.7-83.7C543.5,37.5,506.1,0,459.8,0C459.8,0,459.8,0,459.8,0"/>
<path id="패스_7467" class="st1" d="M459.8,16.9L459.8,16.9c-36.9,0-66.8,29.9-66.8,66.8s29.9,66.8,66.8,66.8s66.8-29.9,66.8-66.8
	c0,0,0,0,0,0C526.6,46.8,496.7,16.9,459.8,16.9"/>
<path id="패스_7468" class="st3" d="M426.6,77.1h-5.1v10.6h-3.1V74.6h8.2L426.6,77.1z M424.1,86.4c1.2-0.1,2.4-0.2,3.5-0.4
	l0.2,2.5c-1.2,0.2-2.4,0.4-3.6,0.5c-1.2,0.1-2.6,0.1-4.3,0.1h-1.5v-2.6h1.5C421.6,86.5,422.9,86.5,424.1,86.4 M431.7,93h-2.8V72.5
	h2.8V93z M434.6,83h-3.7v-2.5h3.7V83z M436.8,94h-2.9V72.1h2.9V94z"/>
<path id="패스_7469" class="st3" d="M459.2,91.6h-20.1v-2.5h20.1V91.6z M457.5,76.3h-16.8v-2.5h16.8L457.5,76.3z M457.4,85h-16.6
	v-2.5h16.6L457.4,85z M446.8,82.9h-3.1v-7h3.1V82.9z M447.2,89.9h-3.1V84h3.1L447.2,89.9z M454.1,90H451V84h3.1V90z M454.4,82.9h-3
	v-7h3V82.9z"/>
<path id="패스_7470" class="st3" d="M469.9,74.6c0.9,0.7,1.6,1.6,2.1,2.7c0.5,1.3,0.8,2.7,0.7,4.1c0,1.4-0.2,2.8-0.7,4.1
	c-0.4,1.1-1.1,2-2.1,2.7c-1.8,1.3-4.2,1.3-6,0c-0.9-0.7-1.6-1.6-2.1-2.7c-1-2.7-1-5.6,0-8.3c0.4-1.1,1.1-2,2.1-2.7
	c0.9-0.6,1.9-1,3-1C468,73.6,469,74,469.9,74.6 M465.4,77c-0.5,0.5-0.8,1.1-1,1.7c-0.5,1.8-0.5,3.7,0,5.5c0.2,0.6,0.5,1.2,1,1.7
	c0.4,0.4,0.9,0.6,1.5,0.6c0.5,0,1.1-0.2,1.5-0.6c0.5-0.5,0.8-1.1,1-1.7c0.5-1.8,0.5-3.7,0-5.5c-0.2-0.6-0.5-1.2-1-1.7
	c-0.4-0.4-0.9-0.6-1.5-0.6C466.4,76.4,465.8,76.6,465.4,77 M478.8,94.1h-3.1v-22h3.1V94.1z"/>
<path id="패스_7471" class="st3" d="M488.6,82.3c-0.4,1.6-1.1,3-2,4.3c-0.9,1.2-2,2.2-3.4,2.9l-1.9-2.5c1.2-0.5,2.2-1.4,3-2.4
	c0.8-1,1.4-2.2,1.8-3.5c0.4-1.3,0.6-2.7,0.6-4.1v-3.3h2.5v3.3C489.3,78.8,489.1,80.6,488.6,82.3 M490.4,81c0.4,1.2,1,2.4,1.7,3.4
	c0.8,1,1.7,1.8,2.9,2.3l-1.9,2.4c-1.3-0.6-2.4-1.6-3.2-2.8c-0.9-1.3-1.5-2.7-1.9-4.2c-0.4-1.7-0.6-3.4-0.6-5.1v-3.3h2.5v3.3
	C489.9,78.4,490.1,79.7,490.4,81 M499.1,94H496V72.1h3.1V94z M502.3,83.2h-3.9v-2.6h3.9V83.2z"/>
<path id="패스_7874" class="st1" d="M602.6,345.7H474.4c-3,0-5.5-2.5-5.5-5.5v-22.7c0-3,2.5-5.5,5.5-5.5c0,0,0,0,0,0h128.2
	c3,0,5.5,2.5,5.5,5.5l0,0v22.7C608.1,343.2,605.6,345.7,602.6,345.7L602.6,345.7"/>
</svg>
