<svg width="36" height="39" viewBox="0 0 36 39" fill="none" xmlns="http://www.w3.org/2000/svg">
<g clip-path="url(#clip0_35_93)">
<path d="M34.8315 39.0001C34.5829 39.0001 34.3344 38.9121 34.1304 38.7481L31.3186 36.4608C30.3319 35.6571 29.1078 35.2172 27.8726 35.2172H9.24753C7.22218 35.2172 5.5752 33.4418 5.5752 31.2584V22.6651C5.5752 20.4818 7.22218 18.7063 9.24753 18.7063H32.3276C34.3529 18.7063 35.9999 20.4818 35.9999 22.6651V37.7404C35.9999 38.2163 35.7514 38.6522 35.3545 38.8681C35.1913 38.9561 35.0132 39.0001 34.8352 39.0001H34.8315ZM9.24753 21.2255C8.50935 21.2255 7.91214 21.8733 7.91214 22.6651V31.2584C7.91214 32.0542 8.51306 32.698 9.24753 32.698H27.8689C29.6086 32.698 31.3335 33.3218 32.7245 34.4495L33.6667 35.2132V22.6651C33.6667 21.8693 33.0658 21.2255 32.3313 21.2255H9.24753Z" fill="white"/>
<path d="M30.4953 25.756H11.4956C10.8502 25.756 10.3271 25.1922 10.3271 24.4964C10.3271 23.8006 10.8502 23.2368 11.4956 23.2368H30.4953C31.1408 23.2368 31.6638 23.8006 31.6638 24.4964C31.6638 25.1922 31.1408 25.756 30.4953 25.756Z" fill="white"/>
<path d="M26.3667 30.7625H11.4956C10.8502 30.7625 10.3271 30.1987 10.3271 29.5029C10.3271 28.8071 10.8502 28.2433 11.4956 28.2433H26.3667C27.0122 28.2433 27.5352 28.8071 27.5352 29.5029C27.5352 30.1987 27.0122 30.7625 26.3667 30.7625Z" fill="white"/>
<path d="M1.16818 20.2898C0.990132 20.2898 0.812079 20.2458 0.648865 20.1578C0.251956 19.9459 0.00342422 19.51 0.00342422 19.0301V3.95878C-0.000285205 1.77545 1.6467 0 3.67205 0H26.7521C28.7775 0 30.4244 1.77545 30.4244 3.95878V12.5521C30.4244 14.7355 28.7775 16.5109 26.7521 16.5109H8.13078C6.89554 16.5109 5.67143 16.9548 4.68472 17.7545L1.87298 20.0418C1.66525 20.2098 1.42043 20.2938 1.16818 20.2938V20.2898ZM3.67205 2.51523C2.93387 2.51523 2.33665 3.16303 2.33665 3.95478V16.5029L3.27514 15.7392C4.66618 14.6075 6.38735 13.9877 8.13078 13.9877H26.7558C27.494 13.9877 28.0912 13.3399 28.0912 12.5481V3.95878C28.0912 3.16303 27.4903 2.51923 26.7558 2.51923H3.67205V2.51523Z" fill="white"/>
<path d="M24.5046 7.04986H5.5049C4.85946 7.04986 4.33643 6.48604 4.33643 5.79025C4.33643 5.09447 4.85946 4.53064 5.5049 4.53064H24.5046C25.15 4.53064 25.6731 5.09447 25.6731 5.79025C25.6731 6.48604 25.15 7.04986 24.5046 7.04986Z" fill="white"/>
<path d="M20.376 12.0523H5.5049C4.85946 12.0523 4.33643 11.4885 4.33643 10.7927C4.33643 10.0969 4.85946 9.53308 5.5049 9.53308H20.376C21.0214 9.53308 21.5445 10.0969 21.5445 10.7927C21.5445 11.4885 21.0214 12.0523 20.376 12.0523Z" fill="white"/>
</g>
<defs>
<clipPath id="clip0_35_93">
<rect width="36" height="39" fill="white"/>
</clipPath>
</defs>
</svg>
