<svg width="32" height="39" viewBox="0 0 32 39" fill="none" xmlns="http://www.w3.org/2000/svg">
<g clip-path="url(#clip0_35_127)">
<path d="M30.8553 31.0649H1.14467C0.512378 31.0649 0 30.5089 0 29.8179V10.6316C0 9.94059 0.512378 9.38062 1.14467 9.38062C1.77697 9.38062 2.28935 9.94059 2.28935 10.6316V28.5669H29.7143V10.6316C29.7143 9.94059 30.2267 9.38062 30.859 9.38062C31.4913 9.38062 32.0036 9.94059 32.0036 10.6316V29.8179C32.0036 30.5089 31.4913 31.0689 30.859 31.0689L30.8553 31.0649Z" fill="white"/>
<path d="M15.9997 20.4173C15.818 20.4173 15.6327 20.3697 15.4692 20.2743L0.610196 11.7356C0.050578 11.414 -0.163821 10.6594 0.130524 10.0478C0.424868 9.43615 1.11531 9.20183 1.67493 9.52352L15.9997 17.7524L30.3245 9.52352C30.8841 9.20183 31.5745 9.43615 31.8689 10.0478C32.1632 10.6594 31.9488 11.414 31.3892 11.7356L16.5339 20.2743C16.3667 20.3697 16.185 20.4173 16.0033 20.4173H15.9997Z" fill="white"/>
<path d="M1.14405 31.0649C0.806096 31.0649 0.471778 30.9021 0.246477 30.5923C-0.145982 30.0522 -0.062403 29.2658 0.431806 28.8369L13.3212 17.6492C13.8154 17.2203 14.5349 17.3117 14.9274 17.8518C15.3198 18.3919 15.2363 19.1782 14.742 19.6072L1.85266 30.7949C1.64189 30.9775 1.39115 31.0649 1.14405 31.0649Z" fill="white"/>
<path d="M30.8552 31.0651C30.6045 31.0651 30.3538 30.9777 30.1466 30.795L19.4884 21.5454C18.9942 21.1165 18.9107 20.3301 19.3031 19.79C19.6956 19.2499 20.4151 19.1585 20.9093 19.5875L31.5675 28.8371C32.0617 29.266 32.1453 30.0523 31.7528 30.5924C31.5275 30.9022 31.1932 31.0651 30.8552 31.0651Z" fill="white"/>
<path d="M1.14486 11.5491C0.861415 11.5491 0.581606 11.4339 0.359939 11.2076C-0.0979311 10.735 -0.119734 9.94067 0.312698 9.44026L5.20391 3.78089C5.63634 3.28048 6.36312 3.25666 6.82099 3.72926C7.27886 4.20187 7.30066 4.99617 6.86823 5.49657L1.97702 11.1559C1.75172 11.4181 1.4501 11.5491 1.14486 11.5491Z" fill="white"/>
<path d="M30.8548 11.5491C30.5495 11.5491 30.2479 11.418 30.0226 11.1559L25.1314 5.49654C24.699 4.99613 24.7171 4.20184 25.1786 3.72923C25.6365 3.25662 26.3596 3.27648 26.7957 3.78086L31.6869 9.44023C32.1194 9.94063 32.1012 10.7349 31.6397 11.2075C31.418 11.4339 31.1382 11.5491 30.8548 11.5491Z" fill="white"/>
<path d="M25.9674 14.0352C25.3351 14.0352 24.8227 13.4753 24.8227 12.7842V2.49806H7.17656V12.7802C7.17656 13.4713 6.66418 14.0313 6.03188 14.0313C5.39959 14.0313 4.88721 13.4713 4.88721 12.7802V1.25102C4.88721 0.55998 5.39959 0 6.03188 0H25.9637C26.596 0 27.1084 0.55998 27.1084 1.25102V12.7842C27.1084 13.4753 26.596 14.0352 25.9637 14.0352H25.9674Z" fill="white"/>
<path d="M21.8213 7.54574H10.1784C9.54607 7.54574 9.03369 6.98576 9.03369 6.29472C9.03369 5.60368 9.54607 5.0437 10.1784 5.0437H21.825C22.4573 5.0437 22.9696 5.60368 22.9696 6.29472C22.9696 6.98576 22.4573 7.54574 21.825 7.54574H21.8213Z" fill="white"/>
<path d="M21.8213 11.9344H10.1784C9.54607 11.9344 9.03369 11.3744 9.03369 10.6834C9.03369 9.99235 9.54607 9.43237 10.1784 9.43237H21.825C22.4573 9.43237 22.9696 9.99235 22.9696 10.6834C22.9696 11.3744 22.4573 11.9344 21.825 11.9344H21.8213Z" fill="white"/>
<path d="M16.0001 38.9999C15.3678 38.9999 14.8555 38.4399 14.8555 37.7489V33.5232C14.8555 32.8322 15.3678 32.2722 16.0001 32.2722C16.6324 32.2722 17.1448 32.8322 17.1448 33.5232V37.7489C17.1448 38.4399 16.6324 38.9999 16.0001 38.9999Z" fill="white"/>
<path d="M9.5646 36.8911C8.9323 36.8911 8.41992 36.3311 8.41992 35.6401V33.5273C8.41992 32.8362 8.9323 32.2762 9.5646 32.2762C10.1969 32.2762 10.7093 32.8362 10.7093 33.5273V35.6401C10.7093 36.3311 10.1969 36.8911 9.5646 36.8911Z" fill="white"/>
<path d="M22.4357 36.8911C21.8034 36.8911 21.291 36.3311 21.291 35.6401V33.5273C21.291 32.8362 21.8034 32.2762 22.4357 32.2762C23.068 32.2762 23.5804 32.8362 23.5804 33.5273V35.6401C23.5804 36.3311 23.068 36.8911 22.4357 36.8911Z" fill="white"/>
</g>
<defs>
<clipPath id="clip0_35_127">
<rect width="32" height="39" fill="white"/>
</clipPath>
</defs>
</svg>
