<?xml version="1.0" encoding="utf-8"?>
<!-- Generator: Adobe Illustrator 28.2.0, SVG Export Plug-In . SVG Version: 6.00 Build 0)  -->
<svg version="1.1" id="_레이어_2" xmlns="http://www.w3.org/2000/svg" xmlns:xlink="http://www.w3.org/1999/xlink" x="0px"
	 y="0px" viewBox="0 0 1915.9 1739.7" style="enable-background:new 0 0 1915.9 1739.7;" xml:space="preserve">
<style type="text/css">
	.st0{clip-path:url(#SVGID_00000157287831366170937200000005437834042544126600_);}
	.st1{fill:#EAEEF1;}
</style>
<g id="_레이어_1-2">
	<g>
		<defs>
			<rect id="SVGID_1_" width="1919.6" height="1739.7"/>
		</defs>
		<clipPath id="SVGID_00000072982417823574725880000016280185466088177799_">
			<use xlink:href="#SVGID_1_"  style="overflow:visible;"/>
		</clipPath>
		<g style="clip-path:url(#SVGID_00000072982417823574725880000016280185466088177799_);">
			<g>
				<path class="st1" d="M1300.9,1038.3c4,1.9,4.5,1.9,4.7,1.8c-6.7-4.1-8.7-4.3-8.7-4.3v0
					C1297.1,1036.2,1299.7,1037.7,1300.9,1038.3"/>
				<path class="st1" d="M1312.8,1049.3c3.6,1.8,3.8,1.7,3.9,1.7c-0.5-1-9.3-5.8-10.5-5.6l0,0
					C1306.6,1046.1,1311.8,1048.8,1312.8,1049.3"/>
				<path class="st1" d="M1320.8,1058.6c2.7,1.4,6.8,3.5,7.5,3.5c0,0,0,0,0-0.1c-0.9-1-12-7.2-12.7-6.7
					C1315.9,1055.9,1319.7,1058,1320.8,1058.6"/>
				<path class="st1" d="M1331.4,1069.7c2.3,1.3,5.3,2.9,5.9,2.9v-0.1c-1.2-1.7-12.8-8.2-13.6-7.7
					C1324.1,1065.5,1329.2,1068.4,1331.4,1069.7"/>
				<path class="st1" d="M1316.4,1025.5c0.1,0,0.2,0.1,0.4,0.1c0.1,0,0.2,0.1,0.3,0.1c0.1,0,0.2,0.1,0.4,0.1c0.1,0,0.2,0.1,0.4,0.1
					c0.1,0,0.3,0.1,0.4,0.1c0.1,0,0.2,0.1,0.4,0.1c0.1,0,0.2,0.1,0.4,0.1c0.2,0,0.8,0.1,0.5-0.2c-0.3-0.4-1.8-1-1.8-1
					c-0.1,0-1.5-0.3-1.6,0.3c0,0,0,0,0,0.1C1316.2,1025.4,1316.3,1025.5,1316.4,1025.5"/>
				<path class="st1" d="M1330.8,1037.9c2.7,0.9,4,0.8,3.8,0.4c-0.4-0.9-4.4-2.2-5.8-2.6c-3.1-1-3.7-0.7-3.8-0.5c0,0,0,0.1,0,0.1
					C1325.7,1036.2,1330.8,1037.9,1330.8,1037.9"/>
				<path class="st1" d="M1338.9,1079c2.4,1.3,5.4,3,6.1,3c0,0,0-0.1,0.1-0.1c-0.9-1.5-13.3-8.6-14.1-8.1
					C1331.3,1074.6,1336.6,1077.7,1338.9,1079"/>
				<path class="st1" d="M1344.1,1050.1c3.6,1.3,5.7,1.8,5.5,1.3c-0.5-1.5-12.8-6.3-13.5-5.2c0,0,0,0.1,0,0.1
					C1336.8,1047.4,1340.8,1049,1344.1,1050.1"/>
				<path class="st1" d="M1346.7,1088.7c1.9,1,4.2,2.3,4.7,2.1c0.2-1.3-12.4-8-13.3-7.8C1338.2,1083.9,1346.6,1088.7,1346.7,1088.7"
					/>
				<path class="st1" d="M1356.2,1062.2c4.8,1.8,7.4,2.2,7.2,1.5c-0.2-1-14.4-7.2-15.9-6c0,0,0,0.1,0,0.1
					C1347.9,1058.8,1353.4,1061.1,1356.2,1062.2"/>
				<path class="st1" d="M1350.5,1095.8c1.7,0.9,5.5,3.2,6.2,3.2c0.2-0.9-11.9-8.1-13.6-8.1
					C1343.1,1091.5,1348.7,1094.8,1350.5,1095.8"/>
				<path class="st1" d="M1367.1,1074c5.2,2.1,9.2,3.1,8.8,2.1c-0.8-1.6-17.5-8.2-18-7.2c0,0,0,0.1,0,0.1
					C1358.3,1070.3,1363.8,1072.7,1367.1,1074"/>
				<path class="st1" d="M1352.1,1101.5c2.9,1.8,6.6,3.6,7.3,3.7c0,0,0-0.1,0-0.1c-1.8-1.8-12-7.1-12.1-7.1
					c-0.2,0.1-0.3,0.1-0.4,0.1C1347.4,1098.5,1348.8,1099.6,1352.1,1101.5"/>
				<path class="st1" d="M1377.5,1085.7c4.6,2,8.5,3,9.1,2.4c0-0.6-1.1-1.6-8.5-4.8c-3.4-1.4-9.7-4.1-10.7-3.4
					c-0.1,0-0.1,0.1-0.1,0.2C1367.7,1081.2,1375.5,1084.9,1377.5,1085.7"/>
				<path class="st1" d="M1352.2,1022.3c2.3,0.2,2.7-0.3,2.3-0.7c-1.5-1.9-8.5-2.3-8.5-1.2c0,0.1,0,0.1,0.1,0.1
					C1347.1,1021.6,1351,1022.2,1352.2,1022.3"/>
				<path class="st1" d="M1354.9,1107.6c1,0.6,4.3,2.5,4.9,2.5c0,0,0,0,0-0.1c-0.6-1-8.9-5.7-9.9-5.9c0,0-0.1,0-0.1,0
					C1350,1104.7,1352.8,1106.4,1354.9,1107.6"/>
				<path class="st1" d="M1368.4,1036.8c3.5,0.6,5.4,0.6,5-0.1c-0.9-1.8-12.4-5.3-13.2-3c0,0.1,0,0.2,0,0.3
					C1361.1,1035.1,1363.9,1036,1368.4,1036.8"/>
				<path class="st1" d="M1388.2,1097.3c5.9,2.5,9.1,3.1,8.8,2.4c-0.6-2-19.5-10-20.4-8.7
					C1376.9,1092.2,1384.6,1095.8,1388.2,1097.3"/>
				<path class="st1" d="M1385.1,1051.6c4.8,1,7.2,1,6.3-0.1c-2.4-3.1-16.9-6.6-17.1-4.1c0,0.1,0,0.2,0,0.2
					C1375.2,1048.9,1379.2,1050.4,1385.1,1051.6"/>
				<path class="st1" d="M1354.4,1111.2c0.6,0.3,3.4,1.9,3.8,1.9c0-0.5-7.4-4.6-8.2-4.8h-0.1
					C1350.4,1108.9,1354.3,1111.2,1354.4,1111.2"/>
				<path class="st1" d="M1394.8,1107.2c3.8,1.7,9.5,3.8,9.9,2.9c-0.8-1.9-19.2-10-20.5-9
					C1384.2,1102.4,1394.7,1107.1,1394.8,1107.2"/>
				<path class="st1" d="M1398.3,1065.6c6,1.4,9.2,0.9,8.2-0.4c-1.9-2.7-18.9-6.5-19.1-4.3c0,0.1,0,0.2,0,0.2
					C1388.9,1063.2,1396.8,1065.2,1398.3,1065.6"/>
				<path class="st1" d="M1400.5,1116.1c3.7,1.7,9.4,3.9,10.1,3.2c-0.4-1.7-18.8-9.9-20.3-9.1
					C1389.9,1111.2,1400.3,1116,1400.5,1116.1"/>
				<path class="st1" d="M1413.3,1080.1c6.5,1.7,9.2,1.2,8.5,0c-1.8-3-21.5-8.3-21.9-5.8c0,0.1,0,0.2,0,0.2
					C1400.9,1076.6,1410.1,1079.3,1413.3,1080.1"/>
				<path class="st1" d="M1405.7,1124.4c4.1,1.9,8.7,3.6,9.9,3.4c0-0.1,0-0.1,0.1-0.2c-1.1-1.7-18.7-9.6-20.5-9.2c0,0,0,0.1,0,0.2
					C1396.2,1120.1,1405.6,1124.3,1405.7,1124.4"/>
				<path class="st1" d="M1425.3,1093.7c6.8,2,10.7,1.8,9.9,0.3c-1.4-2.8-22-8.8-23-6.6c0,0,0,0.1,0,0.1
					C1413.5,1090.1,1425.2,1093.6,1425.3,1093.7"/>
				<path class="st1" d="M1382.4,1007.5c2.5-0.1,3.5-0.8,2.5-1.6c-2.6-2.3-10.1-2.4-9.8,0c0,0.1,0.1,0.3,0.1,0.3
					C1376.2,1007.4,1379.7,1007.6,1382.4,1007.5"/>
				<path class="st1" d="M1406.1,1129.9c5.2,2.4,9.9,4.1,10.7,3.8c-0.5-1.5-17.8-8.7-19-8.6c0,0-0.1,0-0.1,0.1
					C1398.1,1126.1,1404.2,1129,1406.1,1129.9"/>
				<path class="st1" d="M1435.4,1106.2c8.1,2.6,13.1,2.8,12.4,1.3c-1.3-2.9-24.7-9.8-25.6-7.5c0,0,0,0.1,0,0.1
					C1422.6,1101.9,1431,1104.9,1435.4,1106.2"/>
				<path class="st1" d="M1401.9,1024.9c4.8,0,6.5-1.4,5.3-2.8c-1.1-1.2-4.2-2.1-8-2.1c-2.1,0-6.6-0.1-6.6,1.8
					c0,0.2,0.1,0.4,0.2,0.6C1394.4,1024.8,1401.1,1024.9,1401.9,1024.9"/>
				<path class="st1" d="M1407.1,1134.8c3.8,1.8,8.2,3.5,9.2,3.5c0,0,0-0.1,0-0.1c-1.5-1.4-15.4-7.8-17.5-7.9h-0.1
					C1398.9,1131,1407,1134.7,1407.1,1134.8"/>
				<path class="st1" d="M1420.8,1042.4c5.4,0.3,8-1.4,6.6-3.1c-1.3-1.7-5.7-2.5-9.3-2.8c-4.2-0.3-8.4-0.6-8.7,1.5
					c0,0.3,0.1,0.5,0.2,0.7C1411.4,1041.5,1420.7,1042.4,1420.8,1042.4"/>
				<path class="st1" d="M1444.7,1118.3c8.4,2.8,13.2,3.1,12.8,1.9c-0.8-2.6-25-10.4-26.2-8.4c0,0,0,0.1-0.1,0.1
					C1431.5,1114,1444.2,1118.1,1444.7,1118.3"/>
				<path class="st1" d="M1439.3,1059c6.5,0.5,8.8-0.9,7.6-2.5c-2.1-2.8-21.1-6.5-21.7-2.4c0,0.3,0,0.6,0.1,0.7
					C1427.3,1057.9,1439.2,1059,1439.3,1059"/>
				<path class="st1" d="M1404.8,1137.3c3.3,1.5,7.5,3.3,8.1,3.2c0-0.9-12.7-6.5-15.4-7.1c-0.1,0-0.2,0-0.2,0
					C1397.5,1133.9,1402.6,1136.3,1404.8,1137.3"/>
				<path class="st1" d="M1453,1129.3c8.6,2.9,14.2,3.4,13.3,2c-1.6-2.6-25.6-10.1-26.8-8.4
					C1439.3,1124.4,1449.4,1128.1,1453,1129.3"/>
				<path class="st1" d="M1454.9,1075.6c8.1,1.2,12.1-0.2,10.7-2.2c-2-2.9-23.7-7.3-24.7-3.3c-0.1,0.3,0,0.4,0,0.6
					C1442.6,1073.8,1454.4,1075.5,1454.9,1075.6"/>
				<path class="st1" d="M1458.1,1138.7c8.5,2.9,14.4,3.7,13.8,2.5c-0.7-1.4-24.2-10.3-26.7-8.7
					C1444.7,1133.7,1454.6,1137.5,1458.1,1138.7"/>
				<path class="st1" d="M1470.7,1091.8c8.1,1.3,11.9,0,10.8-1.8c-2.3-3.8-26-7.6-26.6-4.3c0,0.2,0,0.3,0,0.4
					C1456,1088.7,1465.2,1091,1470.7,1091.8"/>
				<path class="st1" d="M1405.3,981.5c3.6-0.8,6.3-2.7,4.5-4c-3-2.1-11-0.9-10.5,2.4c0.1,0.4,0.2,0.6,0.3,0.8
					C1401,982.2,1403.8,981.8,1405.3,981.5"/>
				<path class="st1" d="M1460.9,1146.3c8.5,3,14.2,4,14,3.1c-0.3-1.2-22.5-9.8-25.7-8.7c0,0-0.1,0.1-0.1,0.1
					C1449.1,1142.1,1460.4,1146.1,1460.9,1146.3"/>
				<path class="st1" d="M1484.4,1106.9c8.8,1.6,12.5,0.7,11.6-0.9c-2.1-3.9-27.7-9-28.5-5.7c0,0.1,0,0.2,0,0.3
					C1468.7,1103.3,1479.4,1106,1484.4,1106.9"/>
				<path class="st1" d="M1431.3,1001.8c6-0.8,6.1-2.6,4.1-4c-4.1-2.9-16.3-4.1-15.5,1.2c0.1,0.4,0.2,0.7,0.3,0.9
					C1421.7,1001.9,1425.7,1002.5,1431.3,1001.8"/>
				<path class="st1" d="M1464,1152.9c5.7,1.9,11.9,3.4,12.3,2.7c-0.7-1.6-21.9-8.7-24.6-8.2c-0.1,0-0.2,0.1-0.2,0.1
					C1452.3,1149,1463.9,1152.9,1464,1152.9"/>
				<path class="st1" d="M1452.5,1022c6.6-0.5,9-3.4,6.6-5.5c-3.2-2.8-19.3-3.3-19.2,1.7c0,0.6,0.2,1,0.3,1.2
					C1442.8,1022.7,1452.1,1022,1452.5,1022"/>
				<path class="st1" d="M1495.7,1121.2c8.8,1.8,14.8,1.7,13.9-0.3c-0.6-1.4-6.5-3.9-16.6-6c-5.8-1.2-12.8-2.1-13.5-0.4
					c0,0.1-0.1,0.2-0.1,0.3C1480.1,1117.4,1491.4,1120.3,1495.7,1121.2"/>
				<path class="st1" d="M1461.8,1156.4c6.1,2.1,11.7,3.5,12.5,3.2c-0.4-1-20-7.6-23.3-7.8c-0.1,0-0.2,0-0.2,0c0,0-0.1,0.1-0.1,0.1
					C1451.7,1152.9,1459.1,1155.5,1461.8,1156.4"/>
				<path class="st1" d="M1475.1,1041.5c7.5-0.4,9.9-3.3,7.5-5.6c-3.9-3.7-23-4.2-22.9,0.9c0,0.6,0.2,0.9,0.3,1.1
					C1462.9,1042.2,1475,1041.5,1475.1,1041.5"/>
				<path class="st1" d="M1503.8,1133.7c8.8,2,17.4,2.7,15.9,0.3c-2.4-3.7-30.3-9.4-31.1-6.3
					C1489,1130.4,1503.2,1133.6,1503.8,1133.7"/>
				<path class="st1" d="M1456.7,1157.5c5.7,1.9,12,3.7,13.1,3.7c-0.7-0.8-19.3-6.7-22-7.2c-0.1,0-0.3,0-0.4,0
					C1447.6,1154.4,1456.6,1157.4,1456.7,1157.5"/>
				<path class="st1" d="M1494.7,1061c8.3-0.1,11.2-2.9,8.7-5.4c-3.9-3.8-25.6-5.2-25.3,0.2c0,0.4,0.1,0.6,0.2,0.8
					C1480.5,1060.4,1490.9,1061.1,1494.7,1061"/>
				<path class="st1" d="M1514,1146.1c9.6,2.1,14.2,1.8,13.2,0.2c-2.3-3.4-29-9.5-31.1-7C1496.2,1141,1506.6,1144.4,1514,1146.1"/>
				<path class="st1" d="M1512.3,1079.7c9.1,0.3,14.3-1.8,11.3-4.5c-4.3-4-29.2-6.6-28.8-1.1c0,0.2,0.1,0.4,0.1,0.6
					C1497.6,1079.1,1512.2,1079.7,1512.3,1079.7"/>
				<path class="st1" d="M1516.6,1155.2c9.1,2.2,18.2,3.3,17.3,1.5c-1.3-2.7-29.3-8.9-31.4-7
					C1501.9,1151.2,1511.5,1153.9,1516.6,1155.2"/>
				<path class="st1" d="M1424.6,944c4-1.7,2.6-4,0-4.9c-5.1-1.9-8.7,2-7.8,3.8c0.1,0.1,0.2,0.2,0.2,0.3
					C1419.8,946.1,1422.9,944.8,1424.6,944"/>
				<path class="st1" d="M1529.3,1097.5c10.9,0.7,15.4-1.5,12.8-4.1c-4.3-4.2-31-7.6-31.1-2c0,0.2,0,0.4,0.1,0.5
					C1513.3,1096.3,1529.2,1097.5,1529.3,1097.5"/>
				<path class="st1" d="M1453.3,967.4c6.2-1.9,5.5-4.5,2.2-6.2c-6.3-3.2-16.3-2-14.1,4.2c0.2,0.4,0.4,0.7,0.5,0.9
					C1443.9,968.6,1447.9,969,1453.3,967.4"/>
				<path class="st1" d="M1520,1163.3c9.3,2.2,16.5,2.6,16.2,1.5c-0.5-2-27.7-8-30.3-6.8c-0.1,0.1-0.1,0.2-0.2,0.2
					C1506.5,1160,1519.9,1163.3,1520,1163.3"/>
				<path class="st1" d="M1543.4,1114.4c8.9,0.9,17.1,0.2,14.1-3.5c-4.2-5.4-32.4-7.8-32.8-2.8c0,0.1,0,0.2,0,0.3
					C1526.1,1111.9,1538.7,1113.9,1543.4,1114.4"/>
				<path class="st1" d="M1480,990.8c7.4-1.8,7.2-6.1,3.9-8.3c-5-3.3-19.1-1.4-17.9,5c0.2,0.7,0.4,1.2,0.6,1.5
					C1470,992.6,1477.1,991.4,1480,990.8"/>
				<path class="st1" d="M1518.7,1168.6c6,1.5,16.1,3.5,17.6,2.7c-1.1-1.7-26-7.6-29.6-7c-0.1,0.1-0.2,0.1-0.2,0.1l-0.1,0.1
					C1507.3,1165.8,1517.6,1168.3,1518.7,1168.6"/>
				<path class="st1" d="M1555.3,1129.7c11.7,1.3,17.3-0.3,15.3-2.8c-3.2-3.7-33.1-8.8-33.8-3.5c0,0.1,0,0.2,0,0.2
					C1537.7,1127,1550.5,1129.2,1555.3,1129.7"/>
				<path class="st1" d="M1504.4,1013.4c8.4-1.4,10.6-6.2,6.5-9.1c-4.9-3.4-23.1-1.9-21.9,4.8c0.1,0.7,0.4,1.1,0.5,1.4
					C1492.9,1015.2,1503.2,1013.6,1504.4,1013.4"/>
				<path class="st1" d="M1518.8,1172.5c7.7,1.8,14.4,2.8,15.4,2.5c-0.8-1.2-24.8-6.5-28.1-6.5c-0.2,0-0.3,0-0.4,0.1
					C1506.6,1169.7,1515.9,1171.9,1518.8,1172.5"/>
				<path class="st1" d="M1529.3,1035.5c9.6-1.4,10.6-5.5,7.2-7.9c-6.1-4.2-27.4-4.2-25.8,3.3c0.1,0.4,0.3,0.8,0.4,0.9
					C1514.3,1036.5,1525.6,1036.1,1529.3,1035.5"/>
				<path class="st1" d="M1565.5,1143.9c12.6,1.6,18.6,0,16.9-2.3c-2.6-3.5-33.5-8.7-34.9-3.8
					C1547.9,1140.7,1558.5,1143.1,1565.5,1143.9"/>
				<path class="st1" d="M1511.1,1172.5c7.3,1.6,15.8,3.3,16.7,3.3c-0.5-0.3-22.8-5.3-26.5-5.9c-0.2,0-0.4-0.1-0.6-0.1
					C1501.4,1170.3,1509.5,1172.1,1511.1,1172.5"/>
				<path class="st1" d="M1549.6,1057.3c10.7-0.8,15.7-4.7,11-8.5c-4.2-3.3-29.7-4.7-28.9,3.3c0.1,0.5,0.2,0.8,0.3,1.1
					C1535.3,1058.3,1548.2,1057.4,1549.6,1057.3"/>
				<path class="st1" d="M1574.3,1156.5c11.5,1.4,16.6,0.2,14.9-1.9c-3.6-4.3-32.1-7.8-33.9-4.1
					C1554.9,1152.8,1564.6,1155.2,1574.3,1156.5"/>
				<path class="st1" d="M1436.9,897.2c3.7-2.3,1.5-4.5-1.4-5.1c-5.6-1.2-7.8,2.6-6,5.5c0.1,0.1,0.2,0.2,0.2,0.3
					C1431.7,899.7,1434.7,898.5,1436.9,897.2"/>
				<path class="st1" d="M1572.6,1078.2c10.7-1.1,12.1-5.8,8.4-8.8c-7.1-5.7-31.4-3.3-30.6,2.9c0,0.4,0.2,0.7,0.2,0.9
					C1553.9,1079.5,1572.4,1078.2,1572.6,1078.2"/>
				<path class="st1" d="M1579.3,1166.5c2.6,0.3,15.5,2,16.8-0.5c-1.1-3.4-32.9-7.9-35.4-5C1560,1163,1572.5,1165.6,1579.3,1166.5"
					/>
				<path class="st1" d="M1468.2,922.1c5.1-2.5,4.7-6.9,0.6-8.3c-5.2-1.8-15.1,1.1-12.1,7.2c0.1,0.2,0.2,0.4,0.4,0.6
					C1459.8,924.6,1465.3,923.5,1468.2,922.1"/>
				<path class="st1" d="M1589.2,1098c11.7-0.4,14.4-4,11-7.2c-5.9-5.6-33.5-6.5-32.9,1.1c0,0.1,0,0.2,0.1,0.5
					C1569.3,1096.8,1579.8,1098.4,1589.2,1098"/>
				<path class="st1" d="M1501.1,948c7.5-3.6,4.8-8.8-0.8-10.5c-6.8-2.1-18.3,2-15.2,8.4c0.2,0.3,0.3,0.6,0.5,0.8
					C1489.6,951.1,1497.2,949.8,1501.1,948"/>
				<path class="st1" d="M1581.4,1174.7c11.2,1.5,17.2,1,16.5-0.3c-1.5-2.6-30-6.4-33.5-4.5
					C1562.8,1171.3,1572,1173.4,1581.4,1174.7"/>
				<path class="st1" d="M1601.7,1115.8c11.3,0.2,20.9-2.2,16.6-6.3c-6.4-6.2-36.2-5.6-36.2,0.7c0,0.1,0,0.3,0.1,0.4
					C1584,1115.4,1599.8,1115.7,1601.7,1115.8"/>
				<path class="st1" d="M1530.4,974c8.2-3.3,6-10.2,0.3-12.5c-7.2-3-21.8,1.8-18.5,9.7c0,0,0.1,0.3,0.5,0.9
					C1518.6,978.7,1530.3,974,1530.4,974"/>
				<path class="st1" d="M1579.5,1179.9c5.9,0.8,17.3,2,18.7,0.8c0-0.1,0-0.1,0-0.2c-1.5-1.8-29.7-5.4-33.8-4.4
					c-0.1,0.1-0.3,0.1-0.4,0.3C1564.7,1177.5,1573.7,1179.1,1579.5,1179.9"/>
				<path class="st1" d="M1558.3,999.6c11-3.4,8.4-9.7,3.8-12.2c-3.1-1.7-8.6-3.1-17.6-0.2c-5.6,1.8-7.7,5.5-6.8,8.2
					c0.2,0.5,0.4,0.9,0.6,1.2C1542.2,1001.7,1551.4,1001.8,1558.3,999.6"/>
				<path class="st1" d="M1618.2,1132.9c12.1,0.1,17.2-2.8,15-5.5c-4.7-5.6-36.5-6-37.5-0.5c0,0.1,0,0.3,0,0.4
					C1596.9,1131.4,1611.4,1132.8,1618.2,1132.9"/>
				<path class="st1" d="M1576.7,1182.7c7.1,0.9,15.8,1.6,17.4,1.3c0-0.1-0.1-0.1-0.1-0.2c-2.9-1-27.9-4.1-32.2-4
					c-0.2,0-0.4,0-0.5,0.1l-0.1,0.1C1562.3,1180.7,1571.1,1182,1576.7,1182.7"/>
				<path class="st1" d="M1582,1024.5c10.6-2.2,15.1-7.8,9.5-11.5c-7.1-4.9-30.3-2.8-28.8,6.3c0.2,0.9,0.5,1.5,0.7,1.8
					C1567.6,1027.2,1579.6,1025,1582,1024.5"/>
				<path class="st1" d="M1628.3,1148c13.3,0.4,18.9-2.4,15.8-5.2c-5.3-4.9-37.2-5.1-37.9-0.3
					C1606.6,1145.8,1619.6,1147.7,1628.3,1148"/>
				<path class="st1" d="M1441,841.8c3.5-3-0.5-5.3-0.5-5.3c-0.2-0.1-2.4-0.2-4,1.5c-1.3,1.4-1.4,3-1,3.9c0.1,0.3,0.3,0.4,0.4,0.6
					C1437.9,844.4,1440,842.7,1441,841.8"/>
				<path class="st1" d="M1587.1,1184.5c-5.5-0.5-18.2-2.1-30.5-3.7c-0.2,0-0.5-0.1-0.7-0.1c0.6,0.1,1.2,0.2,1.9,0.3L1587.1,1184.5"
					/>
				<path class="st1" d="M1606.8,1047.7c12.3-2.3,14.6-7.7,9.8-11.4c-7.1-5.3-32.9-1.9-31.6,6.3c0.1,0.6,0.3,1,0.4,1.3
					C1589.9,1050.8,1606.6,1047.8,1606.8,1047.7"/>
				<path class="st1" d="M1634,1160.7c12.3,0.5,21-1.2,19.2-3.7c-2.5-3.6-36.9-6.6-39.2-1.1
					C1613.8,1159.1,1628.3,1160.4,1634,1160.7"/>
				<path class="st1" d="M1477.5,867.8c5.4-3.9,2.1-9-2.7-9.6c-5.7-0.6-11.9,4.6-7.7,9.9c0.1,0,0.1,0.1,0.1,0.2
					C1471,872.2,1476.5,868.5,1477.5,867.8"/>
				<path class="st1" d="M1626.5,1070.9c11.4-1.4,19.8-6.1,13.4-11.2c-7.3-5.8-35.4-3.1-34.5,5.6c0,0.5,0.2,0.8,0.3,1.2
					C1609.3,1072.8,1624.7,1071.1,1626.5,1070.9"/>
				<path class="st1" d="M1639.2,1171.4c2.8,0.1,16.9,0.6,20.1-2l0.1-0.1c1.6-4.4-33-5.3-38.1-2.8c-0.7,0.3-0.9,0.6-1,0.7
					C1619.2,1170,1633.6,1171.2,1639.2,1171.4"/>
				<path class="st1" d="M1512.7,895.5c6.3-4.2,4-10.9-2.2-12.4c-6.2-1.5-16.9,4-12.3,11.5c0.2,0.3,0.3,0.5,0.5,0.7
					C1504,901.2,1512.6,895.6,1512.7,895.5"/>
				<path class="st1" d="M1648.3,1092.6c17-2.3,15.7-8.5,12.3-11.1c-8.5-6.8-36.8-2.6-36,5.4c0,0.3,0.1,0.6,0.2,0.8
					C1627.8,1093.7,1641.5,1093.5,1648.3,1092.6"/>
				<path class="st1" d="M1545.5,924.8c9.2-4.4,7.3-12.8,1.1-15.3c-6.7-2.6-22.3,3.1-17.9,12.3c0.3,0.7,0.6,1.1,0.9,1.5
					C1534.8,929.6,1544.4,925.3,1545.5,924.8"/>
				<path class="st1" d="M1640.8,1179.7c14.9,0.6,21.1-1,19.8-2.3c-2.1-2.2-33.4-4-37.8-1.1c-0.1,0.1-0.2,0.2-0.2,0.3
					C1622.7,1178.5,1634.6,1179.5,1640.8,1179.7"/>
				<path class="st1" d="M1662.6,1112.2c15.7-1.2,20.9-6.4,15.9-10.4c-7.2-5.6-38.9-3.3-38.3,5.4c0,0.1,0,0.2,0.1,0.2
					C1641.3,1110.9,1651.2,1113.1,1662.6,1112.2"/>
				<path class="st1" d="M1579.2,952.5c11.9-5.3,7.6-13.2,2.6-15c-7.8-2.8-27.5,1.6-22.1,12.3c0.2,0.4,0.4,0.7,0.6,1
					C1566.3,958.2,1578.7,952.8,1579.2,952.5"/>
				<path class="st1" d="M1640.3,1185c8.5,0.3,19.3-0.1,19.9-0.9c-1.2-1.8-32.3-3.2-37.3-1.6c-0.1,0.1-0.3,0.2-0.4,0.2
					c0,0.1,0.1,0.2,0.1,0.2C1625.5,1184.5,1639.7,1185,1640.3,1185"/>
				<path class="st1" d="M1675.3,1130.2c14.6-0.9,23.6-5.2,18.8-9.1c-6.2-5.1-40.6-3.7-40.1,4.5
					C1655.7,1131.2,1673.2,1130.3,1675.3,1130.2"/>
				<path class="st1" d="M1608,981.2c11.9-4.2,13.3-11.7,6.7-15.2c-8.9-4.7-30.3,0.2-26.8,10.8c0.3,0.9,0.7,1.5,0.9,1.9
					C1594.1,985.6,1605.7,982,1608,981.2"/>
				<path class="st1" d="M1635.8,1187.3c8.4,0.2,18.5,0.3,20.2-0.1c-0.7-0.7-32.4-1.5-36.1-1.2c-0.2,0-0.4,0.1-0.6,0.1
					C1620.3,1186.7,1631.5,1187.2,1635.8,1187.3"/>
				<path class="st1" d="M1638.4,1007.9c13.1-4.4,10.6-12.5,3.1-16c-10.1-4.7-31.6,1.1-27.2,11.8c0.1,0.3,0.3,0.6,0.4,0.7
					C1619,1010.9,1629.7,1010.8,1638.4,1007.9"/>
				<path class="st1" d="M1688.6,1145.9c14.2-0.9,22.7-4.7,18.6-8.2c-5.3-4.5-40.7-3.2-41.4,4
					C1666.5,1146.3,1682.4,1146.3,1688.6,1145.9"/>
				<path class="st1" d="M1477.7,806.2c3.5-2.9,5.6-9-0.6-9.4c-5-0.3-9.4,5.5-5.9,9.7c0,0,0.1,0.1,0.2,0.2
					C1473.6,808.8,1476,807.5,1477.7,806.2"/>
				<path class="st1" d="M1663.5,1034.2c16-4.5,13.6-13.1,7.8-16.5c-11-6.5-34.7,1.8-32.1,11.2c0.1,0.6,0.3,0.9,0.5,1.2
					C1644.4,1037.3,1657.3,1035.9,1663.5,1034.2"/>
				<path class="st1" d="M1695.9,1159.6c16-0.9,23.3-4.5,20-7.1c-3.6-2.8-39.7-3.1-42,3.6
					C1673.8,1159.9,1689.7,1159.9,1695.9,1159.6"/>
				<path class="st1" d="M1518.4,834.3c5.9-4.5,3.3-11.2-2.8-12c-7.7-1.1-15.4,6.1-10.7,12.3c0.1,0.1,0.2,0.2,0.2,0.3
					C1509.6,839.2,1516.4,835.8,1518.4,834.3"/>
				<path class="st1" d="M1684,1058.8c13.7-2.9,20.4-9.9,14-14.7c-8.4-6.3-38.3-1.1-36.7,9.2c0.1,0.7,0.3,1.2,0.4,1.5
					C1665.9,1062.2,1681,1059.5,1684,1058.8"/>
				<path class="st1" d="M1700.1,1170.7c15.4-0.8,23.9-3.8,21.2-5.9c-2.9-2.3-38.2-2.3-42.1,3.1
					C1678.2,1171.2,1693.9,1171.1,1700.1,1170.7"/>
				<path class="st1" d="M1556,864.5c7.4-5.3,4.5-14.9-2.9-16.5c-7-1.4-13.3,5.5-13.4,5.6c-1.8,2-2.5,5.9,0,9.6
					c0.2,0.2,0.4,0.5,0.6,0.8C1545.3,869.7,1552.5,867,1556,864.5"/>
				<path class="st1" d="M1706,1081.1c15.6-3.3,19.7-10.4,12.9-14.5c-9.8-5.9-40.4,0.4-38,10.3c0,0.2,0.1,0.3,0.1,0.5
					C1685.1,1085.4,1705.8,1081.1,1706,1081.1"/>
				<path class="st1" d="M1594.5,895.7c9-5.9,4-17.4-5.6-18.9c-8.7-1.3-22.1,7.6-14.7,17.9c0.1,0.1,0.2,0.2,0.2,0.3
					C1582.3,903.6,1594.4,895.8,1594.5,895.7"/>
				<path class="st1" d="M1702,1179c13.7-0.7,24.1-2.9,22.4-4.6c-2.2-2.2-37-0.8-41.7,2.7C1680.6,1179.6,1696.3,1179.3,1702,1179"/>
				<path class="st1" d="M1724,1102.5c15.6-2.9,20.8-9.2,15.8-13.3c-7.6-6.2-42-1.2-41,8.9c0,0.2,0.1,0.4,0.1,0.6
					C1702.1,1106.5,1723.8,1102.5,1724,1102.5"/>
				<path class="st1" d="M1628.3,927.3c11.7-5.8,9.6-15.4,2-18.3c-10.1-3.9-28.7,3.5-24.3,14.4c0.1,0.3,0.4,1,1.1,2
					C1614.2,934.1,1627.7,927.6,1628.3,927.3"/>
				<path class="st1" d="M1698.9,1184.4c10.4-0.6,22.3-1.9,23.4-3.1c-2.2-1.8-36.2,0.7-40.5,2.3c-0.2,0.1-0.4,0.2-0.5,0.4
					C1681.9,1185,1693.1,1184.7,1698.9,1184.4"/>
				<path class="st1" d="M1737.8,1121.3c15.6-2.7,23.1-8.3,16.8-12.6c-8-5.4-42.4,0-41.5,9.3
					C1715.2,1125,1737.6,1121.3,1737.8,1121.3"/>
				<path class="st1" d="M1659.9,957.5c12.8-5.5,15.1-15.4,4.6-20.2c-9.6-4.3-31.6,4.3-26.9,15.9c0.4,0.9,0.7,1.4,1,2
					C1642.8,961.2,1652.6,960.6,1659.9,957.5"/>
				<path class="st1" d="M1711.7,1185c2.8-0.2,4.5-0.4,5.2-0.5c-2-0.1-32.7,1.7-38.8,2.4c-0.2,0-0.6,0.1-0.8,0.2
					c0.9,0.1,4.6,0,11.4-0.4L1711.7,1185"/>
				<path class="st1" d="M1474.9,737.5c2.5-3.4,1-5.7,0.4-6.8c-3.1-0.2-5.3,0.3-5.3,0.3c-1.6,1.6-2.6,4.2-1.1,6.1
					c0.1,0.1,0.2,0.2,0.2,0.3c1,0.9,1.9,1.1,3,1.1C1472.9,738.5,1474.2,738.4,1474.9,737.5"/>
				<path class="st1" d="M1691.4,986.9c13.3-5.3,14.1-16.5,5-20.7c-10.5-4.8-35,3.8-30.2,16.3c0.2,0.7,0.5,1.1,0.7,1.5
					C1673.6,993.8,1690.7,987.2,1691.4,986.9"/>
				<path class="st1" d="M1748.5,1138.4c15-2.4,24-7.5,19.7-11.1c-5.9-5-42.9-0.6-43.6,8.2C1725.7,1142,1748.3,1138.5,1748.5,1138.4
					"/>
				<path class="st1" d="M1519.1,765.9c6.1-5.5,0.7-9.8-5.6-10.2c-9.9-0.8-9.9,7.4-6.2,12c0.1,0.1,0.2,0.2,0.2,0.3
					C1508.8,768.9,1512.3,771.9,1519.1,765.9"/>
				<path class="st1" d="M1720.2,1014c14.4-5.3,14.6-14.7,5.2-19c-13.6-6.2-36.7,4.4-32.9,15.2c0.2,0.4,0.3,0.8,0.4,1
					C1698.4,1019.6,1714.8,1015.9,1720.2,1014"/>
				<path class="st1" d="M1757.3,1152.8c16.5-2.4,24.5-7.2,21.3-10.1c-4.8-4.2-42.7,0.4-44.8,7.8
					C1733.8,1155.2,1750.8,1153.8,1757.3,1152.8"/>
				<path class="st1" d="M1561,797c7.2-6.8,1-14.5-6.5-14.7c-7.4-0.2-16.8,7.5-10.1,15.5C1549.4,802.8,1556.7,801.1,1561,797"/>
				<path class="st1" d="M1744.5,1040.5c15.2-5.2,17.1-14.3,8.6-19c-11-6.1-40.2,1.3-36.4,14.9c0,0,0.1,0.2,0.2,0.6
					C1721.5,1044.2,1736.1,1043.3,1744.5,1040.5"/>
				<path class="st1" d="M1761.5,1164.2c16.4-2.4,25.2-6.5,22.8-8.7c-3.6-3.3-41.2,1.3-44.9,7.4
					C1738.2,1166.8,1755,1165.2,1761.5,1164.2"/>
				<path class="st1" d="M1599.8,830.2c8.9-6.6,5-18.5-4-19.8c-9-1.3-22.5,8.6-14.3,19.3c0.1,0.1,0.2,0.2,0.3,0.3
					C1589,838.1,1599.4,830.5,1599.8,830.2"/>
				<path class="st1" d="M1762.8,1065.5c16.3-4.4,23.5-13,15.4-18.4c-8.6-5.7-43.5,0.9-40.5,14.1c0,0.1,0.1,0.2,0.1,0.3
					C1741,1067.7,1749.4,1069,1762.8,1065.5"/>
				<path class="st1" d="M1638.8,863.5c12.6-8.1,7.7-19.3,0-21.2c-9.6-2.3-28.9,5.2-20.7,18.9c0.3,0.6,0.6,1,0.9,1.3
					C1626.4,870.9,1636.8,864.8,1638.8,863.5"/>
				<path class="st1" d="M1763,1172.7c14.1-2.1,24.6-5.7,22.9-7c-2.8-2.2-38.9,2.2-44,6.7c-2.3,2.8,13.7,1.2,14.3,1.1
					C1758.5,1173.3,1760.8,1173,1763,1172.7"/>
				<path class="st1" d="M1782.6,1087.1c18.4-5.2,21.2-13.5,15.2-17.2c-9.8-6-44.3,3.3-41.9,14.3c0,0.1,0,0.2,0.1,0.3
					C1759.7,1093.4,1782.4,1087.2,1782.6,1087.1"/>
				<path class="st1" d="M1677.7,896.2c14.5-8.7,7.2-20.7-2.8-23.2c-11.8-3-29.2,8.6-21.5,21.1c0.2,0.2,0.4,0.5,0.5,0.8
					C1662.4,905.2,1677.5,896.3,1677.7,896.2"/>
				<path class="st1" d="M1758.3,1178.2c11.3-1.7,25.5-4.7,26.8-5.9c-1.9-1.7-38.8,4.6-43.9,6.8c-0.2,0.1-0.4,0.3-0.6,0.4
					C1741.5,1180.7,1757.6,1178.3,1758.3,1178.2"/>
				<path class="st1" d="M1712.8,929.4c14.1-7.7,9.7-20.8-0.8-23.8c-11.5-3.3-33.2,6.8-25.2,21c0.2,0.3,0.4,0.6,0.5,0.8
					C1695.6,938.3,1711.1,930.3,1712.8,929.4"/>
				<path class="st1" d="M1797.1,1107.8c19.1-4.6,24.2-13.1,18.2-16.3c-9-4.9-45.1,2.4-43.5,13.8
					C1774.3,1113.2,1796.8,1107.8,1797.1,1107.8"/>
				<path class="st1" d="M1778.6,1175.5l-41.7,6.7c-0.3,0-0.7,0.1-1,0.1c0,0,0.1,0,0.1,0L1778.6,1175.5"/>
				<path class="st1" d="M1511.9,692.4c4.2-4.8-0.8-8.7-4.9-8.5c-5.1,0.2-6.5,6.5-3.9,9.3C1507.7,697.2,1510.3,694.2,1511.9,692.4"
					/>
				<path class="st1" d="M1746.7,959.8c14.1-7.8,9.8-20.4-0.8-23.6c-12.8-3.9-35.3,7.5-27.8,20.9c0.1,0.1,0.2,0.3,0.2,0.4
					C1724.2,966,1737,965.1,1746.7,959.8"/>
				<path class="st1" d="M1809.4,1125.1c18.9-4.8,24.7-12.3,19.4-15c-8.1-4.1-44.7,3.5-45,13.6
					C1785.2,1131.2,1809.2,1125.2,1809.4,1125.1"/>
				<path class="st1" d="M1557.2,724c6-5.8,1.8-13.7-5.3-13.8c-8.5-0.1-14.8,8.5-8.7,15.2C1548.5,730.2,1555.2,725.9,1557.2,724"/>
				<path class="st1" d="M1773.3,989.5c17.2-7.2,16.4-19.4,6.7-23.3c-13.5-5.4-39.7,7.2-34.4,19.9c0.2,0.4,0.3,0.7,0.4,0.9
					C1753.1,997.8,1773.1,989.6,1773.3,989.5"/>
				<path class="st1" d="M1816.9,1140.1c17.1-4,25.8-10.3,22.2-13.4c-5.3-4.4-44.2,3.7-46.2,12.5
					C1792.8,1144.5,1810.2,1141.7,1816.9,1140.1"/>
				<path class="st1" d="M1600,757.3c8.6-7.6,5.1-17.8-3.7-18.6c-8.7-0.8-20.8,8.5-12.7,18.5c0.1,0.2,0.2,0.3,0.4,0.5
					C1590.8,764.5,1598,759.1,1600,757.3"/>
				<path class="st1" d="M1798.8,1017.6c16.8-7.2,19.1-18.8,9.1-22.9c-12.3-5.1-42.5,6.3-37,20.3c0.1,0.2,0.2,0.4,0.2,0.5
					C1777.6,1026.4,1797.9,1017.9,1798.8,1017.6"/>
				<path class="st1" d="M1821.7,1152c17.3-4.2,26.5-9.6,23.9-11.9c-4-3.4-42.5,4.9-46.6,12.3
					C1797.6,1157.7,1821.4,1152,1821.7,1152"/>
				<path class="st1" d="M1644.5,790.8c8.8-7.5,5.4-19-5.9-20.2c-12.8-1.3-23.4,9.7-15.2,20.2c0.1,0.1,0.2,0.2,0.2,0.3
					C1631.1,799.1,1641.2,793.6,1644.5,790.8"/>
				<path class="st1" d="M1822.2,1043.3c19.2-7.6,19.9-18.9,10.9-22.5c-11.6-4.7-44.2,7.3-39.1,20.6
					C1799.6,1052.2,1821.3,1043.7,1822.2,1043.3"/>
				<path class="st1" d="M1687,826.3c10.9-8.3,2.8-21.9-7.8-23.8c-10.2-1.9-26.2,9.3-17.4,22.2c0.2,0.3,0.4,0.6,0.6,0.8
					C1672.6,836.7,1685.6,827.4,1687,826.3"/>
				<path class="st1" d="M1822.9,1160.6c15-3.6,25.1-8.1,25.1-9.9c-3-2.9-41.7,6.7-46.6,11.6c-1.5,2,4.2,1.5,9.3,0.7
					C1814.2,1162.5,1818.6,1161.6,1822.9,1160.6"/>
				<path class="st1" d="M1840.7,1066.9c19.1-6.7,22.2-17.2,15.1-21.1c-11.2-6-46.3,6.8-42.9,19.3
					C1817.2,1075,1840.5,1067,1840.7,1066.9"/>
				<path class="st1" d="M1724.4,862.2c14.8-9.2,10.6-23.2-0.2-26c-12.2-3.2-33.2,7.7-24.1,23.3c0.3,0.6,0.6,1,0.9,1.3
					C1709.3,870.9,1722,863.8,1724.4,862.2"/>
				<path class="st1" d="M1819.5,1165.8c10.2-2.6,25.4-7,25.6-8.3c-3.5-0.5-37.7,7.8-45,11.5c-0.2,0.1-0.5,0.3-0.6,0.5
					C1801,1170.4,1817.6,1166.2,1819.5,1165.8"/>
				<path class="st1" d="M1855.7,1088.7c16.6-5.7,25.1-15.7,17.1-20.2c-10.8-6.1-46,6.4-44.1,18.7
					C1830.9,1094.2,1846.4,1091.9,1855.7,1088.7"/>
				<path class="st1" d="M1763.5,896.8c15.5-9.7,9-25-3.7-27.3c-12.7-2.3-33.6,10.6-23.6,25.8
					C1745.6,907.5,1761.7,897.9,1763.5,896.8"/>
				<path class="st1" d="M1835.8,1161.8c-13.6,3.9-33.5,8.7-38.8,9.9L1835.8,1161.8"/>
				<path class="st1" d="M1549.1,645.5c6.1-6.5-0.4-10.7-6.3-10.5c-9,0.3-7.9,8.7-3.9,12.9C1542.4,651.1,1546.4,648.4,1549.1,645.5"
					/>
				<path class="st1" d="M1796.2,928.9c17.2-9.9,12.3-23.7,2.6-26.6c-12.6-3.7-39.8,8.8-30.7,24.7c0.1,0.1,0.2,0.3,0.3,0.4
					C1777.1,939.6,1795.4,929.3,1796.2,928.9"/>
				<path class="st1" d="M1868.3,1106.7c16.4-5.6,26-15,19.5-19.1c-8.6-5.3-45.6,7.1-45.6,18.2
					C1842.9,1111.4,1856.3,1110.7,1868.3,1106.7"/>
				<path class="st1" d="M1596,678.6c6.1-7.2-0.1-17.1-8-16.6c-7.2,0.4-15.5,9.5-7.4,18.3C1588.3,687.6,1596,678.7,1596,678.6"/>
				<path class="st1" d="M1826.4,961.3c14-7.7,19.4-23.9,5.6-28.2c-17.4-5.4-40.6,12.2-33.6,25.5c0,0.1,0.1,0.2,0.2,0.2
					C1805,968.7,1820.1,964.8,1826.4,961.3"/>
				<path class="st1" d="M1874.8,1122.5c15.3-5.3,29.9-15.2,23.8-18c-8.1-3.8-45.5,8.8-47,18
					C1851.7,1130.4,1874.6,1122.6,1874.8,1122.5"/>
				<path class="st1" d="M1642.1,715c7.2-7.2,1.9-21.9-8-22.4c-7.4-0.4-22.1,9.6-11.1,22.2C1631.9,723.8,1642,715.1,1642.1,715"/>
				<path class="st1" d="M1853.2,990.3c18.8-8.9,19-22.6,9.2-26.5c-13.9-5.5-44.9,8.2-37.7,24.4c0.1,0.1,0.1,0.2,0.2,0.3
					C1831.9,1000.2,1852.3,990.7,1853.2,990.3"/>
				<path class="st1" d="M1878.8,1134.8c15-5.1,30.7-14.3,25.8-16.2c-6.5-2.6-43.6,10-47.3,17.6
					C1855.8,1142.7,1878.6,1134.9,1878.8,1134.8"/>
				<path class="st1" d="M1685.7,749.6c10.2-8.8,7.4-22.8-4.7-24c-11.6-1.2-26.6,10.2-15.8,23.6c0.1,0.1,0.2,0.3,0.3,0.4
					C1674.2,758.8,1683.8,751.2,1685.7,749.6"/>
				<path class="st1" d="M1875.3,1017.1c18.3-8.5,24.6-22,12.5-26.8c-11-4.3-46.3,8.9-39.8,25.7
					C1853.6,1026.6,1871.7,1018.8,1875.3,1017.1"/>
				<path class="st1" d="M1731.1,786c14.2-11.7,3.2-26.4-8.2-27.4c-11.7-1.1-27.7,12.8-16.5,27.3
					C1716.8,797.6,1731,786.1,1731.1,786"/>
				<path class="st1" d="M1882.5,1142.4c16.9-6,27.3-12.2,24.6-13.4c-4-1.7-41.3,11-47,17.4c-0.2,0.2-0.3,0.6-0.4,0.9
					C1861.3,1149.2,1874.8,1145.1,1882.5,1142.4"/>
				<path class="st1" d="M1898.9,1041.1c16.3-8.3,19.8-22.5,9.9-25.8c-13-4.3-44.1,12.5-40.2,25.3
					C1874.9,1052.9,1898.7,1041.2,1898.9,1041.1"/>
				<path class="st1" d="M1772.9,824.6c13-9.8,7.6-27.8-5.5-30.3c-12.8-2.5-32.8,12.3-21.3,28.8c0.1,0.2,0.2,0.3,0.3,0.5
					C1757,836.4,1772.3,825.1,1772.9,824.6"/>
				<path class="st1" d="M1877.9,1148c10.3-3.7,25.7-9.6,27.5-11.5c-1.9-1.1-41.3,13.6-46.8,16.8c-0.2,0.1-0.5,0.3-0.7,0.5
					C1859.5,1154.4,1874.8,1149.1,1877.9,1148"/>
				<path class="st1" d="M1913.1,1062.8c20.7-9.5,24.5-21.5,15.9-24.3c-11.3-3.7-46.7,11.6-44,25.2
					C1888.6,1074,1912.1,1063.3,1913.1,1062.8"/>
				<path class="st1" d="M1812.5,859.6c15.6-11.2,8.1-28.2-5.3-30.5c-13.4-2.3-34.7,12.5-23.4,29.2
					C1792.4,869.4,1805.9,864.3,1812.5,859.6"/>
				<path class="st1" d="M1534.4,564c3.1-4-1-7.5-2.9-7.4c-1.8,0.1-6.4,4.5-2.8,8.2c1.3,1.2,2.6,1.2,2.6,1.2
					S1533.2,565.6,1534.4,564"/>
				<path class="st1" d="M1884.2,1145.8c-6.6,2.5-13.6,4.9-20.8,7.4L1884.2,1145.8"/>
				<path class="st1" d="M1585.5,596.3c6.6-7.3-1.9-12.2-9-11.7c-9.8,0.7-7.7,9.9-3.3,14.5C1574.6,600.3,1578.8,603.7,1585.5,596.3"
					/>
				<path class="st1" d="M1927.1,1081.5c17.8-8.2,23.6-18.8,18-21.4c-9.4-4.4-47.6,10.1-46.8,23.7
					C1899.5,1093.8,1926.8,1081.6,1927.1,1081.5"/>
				<path class="st1" d="M1847.4,894.6c16.9-11.2,10.6-29.7-2.7-32c-14.7-2.6-36.3,14.8-26.7,30.4
					C1825.6,903.5,1838.6,900.4,1847.4,894.6"/>
				<path class="st1" d="M1635.3,631.1c6.6-8.3-0.3-19.1-9.3-18.6c-7.2,0.4-17.7,9.9-7.8,20.5
					C1626.9,641.3,1635.2,631.2,1635.3,631.1"/>
				<path class="st1" d="M1880.3,925.8c16.7-11.2,13-26.4,1.3-29.2c-15.3-3.8-41.8,13-32.7,29.5
					C1856.8,937.7,1874.7,929.5,1880.3,925.8"/>
				<path class="st1" d="M1934.8,1097.8c15-6.9,27.8-17.8,20.7-20.3c-10-3.5-45.5,12.4-46.9,23.2
					C1908.7,1106.9,1924.3,1102.6,1934.8,1097.8"/>
				<path class="st1" d="M1683.5,667.2c9-9,1.7-21.4-9.4-21.4c-12.2-0.1-20.7,12.3-11.7,22.6
					C1670.7,676.5,1680.4,670.3,1683.5,667.2"/>
				<path class="st1" d="M1905.8,958.1c14.7-9.1,23-28.2,5.9-32.4c-16.3-4-41.2,17-35.1,29.6C1885.2,969.4,1901.1,961,1905.8,958.1"
					/>
				<path class="st1" d="M1938.9,1110.2c14.2-6.5,27.8-16.2,23.3-18.2c-7-3.1-44,13-47.6,22.7
					C1913.4,1119.7,1928.4,1115,1938.9,1110.2"/>
				<path class="st1" d="M1729.1,705c11.3-10.4,4.5-25.4-8-25.8c-13.2-0.5-25.8,13.2-15,26.1C1716.6,716.3,1728.6,705.5,1729.1,705"
					/>
				<path class="st1" d="M1932.3,984.7c17.3-10.5,18.7-26.7,6.7-30.1c-13.8-4-44.5,14.2-37.8,30.7
					C1906.7,995.4,1922.8,990.5,1932.3,984.7"/>
				<path class="st1" d="M1938,1119.6c18.8-8.6,29-16.1,25.6-17c-4.5-1.2-41.2,15.6-46.6,22.6c-0.2,0.3-0.4,0.7-0.4,1.1
					C1918.6,1128.4,1934.8,1121.1,1938,1119.6"/>
				<path class="st1" d="M1773.9,743.6c14-11.6,7.6-29-6.9-29.8c-12.8-0.7-29.2,13.9-17.1,29.2
					C1759.9,754.2,1771.6,745.4,1773.9,743.6"/>
				<path class="st1" d="M1952.2,1009.7c19.8-11.3,21.9-26.5,9-29.2c-15.3-3.1-43.9,16.6-39.4,30.8
					C1926.4,1021.6,1945.3,1013.6,1952.2,1009.7"/>
				<path class="st1" d="M1818.7,782.2c15.3-12.4,4.7-31.9-9.3-32.9c-12.4-0.9-31.8,13.5-18.3,31.9
					C1802.2,794.5,1816,784.3,1818.7,782.2"/>
				<path class="st1" d="M1934.9,1124.4c10.2-4.8,26.3-12.8,28.3-14.8c-1.5-0.8-41.4,18.5-47.3,22.4c-0.2,0.2-0.5,0.4-0.8,0.6
					C1916.6,1132.9,1931.8,1125.8,1934.9,1124.4"/>
				<path class="st1" d="M1968,1032.7c20.9-11.5,24.4-25.5,15.5-28.2c-13.2-4-46.7,16.5-43.8,30.4
					C1943.8,1045.9,1967.8,1032.9,1968,1032.7"/>
				<path class="st1" d="M1858.7,818.7c16.3-13.5,8.6-31.5-5-32.2c-13.3-0.8-36.2,14.1-23.8,32.6C1841,833,1858,819.3,1858.7,818.7"
					/>
				<path class="st1" d="M1570.2,511.2c2.7-3.9-2-8.1-5.8-7.6c-3.7,0.5-5.1,6.5-2.3,9.4C1565.8,515.8,1569.2,512.7,1570.2,511.2"/>
				<path class="st1" d="M1622.5,546.1c7.6-8.6-1.3-13.9-9.1-13.6c-11.4,0.5-9.9,10.6-4.7,15.8
					C1612.9,552.2,1617.8,551.4,1622.5,546.1"/>
				<path class="st1" d="M1981.6,1052.3c19.2-11,24.9-23.9,15.9-26.3c-11.7-3.1-45.2,17.1-44.2,29.7
					C1954.8,1062.1,1967,1060.6,1981.6,1052.3"/>
				<path class="st1" d="M1897.5,854.3c13.4-10.5,12.9-31-4.6-32.5c-18.8-1.6-36.9,16.2-26.8,32.3
					C1873.9,864.9,1889.5,860.6,1897.5,854.3"/>
				<path class="st1" d="M1671.6,583.1c9.9-10.2,0.8-21.5-7.5-21.1c-8.4,0.4-18.1,12.4-8.9,22.5
					C1662.7,591.5,1670.2,584.5,1671.6,583.1"/>
				<path class="st1" d="M1989.1,1068.3c4.9-2.8,21.3-12.7,23.2-21.4c0-0.3,0-0.3,0-0.3c-0.7-11-35.2,8.5-45.1,19.6
					c-3.3,3.7-3.9,6-4.1,7.6C1963.8,1082.6,1988.8,1068.4,1989.1,1068.3"/>
				<path class="st1" d="M1928.5,887.6c19.1-14.5,12.3-31.5,1.1-33c-15.4-2.1-41.9,15.1-31.4,34
					C1908.1,902.9,1927.7,888.2,1928.5,887.6"/>
				<path class="st1" d="M1722.8,618.5c8.8-9.7,3.2-23.2-9.5-23c-13.3,0.2-21.8,13.3-11.7,24.7
					C1711.9,630.3,1722.7,618.6,1722.8,618.5"/>
				<path class="st1" d="M1957.6,919.5c18.9-13.5,16.2-30.7,3.9-33.5c-15.4-3.5-43.5,17-34.7,34.7
					C1935.7,934.9,1957.3,919.7,1957.6,919.5"/>
				<path class="st1" d="M1994.4,1080.8c16.2-9.4,28.2-20.8,23.7-22.7c-6.2-2.6-44.3,19-47.9,29.3
					C1969.2,1092.6,1982,1088,1994.4,1080.8"/>
				<path class="st1" d="M1771.1,657.8c13.9-12.9,1.1-28.5-10.7-28.8c-11.5-0.3-25.5,14.9-13.4,29.4
					C1757.9,669.7,1770.5,658.3,1771.1,657.8"/>
				<path class="st1" d="M1982.6,948.6c20.3-13.7,19.3-31.3,7.2-33.7c-14.5-3-44.2,18.5-37.1,35.1
					C1960.1,963.5,1981.7,949.2,1982.6,948.6"/>
				<path class="st1" d="M1995.6,1089.1c13.7-8,25.4-17,25.5-19.4c-2.8-2.9-43.2,20.9-48.5,28.6c-0.4,0.7-1,1.9,2.2,1
					C1978.7,1098.3,1986.9,1094.3,1995.6,1089.1"/>
				<path class="st1" d="M1816,697c15.6-13.9,5.4-30.5-6.5-31.6c-12.4-1.2-32.6,13.5-18.3,31.7C1801.8,708.6,1813.8,699.1,1816,697"
					/>
				<path class="st1" d="M2003.9,975c16.7-11.9,21.6-32.5,8-34c-14.7-1.6-43.3,20.2-37.8,36.5C1980.7,990.9,2003.7,975.1,2003.9,975
					"/>
				<path class="st1" d="M1864.9,735.3c12.4-13.3,1-33.7-14.3-33.2c-9.9,0.3-30.2,14.2-16.1,33.4
					C1844.3,747.3,1857.1,743.7,1864.9,735.3"/>
				<path class="st1" d="M2009,1083.4c6.4-4.1,8.2-5.4,9-6.2c-2.3-0.2-41.4,23.9-46.9,28c-0.2,0.2-0.6,0.5-0.8,0.7
					c0.4,0,0.8,0.1,10.7-5.5L2009,1083.4"/>
				<path class="st1" d="M2021,997.7c18.8-13.1,23.4-30.3,12.4-32.1c-13.8-2.3-45.1,21.8-41.8,35.8
					C1994.8,1010.6,2011,1004.6,2021,997.7"/>
				<path class="st1" d="M1904.4,774.9c7.5-7,12.2-18.2,5.7-27.5c-0.1-0.1-0.1-0.1-0.1-0.1c-13.1-16.4-37.3-1.4-38.6,14.7
					c-0.5,5.7,1.9,10.4,3.9,13.4C1887.2,790.1,1902.7,776.5,1904.4,774.9"/>
				<path class="st1" d="M1605.4,460.2c3.3-3.9-1.4-10.1-6-9.7c-2.7,0.2-5,3.1-5.2,4.3c-0.7,2.9,2.8,6.5,2.8,6.5
					C1601.4,464.9,1605.3,460.4,1605.4,460.2"/>
				<path class="st1" d="M1657.8,496.1c6.2-7.6,0.4-16.9-6.3-17.1c-3.1,0-8.8,4.1-10.7,8.6c-0.5,1.2-1.7,4.1,3.2,9.2
					c3.5,3.2,5.9,3.4,5.9,3.4C1650.4,500.2,1654.7,499.8,1657.8,496.1"/>
				<path class="st1" d="M2033.8,1016.9c16.1-11.1,27.9-28.7,17.5-30.4c-12-2-46.6,20.4-45.1,35.9
					C2008.2,1030.8,2024.2,1023.5,2033.8,1016.9"/>
				<path class="st1" d="M1940.2,812.2c19.9-16.1,11.2-34.9-1.3-36.6c-15.4-2.1-39.5,16.7-26.8,36.8
					C1922,825.7,1937.2,814.5,1940.2,812.2"/>
				<path class="st1" d="M1711.3,532.2c7.2-7.7-0.7-23.1-11.5-22.2c-7.6,0.6-17.9,11.7-7.7,22.4
					C1702.4,541.5,1711.2,532.3,1711.3,532.2"/>
				<path class="st1" d="M2041.2,1034.4c21.6-15,27.1-28.3,20.1-29.5c-9.6-1.7-44.1,23.6-44.7,35.6
					C2017.2,1047.6,2029.8,1042.3,2041.2,1034.4"/>
				<path class="st1" d="M1974.8,846.4c19.9-16.3,15.2-35.5,1.1-37.3c-15.4-2-41.5,18-29.8,38.3
					C1955.3,860.7,1970.4,850,1974.8,846.4"/>
				<path class="st1" d="M1761.6,569c9.3-10.9,1.7-25.4-9.6-24.5c-11,0.8-23.9,12.8-11.8,26.5C1750.8,581.3,1761.1,569.5,1761.6,569
					"/>
				<path class="st1" d="M2007.5,877.5c18-16.8,12.3-35.7-1.1-36.7c-17.7-1.3-39.6,21.9-31.1,38.5
					C1982.7,890.8,1997.4,887,2007.5,877.5"/>
				<path class="st1" d="M2048.8,1044.8c19.5-14.5,24.5-24.4,19.2-24.6c-9-0.3-42.2,25.5-45,35
					C2022.2,1061.4,2035.7,1054.5,2048.8,1044.8"/>
				<path class="st1" d="M1810.7,607.7c12.3-13,1.9-28.8-10.7-28.8c-12.8,0-25.3,16.9-13.8,30.2
					C1797.9,621,1810.2,608.2,1810.7,607.7"/>
				<path class="st1" d="M2032.2,907.1c19.5-16.5,15.1-35.2,1.5-36.3c-13.8-1.1-40.9,20.4-32.8,39.1
					C2006.1,919.2,2019.2,918,2032.2,907.1"/>
				<path class="st1" d="M2047.7,1054.4c13.1-9.5,29.8-23.7,25.8-24.2c-4.3-0.6-41,25.3-47.9,36.3c-0.1,0.2-0.2,0.5-0.3,0.8
					C2027.2,1069.2,2045.6,1055.9,2047.7,1054.4"/>
				<path class="st1" d="M1858.1,648.7c13.8-13.3,5.9-32.9-9.1-33.2c-13.3-0.3-29.6,16.6-16.2,33.1
					C1844.1,661.1,1855.9,650.9,1858.1,648.7"/>
				<path class="st1" d="M2053.3,933.1c20.4-17.1,19.8-34.5,8.4-36c-14-1.8-44,23.9-37.9,41.1
					C2030.4,952.1,2052.3,933.9,2053.3,933.1"/>
				<path class="st1" d="M1907.3,688.3c12.4-13.8-0.4-36.7-16.1-36.1c-9.8,0.4-29,17.5-14.8,36.2
					C1888.7,701.7,1901.6,694.6,1907.3,688.3"/>
				<path class="st1" d="M2035.8,1065.3l31.9-24.2c1.5-1.2,2.1-1.8,2.7-2.4c-2.6,0.6-40.8,29.6-45.7,33.8c-0.3,0.2-0.6,0.5-0.8,0.8
					c0.6-0.3,1.7-0.9,3.3-2L2035.8,1065.3"/>
				<path class="st1" d="M2070.7,956.8c19.9-17,22.4-34.8,9.6-35.3c-14.8-0.5-42.5,25.6-38.6,40.5
					C2045,971.4,2059.3,966.6,2070.7,956.8"/>
				<path class="st1" d="M1948,728.2c15.5-15.6,3.5-38.4-11.1-38.5c-13.8-0.1-32,20-19.1,38.5C1927.8,740.5,1940.3,735.9,1948,728.2
					"/>
				<path class="st1" d="M1641.7,406.3c4.3-5.4-2.4-9-7.3-8.3c-6.6,0.9-4.9,7.9-2.2,10.6C1635.7,411.4,1639.5,409.1,1641.7,406.3"/>
				<path class="st1" d="M2083.4,976.9c18.6-15.7,24.1-32.7,14.7-34c-11.3-1.5-44.1,25.5-42.2,41.9
					C2058.5,994.7,2074.4,984.5,2083.4,976.9"/>
				<path class="st1" d="M1695.5,442.4c7.4-9.1-1.3-16.3-10.6-15.3c-11,1.2-9.7,11.7-4.8,16.7C1686.3,449,1692.7,445.8,1695.5,442.4
					"/>
				<path class="st1" d="M1986.7,764.3c17-17.2,7.6-38-7.4-37.9c-15.6,0.1-34,22.4-22.8,39.7C1968.7,782.2,1986,765,1986.7,764.3"/>
				<path class="st1" d="M1747.7,479.7c8.3-10.2,1.2-22-9.5-21c-10.3,1-18.4,12.7-8.5,23C1738.7,490.1,1746.8,480.8,1747.7,479.7"/>
				<path class="st1" d="M2236.4,818.1c-0.1,0.5-0.3,1.1-0.4,1.5c-2,0-5.2,3.6-12.8,14.1c5.6-10.9,8-18.5,8.3-26
					c2,1,5.7-0.3,16.4-19.5C2242.9,798.4,2239.3,806.9,2236.4,818.1 M2205.9,884.4c-0.2,0.4-0.4,0.8-0.6,1.2
					c-1.4,0.2-5,4.4-12.7,13.8c5.8-8.7,9.1-14.9,12.3-23c1.6-0.5,4.7-2.7,13.6-15.8C2213.2,869.7,2210,875.7,2205.9,884.4
					 M2203.4,872.4c-0.1,0.4-0.3,0.8-0.4,1.2c-2.5,0.4-6.3,4.3-14.5,12.9c5.7-9,8.6-15.5,10.4-23.3c2,0.6,5.1-1.3,14.3-12.8
					C2210.9,854.7,2206.5,862.5,2203.4,872.4 M2196.2,857.8c-0.1,0.5-0.3,1.1-0.4,1.6c-3.2-0.5-7.7,3.8-17.8,13.6
					c7.8-12.2,10.5-20.8,9.4-29.7c2.3,3.3,6.6,4.4,20.2-12.7C2201.8,840.1,2199,846.8,2196.2,857.8 M2167.1,936.6
					c-0.2,0.3-0.4,0.7-0.6,1c-1.8-0.1-7.4,5.5-19.6,18.1c10-11.4,15.3-19,17.6-25.5c4.3-2.3,8.9-6.5,15.9-14.2
					C2174.7,923.9,2171.3,929.1,2167.1,936.6 M2164.1,925.4c-0.1,0.4-0.4,0.9-0.5,1.3c-2.5-0.6-7.4,3.7-19,14.2
					c8.5-10.2,12.8-17.7,14.8-25.9c3.8,0.2,9.1-3.5,17.6-12.5C2171.1,910.8,2167.8,916.6,2164.1,925.4 M2157.5,910.3
					c-0.1,0.4-0.1,1-0.2,1.4c-3.5-1.3-9.4,2.9-21.4,12.8c8.7-10.5,12.2-18.2,13.1-28.4c2.9,1.9,7.8,1.8,21.8-13
					C2167.2,888.3,2159.6,899.1,2157.5,910.3 M2164.6,945c-0.3,0.3-1.2,1.3-0.9,1c-3.4,3.8-4.6,5.1-12.2,13.5
					c-1.6,1.7-3.7,4.1-5.2,5.8C2235.3,864,2264,776.7,2264,776.1c-15.1,22.5-23.2,48.5-37.6,71.4c24.8-49.1,37-76.4,36.5-81.7
					c-0.5-0.1-1.2-0.2-1.7-0.3c-3.4,3.3-5.7,7.2-13.1,21.5c2.8-5.5,11.6-24.4,8.9-34.6c-0.7-0.4-1.7-0.8-2.4-1.2
					c-4.1,2.3-6.7,5.9-13.5,18.6c10.5-25.6,9.3-32.9,3.9-36.3c-14.8,7.9-28.3,43.4-25.1,54.1c3.7,12.6,16.2-9.1,20.4-16.3
					c-8.2,18.5-10.4,26-10.2,34.7c-4.7,0.6-7.2,1.5-17.9,16.6c14.4-27.5,6.8-32.4,5.9-32.9c-7.5-3.8-34.6,28.9-31.5,53.6l0,0v0l0,0
					l0,0c0,0,0,0,0,0l0,0v0v0c-6.6-3-12.1,0.5-25.8,16.2c20.2-27.6,8-36.7,7.9-36.8c-11.6-6.9-38.1,26.3-36.4,45.5
					c0.3,3.5,3.1,19.8,27.9-8.1c-13.2,20-14.2,26.1-13.2,34.4c-16.3-4.2-42.5,29.8-43.4,43.4c-0.3,4.2,0.6,16.2,24.4-4.9
					c-14.3,18.5-14.3,23-14.2,27.9c-10.3-2.7-33.3,17.4-45.5,35.8c-0.6,2.2-1.9,5.2-1.5,7.4c8.1,4.3,41.7-17.7,47-41.9
					c5.2,1.2,10.7-2,22.8-12.9c-10.5,12.7-14.3,18.4-16.7,25.4c-11.6,1.5-43.3,31.7-47.3,42.9c0.4,0.6,0.9,1.4,1.3,2
					c22.1-7.5,31.6-29,48-42.8c2.7-2.3,6.2-3.2,8.9-5.5c5-4.3,6.4-5.7,11.4-10.7c-9.9,11.1-15,17.8-17.8,23.2
					c0.4,0.4,0.8,0.9,1.2,1.3c4.6-3.3,8.5-7.2,19.2-18.7c-7.5,8.5-15.4,16.6-22.8,25.2l0.3-0.3
					C2135.7,978.2,2152.1,959.1,2164.6,945"/>
				<path class="st1" d="M2022.4,799.2c15-16.5,7.5-39.5-8.2-38.6c-15.3,0.8-33.9,23.8-23.7,41.1
					C1998.8,814,2012.9,809.8,2022.4,799.2"/>
				<path class="st1" d="M1802.1,517.2c9.9-12.9-3.7-27.7-15.2-25.5c-10.5,2-18.8,15.6-8.4,27.3
					C1787.3,527.5,1796.7,524.3,1802.1,517.2"/>
				<path class="st1" d="M2051.1,831.7c18.3-18.3,12.8-38.1-0.7-38.7c-15.9-0.7-39.3,24.3-29.6,42.7
					C2030.9,851.5,2050.3,832.5,2051.1,831.7"/>
				<path class="st1" d="M1850.4,557c11.7-12.9,2-30.4-12-29.2c-13.2,1.2-24.3,16.6-12.5,30.4C1837.9,570.5,1849.9,557.6,1850.4,557
					"/>
				<path class="st1" d="M2077.8,861.8c18.6-18.2,14.8-39.4,1.5-39.9c-16.2-0.5-39.1,27.4-31.7,44
					C2055,878.8,2070.6,868.9,2077.8,861.8"/>
				<path class="st1" d="M2097.4,1014.1c9.1-8.1,25.6-24.3,24.7-26.9c-5.6-0.2-40.3,30.9-45.8,41c-0.3,0.6-0.3,1.1-0.1,1.4
					C2079.9,1029.4,2093.3,1017.7,2097.4,1014.1"/>
				<path class="st1" d="M1899,597.5c12.8-14.2,2.8-33.8-12.3-32.7c-14.4,1.1-26.9,18.2-14.3,33.8
					C1885.1,612.5,1898.4,598.2,1899,597.5"/>
				<path class="st1" d="M2099.6,888.5c19.4-19.4,16.7-38.8,4.2-39c-15.1-0.3-39.6,28.4-33.7,44.6
					C2074.8,904.4,2088.8,899.3,2099.6,888.5"/>
				<path class="st1" d="M1946.5,637.3c13.8-15.8,1.2-38.4-15.6-36.5c-12.9,1.4-27.3,19.6-13.7,37.2
					C1927,649.4,1939,645.9,1946.5,637.3"/>
				<path class="st1" d="M2119.6,994.5c0.1-0.1,0.3-0.3,0.4-0.5c-2.2,1.4-38.4,34.6-44.2,40.2c-0.3,0.3-0.6,0.6-0.8,0.8
					c0.2-0.1,0.4-0.3,0.6-0.4C2088.9,1022.6,2107,1007.1,2119.6,994.5"/>
				<path class="st1" d="M2116.7,911.7c20.4-20.2,19.4-37.7,8-37.9c-14.3-0.3-40.7,29.5-36.3,45.6
					C2091.8,927.8,2103.7,924.6,2116.7,911.7"/>
				<path class="st1" d="M1989.7,677.7c16.4-19.1,0.3-40-13.8-39.2c-14.5,0.8-28.7,22.5-16.6,39.7
					C1969.4,690.3,1982.2,686.5,1989.7,677.7"/>
				<path class="st1" d="M1677,353.5c4.4-5.3-2.4-8.9-7.3-8.3c-6.7,0.9-5,7.8-2.3,10.5C1670.8,358.6,1674.7,356.3,1677,353.5"/>
				<path class="st1" d="M1732.7,389.8c7.5-9.1-1.4-16.3-10.8-15.3c-11.2,1.2-9.7,11.6-4.8,16.6
					C1723.4,396.4,1729.9,393.2,1732.7,389.8"/>
				<path class="st1" d="M2029.2,714.6c14.3-16.4,5.6-39.7-10.2-39.1c-18.5,0.6-31.2,25.9-20.9,41.5
					C2007.2,729.2,2022.1,722.7,2029.2,714.6"/>
				<path class="st1" d="M1784.5,428.1c9.1-9.8,3.1-22.1-7.7-22c-10.8,0.1-19.7,12.6-9.5,23.2
					C1775.4,436.7,1782.5,430.3,1784.5,428.1"/>
				<path class="st1" d="M2062.9,748.8c16.5-18.4,10.4-40.7-5.9-39.5c-16.6,1.2-34.9,24.6-23.6,43.4
					C2044.7,768.8,2062.2,749.7,2062.9,748.8"/>
				<path class="st1" d="M1838.9,464.8c9.7-13-4.1-27.8-15.4-25.5c-9.3,1.9-19.3,15.1-8,27.5
					C1824.3,475.2,1833.6,471.9,1838.9,464.8"/>
				<path class="st1" d="M2093.6,781.7c17.2-20.1,10.5-41.3-3.3-40.1c-14.3,1.3-36.5,26-26,45.9
					C2074.7,803.5,2092.9,782.6,2093.6,781.7"/>
				<path class="st1" d="M1888.8,504.5c11.2-13,1.4-30.6-12.4-29.3c-13.2,1.3-23.9,16.9-11.8,30.8
					C1876.7,518.3,1888.3,505.1,1888.8,504.5"/>
				<path class="st1" d="M2120,811.3c19-22.4,11.7-41.7-0.4-40.2c-13.8,1.8-37.2,28.1-28.3,47.5
					C2100.2,834.2,2119.2,812.3,2120,811.3"/>
				<path class="st1" d="M1937.8,544.3c11.7-14.5-1-35.4-15.9-33.4c-10.3,1.4-25.8,16.9-10.8,35.1
					C1924.2,560.1,1936.4,546,1937.8,544.3"/>
				<path class="st1" d="M2141.8,838c14.6-16.8,18.8-42.1,3.2-40.4c-15,1.7-38.1,29.7-30.9,48.2C2119.6,857.1,2134,847,2141.8,838"
					/>
				<path class="st1" d="M1984.5,585.1c13.2-16.4-1.5-37.1-16.1-36.2c-11.2,0.7-27.7,17.8-12.5,37.2
					C1966.4,598.4,1977.9,593.3,1984.5,585.1"/>
				<path class="st1" d="M2027.2,623.9c14.6-18.5,1.7-39.2-13.4-38.2c-12.8,0.8-27.7,22.4-14.4,41.1
					C2012.4,642.5,2026.7,624.7,2027.2,623.9"/>
				<path class="st1" d="M1713.6,302.4c3.4-3.7-1.5-10-6.2-9.7c-2.7,0.2-5.1,2.9-5.4,4.1c-0.7,2.9,2.9,6.4,2.9,6.5
					C1709.5,306.9,1713.5,302.6,1713.6,302.4"/>
				<path class="st1" d="M1768.7,338c5.4-7.1-1.7-16.6-9.3-15.6c-5.2,0.6-14.9,7.8-4.7,18C1761.9,346.8,1768.6,338.1,1768.7,338"/>
				<path class="st1" d="M2065.7,662.6c15-17.5,6.1-41.2-10.2-39.4c-15.2,1.7-29.8,23.3-17.6,41.8
					C2050,680.6,2065.1,663.4,2065.7,662.6"/>
				<path class="st1" d="M1821.8,374.9c6.8-9-2.3-22.9-11.5-21.8c-6.3,0.8-17.6,11.1-6.1,23C1811.9,383.4,1818.9,378.8,1821.8,374.9
					"/>
				<path class="st1" d="M2103.2,696.3c12.2-17.4,1.6-41.7-13.2-39.8c-12.1,1.6-28.6,26.3-17.3,44.7
					C2086.8,719.2,2103.1,696.5,2103.2,696.3"/>
				<path class="st1" d="M1873.8,412.8c8.2-10.6,0.8-26.2-11.8-24.4c-11.6,1.6-20.7,13.6-9,26.4
					C1864,425.2,1873.4,413.4,1873.8,412.8"/>
				<path class="st1" d="M2131.4,729.9c16.1-20.3,8.3-42.8-5.3-41.1c-14.2,1.8-31.6,28.2-21.7,46.2
					C2114.7,750.6,2130.7,730.8,2131.4,729.9"/>
				<path class="st1" d="M1922.6,452.9c10.9-12.4,2.1-30.4-10.7-29.4c-11.9,0.9-24.9,14.2-11.2,30
					C1911.4,464.4,1920.8,454.9,1922.6,452.9"/>
				<path class="st1" d="M2157.5,758.4c16.4-23,8.7-42.4-2.4-40.7c-12.8,2-33.3,29.2-24,48.7
					C2140.2,782.1,2156.8,759.3,2157.5,758.4"/>
				<path class="st1" d="M1971.3,492.3c12.6-15.1,1.1-33.8-11.8-33.2c-12.4,0.6-26,16.9-11.9,33.7
					C1959.1,505,1968.7,495.5,1971.3,492.3"/>
				<path class="st1" d="M2179.3,785.5c15.7-22.5,10.1-42.9-2.3-39.9c-12.7,3.1-30.6,31.5-23.7,48.7
					C2158.2,803.9,2169.1,800.2,2179.3,785.5"/>
				<path class="st1" d="M2197.7,901.2l5.4-8c-7.2,10.6-30.9,42.3-36.5,49.4l-0.3,0.3"/>
				<path class="st1" d="M2020,530.9c8.9-13.7,1.4-37.4-18.8-32.6c-15.5,3.7-20.1,20.2-9.3,34C2004,545.4,2016.1,537,2020,530.9"/>
				<path class="st1" d="M2197.2,806.7c12.5-18.9,14.3-41.6,2.9-38.7c-12.8,3.3-33.4,33.6-27.9,50.9
					C2176.7,829.7,2189.6,818.3,2197.2,806.7"/>
				<path class="st1" d="M2061.4,572.1c12.7-17.8-3-41.7-16.4-39.4c-11.5,2-24,22.4-10.8,40.5
					C2044.7,585.9,2055.4,580.5,2061.4,572.1"/>
				<path class="st1" d="M1747.7,252.8c2.5-3.6,0.4-6.5-0.5-7.6c-0.2-0.3-5.7-0.2-6.2,0.1c-0.1,0-3.6,3.6-0.1,7.1
					c1.4,1.1,2.7,1.4,3.3,1.4C1746.9,253.9,1747.5,253.1,1747.7,252.8"/>
				<path class="st1" d="M1802.8,287.5c5.1-5.6,0.3-13.9-7.8-13.7c-8.2,0.3-12.6,8.1-5.6,14.8
					C1794.5,292.9,1800.3,290.2,1802.8,287.5"/>
				<path class="st1" d="M2101.2,608.4c12.7-20.2-3.8-42.6-17.5-38.7c-9.4,2.7-22.8,23.2-10.2,41.5
					C2083.5,623.7,2095.8,617.1,2101.2,608.4"/>
				<path class="st1" d="M1855.7,325.2c6.4-8.4-2.1-21.1-10.9-20.2c-5.8,0.7-17.5,9.6-5.7,21.7
					C1848.1,335,1855.4,325.7,1855.7,325.2"/>
				<path class="st1" d="M2135.6,643.3c11.4-18.9,0.2-42.9-14-39.2c-12.2,3.2-23.9,26.8-13.6,43.5
					C2114.8,657.1,2126.4,658.6,2135.6,643.3"/>
				<path class="st1" d="M1907.4,363.6c8.8-10.4-2.1-26.1-13.5-24.8c-7.7,0.9-18.3,12-5.9,25.3
					C1898,373.7,1905.9,365.4,1907.4,363.6"/>
				<path class="st1" d="M2163.5,675.8c13.1-21.4,5.7-44.1-8.6-39.7c-10.3,3.1-24.7,23.6-17.4,43.4c-0.3,0.6-0.1,1.5,0.5,2.6
					C2148.9,698.6,2162,678.2,2163.5,675.8"/>
				<path class="st1" d="M1957.9,401.1c8.1-11.1-5.3-28.6-17.1-27.2c-7.2,0.9-19.5,13.2-6.3,28.2
					C1947.3,414.7,1956.8,402.5,1957.9,401.1"/>
				<path class="st1" d="M2190.9,703.6c12.5-23.3,3.1-42.9-9.1-38.5c-11.1,4-24.2,31.2-16.4,46.8
					C2172.6,723.9,2183.9,716.6,2190.9,703.6"/>
				<path class="st1" d="M2002.3,441.4c11.1-14,0.7-33.1-13-31.4c-12.4,1.6-21.3,17-8.6,32.2
					C1991.6,453.7,2000.6,443.5,2002.3,441.4"/>
				<path class="st1" d="M2210.4,730.6c13.5-23.8,8.5-42.6-2.1-40c-12.1,3-27.8,32.5-20.3,50.8
					C2195.7,756.1,2209.8,731.6,2210.4,730.6"/>
				<path class="st1" d="M2233.6,842.9c-7.4,13.3-20.3,34.6-27.3,45.4C2214.5,874.7,2226,856.9,2233.6,842.9"/>
				<path class="st1" d="M2047.2,480.7c11.8-16.1,0.4-37.4-14.2-34.7c-10.8,2-21.6,18.2-8.2,35.2
					C2035.9,493.7,2044.7,484,2047.2,480.7"/>
				<path class="st1" d="M2227.1,754c9.2-16.4,13.2-42.4,1-39c-12.3,3.4-27.6,34.1-22.3,50.3C2210.2,775.8,2221.1,764.8,2227.1,754"
					/>
				<path class="st1" d="M2090.7,518.6c10.6-17-2-39.5-16-36.2c-11.8,2.8-20.7,22-8.4,38.6C2079.3,536.5,2090.2,519.3,2090.7,518.6"
					/>
				<path class="st1" d="M1780.7,206.1c3.1-3.4-1.3-7-3.4-7.1c-2.1,0-6.2,3.6-2.8,7.1c0.1,0.1,0.2,0.1,0.2,0.2
					c1.5,1.2,2.8,1.4,2.8,1.4S1779.4,207.5,1780.7,206.1"/>
				<path class="st1" d="M1835.8,241c4.5-5.5-2-13.3-8.7-12.7c-5.4,0.4-10.4,6.5-2.9,13.6C1830.2,247.2,1834.9,242.1,1835.8,241"/>
				<path class="st1" d="M2127.4,557.3c12.2-18.5,2.3-42-12.1-38.9c-11.6,2.5-24,21.6-10.6,41.3
					C2115.6,573.6,2125.5,560.1,2127.4,557.3"/>
				<path class="st1" d="M1888.4,277c6.2-8.9-4.7-18.2-13-16.6c-6.2,1.1-12.5,8.8-3.9,17.5C1878.1,283.7,1885.2,281.8,1888.4,277"/>
				<path class="st1" d="M2162,589.8c10.9-19.3,1.7-41.8-11.6-38.6c-12.1,2.9-22.6,25.8-11.6,43.2
					C2150.3,610.2,2161.5,590.7,2162,589.8"/>
				<path class="st1" d="M1935.8,315.2c7.7-10.1-0.8-23.9-10.8-22.3c-8.1,1.2-17.4,10.5-5.8,22.9
					C1927.9,324,1934.2,317.4,1935.8,315.2"/>
				<path class="st1" d="M2190.7,623.5c9.6-18.6,4.9-46.4-10.3-40.7c-11.6,4.4-20.1,29.9-11.8,44.4
					C2179.8,644,2190.2,624.3,2190.7,623.5"/>
				<path class="st1" d="M1984.5,353c8-10.6,0.4-27.6-11.7-26c-9.6,1.3-19.4,12.4-6.8,26.6C1975.8,363.3,1983.1,354.8,1984.5,353"/>
				<path class="st1" d="M2215.8,649.9c11.4-23.6,3.5-42.7-7.5-38.8c-9.9,3.6-22.7,29-13.3,47.8
					C2204,673.9,2215.3,650.9,2215.8,649.9"/>
				<path class="st1" d="M2032.2,390.1c8.6-14.1-8.2-31.1-19.2-28.2c-7,1.9-15.5,14.7-3.1,29
					C2019.5,401.5,2027.9,397.1,2032.2,390.1"/>
				<path class="st1" d="M2236.2,675.2c11.2-23.3,5.4-43.3-4.1-39.1c-10.1,4.4-22.2,33.2-15.3,49.3
					C2224.3,699.6,2236.1,675.4,2236.2,675.2"/>
				<path class="st1" d="M2252.3,806.1l5.9-13c-7,15.7-13.3,28.2-16.4,34.3L2252.3,806.1"/>
				<path class="st1" d="M2075.4,429.1c9.6-17.4-7.5-35.1-18-32.6c-8.8,2-16.9,18.1-4.5,33.8
					C2063.7,442.2,2072.1,435.1,2075.4,429.1"/>
				<path class="st1" d="M2252.4,698.5c10.3-23.1,6.5-41.3-1.5-38.8c-8.2,2.6-22.6,32.6-16.4,50.3
					C2238.2,718.3,2245.7,713.5,2252.4,698.5"/>
				<path class="st1" d="M2116.3,466.7c9-16.8-3.3-37.9-16-34.1c-9.6,2.9-19.2,18.9-6.1,36.4
					C2106.6,483.7,2115.3,468.5,2116.3,466.7"/>
				<path class="st1" d="M2264.2,716.6c6.8-16.2,10.4-40.8,2.2-37.4c-9,3.8-22,36.8-18.3,51.5c2.8,8.8,10.2-2,13.7-8.9
					C2262.5,720.4,2263.5,718.3,2264.2,716.6"/>
				<path class="st1" d="M2152.5,504.3c8.1-16.2-0.1-42.1-15.5-37.4c-10.9,3.3-16.1,24.9-6,39.2
					C2141.3,519.3,2150.2,509,2152.5,504.3"/>
				<path class="st1" d="M1864.7,198.6c3.2-3.7,0.7-11.6-6.4-11.3c-2.5,0.1-4.6,3.6-4.7,3.8c-1.1,1.8-0.3,3.3,0.1,3.9
					c-0.2,0.6,0,1.1,0.9,1.9l3.4,3c0.2,0.1,0.6,0.1,0.8,0.2C1859.8,200.3,1862.7,200.8,1864.7,198.6"/>
				<path class="st1" d="M2272.5,730.1c7.4-19.2,9.5-37.4,5.4-35.8c-6,2.3-21.6,39-19.6,54c0.3,1.4,1.2,5.8,6.2-1.7
					C2266.9,742.9,2269.9,736.8,2272.5,730.1"/>
				<path class="st1" d="M1916.6,234c4.9-5.6-2.7-17.9-10.4-17.1c-3.7,0.4-13.5,6.2-3.5,16.3C1910.3,240,1916.5,234.1,1916.6,234"/>
				<path class="st1" d="M2185.4,536.5c9-18.5-1.3-39.9-13.4-35.7c-10.7,3.6-18.5,23.7-7.7,40.5
					C2175.4,556.5,2185.3,536.7,2185.4,536.5"/>
				<path class="st1" d="M1964.5,270.3c6.8-8.3-3-22.6-11.9-21.5c-5.6,0.7-15.4,9.1-3.8,21.5
					C1957.4,278.5,1963.8,271.2,1964.5,270.3"/>
				<path class="st1" d="M2275.4,743.3c5.6-14.8,10.5-32,8.9-35.2c-0.1,0-0.3-0.1-0.4-0.1c-3.9,2.3-19.5,41.2-19.9,54.8
					c0.1,1.3,0.1,1.5,0.5,1.9C2267.3,764.4,2274.5,745.4,2275.4,743.3"/>
				<path class="st1" d="M2214.3,566.6c7.3-19.4-2.6-41.6-12.9-36.7c-8.2,3.9-17.1,26.9-7.6,43.2
					C2201.4,584.6,2209.9,578.5,2214.3,566.6"/>
				<path class="st1" d="M2010.6,305.8c6.9-10.3-2.4-25.4-14-22.7c-8.2,1.9-13.8,12.1-3.7,23.2
					C2003.1,316.4,2009.8,306.9,2010.6,305.8"/>
				<path class="st1" d="M2236.9,594.8c7.8-20.5,2.1-41-7.4-37.6c-0.9,0.3-8.6,3.5-12.8,21.2c-3.2,13.5,1.7,25,1.8,25.1
					C2227.5,618.3,2236,597.3,2236.9,594.8"/>
				<path class="st1" d="M2281.1,733.8c4.2-12.9,4.2-14.2,4.2-14.7c-2.4,2.4-17.7,45.9-19.4,53.4c-0.1,0.3-0.1,0.8-0.2,1.2
					c0.4-0.2,1.2-0.6,7.8-18.3L2281.1,733.8"/>
				<path class="st1" d="M2055.5,342.7c7.4-11.6-3-29.4-15.3-26.1c-8.7,2.3-14.1,14.5-3.7,26.6
					C2047.6,354.7,2055.2,343.2,2055.5,342.7"/>
				<path class="st1" d="M2257,619.9c7.9-22.1,1.5-40.4-6.7-36.8c-7.9,3.4-18,29.9-10.3,46.8C2244.6,638.6,2251.8,634.4,2257,619.9"
					/>
				<path class="st1" d="M2096.9,380.9c8.6-14-2.6-33-14.4-30.5c-9.6,2.1-15.6,17-4.3,30.8C2088.6,392.9,2095.6,383,2096.9,380.9"/>
				<path class="st1" d="M2271.9,640.5c7.8-22.7,4-40.7-2.4-37.4c-7.6,3.9-17.6,34.9-12.1,50c5.2,11.5,12.9-8.1,13.7-10.4
					C2271.4,642,2271.7,641.2,2271.9,640.5"/>
				<path class="st1" d="M2137.1,415.1c8-17-8.1-35-18.6-30.7c-7.3,3-13,18.6-2.1,33.1C2126.7,429.6,2135,419.6,2137.1,415.1"/>
				<path class="st1" d="M2283.2,658.5c6.8-22.3,5.7-39.9,0-36.3c-6.8,4.2-16.7,36.6-12.6,52c1.8,5.2,4.7,3.5,8.5-4.9
					C2280.5,666.4,2282,662.4,2283.2,658.5"/>
				<path class="st1" d="M2172.5,451.1c7-16.7-4.2-37-14.9-33.4c-9.1,3.1-14.8,21.5-4,36.6C2164.9,468.7,2172.2,451.8,2172.5,451.1"
					/>
				<path class="st1" d="M1894.1,157.9c2.9-2.8-2.3-8.5-6.3-8.5c-2.3,0.1-7,2.6-1.3,8.1c0,0,0.1,0.1,0.1,0.1
					C1890.8,161.1,1894,158,1894.1,157.9"/>
				<path class="st1" d="M2290.5,673.8c5.8-20.5,6.4-36.2,2.7-34.8c-4.9,1.9-15.4,38.8-13.4,51.8c0.3,1.2,1.1,4.9,4.2,0.1
					C2286,687.7,2288.3,681.7,2290.5,673.8"/>
				<path class="st1" d="M1942.6,192.6c4.5-5.2-1.9-13.9-8.3-13.8c-2.9,0.1-12.7,4-2.6,14C1937.3,198,1941.7,193.5,1942.6,192.6"/>
				<path class="st1" d="M2203.6,483.5c6.9-18.5-3.3-38.8-13.5-33.7c-7.8,4-14.9,22.6-4.3,38.9
					C2196.3,502.8,2203.3,484.4,2203.6,483.5"/>
				<path class="st1" d="M1989.8,226.9c5.9-8-4-18.6-11.1-17.8c-4.5,0.5-12.7,7.7-2.9,17.9C1983.9,234.7,1989.5,227.2,1989.8,226.9"
					/>
				<path class="st1" d="M2230.6,513c6-17.2-1-38.9-11-34.1c-8.9,4.3-15.5,25-6,40.7C2221.5,531.4,2228.5,518.8,2230.6,513"/>
				<path class="st1" d="M2293.7,684.9c3.6-13.4,7.8-34.1,5.9-35.1c-3.6,3-14.3,41.4-14.1,53.8c0,1,0.1,1.2,0.2,1.7
					c0.1,0,0.3,0.1,0.4,0.2C2288.6,703.6,2293.2,686.9,2293.7,684.9"/>
				<path class="st1" d="M2033.9,261.9c6.2-8.8-3.5-22-12.5-20.8c-7.6,1.1-12.3,11.2-3.4,20.8C2027.3,271.1,2033.9,262,2033.9,261.9
					"/>
				<path class="st1" d="M2253.2,539.8c6-18.7-0.3-39-8.4-35.5c-8.1,3.5-14.8,28.8-6.7,43.7C2246.2,561.1,2253.1,540,2253.2,539.8"
					/>
				<path class="st1" d="M2290.1,704.5l10.1-40.6c0.4-2.2,0.5-2.6,0.6-3.2c-1.3,1.7-12.9,49-13.5,52.3c-0.1,0.7-0.1,0.8-0.2,1.1
					c0.3-0.3,0.4-0.5,1.9-5.6L2290.1,704.5"/>
				<path class="st1" d="M2076.4,298c6.1-10.1-3.7-26.3-14.3-23.7c-7.7,1.9-12.1,12.7-2.5,23.8
					C2069.8,308.8,2076.1,298.5,2076.4,298"/>
				<path class="st1" d="M2271.7,563.6c5.3-20.9,0.5-39.8-6.5-35.2c-8.2,5.4-12.7,34.3-7.1,46.1c6.5,12,12-5.2,13.1-8.7
					C2271.3,565.1,2271.5,564.3,2271.7,563.6"/>
				<path class="st1" d="M2117.2,331.5c4.6-11.2-4.3-30-17.6-24.5c-8.9,3.7-9.4,15.6-0.9,25.8
					C2108.9,343.5,2115.6,335.2,2117.2,331.5"/>
				<path class="st1" d="M2286,583.4c5-22.3,1.1-37.7-3.9-35c-5.8,3-13.6,32.3-7.5,48.5c3.3,7.2,6.8,1.2,9-5.2
					C2284.3,590,2285.2,587.2,2286,583.4"/>
				<path class="st1" d="M2154.3,367.8c5.9-16.2-9.6-34.1-17.9-29.5c-4.5,2.5-11.3,15.9,0.3,31
					C2146.1,380.3,2152.1,373.5,2154.3,367.8"/>
				<path class="st1" d="M2297.3,599.3c4.1-21.9,1.3-35.4-2.6-32.5c-5.1,3.7-11,36.6-7.5,48.4c1.5,4.1,3.5,4,5.7-0.5
					C2293.8,612.8,2295.6,608.4,2297.3,599.3"/>
				<path class="st1" d="M2187.6,401.8c5.4-14.8-4.8-35.5-15-30.2c-7.2,3.7-11,19.5-1.3,33C2181.7,417.6,2187.4,402.5,2187.6,401.8"
					/>
				<path class="st1" d="M1920,121.2c1.4-1.2,1.1-1.8,1.1-1.8c0,0-1.6-2.4-3.7-2.6c-2.2-0.1-3.8,2.3-2,4.2c0.1,0.1,0.2,0.2,0.2,0.2
					c0.8,0.6,1.4,0.9,2.7,1.3C1918.8,122,1919.4,121.6,1920,121.2"/>
				<path class="st1" d="M2303.4,614.4c3.7-19.9,3.5-35.6,0.9-34c-2.9,1.7-10.9,37.5-8.4,51.5c0.3,1.4,0.8,3.3,2.1,1.5
					C2299.6,631.1,2301.7,623.7,2303.4,614.4"/>
				<path class="st1" d="M1967,154.9c2.6-2.7,1.4-4.5,0.7-5.7c-1.8-2.8-5.6-5.4-7.7-5.2c-4.5,0.3-7.2,5.5-2.1,10.6
					C1963,159.1,1965.5,156.4,1967,154.9"/>
				<path class="st1" d="M2217.6,432.3c4.7-16-5.8-36.7-14-33c-6.5,2.9-11.4,22.1-1.6,36.9C2209.6,446.4,2215.2,440.5,2217.6,432.3"
					/>
				<path class="st1" d="M2011.8,187.9c3.9-6.1-4.6-16.6-11.8-14.6c-4.7,1.3-7.5,7.3-0.4,14.6C2007.2,195,2011.7,188,2011.8,187.9"
					/>
				<path class="st1" d="M2306.4,625.5c2.3-13.7,4.1-29.7,2.9-31.8c-0.1,0-0.2,0-0.3,0c-2.4,3.2-8.6,41-8.2,50.5
					c0.1,1.2,0.1,1.4,0.4,1.8C2302.9,645.8,2305.8,628.9,2306.4,625.5"/>
				<path class="st1" d="M2242.1,461.4c5.2-18.4-2.7-38.2-10.6-33.4c-6.6,4-12.1,22.8-2.4,38.9
					C2236.9,478.2,2241.3,464.3,2242.1,461.4"/>
				<path class="st1" d="M2054,222.3c4.9-7.1-4-21.3-12-19.3c-3.1,0.8-11.3,7.5-0.9,18.9C2048.6,229.5,2053.4,223,2054,222.3"/>
				<path class="st1" d="M2264.4,485.5c3.5-16.3-2.1-36.1-8.9-32.1c-6.3,3.7-12.1,25.3-3.6,40.7c5.8,9.5,10.5-0.5,12.1-7
					C2264.1,486.5,2264.2,485.9,2264.4,485.5"/>
				<path class="st1" d="M2310.4,601.2l-8.2,51.7c0,0.3-0.1,0.8-0.1,1.2c0-0.1,0-0.2,0.1-0.2C2304.7,638,2308.6,617.1,2310.4,601.2"
					/>
				<path class="st1" d="M2093.6,254.9c5-9.9-4.3-23.8-13.6-20.4c-5.9,2.1-9,11-0.5,20.6C2088.4,264.4,2093.1,255.8,2093.6,254.9"/>
				<path class="st1" d="M2281.9,506.6c2.5-18.3-3.4-36.4-8.6-32c-4.8,4.1-8.9,28.9-2.3,42.7c4,7.4,7.4,3.2,9.2-2.7
					C2280.9,512.3,2281.5,509.2,2281.9,506.6"/>
				<path class="st1" d="M2131.4,288.2c5.2-11.6-6.2-26.8-14.4-23.6c-6.2,2.4-8.8,14.4-0.3,24.5
					C2126.2,299.5,2131.2,288.7,2131.4,288.2"/>
				<path class="st1" d="M2294.9,528.8c2-15.2,0.1-39-5.1-34.9c-5.1,4-8.2,33.4-3.5,45c1.6,3.3,3.9,6.8,6.7-1.3
					C2293.6,536,2294.4,533.2,2294.9,528.8"/>
				<path class="st1" d="M2166.3,321.9c5.3-13.3-4.9-30.1-13.4-26.9c-6.8,2.6-10.4,15-0.4,28
					C2161.2,333.1,2165.5,323.8,2166.3,321.9"/>
				<path class="st1" d="M2304.6,543.2c2.1-19.1,0-35.6-3.1-32.8c-3.2,3-7.6,34.4-3.5,47.5c0.6,1.6,1.7,4.4,3.4,0.5
					C2302.7,555.7,2303.8,550,2304.6,543.2"/>
				<path class="st1" d="M2198.8,353.5c4.1-14.1-7-32.3-14.8-28.8c-4.7,2.2-10.2,15.7,1,31C2194.3,367.5,2198.4,355,2198.8,353.5"/>
				<path class="st1" d="M2310.7,556.2c1.5-16.1,1-31.9-0.9-32.7c-2.6,1.6-5.9,37.5-3.7,48.6c0.4,1.6,0.5,1.8,1.1,1.9
					C2309.1,572.5,2310.4,560,2310.7,556.2"/>
				<path class="st1" d="M1989,120.9c2.9-3.2-3.2-6.9-6.8-6.7c-4,0.2-2,4.9-0.1,6.8C1984.9,123.5,1987.6,122.5,1989,120.9"/>
				<path class="st1" d="M2226.6,382.2c3.1-16.2-6.1-33.1-12.8-28.3c-5.2,3.7-9,19.1,0.4,33.2C2223.1,399,2226.4,382.9,2226.6,382.2
					"/>
				<path class="st1" d="M2031.6,152.7c5.1-6.2-5.6-11.6-10.7-11c-6,0.8-1.8,7.9,1,10.8C2025.5,155.8,2028.9,155.9,2031.6,152.7"/>
				<path class="st1" d="M2250.6,410.2c2.2-14.6-4.8-35.8-12-30.3c-5.4,4.1-7.4,22.3,0.6,35.2
					C2247.7,427.1,2250.3,411.9,2250.6,410.2"/>
				<path class="st1" d="M2313.4,564.9c0.9-12.6,1.3-28.5,0.6-30.1c-1.6,2.2-4,41.4-3.5,49.4c0.1,0.9,0.1,1.1,0.3,1.4
					C2312,584.1,2313.3,566.9,2313.4,564.9"/>
				<path class="st1" d="M2071,184.1c3.2-6.4-5.2-17.2-11.6-15c-2.7,0.9-8.4,5.7,0.5,15.3C2067.1,191.5,2070.8,184.4,2071,184.1"/>
				<path class="st1" d="M2270,431.7c1.7-16.9-4.5-33.4-9.4-29.6c-4.6,3.6-7.5,24.4,0.2,38.2c5.1,8,7.6,0.1,8.4-3.7
					C2269.5,435.3,2269.8,433.3,2270,431.7"/>
				<path class="st1" d="M2314.4,549.2c-0.8,19.8-2.9,42.4-3,42.6L2314.4,549.2"/>
				<path class="st1" d="M2108.5,216.4c3.3-7.7-6.4-21.5-13-18.4c-3.8,1.8-7.4,9,0.9,18.5C2103,223.3,2107.2,219.4,2108.5,216.4"/>
				<path class="st1" d="M2286.2,452.8c1.2-16.8-3.7-32.7-7.8-29.4c-4.1,3.4-6.6,26.3,0,39.8c2.5,4.4,4.6,4,6.2-1.4
					C2285.2,460.2,2285.9,457.3,2286.2,452.8"/>
				<path class="st1" d="M2143.8,247.7c3.1-8.7-7.6-25.2-13.9-21.5c-0.1,0.1-9.6,8.4,1.8,21.9
					C2140.1,257.1,2143.5,248.7,2143.8,247.7"/>
				<path class="st1" d="M2298.4,471.1c0.6-17-2.9-32.5-5.9-30.6c-3.2,2-5.3,29.9,0.1,42.7c0.7,1.5,2.4,5,4.1,0.3
					C2297.1,482.4,2298.1,478.8,2298.4,471.1"/>
				<path class="st1" d="M2175.6,277.6c3.2-10.7-6.2-26-13.6-22.1c-5.4,2.9-5.9,13.7,1.6,23.2C2172.3,288.6,2175.5,278,2175.6,277.6
					"/>
				<path class="st1" d="M2307.3,484.3c0-16.4-2.8-30.9-4.9-28.6c-2.4,2.6-2.9,32.5,0.7,43.4c0.4,1.1,1.5,3.9,2.6,1.2
					C2307.1,497.3,2307.3,489,2307.3,484.3"/>
				<path class="st1" d="M2205,308c3-13.1-6.1-28.7-12.4-25.1c-4.3,2.5-7.6,14.3,1.9,27.1C2201.9,319.3,2204.5,310,2205,308"/>
				<path class="st1" d="M2312.6,495.7c-0.2-12.1-1.6-26.4-3.1-27.3c-1.8,1.4-1.2,36.3,0.8,45.1c0.2,0.5,0.4,1.2,0.7,1.6
					c0.1,0,0.2-0.1,0.3-0.1C2312.7,512.2,2312.7,501.7,2312.6,495.7"/>
				<path class="st1" d="M2231.8,334.5c1.5-13.9-8-29.7-13.1-25.3c-3.1,2.7-6,16.4,3.1,29.5c7.2,9.7,9.5-0.5,9.8-2.6
					C2231.6,335.7,2231.7,335.1,2231.8,334.5"/>
				<path class="st1" d="M2008.4,92.1c0.4-0.4,0.6-0.8,0.6-1.4c-1.7-1.2-2.9-0.7-4.6,0.2c0.3,0.4,0.5,0.6,0.8,0.9
					C2006.8,93.3,2008.1,92.3,2008.4,92.1"/>
				<path class="st1" d="M2048.5,122.1c3.8-4.2-4.2-8.4-7.9-8.1c-4.3,0.4-1.2,5.5,0.8,7.6C2043.2,123.2,2045.9,124.9,2048.5,122.1"
					/>
				<path class="st1" d="M2314.6,506.5c-0.3-12.3-1.1-26.2-1.6-29c-0.5,1.2,0.6,41.5,1.1,46.8c0,0.3,0.1,0.8,0.2,1.1
					C2315,524,2314.7,509.4,2314.6,506.5"/>
				<path class="st1" d="M2253.1,359c0.9-14.5-6.1-29.4-10.5-26c-3.8,3-5.2,19.9,2.2,31.8c5.7,8.2,7.5-0.3,8-3.1
					C2252.9,361,2253,359.9,2253.1,359"/>
				<path class="st1" d="M2085.1,151.1c2.6-4.7-4.2-13.7-9.2-12.1c-2.2,0.7-6.3,4.3,0.9,12C2081.9,155.9,2084.6,151.9,2085.1,151.1"
					/>
				<path class="st1" d="M2271.3,380.9c0.1-15-5.9-29.7-9.4-26.7c-3.4,2.9-4,22.8,2.8,34.7c2.9,4.5,4.9,4.1,6-1
					C2270.8,387.2,2271.3,384.7,2271.3,380.9"/>
				<path class="st1" d="M2120.3,181.3c2.7-5.3-5.8-17.3-11.1-15.9c-3.5,1-5.8,7.2,0.9,14.5C2117.2,187.2,2120.2,181.4,2120.3,181.3
					"/>
				<path class="st1" d="M2285.8,399.7c-0.6-16-5.2-29.9-8-27.3c-2.8,2.7-2.8,25.5,3.2,37.3c0.8,1.5,2.7,4.8,4,0.8
					C2285.3,409.5,2286,406.4,2285.8,399.7"/>
				<path class="st1" d="M2151.6,208.9c2.6-7.6-5.8-19.8-11.5-16.7c-3.9,2.2-4.1,10.2,1.7,17C2148.8,216.9,2151.5,209,2151.6,208.9"
					/>
				<path class="st1" d="M2296.7,417.2c-0.9-17.2-5-31.1-6.8-29.1c-1.9,2.1-1.7,27,3.7,39.7c0.6,1.2,1.7,3.5,2.5,1.3
					C2296.6,427.8,2297.1,423.9,2296.7,417.2"/>
				<path class="st1" d="M2181.1,237.6c1.8-8.7-5.5-23.3-11.4-19.2c-4.2,3-4.4,11.3,2.6,20.2
					C2179.1,246.3,2180.9,238.5,2181.1,237.6"/>
				<path class="st1" d="M2304.4,429.3c-1.1-11.9-3.7-26.4-5.4-27.4c-1.8,1,0.7,31.9,4,41.3c0.6,1.5,0.7,1.8,1.2,1.9
					C2305.6,443.9,2304.6,431.7,2304.4,429.3"/>
				<path class="st1" d="M2208.5,264.4c1.2-10.5-7.2-24.5-12.1-20.2c-3.7,3.2-2.9,13.6,3.5,22.3
					C2207.2,275.4,2208.4,264.9,2208.5,264.4"/>
				<path class="st1" d="M2308.7,438.5c-1.3-11.5-3.4-24.2-4.3-26.1c0,0-0.1,0-0.2,0.1c-0.4,3.5,2.9,34.7,4.8,42
					c0.3,1.2,0.4,1.2,0.6,1.4C2310.3,453.6,2309,441,2308.7,438.5"/>
				<path class="st1" d="M2231.5,289.9c0.6-12.3-6.8-26.1-10.7-22.9c-3.1,2.6-4.1,14.9,3.7,26.3c4.8,6.2,6.3,1.9,6.8-1.3
					C2231.4,291.4,2231.5,290.5,2231.5,289.9"/>
				<path class="st1" d="M2062.2,95c1-1.7-0.3-3.6-1.1-4.5c0,0-1.5-0.6-3.6-0.8c-1.3,1.6-0.1,3.3,0.7,4.2c1.2,1.2,2.5,1.6,3.9,1.4
					C2062.1,95.1,2062.1,95,2062.2,95"/>
				<path class="st1" d="M2307,422.4c2.1,14,3.3,28.2,5.1,42.2c0.1,0.3,0.1,0.7,0.1,1c0-0.3,0-0.7,0-1L2307,422.4"/>
				<path class="st1" d="M2251.8,311.3c-0.9-14.8-8.2-25.4-10.8-23c-2.4,2.2-2.1,17.7,4.9,28.7c2.9,4.1,4.9,4.3,5.7,0.4
					C2251.7,316.3,2252,314.4,2251.8,311.3"/>
				<path class="st1" d="M2096.3,122.7c1.6-2.6-2.6-10.2-6.3-9.6c-2.7,0.4-3.7,4.1,0.4,8.4C2094.4,125.4,2096.1,123,2096.3,122.7"/>
				<path class="st1" d="M2267.7,330c-1.4-13.4-7-25-9.4-21.8c-2.3,3-0.2,20.7,5.2,30.1c0.8,1.2,3,4.8,4.1,0.3
					C2267.8,337.6,2268.2,334.9,2267.7,330"/>
				<path class="st1" d="M2127.7,148.9c1.7-4.5-5-13.8-8.7-12.1c-1.6,0.7-4.2,4.8,1.8,11.4C2125.5,152.9,2127.2,150.2,2127.7,148.9"
					/>
				<path class="st1" d="M2280.4,348.1c-2-14.6-6.8-26.1-8.2-24.1c-1.5,2.2,0.3,23,5.8,33.7c0.7,1.3,2.1,3.6,2.7,1
					C2281.2,357,2281,353,2280.4,348.1"/>
				<path class="st1" d="M2156.6,174.7c1.3-6.6-5.3-15.8-9.4-13.1c-2.8,1.8-2.4,7.8,2.5,13.6C2155.2,181,2156.5,175.3,2156.6,174.7"
					/>
				<path class="st1" d="M2289.8,362.2c-2-12-5.8-24.5-7.2-24.3c-1.4,2,2.4,26.5,6.6,35.8c0.7,1.4,0.9,1.6,1.3,1.8
					C2291.9,374.7,2290.2,364.3,2289.8,362.2"/>
				<path class="st1" d="M2183.5,200.2c0.9-7.4-6.6-18.4-10.2-15.1c-2.5,2.3-1.7,10,3.2,16.1
					C2182.5,208.1,2183.5,200.3,2183.5,200.2"/>
				<path class="st1" d="M2296.3,374.3c-2.4-12.2-5.7-24-6.7-24.9c-0.8,2,4.8,30.3,7.4,37.4c0.5,1.3,0.6,1.5,0.9,1.6
					C2298.8,387.5,2296.9,377.4,2296.3,374.3"/>
				<path class="st1" d="M2207.2,224.7c0-8.4-6.3-20.9-9.9-17.4c-2.4,2.4-2.4,10.6,4.1,19.3c4.4,5.4,5.4,1.6,5.6-0.2
					C2207.2,225.8,2207.2,225.2,2207.2,224.7"/>
				<path class="st1" d="M2299.7,383.4c-2.3-11-5.3-22.8-5.8-24c0.1,1.4,6.9,34,8.1,38.3c0.1,0.3,0.2,0.8,0.3,1.1
					C2302.7,397.7,2300.6,387.7,2299.7,383.4"/>
				<path class="st1" d="M2228.1,246.6c-0.9-10.3-7.7-21.4-10-18.1c-2,2.7-0.2,14.3,5.1,21.8c3.6,4.7,4.6,1.9,4.8-0.2
					C2228.2,249.4,2228.3,248.3,2228.1,246.6"/>
				<path class="st1" d="M2245.6,266c-1.3-7.4-6.5-20.8-8.9-17.7c-2.1,2.6-0.4,14.8,5.4,23.6c0.9,1.2,3.5,4.7,4,0
					C2246.1,271.1,2246.1,269.2,2245.6,266"/>
				<path class="st1" d="M2105.3,97.1c0.8-1.8-3.2-5.3-4.6-4.6c-0.8,0.4-0.6,2.6,1,4.3C2103.9,98.8,2105,97.7,2105.3,97.1"/>
				<path class="st1" d="M2259.5,284.9c-2.2-11.2-7.4-22.9-8.8-21.1c-1.2,1.7,1.4,17.9,6.8,27.1c0.7,1.2,2.1,3.3,2.6,1.3
					C2260.3,291.6,2260.5,289.8,2259.5,284.9"/>
				<path class="st1" d="M2133.1,121.3c0.8-3.5-4.3-9.5-6.6-7.8c-2.9,2.1,1.6,7.2,2.1,7.8C2132.2,125,2133.1,121.3,2133.1,121.3"/>
				<path class="st1" d="M2270.2,298.9c-2.9-11.1-6.8-20.3-8.2-20.6c-1.4,1.3,3.7,21.4,8,29.4c0.9,1.5,1,1.7,1.6,1.9
					C2272.6,308.9,2271.2,302.6,2270.2,298.9"/>
				<path class="st1" d="M2158.9,145c0.5-4.2-5.4-12.5-7.7-10.8c-1,0.8-2.2,4.6,2.8,10.5C2158,148.9,2158.8,146.3,2158.9,145"/>
				<path class="st1" d="M2278.1,311.9c-2.4-8.9-6.3-19.5-7.5-21c-0.1,0-0.1,0-0.2,0c-0.3,1.8,5,22.4,8.9,30.7
					c0.6,1.2,0.8,1.5,1.1,1.6C2280.7,322.4,2280,318.6,2278.1,311.9"/>
				<path class="st1" d="M2181.9,167.1c-0.3-5.6-6.6-14.8-8.5-12.4c-0.9,1-1.5,6.2,3.9,13c4,4.6,4.5,1.3,4.6,0.1
					C2181.9,167.6,2181.9,167.3,2181.9,167.1"/>
				<path class="st1" d="M2282.3,319.4c-2.6-8.5-5.9-17.8-6.6-19.5c0.1,1.5,7.9,27.6,9.8,32.4c0.2,0.4,0.4,0.8,0.5,1.1
					C2286.1,331.9,2283.5,323.1,2282.3,319.4"/>
				<path class="st1" d="M2202.9,188.6c-1-6.6-7.3-16.4-8.9-13.9c-0.9,1.4-0.7,8.2,5,15.8c3.3,4,3.9,1.9,4,0.8
					C2203.1,190.4,2203,189.3,2202.9,188.6"/>
				<path class="st1" d="M2284.1,324.6c2.1,6.6,4,13.1,4.9,16.5L2284.1,324.6"/>
				<path class="st1" d="M2220.6,208c-1.8-7.6-6.7-16.5-8.2-14.6c-1.2,1.6,0.6,10.8,5.6,17.7c0.7,0.9,2.6,3.4,3,1.2
					C2221.2,211.6,2221,210,2220.6,208"/>
				<path class="st1" d="M2235.1,225.3c-2.2-7.8-7.3-17.4-8.1-15.6c-0.9,1.8,2.1,13.1,6.8,20c0.6,0.9,2.1,3,2.3,1.1
					C2236.1,230.4,2236.1,228.9,2235.1,225.3"/>
				<path class="st1" d="M2246.7,240.4c-2.5-7.5-6.7-16.3-7.9-16.6c-0.9,1.4,4.1,16.3,8,22.8c0.8,1.2,1.1,1.5,1.4,1.6
					C2249,247.5,2247.4,242.5,2246.7,240.4"/>
				<path class="st1" d="M2135.5,98.3c0.2-1.7-3-4.6-3.8-4c-0.5,0.4,0,2.3,1.3,3.8C2134.8,99.8,2135.4,99,2135.5,98.3"/>
				<path class="st1" d="M2255,252c-2.8-7.2-6.4-15-7.4-15.8c0,0-0.1,0.1-0.1,0.1c0.1,1.9,6,17.9,9.4,24.1c0.6,1,0.8,1.3,1.1,1.5
					c0,0,0.1-0.1,0.1-0.1C2258.1,260.1,2256.2,254.9,2255,252"/>
				<path class="st1" d="M2157.4,119.3c0.1-2.2-4-8.6-5.4-7.4c-1.1,0.9,0.1,4.2,2.4,6.8C2157.2,121.6,2157.4,119.5,2157.4,119.3"/>
				<path class="st1" d="M2261.4,263.6c-3.4-8.3-7.4-17.2-8.2-18.6c0.1,0.6,9,22.9,11.1,27.3c0.3,0.6,0.4,0.8,0.6,1
					C2265,272.5,2261.7,264.5,2261.4,263.6"/>
				<path class="st1" d="M2177,138.1c-0.7-3.7-5-9.8-6.1-8.6c-0.3,0.4-1.1,3.6,3.8,9.5c0.6,0.6,2.3,2.6,2.4,0.6
					C2177.2,139.5,2177.2,138.9,2177,138.1"/>
				<path class="st1" d="M2261.4,263.1c2.4,5.8,3.5,8.5,7.6,18.5c0.1,0.2,0.2,0.5,0.3,0.7L2261.4,263.1"/>
				<path class="st1" d="M2194.3,156.2c-1.5-4.6-5.9-11.1-6.7-9.9c-0.3,0.5-0.1,5.3,5.1,11.9c0.6,0.7,2,2.5,2.2,1.1
					C2194.9,158.9,2194.8,157.8,2194.3,156.2"/>
				<path class="st1" d="M2209.1,173.7c-1.9-5-6.3-12.4-7.3-12.2c-0.5,0.7,1.9,8.3,6.5,14.6c0.4,0.6,1.5,2,1.7,1.3
					C2210.2,176.8,2209.7,175.1,2209.1,173.7"/>
				<path class="st1" d="M2220.7,187.8c-2.5-5.6-6.5-12.4-7.4-12.8l-0.1,0.1c0.1,1.2,3.8,10.4,7.9,16.5c0.7,1,1.1,1.4,1.3,1.4
					C2222.7,192.4,2221.5,189.5,2220.7,187.8"/>
				<path class="st1" d="M2229.5,199.9c-2.8-5.7-6.7-12.5-7.3-13.1c0.1,1,6.3,13.9,9.2,18.5c0.5,0.8,0.6,0.9,0.9,1.1
					C2232.4,205.9,2230.4,201.7,2229.5,199.9"/>
				<path class="st1" d="M2230.9,201.3c2.7,5.2,5.3,10.5,8.2,15.6c0.3,0.5,0.4,0.6,0.5,0.9c0-0.1,0-0.3-1.4-3L2230.9,201.3"/>
				<path class="st1" d="M2153,98.1c-0.4-1.2-1.3-2.4-1.8-3.1c0,0-0.5-0.3-1.1-0.3c0.3,1.2,1.1,2.3,1.6,2.9c0.5,0.5,1.1,1,1.3,0.7
					C2153,98.2,2153,98.1,2153,98.1"/>
				<path class="st1" d="M2168.9,114.2c-1.1-3-3.6-5.2-3.8-4.6c-0.3,0.7,1.9,3.8,2.9,5c0.7,0.8,0.9,1,1.2,0.9
					C2169.2,115.4,2169.3,115.3,2168.9,114.2"/>
				<path class="st1" d="M2182,128.6c-1.8-3.4-4.1-6.3-4.4-5.8c-0.3,0.6,2.5,5,4.2,7.1c0.6,0.8,0.9,1,1.1,1
					C2183,130.9,2183.1,130.7,2182,128.6"/>
				<path class="st1" d="M2193.3,142.2c-1.9-3-4.8-7.2-5.3-7.7c-0.1,0.4,3.8,6.8,6.2,10c0.5,0.7,0.7,0.9,0.9,1
					C2195,145.3,2194.4,144.2,2193.3,142.2"/>
				<path class="st1" d="M2197.1,147c2.2,3.4,4.4,6.9,6.7,10.3c0.4,0.5,0.4,0.6,0.6,0.8c0-0.1,0-0.2-1-1.8L2197.1,147"/>
				<path class="st1" d="M2157.6,95.4L2157.6,95.4l-0.1-0.1l-0.1-0.1l0-0.1l-0.1-0.1l-0.1-0.1l-0.1-0.1l-0.1-0.1l0-0.1l0,0l-0.1-0.1
					l-0.1-0.1l0,0l0-0.1l-0.1-0.1c-0.3-0.4-0.4-0.4-0.4-0.4c0,0.1,0.2,0.3,0.5,0.7C2157.4,95.3,2157.6,95.5,2157.6,95.4L2157.6,95.4
					"/>
			</g>
		</g>
	</g>
</g>
</svg>
