<?xml version="1.0" encoding="utf-8"?>
<!-- Generator: Adobe Illustrator 28.2.0, SVG Export Plug-In . SVG Version: 6.00 Build 0)  -->
<svg version="1.1" id="_레이어_2" xmlns="http://www.w3.org/2000/svg" xmlns:xlink="http://www.w3.org/1999/xlink" x="0px"
	 y="0px" viewBox="0 0 1915.9 1739.7" style="enable-background:new 0 0 1915.9 1739.7;" xml:space="preserve">
<style type="text/css">
	.st0{opacity:0.5;}
	.st1{clip-path:url(#SVGID_00000029753212840154805640000000649676045558913946_);}
	.st2{fill:#FFFFFF;}
</style>
<g class="st0">
	<defs>
		<rect id="SVGID_1_" class="st0" width="1919.6" height="1739.7"/>
	</defs>
	<clipPath id="SVGID_00000073688110899089674030000004892615183452287370_">
		<use xlink:href="#SVGID_1_"  style="overflow:visible;"/>
	</clipPath>
	<g style="clip-path:url(#SVGID_00000073688110899089674030000004892615183452287370_);">
		<path class="st2" d="M-172,1634.8c4.4,0.4,4.9,0.1,5,0c-7.7-1.4-9.6-0.9-9.6-0.9l0,0C-176.3,1634.2-173.3,1634.6-172,1634.8"/>
		<path class="st2" d="M-157,1640.8c4,0.5,4.1,0.2,4.2,0.2c-0.8-0.8-10.7-2.1-11.8-1.5c0,0,0,0,0,0.1
			C-163.9,1640-158.1,1640.7-157,1640.8"/>
		<path class="st2" d="M-146.1,1646.7c3,0.4,7.6,0.8,8.3,0.6c0,0,0,0,0-0.1c-1.3-0.6-13.8-2.4-14.2-1.7
			C-151.7,1645.9-147.4,1646.5-146.1,1646.7"/>
		<path class="st2" d="M-132.3,1653.2c2.7,0.4,6,0.8,6.6,0.6l0-0.1c-1.7-1.1-14.9-3.1-15.4-2.3
			C-140.6,1651.9-134.8,1652.8-132.3,1653.2"/>
		<path class="st2" d="M-162.1,1617.3c0.1,0,0.2,0,0.4,0c0.1,0,0.2,0,0.4,0c0.1,0,0.3,0,0.4,0c0.1,0,0.3,0,0.4,0c0.1,0,0.3,0,0.4,0
			c0.1,0,0.2,0,0.4,0c0.1,0,0.3,0,0.4,0c0.2-0.1,0.7-0.2,0.4-0.4c-0.4-0.3-2-0.3-2-0.3c-0.1,0-1.5,0.3-1.4,0.9c0,0,0,0,0,0.1
			C-162.4,1617.3-162.2,1617.3-162.1,1617.3"/>
		<path class="st2" d="M-144.2,1623.7c2.9-0.1,4-0.6,3.6-1c-0.7-0.7-4.9-0.4-6.3-0.4c-3.2,0.2-3.7,0.6-3.7,0.9c0,0,0,0.1,0,0.1
			C-149.6,1624-144.2,1623.7-144.2,1623.7"/>
		<path class="st2" d="M-122,1659.3c2.7,0.4,6.1,0.9,6.7,0.6c0,0,0-0.1,0-0.1c-1.4-1.1-15.5-3.3-16-2.5
			C-130.7,1657.9-124.6,1658.9-122,1659.3"/>
		<path class="st2" d="M-127.5,1630.4c3.8-0.1,5.9-0.4,5.6-0.8c-1-1.3-14.2-1.3-14.5,0c0,0,0,0.1,0,0.1
			C-135.3,1630.4-130.9,1630.5-127.5,1630.4"/>
		<path class="st2" d="M-111.3,1665.5c2.1,0.3,4.7,0.6,5.1,0.3c-0.3-1.3-14.4-3-15.2-2.6C-120.9,1664-111.4,1665.5-111.3,1665.5"/>
		<path class="st2" d="M-111.8,1637.4c5.2,0,7.7-0.6,7.3-1.2c-0.5-0.8-16-1.6-17,0.1c0,0,0,0.1,0,0.1
			C-120.7,1637.2-114.9,1637.4-111.8,1637.4"/>
		<path class="st2" d="M-105.2,1670.8c1.9,0.3,6.3,1,6.9,0.7c-0.2-0.9-14-3.4-15.6-2.7C-113.6,1669.4-107.2,1670.5-105.2,1670.8"/>
		<path class="st2" d="M-97.4,1644.5c5.6,0.1,9.7-0.5,8.9-1.1c-1.4-1.2-19.3-1.5-19.4-0.3c0,0,0,0.1,0,0.1
			C-107,1644.2-101,1644.4-97.4,1644.5"/>
		<path class="st2" d="M-101.7,1675.5c3.4,0.6,7.4,1.1,8.1,0.8c0,0,0-0.1,0-0.1c-2.3-1-13.8-2.4-13.8-2.3c-0.2,0.2-0.2,0.2-0.3,0.3
			C-107.1,1674.4-105.4,1674.9-101.7,1675.5"/>
		<path class="st2" d="M-83.5,1651.7c5,0.2,9-0.3,9.4-1c-0.3-0.6-1.6-1.1-9.7-1.4c-3.7-0.1-10.5-0.4-11.2,0.6c0,0.1,0,0.1,0,0.2
			C-94.3,1651-85.7,1651.7-83.5,1651.7"/>
		<path class="st2" d="M-129.8,1601.5c2.3-0.6,2.5-1.2,1.9-1.5c-2.1-1.2-8.7,0.9-8.4,1.9c0,0.1,0.1,0.1,0.1,0.1
			C-134.8,1602.6-131,1601.8-129.8,1601.5"/>
		<path class="st2" d="M-96.9,1680.3c1.2,0.2,5,0.8,5.5,0.6c0,0,0,0,0-0.1c-0.9-0.7-10.3-2.2-11.4-2c0,0,0,0-0.1,0.1
			C-102.4,1679.3-99.2,1679.8-96.9,1680.3"/>
		<path class="st2" d="M-109.4,1609.3c3.5-0.7,5.2-1.4,4.6-1.9c-1.5-1.3-13.5-0.5-13.5,1.9c0,0.1,0.1,0.2,0.2,0.3
			C-116.9,1610.3-114,1610.2-109.4,1609.3"/>
		<path class="st2" d="M-69.4,1658.8c6.4,0.2,9.6-0.3,9.1-0.9c-1.3-1.6-21.8-2.4-22.1-0.8C-81.8,1658-73.4,1658.6-69.4,1658.8"/>
		<path class="st2" d="M-88.6,1617.2c4.8-0.8,7-1.6,5.9-2.3c-3.4-2.1-18.2-0.1-17.4,2.3c0,0.1,0.1,0.2,0.1,0.2
			C-98.8,1618.2-94.6,1618.1-88.6,1617.2"/>
		<path class="st2" d="M-96,1683.8c0.6,0.1,3.8,0.6,4.2,0.4c-0.2-0.5-8.5-1.7-9.4-1.6l-0.1,0C-100.6,1683-96.2,1683.8-96,1683.8"/>
		<path class="st2" d="M-59.7,1665.6c4.1,0.2,10.2,0.2,10.2-0.8c-1.4-1.5-21.5-2.5-22.4-1.1C-71.3,1664.9-59.8,1665.6-59.7,1665.6"
			/>
		<path class="st2" d="M-71.3,1625.5c6.1-0.8,8.9-2.4,7.5-3.3c-2.8-1.8-19.9,0.7-19.3,2.8c0,0.1,0.1,0.1,0.1,0.2
			C-80.9,1626.7-72.9,1625.7-71.3,1625.5"/>
		<path class="st2" d="M-51.2,1671.9c4,0.3,10.2,0.3,10.6-0.6c-1-1.4-21.1-2.6-22.3-1.3C-62.8,1671.1-51.4,1671.9-51.2,1671.9"/>
		<path class="st2" d="M-52.1,1633.7c6.7-0.8,9.1-2.2,8-3.1c-2.8-2.2-23-0.1-22.5,2.3c0,0.1,0.1,0.1,0.1,0.2
			C-64.9,1634.8-55.4,1634.1-52.1,1633.7"/>
		<path class="st2" d="M-43.4,1677.8c4.5,0.3,9.4,0.3,10.4-0.3c0-0.1,0-0.1,0-0.2c-1.6-1.2-20.9-2.2-22.5-1.2c0,0,0,0.1,0,0.2
			C-53.8,1677.1-43.5,1677.8-43.4,1677.8"/>
		<path class="st2" d="M-36.1,1642.1c7-0.5,10.6-2.1,9.4-3.2c-2.3-2.1-23.7-0.3-23.9,2c0,0,0,0.1,0,0.1
			C-48.4,1643-36.2,1642.1-36.1,1642.1"/>
		<path class="st2" d="M-106.9,1576.9c2.3-1,3-2,1.8-2.4c-3.3-1.2-10.2,1.4-9.2,3.5c0.1,0.1,0.2,0.2,0.2,0.3
			C-112.7,1579-109.3,1578-106.9,1576.9"/>
		<path class="st2" d="M-41,1682.8c5.8,0.4,10.7,0.3,11.3-0.3c-1-1.3-19.7-1.8-20.8-1.3c0,0-0.1,0.1-0.1,0.1
			C-49.9,1682.1-43.1,1682.6-41,1682.8"/>
		<path class="st2" d="M-22.2,1650.3c8.5-0.5,13.2-2.1,12.1-3.2c-2.3-2.3-26.6-0.4-26.6,2.1c0,0,0,0.1,0,0.1
			C-35.6,1650.7-26.7,1650.6-22.2,1650.3"/>
		<path class="st2" d="M-82.4,1586.2c4.5-1.7,5.5-3.6,3.9-4.5c-1.4-0.8-4.6-0.4-8.2,0.9c-2,0.7-6.2,2.2-5.5,4.1
			c0.1,0.2,0.2,0.4,0.4,0.5C-89.5,1588.8-83.1,1586.5-82.4,1586.2"/>
		<path class="st2" d="M-38.4,1687c4.2,0.3,8.9,0.4,9.8,0c0,0-0.1-0.1,0-0.1c-1.9-0.8-17.2-1.7-19.2-1.2c0,0-0.1,0-0.1,0
			C-47.4,1686.4-38.5,1687-38.4,1687"/>
		<path class="st2" d="M-58.6,1595.8c5.2-1.6,6.9-4.1,5-5.3c-1.8-1.1-6.2-0.3-9.7,0.7c-4,1.2-8.1,2.5-7.6,4.5
			c0.1,0.3,0.3,0.5,0.4,0.6C-67.6,1598.3-58.7,1595.8-58.6,1595.8"/>
		<path class="st2" d="M-9.1,1658.2c8.8-0.4,13.4-1.8,12.7-2.8c-1.6-2.1-27-0.8-27.5,1.5c0,0,0,0.1,0,0.1
			C-23,1658.8-9.7,1658.2-9.1,1658.2"/>
		<path class="st2" d="M-35.4,1604.7c6.3-1.8,7.9-4,6.2-5c-3-1.9-22,1.5-21.1,5.5c0.1,0.3,0.2,0.5,0.4,0.6
			C-46.9,1608-35.5,1604.7-35.4,1604.7"/>
		<path class="st2" d="M-39.6,1690.2c3.7,0.2,8.2,0.4,8.7,0.1c-0.3-0.8-14.2-1.5-16.9-1.1c-0.1,0-0.2,0-0.2,0.1
			C-47.7,1689.6-42,1690-39.6,1690.2"/>
		<path class="st2" d="M2.5,1665.5c9.1-0.4,14.5-1.9,13.2-2.9c-2.4-1.8-27.5-0.3-28,1.7C-12,1665.8-1.2,1665.7,2.5,1665.5"/>
		<path class="st2" d="M-14.9,1614.7c8-1.8,11.2-4.5,9.2-5.9c-2.9-2-24.8,1.6-24.3,5.7c0,0.3,0.1,0.4,0.3,0.6
			C-27,1617.4-15.3,1614.8-14.9,1614.7"/>
		<path class="st2" d="M10.7,1672.5c9-0.3,14.8-1.6,13.8-2.6c-1.2-1.1-26.3-1-28,1.4C-3.7,1672.6,6.9,1672.6,10.7,1672.5"/>
		<path class="st2" d="M5.7,1624.2c8-1.7,11.1-4.2,9.4-5.6c-3.6-2.7-27,2.1-26.4,5.5c0,0.2,0.1,0.3,0.2,0.4
			C-9.1,1626.5,0.3,1625.4,5.7,1624.2"/>
		<path class="st2" d="M-94.7,1544.4c3-2,4.9-4.7,2.7-5.3c-3.5-0.9-10.6,3.1-8.9,6c0.2,0.4,0.4,0.5,0.6,0.6
			C-98.6,1546.6-96,1545.3-94.7,1544.4"/>
		<path class="st2" d="M16,1678.6c9-0.3,14.7-1.3,14.2-2.1c-0.7-1-24.5-1.2-27.1,1.1c0,0.1,0,0.1-0.1,0.2
			C3.5,1678.9,15.4,1678.6,16,1678.6"/>
		<path class="st2" d="M23.9,1633.4c8.7-1.6,12-3.8,10.6-5c-3.4-2.9-29,1.5-28.6,4.9c0,0.1,0.1,0.2,0.1,0.3
			C7.9,1635.6,18.9,1634.3,23.9,1633.4"/>
		<path class="st2" d="M-63.3,1554.1c5.3-2.9,4.7-4.6,2.4-5.2c-4.9-1.3-16.7,2-14.1,6.7c0.2,0.4,0.5,0.6,0.6,0.7
			C-72.1,1557.7-68.2,1556.9-63.3,1554.1"/>
		<path class="st2" d="M21.2,1683.7c6-0.2,12.3-1,12.4-1.9c-1.3-1.2-23.6-0.3-25.9,1.1c-0.1,0.1-0.1,0.1-0.2,0.2
			C8.9,1684.1,21.1,1683.7,21.2,1683.7"/>
		<path class="st2" d="M-36.2,1565.4c6-2.8,7.2-6.4,4.2-7.5c-3.9-1.5-19.2,3.8-17.3,8.4c0.2,0.6,0.5,0.8,0.7,1
			C-45,1569.6-36.5,1565.6-36.2,1565.4"/>
		<path class="st2" d="M39.5,1642.7c8.9-1.4,14.4-3.7,12.9-5.2c-1-1.1-7.4-1.3-17.7,0.3c-5.8,0.9-12.7,2.6-12.8,4.5
			c0,0.1,0,0.2,0,0.3C23.7,1644.8,35.2,1643.4,39.5,1642.7"/>
		<path class="st2" d="M20.5,1687.7c6.4-0.3,12.2-0.9,12.8-1.4c-0.7-0.8-21.4,0-24.6,1c-0.1,0-0.1,0.1-0.2,0.1c0,0,0,0.1,0,0.2
			C9.7,1688,17.6,1687.8,20.5,1687.7"/>
		<path class="st2" d="M-8.1,1575.6c6.8-3.1,8.1-6.6,5-7.9c-5-2.1-22.9,4.3-21.1,9c0.2,0.5,0.5,0.8,0.7,1
			C-19.3,1580.6-8.2,1575.7-8.1,1575.6"/>
		<path class="st2" d="M51.6,1651.5c9-1.3,17.3-3.7,15-5.4c-3.6-2.6-31.7,2-31.3,5.2C36.6,1653.6,51,1651.6,51.6,1651.5"/>
		<path class="st2" d="M16.1,1690.5c6-0.3,12.5-0.8,13.6-1.2c-0.9-0.5-20.4,0.6-23.2,1.1c-0.1,0-0.3,0.1-0.4,0.1
			C6.5,1690.9,16,1690.5,16.1,1690.5"/>
		<path class="st2" d="M17.1,1586.9c7.7-3,9.5-6.7,6.2-8.2c-5-2.2-25.7,4.3-23.6,9.2c0.1,0.3,0.3,0.5,0.5,0.7
			C3.7,1591.3,13.6,1588.3,17.1,1586.9"/>
		<path class="st2" d="M65.5,1659.4c9.7-1.4,13.9-3.4,12.4-4.6c-3.4-2.4-30.5,1.5-31.5,4.5C47.1,1661,58,1660.5,65.5,1659.4"/>
		<path class="st2" d="M40.3,1598c8.6-2.9,12.7-6.7,9-8.3c-5.5-2.2-29.7,4.3-27.3,9.3c0.1,0.2,0.2,0.4,0.3,0.5
			C26.3,1602.7,40.1,1598,40.3,1598"/>
		<path class="st2" d="M71.2,1667c9.3-1.2,18.2-3.4,16.7-4.8c-2.2-2.1-30.5,2.1-31.9,4.7C56,1668.5,66,1667.7,71.2,1667"/>
		<path class="st2" d="M-90.1,1502.6c3.1-3,1-4.6-1.7-4.6c-5.4,0-7.4,4.9-5.9,6.4c0.1,0.1,0.2,0.2,0.4,0.2
			C-93.9,1506.2-91.4,1503.9-90.1,1502.6"/>
		<path class="st2" d="M62.5,1608.6c10.4-3.2,13.8-6.9,10.5-8.4c-5.5-2.4-31.7,4-29.8,9.2c0.1,0.2,0.2,0.3,0.2,0.4
			C47.1,1613.2,62.4,1608.6,62.5,1608.6"/>
		<path class="st2" d="M-54.9,1514.1c5.1-4,3.6-6.1-0.1-6.5c-7-0.7-16,3.9-11.7,8.9c0.3,0.4,0.6,0.5,0.8,0.7
			C-63.3,1518.7-59.4,1517.6-54.9,1514.1"/>
		<path class="st2" d="M77.3,1673.4c9.5-1.2,16.3-3.4,15.7-4.4c-1.2-1.7-28.7,2.4-30.7,4.4c0,0.1-0.1,0.2-0.1,0.3
			C63.5,1675.1,77.2,1673.4,77.3,1673.4"/>
		<path class="st2" d="M81.7,1619.3c8.6-2.3,16-5.9,11.9-8.3c-5.9-3.5-33,4.3-31.6,9.1c0,0.1,0.1,0.2,0.1,0.3
			C64.7,1623.2,77.1,1620.6,81.7,1619.3"/>
		<path class="st2" d="M-21.7,1526.5c6.3-4.3,4.6-8.3,0.7-9.2c-5.8-1.3-18.4,5.5-14.9,11c0.4,0.6,0.9,1,1.1,1.2
			C-30.3,1531.8-24.1,1528.1-21.7,1526.5"/>
		<path class="st2" d="M78,1678.8c6.1-0.8,16.2-2.5,17.4-3.7c-1.6-1.2-27,2.1-30.2,4c-0.1,0.1-0.1,0.1-0.2,0.2l0,0.1
			C66.3,1680.2,76.8,1678.9,78,1678.8"/>
		<path class="st2" d="M98.3,1629.4c11.4-2.9,16-6.5,13.3-8c-4.3-2.3-34.1,3.6-32.9,8.8c0,0.1,0,0.1,0.1,0.2
			C80.9,1633.1,93.6,1630.6,98.3,1629.4"/>
		<path class="st2" d="M9.2,1538.9c7.3-4.3,7.7-9.5,2.8-10.8c-5.8-1.4-22.3,6.5-18.8,12.3c0.3,0.6,0.7,0.9,1,1.1
			C-0.9,1544.7,8.2,1539.5,9.2,1538.9"/>
		<path class="st2" d="M79.4,1682.4c7.9-1.1,14.4-2.5,15.3-3.1c-1.2-0.9-25.5,2.8-28.6,4c-0.1,0.1-0.3,0.1-0.4,0.2
			C67,1684.1,76.5,1682.8,79.4,1682.4"/>
		<path class="st2" d="M40.4,1550.7c8.4-4.7,8-9,3.9-10c-7.2-1.8-27.1,5.8-22.9,12.3c0.2,0.4,0.5,0.6,0.7,0.7
			C26.7,1557,37.1,1552.5,40.4,1550.7"/>
		<path class="st2" d="M112.9,1639c12.4-3,17.4-6.6,15-8.1c-3.7-2.4-34.4,3.8-34,8.9C95.3,1642.3,106,1640.7,112.9,1639"/>
		<path class="st2" d="M72.2,1685.2c7.4-1.1,15.9-2.6,16.8-2.9c-0.6-0.1-23.2,3.2-26.8,4c-0.2,0-0.4,0.1-0.5,0.1
			C62.4,1686.6,70.6,1685.4,72.2,1685.2"/>
		<path class="st2" d="M67.1,1563.8c9.7-4.6,13-10,7.3-11.9c-5-1.6-29.4,6.2-25.9,13.4c0.2,0.4,0.5,0.7,0.7,0.9
			C54.1,1569.8,65.8,1564.4,67.1,1563.8"/>
		<path class="st2" d="M125.5,1647.6c11.3-2.8,15.6-5.7,13.2-7.1c-4.9-2.7-32.8,4.2-33.1,8.2C106.1,1651.1,116,1650,125.5,1647.6"/>
		<path class="st2" d="M-95.3,1454.4c2.6-3.5-0.2-4.7-3.2-4.3c-5.6,0.9-6.4,5.2-3.6,7.2c0.1,0.1,0.2,0.1,0.3,0.2
			C-99.2,1458.6-96.8,1456.4-95.3,1454.4"/>
		<path class="st2" d="M96,1575.1c9.7-4.8,9.2-9.8,4.7-11.2c-8.6-2.8-30.5,8.1-27.6,13.7c0.2,0.4,0.4,0.6,0.5,0.7
			C79,1583,95.9,1575.2,96,1575.1"/>
		<path class="st2" d="M133.9,1655.2c2.5-0.6,15.2-3.7,15.5-6.5c-2.2-2.8-33.5,4.4-34.9,8C114.5,1658.9,127.1,1656.8,133.9,1655.2"
			/>
		<path class="st2" d="M-57.2,1466.5c3.9-4.2,1.9-8.1-2.4-7.9c-5.5,0.2-13.7,6.4-8.7,11.1c0.1,0.1,0.3,0.3,0.6,0.4
			C-64.2,1471.8-59.4,1468.8-57.2,1466.5"/>
		<path class="st2" d="M118.6,1587.7c10.7-4.6,12-8.9,7.7-10.6c-7.5-3.1-33.6,5.9-30.4,12.8c0,0.1,0.1,0.2,0.3,0.4
			C99.6,1593.6,109.9,1591.4,118.6,1587.7"/>
		<path class="st2" d="M-17.2,1479c5.7-6,1.3-9.9-4.4-9.5c-7.1,0.4-16.3,8.4-11.2,13.2c0.3,0.3,0.5,0.4,0.7,0.6
			C-26.8,1486-20.2,1482.1-17.2,1479"/>
		<path class="st2" d="M138.6,1662.1c11-2.6,16.5-5.2,15.3-6.2c-2.3-1.9-30.3,4.7-32.9,7.8C120.1,1665.6,129.4,1664.3,138.6,1662.1"
			/>
		<path class="st2" d="M136.6,1599.8c10.6-3.9,18.7-9.5,13.2-11.8c-8.2-3.5-35.9,7.7-33.6,13.6c0.1,0.1,0.1,0.3,0.2,0.4
			C120,1605.8,134.9,1600.5,136.6,1599.8"/>
		<path class="st2" d="M19.5,1492.8c6.5-6,2-11.6-4.2-11.8c-7.8-0.2-19.7,9.5-13.8,15.6c0,0,0.3,0.3,0.8,0.6
			C10.1,1501.4,19.4,1492.9,19.5,1492.8"/>
		<path class="st2" d="M138.8,1667.7c5.8-1.3,16.8-4.3,17.8-5.9c0-0.1,0-0.1,0-0.1c-2.1-1.1-29.7,5.5-33.2,7.9
			c-0.1,0.1-0.2,0.2-0.2,0.4C124.1,1670.7,133,1669,138.8,1667.7"/>
		<path class="st2" d="M54.6,1506.8c9.1-7.2,4.4-12.1-0.8-12.8c-3.5-0.5-9.1,0.2-16.5,6.1c-4.6,3.7-5.2,7.9-3.5,10.1
			c0.4,0.5,0.7,0.7,1,0.9C40.3,1514.5,49,1511.3,54.6,1506.8"/>
		<path class="st2" d="M158.1,1610c11.4-4.3,15.1-8.8,12-10.5c-6.4-3.6-36.3,7.4-35.2,12.9c0,0.1,0.1,0.3,0.1,0.3
			C137.7,1616.1,151.7,1612.3,158.1,1610"/>
		<path class="st2" d="M137.2,1671.3c7-1.7,15.3-4.1,16.7-5c0,0-0.1-0.1-0.1-0.1c-3.1,0.1-27.5,6.1-31.5,7.8
			c-0.1,0.1-0.3,0.2-0.5,0.3l0,0.1C123,1674.6,131.7,1672.7,137.2,1671.3"/>
		<path class="st2" d="M85.6,1521.6c9.1-5.9,11.4-12.6,4.8-14.2c-8.4-2-29.3,8.2-24.7,16.2c0.5,0.8,1,1.3,1.3,1.5
			C73.2,1529.3,83.6,1523,85.6,1521.6"/>
		<path class="st2" d="M173,1620.4c12.5-4.4,16.8-9,12.9-10.5c-6.7-2.6-36.6,8.5-35.6,13.2C151.9,1626.1,164.8,1623.3,173,1620.4"/>
		<path class="st2" d="M-111.3,1401.2c2.2-4.1-2.3-4.8-2.4-4.8c-0.2,0-2.4,0.7-3.2,2.8c-0.7,1.7-0.3,3.3,0.5,4
			c0.2,0.2,0.4,0.3,0.6,0.4C-113.2,1404.8-111.9,1402.4-111.3,1401.2"/>
		<path class="st2" d="M147.5,1669.2c-5.3,1.5-17.8,4.5-29.8,7.4c-0.2,0-0.5,0.1-0.7,0.1c0.6-0.1,1.2-0.3,1.8-0.4L147.5,1669.2"/>
		<path class="st2" d="M117.1,1534.4c10.6-6.5,10.9-12.4,5.1-14.1c-8.5-2.5-31.5,9.9-27.2,17.2c0.3,0.5,0.6,0.8,0.8,1
			C102.4,1543.3,117,1534.5,117.1,1534.4"/>
		<path class="st2" d="M182.8,1630.3c11.7-4,19.2-8.6,16.7-10.3c-3.6-2.5-36.9,7-37,12.9C163.4,1636,177.4,1632.1,182.8,1630.3"/>
		<path class="st2" d="M-67.9,1412.4c3.6-5.6-1.3-9.2-5.9-8c-5.5,1.4-9.5,8.5-3.7,12c0.1,0,0.1,0.1,0.2,0.1
			C-72.4,1418.9-68.6,1413.5-67.9,1412.4"/>
		<path class="st2" d="M143.8,1549.1c10.1-5.4,16.3-12.7,8.6-15.2c-8.9-2.8-34.2,9.7-30.2,17.6c0.2,0.5,0.5,0.7,0.7,1
			C128.4,1557,142.2,1549.9,143.8,1549.1"/>
		<path class="st2" d="M191.5,1638.5c2.7-0.9,16-5.5,18-9c0-0.1,0-0.1,0-0.1c-0.1-4.7-32.7,6.8-36.6,11c-0.5,0.6-0.6,0.9-0.7,1
			C172.3,1644.2,186.2,1640.2,191.5,1638.5"/>
		<path class="st2" d="M-25,1425.8c4.4-6.1-0.1-11.7-6.5-10.8c-6.4,0.9-14.4,9.8-7.4,15.1c0.3,0.2,0.5,0.3,0.7,0.5
			C-31.2,1434.2-25.1,1425.9-25,1425.8"/>
		<path class="st2" d="M171.9,1561.6c15.1-8.2,11.6-13.5,7.6-14.8c-10.4-3.3-35.3,10.7-31.7,17.9c0.2,0.3,0.3,0.5,0.5,0.7
			C153.1,1569.9,165.9,1564.9,171.9,1561.6"/>
		<path class="st2" d="M16,1441.5c7-7.4,2.3-14.6-4.5-14.7c-7.2-0.1-19.7,10.8-12.3,17.9c0.6,0.6,1,0.8,1.4,1.1
			C7.7,1449.8,15.1,1442.3,16,1441.5"/>
		<path class="st2" d="M196,1645.6c14.1-4.8,19.3-8.4,17.7-9.3c-2.8-1.3-32.6,8.1-35.7,12.5c0,0.1-0.1,0.3-0.1,0.4
			C178.7,1650.9,190.1,1647.6,196,1645.6"/>
		<path class="st2" d="M192.3,1574.8c14.2-6.7,17.3-13.5,11.1-15.4c-8.7-2.7-37.5,10.8-33.9,18.7c0,0.1,0.1,0.1,0.1,0.2
			C171.9,1581.2,181.9,1579.7,192.3,1574.8"/>
		<path class="st2" d="M57.4,1455.4c9.2-9.2,2.4-15-2.9-14.9c-8.3,0.2-25.1,11.3-16.3,19.4c0.3,0.3,0.7,0.5,0.9,0.7
			C47.3,1465.2,57,1455.8,57.4,1455.4"/>
		<path class="st2" d="M197.4,1650.8c8.1-2.8,18-6.9,18.2-8c-1.8-1.3-31.3,8.6-35.5,11.8c-0.1,0.1-0.2,0.2-0.3,0.4
			c0,0,0.1,0.1,0.2,0.2C183.4,1655.5,196.8,1651,197.4,1650.8"/>
		<path class="st2" d="M210.5,1587c13.3-6,20.1-13.3,14.3-15.2c-7.7-2.6-39.2,11-35.8,18.5C192.6,1595,208.7,1587.9,210.5,1587"/>
		<path class="st2" d="M94.5,1471.9c9.6-8.1,8.3-15.7,0.8-16.6c-10-1.2-28.2,11-21.2,19.6c0.6,0.7,1.1,1.1,1.5,1.4
			C83.1,1481,92.6,1473.4,94.5,1471.9"/>
		<path class="st2" d="M194,1654.5c7.9-2.8,17.4-6.3,18.8-7.3c-0.9-0.4-30.8,10.2-34.1,11.8c-0.2,0.1-0.4,0.2-0.5,0.3
			C179.3,1659.5,190,1655.9,194,1654.5"/>
		<path class="st2" d="M132.4,1486c10.7-8.8,5.4-15.4-2.8-16c-11.1-0.8-29.1,12.3-21.2,20.8c0.2,0.2,0.5,0.5,0.6,0.6
			C115.3,1495.7,125.3,1491.8,132.4,1486"/>
		<path class="st2" d="M228.5,1597c12.9-5.9,19.5-12.5,14.4-14.3c-6.5-2.4-39.2,11.5-37.3,18.5C208,1605.3,223,1599.6,228.5,1597"/>
		<path class="st2" d="M-89.7,1354.8c2.2-3.9,2-10.4-3.9-8.6c-4.8,1.5-6.8,8.5-2,11.2c0.1,0,0.2,0.1,0.2,0.1
			C-92.6,1358.7-90.7,1356.7-89.7,1354.8"/>
		<path class="st2" d="M165.3,1501.6c13.4-9.9,8-17.1,1.4-18.2c-12.6-2.1-31.8,14.1-26,21.9c0.3,0.5,0.7,0.7,0.9,0.9
			C148.5,1511.3,160.1,1505.4,165.3,1501.6"/>
		<path class="st2" d="M240.3,1607.1c14.6-6.6,20.2-12.5,16.1-13.8c-4.3-1.3-38.2,11.3-37.9,18.3
			C219.7,1615.4,234.6,1609.7,240.3,1607.1"/>
		<path class="st2" d="M-41.6,1366.6c4-6.3-0.9-11.6-6.9-10.2c-7.6,1.7-12.2,11.2-5.6,15.3c0.1,0,0.2,0.1,0.3,0.2
			C-48.1,1374.3-43,1368.8-41.6,1366.6"/>
		<path class="st2" d="M193.2,1517.3c11.8-7.6,15.5-16.5,7.8-18.7c-10.1-2.9-36.2,12.6-31,21.7c0.4,0.6,0.7,1,1,1.3
			C177.5,1526.9,190.6,1519,193.2,1517.3"/>
		<path class="st2" d="M248.2,1616.1c14.1-6.2,21-12,17.7-13.1c-3.5-1.1-36.6,11.5-38.2,17.9
			C227.9,1624.3,242.5,1618.6,248.2,1616.1"/>
		<path class="st2" d="M4.3,1381.4c5-7.6-1.1-15.6-8.6-14.3c-7,1.2-10.5,9.9-10.5,10c-0.9,2.5-0.3,6.4,3.4,9
			c0.2,0.2,0.6,0.3,0.8,0.5C-3.8,1390.1,2,1385,4.3,1381.4"/>
		<path class="st2" d="M221.7,1530.2c13.4-8.7,14.7-16.7,6.8-18.1c-11.3-2-37.6,14.7-31.8,23.2c0.1,0.1,0.2,0.3,0.3,0.4
			C203.7,1541.7,221.5,1530.3,221.7,1530.2"/>
		<path class="st2" d="M51.4,1396.8c6.3-8.7-2.5-17.7-12-15.6c-8.6,1.9-17.9,15-7.3,21.9c0.1,0.1,0.2,0.1,0.3,0.2
			C42.8,1408.5,51.3,1396.9,51.4,1396.8"/>
		<path class="st2" d="M252.9,1623.1c12.5-5.5,21.5-11.3,19.3-12.3c-2.8-1.3-34.9,12.5-38,17.4
			C233.1,1631.3,247.7,1625.4,252.9,1623.1"/>
		<path class="st2" d="M246.1,1543.8c13.5-8.3,16.1-16,10-18c-9.3-3-39.7,13.8-35.1,22.9c0.1,0.2,0.2,0.4,0.3,0.5
			C227.1,1555.3,246,1543.9,246.1,1543.8"/>
		<path class="st2" d="M94.2,1414.3c8.9-9.6,3.4-17.8-4.7-17.8c-10.8-0.1-25.5,13.4-17.6,22.1c0.2,0.3,0.8,0.8,1.7,1.5
			C83.5,1425.6,93.8,1414.8,94.2,1414.3"/>
		<path class="st2" d="M251.9,1629.2c9.5-4.2,20.1-9.7,20.8-11.3c-2.7-0.9-33.5,13.5-37,16.6c-0.1,0.1-0.3,0.3-0.4,0.5
			C236.3,1635.9,246.6,1631.6,251.9,1629.2"/>
		<path class="st2" d="M265.8,1556.5c13.6-8,18.7-16,11.2-17.7c-9.4-2.2-39.7,15.1-35.5,23.5C246,1568,265.6,1556.6,265.8,1556.5"/>
		<path class="st2" d="M134.6,1431.2c10-9.7,8.6-19.8-2.9-20.5c-10.5-0.6-27.9,15.3-19.5,24.5c0.7,0.7,1.1,1.1,1.7,1.5
			C119.9,1440.8,128.8,1436.7,134.6,1431.2"/>
		<path class="st2" d="M264.1,1625.2c2.5-1.2,4.1-2,4.7-2.3c-1.9,0.6-30,13.2-35.4,16.1c-0.2,0.1-0.5,0.2-0.7,0.4
			c0.9-0.2,4.3-1.7,10.5-4.4L264.1,1625.2"/>
		<path class="st2" d="M-116.8,1291.7c1.1-4.1-1.1-5.7-2-6.4c-3,0.9-4.8,2.2-4.8,2.2c-0.9,2.1-0.9,4.8,1.2,6.1
			c0.1,0.1,0.2,0.1,0.3,0.2c1.2,0.5,2.2,0.4,3.2,0C-118.3,1293.4-117.1,1292.8-116.8,1291.7"/>
		<path class="st2" d="M174.4,1447.4c10.6-9.7,7.3-20.4-2.7-21.1c-11.5-0.8-31.3,16.1-22.4,26c0.5,0.6,0.8,0.8,1.2,1.2
			C160.3,1460.2,173.9,1448,174.4,1447.4"/>
		<path class="st2" d="M281.9,1568.6c13.2-7.6,19.8-15.6,14.4-17.4c-7.3-2.6-40.3,14.8-37.8,23.2
			C261.8,1580.1,281.7,1568.7,281.9,1568.6"/>
		<path class="st2" d="M-65.3,1302.4c3.8-7.3-2.8-9.4-8.8-7.6c-9.5,2.8-6.6,10.5-1.5,13.4c0.1,0,0.2,0.1,0.3,0.2
			C-73.9,1308.9-69.5,1310.5-65.3,1302.4"/>
		<path class="st2" d="M211,1462.5c11.6-10.1,8.4-19-2-19.6c-14.9-1-32.7,17.2-25.3,25.9c0.3,0.4,0.6,0.6,0.8,0.8
			C192.6,1475.5,206.7,1466.2,211,1462.5"/>
		<path class="st2" d="M295.2,1578.9c14.6-8.2,20.3-15.5,16.3-17c-5.9-2.2-39.8,15.6-39,23.3
			C274.1,1589.6,289.4,1582.2,295.2,1578.9"/>
		<path class="st2" d="M-15.1,1316.6c4.3-9-4.3-13.9-11.3-11.4c-7,2.4-13.1,13-3.9,18.1C-23.9,1326.1-17.7,1322-15.1,1316.6"/>
		<path class="st2" d="M243.2,1478.6c12.3-10.3,10.8-19.4,1.2-20.8c-12.5-1.8-37,15.6-28.7,26.9c0,0,0.1,0.2,0.4,0.5
			C223,1490.3,236.3,1484.2,243.2,1478.6"/>
		<path class="st2" d="M303.2,1588.1c14.5-8.1,21.2-15,18.1-16.2c-4.6-1.8-38,15.9-39.3,22.9
			C282.4,1598.8,297.4,1591.3,303.2,1588.1"/>
		<path class="st2" d="M33,1333.8c5.9-9.3-1.9-19-10.8-17c-8.9,2-18,16.1-6.5,23.2c0.1,0.1,0.3,0.2,0.4,0.2
			C25.8,1345,32.7,1334.2,33,1333.8"/>
		<path class="st2" d="M269.1,1495.4c13.7-9.9,17.3-20.5,7.8-22.7c-10.1-2.3-40.3,16.3-32.8,27.6c0.1,0.1,0.2,0.2,0.2,0.3
			C249.6,1505.3,257.9,1503.5,269.1,1495.4"/>
		<path class="st2" d="M81.3,1350.9c8.8-12.1,0.3-20.8-7.5-19.8c-9.8,1.3-25.2,15.1-12.6,25c0.5,0.4,1,0.7,1.3,0.9
			C72.4,1362.2,79.9,1352.8,81.3,1350.9"/>
		<path class="st2" d="M307.7,1595.5c12.5-7,20.9-14.1,18.9-14.7c-3.4-1.1-35.6,15.9-38.7,22c-1.1,3.4,13.2-3.8,13.8-4.1
			C303.6,1597.7,305.6,1596.6,307.7,1595.5"/>
		<path class="st2" d="M295.4,1508.5c15.3-11.4,15-20.2,8.1-21.5c-11.3-2.1-40.2,18.9-34,28.4c0,0.1,0.1,0.2,0.2,0.3
			C276.3,1522.6,295.2,1508.7,295.4,1508.5"/>
		<path class="st2" d="M129.3,1367.6c10.5-13.3-0.7-21.9-10.8-20.7c-12.1,1.4-24.2,18.5-12.6,27.4c0.2,0.2,0.5,0.4,0.8,0.5
			C118.2,1381.4,129.2,1367.8,129.3,1367.6"/>
		<path class="st2" d="M305.2,1602.3c10-5.6,22.2-13.5,22.9-15.1c-2.4-0.9-34.6,18.1-38.6,22c-0.1,0.2-0.3,0.4-0.4,0.6
			C290.4,1610.7,304.6,1602.6,305.2,1602.3"/>
		<path class="st2" d="M173.9,1386.1c10.5-12.2,1.6-22.9-9.3-22c-12,1-28.6,18.2-16,28.6c0.3,0.2,0.6,0.5,0.8,0.6
			C161,1400.5,172.6,1387.6,173.9,1386.1"/>
		<path class="st2" d="M316.3,1522.7c16.2-11.1,17.9-20.8,11.2-21.8c-10.2-1.4-41.3,18.3-35.7,28.4
			C296.9,1535.8,316.1,1522.8,316.3,1522.7"/>
		<path class="st2" d="M323.2,1592.6l-36.6,21.1c-0.3,0.1-0.6,0.3-0.9,0.5c0,0,0.1,0,0.1,0L323.2,1592.6"/>
		<path class="st2" d="M-98.3,1236.4c2.2-6-3.8-7.9-7.6-6.2c-4.7,2-3.7,8.4-0.4,10.1C-100.5,1242.3-99.1,1238.6-98.3,1236.4"/>
		<path class="st2" d="M216.4,1402.4c10.4-12.3,1.9-22.5-9.1-21.7c-13.3,0.9-30.3,19.6-18.5,29.5c0.1,0.1,0.2,0.2,0.3,0.3
			C197.6,1416.3,209.3,1410.8,216.4,1402.4"/>
		<path class="st2" d="M334,1534.4c15.9-11.2,18.7-20.3,12.8-20.9c-9-1-40.5,19.2-37.1,28.7C313.6,1548.7,333.8,1534.6,334,1534.4"
			/>
		<path class="st2" d="M-44.7,1249.7c3.5-7.6-3.2-13.5-9.9-11c-8,2.9-10.8,13.2-2.6,17.3C-50.6,1258.6-45.9,1252.2-44.7,1249.7"/>
		<path class="st2" d="M251.9,1420.7c13.5-12.9,8.4-24-2.1-24.2c-14.5-0.2-34.5,20.9-25,30.9c0.3,0.3,0.5,0.5,0.7,0.7
			C236,1435.6,251.7,1420.8,251.9,1420.7"/>
		<path class="st2" d="M346.3,1545.8c14.6-9.8,20.4-18.9,15.9-20.4c-6.6-2.2-40,19.2-38.7,28.1
			C325.4,1558.5,340.6,1549.7,346.3,1545.8"/>
		<path class="st2" d="M7.2,1265.5c5.3-10.2-1.6-18.4-10.1-16.1c-8.4,2.3-16.4,15.4-5.3,21.9c0.2,0.1,0.3,0.2,0.5,0.3
			C1.1,1275.6,5.9,1268,7.2,1265.5"/>
		<path class="st2" d="M285.7,1437.8c13.1-12.7,11.1-24.3,0.3-24.6c-13.4-0.4-37.4,21.1-27.3,32.1c0.1,0.1,0.3,0.3,0.4,0.4
			C269,1453.7,285,1438.4,285.7,1437.8"/>
		<path class="st2" d="M355.1,1555.2c14.7-10.1,21.3-18.5,18.1-19.7c-4.9-1.8-38,19.8-39.1,28.1
			C334.6,1569.2,354.9,1555.3,355.1,1555.2"/>
		<path class="st2" d="M60.7,1281c5.6-10.1-1.7-19.6-12.7-16.7c-12.5,3.3-18.4,17.4-7,24.3c0.1,0.1,0.3,0.1,0.3,0.2
			C51.1,1293.5,58.6,1284.8,60.7,1281"/>
		<path class="st2" d="M316.8,1453.5c15.2-13.9,11.8-24.8,2.2-25c-12.6-0.3-38.7,22.6-29.2,33.2
			C298.8,1469.8,316.1,1454.2,316.8,1453.5"/>
		<path class="st2" d="M113.1,1299c7.2-11.6-5.1-21.4-15.8-19.5c-10.2,1.9-21.1,18.1-8.4,27c0.3,0.2,0.6,0.4,0.9,0.6
			C103.3,1313.8,112.1,1300.5,113.1,1299"/>
		<path class="st2" d="M359.2,1562.8c12.7-8.7,20.5-16.5,19.9-18.2c-3.8-1.7-36.6,21.2-39.3,27.5c-0.7,2.4,4.5-0.1,9-2.7
			C351.8,1567.7,355.7,1565.2,359.2,1562.8"/>
		<path class="st2" d="M342.4,1468.9c15.4-13,14.6-24,6.5-25.1c-12.6-1.6-40.8,22.9-33.1,33.3
			C323.4,1484.8,342.3,1469.1,342.4,1468.9"/>
		<path class="st2" d="M160.9,1319.2c10.5-13.9,1.6-25.4-9.5-24.2c-12.6,1.3-28.2,19.1-14.2,30.4c0.5,0.4,1,0.7,1.3,0.9
			C149.8,1332.7,159.1,1321.5,160.9,1319.2"/>
		<path class="st2" d="M357.9,1568.8c8.6-6,21.3-15.6,21-16.9c-3.4,0.7-32.4,20.8-37.9,26.8c-0.1,0.2-0.3,0.5-0.4,0.7
			C342.3,1579.7,356.3,1570,357.9,1568.8"/>
		<path class="st2" d="M364.3,1483.9c13.5-11.2,17.8-23.6,8.7-24.9c-12.2-1.8-40.7,22.4-34.5,33.2
			C343.1,1498,356.7,1490.2,364.3,1483.9"/>
		<path class="st2" d="M209.7,1337.5c11-14.6-0.5-26.6-13.2-24.2c-12.7,2.4-27.6,21.9-12.8,32.5
			C196.7,1353.9,208.4,1339.3,209.7,1337.5"/>
		<path class="st2" d="M371.7,1559.3c-11.3,8.5-28.2,20.1-32.7,23.1L371.7,1559.3"/>
		<path class="st2" d="M-80.3,1179.3c3.4-8.3-4.2-9.8-9.7-7.6c-8.3,3.5-4.3,10.9,0.9,13.5C-84.5,1186.9-81.8,1182.9-80.3,1179.3"/>
		<path class="st2" d="M251.7,1355.9c12.6-15.4,3.1-26.5-7.1-25.7c-13,1.1-34,22.4-19.9,34.1c0.1,0.1,0.3,0.2,0.4,0.3
			C237.7,1372.7,251.1,1356.6,251.7,1355.9"/>
		<path class="st2" d="M382.4,1496.2c13.3-11.1,18.9-23.3,11.4-24.8c-10-1.9-40.1,22.9-36.1,33.3
			C360.5,1509.7,372.7,1504.3,382.4,1496.2"/>
		<path class="st2" d="M-24.6,1193.4c3.1-8.9-6.1-15.9-13.4-12.7c-6.6,2.9-11.1,14.4-0.3,19.8C-28.7,1204.6-24.6,1193.6-24.6,1193.4
			"/>
		<path class="st2" d="M291.5,1375.3c10.4-12.2,9.6-29.3-4.8-28.3c-18.1,1.2-33.6,25.9-22.3,35.8c0.1,0.1,0.2,0.1,0.2,0.2
			C274.1,1389.9,286.8,1380.8,291.5,1375.3"/>
		<path class="st2" d="M394.2,1508.7c12.4-10.4,22.5-24.8,15.8-25.3c-8.9-0.6-39.4,24.4-37.5,33.6
			C375.4,1524.3,394,1508.8,394.2,1508.7"/>
		<path class="st2" d="M31.4,1211c4.1-9.3-6-21.1-15.5-18.1c-7,2.3-17.2,16.9-2.4,24.7C25,1222.9,31.4,1211.1,31.4,1211"/>
		<path class="st2" d="M326.8,1392.9c14.4-15,9.7-27.9-0.8-28c-15-0.2-39,23.7-26.5,36.3c0.1,0.1,0.2,0.2,0.3,0.3
			C310.4,1409.8,326.2,1393.6,326.8,1392.9"/>
		<path class="st2" d="M402.3,1518.8c12.1-10.1,23.6-24.3,18.3-24.4c-6.9-0.1-37.2,24.9-37.9,33.3
			C383.6,1534.3,402.1,1518.9,402.3,1518.8"/>
		<path class="st2" d="M84.5,1227.8c6.3-11.9-1.2-23.9-12.9-20.8c-11.3,3-21.2,19-6.4,27.7c0.1,0.1,0.3,0.2,0.4,0.2
			C77,1240.5,83.4,1230,84.5,1227.8"/>
		<path class="st2" d="M357.1,1410.1c14-14.5,15.1-29.3,2.1-29.4c-11.8-0.1-40.1,24.9-28,38.2
			C340.1,1426.7,354.3,1412.9,357.1,1410.1"/>
		<path class="st2" d="M139.9,1245.6c9.1-16-6.4-25.8-17.5-22.7c-11.4,3.1-21.3,21.8-5.7,31.4
			C130.7,1261.5,139.8,1245.7,139.9,1245.6"/>
		<path class="st2" d="M408.5,1524.6c13.7-11.6,21.1-21.1,18.2-21.3c-4.4-0.2-34.7,25.1-37.7,33c-0.1,0.3-0.1,0.7,0,1
			C391.1,1538.5,402.2,1529.8,408.5,1524.6"/>
		<path class="st2" d="M387.7,1424.1c12.3-13.6,10.5-28.1,0.1-27.6c-13.7,0.6-36.7,27.4-28.6,38
			C369.4,1443.7,387.5,1424.3,387.7,1424.1"/>
		<path class="st2" d="M192.7,1266.7c8.6-13.8-2.8-28.6-16-26.3c-12.8,2.3-26.2,23.2-9.6,34.5c0.2,0.1,0.3,0.2,0.5,0.3
			C182,1283.4,192.3,1267.4,192.7,1266.7"/>
		<path class="st2" d="M406.1,1531.4c8.3-7.1,20.6-18.2,21.6-20.5c-2.2-0.3-33.7,27.4-37.7,32.4c-0.2,0.2-0.4,0.5-0.4,0.7
			C391.3,1544,403.6,1533.5,406.1,1531.4"/>
		<path class="st2" d="M408.7,1439.3c15.9-16.3,15.2-28.8,6.2-28.4c-11.9,0.6-39.5,27.5-32.1,39.2
			C389.7,1458.5,407.9,1440.1,408.7,1439.3"/>
		<path class="st2" d="M242.2,1285.3c10.6-16-2.5-29.2-15.9-26.6c-13.4,2.6-28,24.1-11.5,35.7
			C226.9,1301.7,237.7,1292.1,242.2,1285.3"/>
		<path class="st2" d="M-123.1,1108.4c1.4-4.8-3.6-6.7-5.3-5.9c-1.6,0.7-4.4,6.5,0.4,8.7c1.7,0.6,2.9,0.2,2.9,0.2
			S-123.6,1110.3-123.1,1108.4"/>
		<path class="st2" d="M411.3,1527.1c-5.2,4.6-10.9,9.5-16.8,14.3L411.3,1527.1"/>
		<path class="st2" d="M-63.8,1120.4c3.6-9.1-6.1-10.8-12.6-7.7c-8.9,4.2-3.7,12,2,14.7C-72.6,1127.9-67.4,1129.6-63.8,1120.4"/>
		<path class="st2" d="M428.4,1451.7c13.7-14,15.3-26,9.2-26.4c-10.3-0.7-40.9,26.4-35.3,38.9C407,1473.1,428.2,1451.9,428.4,1451.7
			"/>
		<path class="st2" d="M287.3,1305.6c11.7-16.5-0.7-31.5-14-29c-14.7,2.8-28.6,26.8-14.1,37.9
			C270.1,1321.7,281.1,1314.1,287.3,1305.6"/>
		<path class="st2" d="M-4.9,1135.1c3.2-10.1-7.1-17.7-15.3-14.1c-6.6,3-13,15.6,0,22C-9,1147.6-4.9,1135.2-4.9,1135.1"/>
		<path class="st2" d="M329.1,1322.9c11.6-16.4,2.7-29.3-9.2-27.8c-15.6,1.9-34.4,27.1-20.1,39.2
			C311.4,1342.4,325.2,1328.4,329.1,1322.9"/>
		<path class="st2" d="M441.4,1464.3c11.6-11.8,19.6-26.6,12.1-26.3c-10.6,0.3-38.1,27.8-35.5,38.4
			C420.2,1482.1,433.3,1472.5,441.4,1464.3"/>
		<path class="st2" d="M53,1151.6c5.2-11.6-6-20.6-16.4-16.7c-11.4,4.3-14.9,18.9-2.8,25.3C44.3,1164.9,51.3,1155.6,53,1151.6"/>
		<path class="st2" d="M364.5,1344c10.5-13.7,11.4-34.5-6-32.4c-16.7,2.1-32.5,30.6-22.2,40.2C349.2,1361.9,361.1,1348.4,364.5,1344
			"/>
		<path class="st2" d="M449.7,1474.3c11-11.2,20.2-25.1,15.3-25.4c-7.7-0.4-36.4,27.8-36.4,38.2
			C429.2,1492.3,441.6,1482.5,449.7,1474.3"/>
		<path class="st2" d="M109.1,1170.6c6.8-13.7-4.8-25.3-16.7-21.3c-12.5,4.3-19.4,21.5-4.7,29.8
			C101.5,1185.7,108.8,1171.3,109.1,1170.6"/>
		<path class="st2" d="M398.8,1359.5c12.4-16,8-31.6-4.5-30.6c-14.3,1.2-36.5,29.1-24.4,42.2
			C378.6,1378.6,391.9,1368.2,398.8,1359.5"/>
		<path class="st2" d="M452.2,1483.4c14.4-14.7,21.3-25.4,17.9-25.1c-4.7,0.5-32.9,29.2-35.5,37.7c0,0.3-0.1,0.8,0,1.2
			C437.2,1498.6,449.7,1486,452.2,1483.4"/>
		<path class="st2" d="M164.7,1190.7c8.9-15.9-3.2-29.8-17.1-25.4c-12.2,3.9-22.3,23.4-5.6,33.4
			C155.5,1205.6,163.3,1193.2,164.7,1190.7"/>
		<path class="st2" d="M426.2,1375.7c14.4-17.6,11-32.6-2-30.4c-15.4,2.6-35.1,31.1-25.8,42.8C406.4,1396,421.2,1381.8,426.2,1375.7
			"/>
		<path class="st2" d="M220.3,1210.8c9.9-17.1-7-31.5-20.4-27.4c-11.9,3.6-24.9,24-5.7,36.3C209.3,1228.1,218.6,1213.8,220.3,1210.8
			"/>
		<path class="st2" d="M451,1489c7.9-8.1,20-21.4,21.2-23.9c-1.7-0.2-32.1,32.1-36.2,37.8c-0.1,0.2-0.4,0.6-0.5,0.8
			C436.9,1503.5,448.7,1491.5,451,1489"/>
		<path class="st2" d="M449.2,1391.6c15.4-18.2,13.7-32.5,4.5-31.9c-13.7,1-37.8,32.1-30.1,44C431.3,1412.5,449,1391.8,449.2,1391.6
			"/>
		<path class="st2" d="M270.8,1230.6c10.4-18.4-3.2-32.5-16.2-28.3c-12.7,4-28.8,26.1-10.6,39
			C259.4,1250.3,270.3,1231.4,270.8,1230.6"/>
		<path class="st2" d="M-108.4,1046.3c1.1-4.6-4.8-6.9-8.1-5c-3.3,1.8-2.5,7.9,1.2,9.6C-110.9,1052.1-108.9,1048-108.4,1046.3"/>
		<path class="st2" d="M-47.1,1060.2c4-10.7-6.2-12.5-13.3-9.5c-10.4,4.5-5.4,13.4,1.2,16.5C-53.9,1069.3-49.6,1066.8-47.1,1060.2"
			/>
		<path class="st2" d="M468.8,1405c14-17.2,14.8-31.2,5.5-30.2c-12,1.3-36.1,32.1-30.7,43.5C447.4,1423.7,458.2,1418,468.8,1405"/>
		<path class="st2" d="M319.7,1250c8.7-14.6,1-33.6-15.9-28.7c-18.2,5.3-28.7,28.3-13.6,39.7C301.4,1268.4,314.4,1258.8,319.7,1250"
			/>
		<path class="st2" d="M11.9,1077.2c5.6-13.1-6.9-20.4-14.5-17c-7.7,3.4-12.5,18.1-0.3,24.2C6.6,1088.3,11.1,1079.1,11.9,1077.2"/>
		<path class="st2" d="M481.6,1417.3c3.6-4.4,15.3-19.5,14.1-28.3c-0.1-0.3-0.1-0.3-0.1-0.3c-4.6-10-29.9,20.5-35.1,34.3
			c-1.8,4.6-1.5,7-1.1,8.5C463.1,1439.7,481.4,1417.5,481.6,1417.3"/>
		<path class="st2" d="M360.5,1270.1c12.7-20.4,0.3-33.8-10.7-31.3c-15.1,3.5-33.8,29-17.2,42.9
			C346.9,1291.6,360,1270.9,360.5,1270.1"/>
		<path class="st2" d="M72.4,1092.1c4.8-12.2-5.3-22.8-17.1-18c-12.4,5-15.6,20.2-2.1,27.3C66.4,1107.1,72.3,1092.2,72.4,1092.1"/>
		<path class="st2" d="M399.1,1289.5c12.8-19.3,4.2-34.5-8.3-32.7c-15.6,2.2-34.6,31.4-20,44.7
			C384.1,1311.7,398.9,1289.8,399.1,1289.5"/>
		<path class="st2" d="M491,1427.1c11.8-14.5,18.9-29.5,14-29.7c-6.7-0.2-34.6,33.6-34.3,44.5C471.7,1447,482,1438.2,491,1427.1"/>
		<path class="st2" d="M131.5,1111.5c8.4-17-9.2-27-20.2-23.1c-10.9,3.8-18.5,23-2,32.3C123.5,1127.4,131.1,1112.2,131.5,1111.5"/>
		<path class="st2" d="M432.8,1307.8c14.1-20,6.9-36.1-5.3-34.1c-14.6,2.4-34.7,33-22.1,46.1
			C417.2,1329.7,432.2,1308.7,432.8,1307.8"/>
		<path class="st2" d="M495.1,1434.4c9.9-12.4,17.7-24.9,16.9-27.3c-3.7-1.7-32.9,35-35.1,44.1c-0.1,0.7-0.3,2.2,2.4,0.2
			C482.6,1449,488.8,1442.3,495.1,1434.4"/>
		<path class="st2" d="M187.5,1132.2c9.6-18.5-5.8-30.4-17.3-27.2c-12,3.3-25.6,24.2-5.8,36.1
			C178.4,1148.1,186.1,1134.9,187.5,1132.2"/>
		<path class="st2" d="M462.2,1324.8c11.4-17,8.5-38.1-4.7-34.6c-14.3,3.7-33.3,34.3-22.3,47.6C446.2,1348,462,1325.1,462.2,1324.8"
			/>
		<path class="st2" d="M246.8,1150.5c6.9-16.8-11.1-31.8-25.2-25.9c-9.2,3.8-23.2,24.1-3.1,36.9
			C231.8,1169.1,242.5,1161.1,246.8,1150.5"/>
		<path class="st2" d="M505.6,1424.3c4.5-6.1,5.7-8,6.2-9c-2.2,0.7-30.2,37.1-33.8,42.9c-0.2,0.3-0.4,0.6-0.5,0.9
			c0.3-0.1,0.8-0.2,8-9L505.6,1424.3"/>
		<path class="st2" d="M486.2,1339.9c12.9-18.9,11-36.6,0.1-34.4c-13.7,2.8-34.4,36.5-26.3,48.4
			C466.3,1361.4,479.4,1350,486.2,1339.9"/>
		<path class="st2" d="M297.8,1173.4c4.6-9.2,4.9-21.3-4.4-27.7c-0.1-0.1-0.1-0.1-0.1-0.1c-18.1-10.6-35.3,12-30.9,27.5
			c1.6,5.5,5.5,9.1,8.4,11.1C287.2,1193.7,296.8,1175.5,297.8,1173.4"/>
		<path class="st2" d="M-93.7,986.1c1.7-4.9-4.9-9-9.1-7c-2.5,1.2-3.5,4.7-3.3,5.9c0.4,3,4.9,5.1,4.9,5.1
			C-95.8,991.9-93.8,986.3-93.7,986.1"/>
		<path class="st2" d="M-32,1000.9c3.1-9.4-5.6-15.9-12-13.7c-2.9,1-6.8,7-6.9,11.8c0,1.3-0.2,4.4,6.2,7.5c4.4,1.8,6.7,1,6.7,1
			C-37.4,1007.3-33.6,1005.5-32,1000.9"/>
		<path class="st2" d="M505,1353.4c11.1-16.1,15.9-36.8,5.5-34.7c-11.9,2.4-36.3,35.7-29.3,49.6C486.1,1375.5,498.4,1363,505,1353.4
			"/>
		<path class="st2" d="M344.5,1195.4c12.9-22.2-2-36.6-14.3-33.7c-15.1,3.6-30.9,29.6-11.9,44
			C332.4,1214.6,342.6,1198.7,344.5,1195.4"/>
		<path class="st2" d="M30.9,1015.6c4-9.8-8.9-21.3-18.7-16.7c-6.9,3.3-12.5,17.3,0.8,23.6C25.8,1027.5,30.8,1015.7,30.9,1015.6"/>
		<path class="st2" d="M518.2,1367.1c14.9-21.8,15.2-36.1,8.2-34.7c-9.5,1.8-32.8,37.8-29.1,49.2
			C500.5,1387.9,510.4,1378.5,518.2,1367.1"/>
		<path class="st2" d="M389,1215.1c12.8-22.3,1.5-38.5-12.3-35.3c-15.1,3.6-32.3,31.6-14.2,46.4C376,1235.4,386.2,1220,389,1215.1"
			/>
		<path class="st2" d="M90.9,1032c4.8-13.5-7.4-24.3-17.7-19.5c-10,4.7-17.7,20.5-1.6,28.9C85.3,1047.3,90.7,1032.6,90.9,1032"/>
		<path class="st2" d="M430.8,1232.5c10.8-22.1-1.2-37.7-14.1-33.9c-17,5.1-29.2,34.6-15.4,47.1
			C412.3,1253.8,424.7,1245,430.8,1232.5"/>
		<path class="st2" d="M529,1374c13.1-20.5,14.1-31.5,9.1-29.8c-8.5,2.9-30.3,38.8-29.6,48.7C510.1,1399,520.2,1387.7,529,1374"/>
		<path class="st2" d="M150.6,1050.6c6.8-16.5-8.6-27.6-20.3-23.1c-12,4.6-17.6,24.8-2.2,33.1
			C143.4,1067.6,150.4,1051.3,150.6,1050.6"/>
		<path class="st2" d="M464.3,1251.3c12.4-22.4,1.6-38.3-11.5-34.4c-13.3,3.9-30.9,33.7-16.6,48.2
			C444.3,1272,456.1,1266.2,464.3,1251.3"/>
		<path class="st2" d="M531.4,1383.4c8.8-13.6,19.4-32.7,15.4-31.8c-4.2,1-29.3,38.3-31.8,51c0,0.2,0,0.6,0,0.8
			C517.5,1404.5,530,1385.5,531.4,1383.4"/>
		<path class="st2" d="M209.6,1072c8.1-17.3-6.2-32.8-20.4-27.7c-12.5,4.5-21.7,26-3.3,36.7C200.9,1088.6,208.2,1074.8,209.6,1072"
			/>
		<path class="st2" d="M493.3,1268.1c13-23.3,6.1-39.3-4.9-36.6c-13.7,3.3-32.6,38-20.8,51.9C478.7,1294,492.7,1269.2,493.3,1268.1"
			/>
		<path class="st2" d="M269.6,1091.5c6.7-17.3-13.5-34.1-27.9-28c-9,3.8-20.8,26.7-0.9,39C257,1110.6,266.5,1099.4,269.6,1091.5"/>
		<path class="st2" d="M524.2,1397.8l21.1-33.9c1-1.7,1.4-2.4,1.7-3.2c-2.2,1.5-27.6,42.3-30.6,47.9c-0.2,0.3-0.3,0.7-0.5,1
			c0.7-0.7,0.7-0.7,2.3-3L524.2,1397.8"/>
		<path class="st2" d="M518.1,1284c12.6-23,8.5-40.5-3.7-36.4c-14,4.8-30.6,39-21.6,51.6C499.2,1306.8,510.9,1297.2,518.1,1284"/>
		<path class="st2" d="M321.8,1114.2c8.9-20.1-10.4-37.1-24.1-32c-12.9,4.8-22.8,30.1-4.1,42.8
			C307.4,1133,317.4,1124.2,321.8,1114.2"/>
		<path class="st2" d="M-79.1,922.7c2.1-6.6-5.4-7.5-9.7-5.1c-5.8,3.2-1.8,9.1,1.7,10.7C-82.9,929.7-80.2,926.2-79.1,922.7"/>
		<path class="st2" d="M537.1,1298.3c11.8-21.3,10.9-39.1,1.6-37c-11.1,2.6-32.1,39.6-24.5,54.2
			C520.2,1323.8,531.4,1308.6,537.1,1298.3"/>
		<path class="st2" d="M-15.9,937.3c3.7-11.2-7-14.8-15.4-10.5c-9.9,5-4.9,14.3,1.5,17.3C-22.2,946.8-17.3,941.5-15.9,937.3"/>
		<path class="st2" d="M370.9,1134.1c9.7-22.1-6.5-38.2-20.4-32.7c-14.5,5.7-23.8,33.1-7.1,45.2
			C360.5,1157.3,370.5,1135.1,370.9,1134.1"/>
		<path class="st2" d="M46.1,953.5c4.1-12.5-6.7-20.9-16.3-16.2c-9.3,4.6-12.7,18.4,0.3,24.6C41.4,966.5,45.6,954.9,46.1,953.5"/>
		<path class="st2" d="M623.4,1095.3c0,0.5,0.1,1.1,0.2,1.6c-1.8,0.7-3.6,5.2-6.9,17.8c1.3-12.2,0.9-20.1-1.5-27.3
			c2.3,0.2,5.2-2.3,8.4-24.1C622.4,1074.6,622.1,1083.9,623.4,1095.3 M618.5,1168.1c0,0.4-0.1,0.9-0.1,1.3
			c-1.2,0.7-3.1,5.9-6.9,17.4c2.3-10.1,3.2-17.2,3.3-25.9c1.4-1,3.4-4.2,7.1-19.7C620.1,1151.8,619.3,1158.5,618.5,1168.1
			 M611.9,1157.8c0,0.4,0,0.9,0.1,1.2c-2.2,1.3-4.3,6.3-8.9,17.2c2.1-10.4,2.5-17.6,1.4-25.4c2.1-0.1,4.3-3,8.8-17
			C612.6,1138.6,611.3,1147.5,611.9,1157.8 M599.9,1146.7c0.1,0.5,0.1,1.1,0.2,1.6c-3.2,0.6-5.9,6.3-11.8,19
			c2.9-14.1,2.4-23.1-1.8-31.1c3.4,2.3,7.7,1.8,14.4-19.1C598.9,1128.2,598.7,1135.4,599.9,1146.7 M600.9,1230.8
			c0,0.4-0.1,0.8-0.2,1.2c-1.7,0.6-4.9,7.7-11.9,23.9c5.3-14.2,7.5-23.2,7.3-30.1c3.2-3.7,6-9.2,9.7-19
			C603.5,1216.2,602.2,1222.3,600.9,1230.8 M594.1,1221.4c0,0.4,0,1,0,1.4c-2.5,0.3-5.6,6.1-12.7,20.1c4.3-12.6,5.6-21.1,4.6-29.5
			c3.7-1.2,7.2-6.6,12-17.9C595.4,1205.2,594.4,1211.8,594.1,1221.4 M582.6,1209.7c0.1,0.4,0.2,1,0.3,1.4c-3.7,0-7.8,6.1-15.4,19.6
			c4.4-12.9,4.9-21.4,2.1-31.2c3.4,0.7,7.9-1.1,15.7-19.9C583.7,1185.6,580.5,1198.4,582.6,1209.7 M601.6,1239.5
			c-0.2,0.4-0.7,1.7-0.5,1.3c-1.8,4.8-2.5,6.4-6.6,17c-0.9,2.2-2,5.1-2.8,7.3c47.1-126.5,42.7-218.3,42.5-218.9
			c-6.1,26.4-4.4,53.6-9.6,80.1c8.4-82.1,8.4-82.1,5-89.4c-0.5,0.1-1.2,0.2-1.7,0.3c-2,4.3-2.8,8.7-4.5,24.8
			c0.6-6.2,2.1-26.9-4-35.5c-0.8-0.1-1.9-0.2-2.7-0.3c-3,3.6-4.2,7.9-6,22.2c0.7-27.7-3.1-34.1-9.3-35.4
			c-11,12.7-10.9,50.6-4.1,59.5c8,10.4,11.9-14.3,13.2-22.5c-1.1,20.2-0.5,28,2.8,36.1c-4.2,2.3-6.2,4-10.8,21.9
			c3.7-30.9-5.2-32.7-6.2-32.8c-8.3-0.9-22.1,39.4-10.3,61.3l0,0l0,0l0,0l0,0c0,0,0,0,0,0l0,0l0,0l0,0c-7.2-0.4-11.1,4.8-18.3,24.4
			c9-33-5.6-37.1-5.8-37.1c-13.3-2.3-26.2,38.1-17.8,55.5c1.6,3.2,10,17.4,23.2-17.5c-5.2,23.4-3.9,29.4,0,36.8
			c-16.7,1.9-29.1,43-25.1,56.1c1.2,4,6.4,14.9,21.1-13.3c-6.8,22.4-5.1,26.6-3.3,31.1c-10.5,1.1-24.9,28.1-29.7,49.7
			c0.2,2.3,0.1,5.5,1.3,7.5c9.1,1.1,32.7-31.4,29-55.9c5.3-0.7,9.3-5.7,16.7-20.2c-5.3,15.6-6.8,22.3-6.6,29.7
			c-10.3,5.5-29.2,45-28.9,56.9c0.6,0.4,1.4,1,1.9,1.4c18-14.8,19.2-38.3,29.6-57.2c1.7-3.1,4.7-5.2,6.4-8.3c3.1-5.8,3.9-7.6,6.8-14
			c-5.3,13.9-7.7,22-8.3,28c0.5,0.2,1.1,0.6,1.6,0.8c3.1-4.7,5.4-9.7,11.3-24.3c-4,10.6-8.5,21-12.3,31.6l0.2-0.4
			C586.4,1280.8,594.9,1257.1,601.6,1239.5"/>
		<path class="st2" d="M416.8,1154c8.1-20.8-7.1-39.6-21.4-33.2c-14,6.2-23.2,34.3-7.5,46.9C400,1176.3,411.6,1167.3,416.8,1154"/>
		<path class="st2" d="M110.3,969.2C115,953.6,97,944.6,87,950.8c-9.1,5.7-12,21.3,1.9,28.5C100.2,984.1,107.8,977.7,110.3,969.2"/>
		<path class="st2" d="M455.1,1174.1c10.6-23.7-1.6-40.2-14.4-35.9c-15.1,5-28.1,36.7-12.4,50.4
			C443.3,1199.9,454.6,1175.2,455.1,1174.1"/>
		<path class="st2" d="M169.6,989.1c6.3-16.2-9-29.1-21.6-23c-11.9,5.8-16.8,24.2-0.8,32.8C162.8,1006.2,169.3,989.9,169.6,989.1"/>
		<path class="st2" d="M490.9,1192.8c10.9-23.6-0.3-42.1-12.8-37.8c-15.3,5.3-26.8,39.6-13.9,52.4
			C475.6,1216.8,486.6,1201.9,490.9,1192.8"/>
		<path class="st2" d="M563.4,1328c5.6-10.8,15.3-31.8,13.4-33.9c-5.3,1.8-26.6,43.2-28.2,54.7c0,1,0,1,0.4,1.4
			C552.5,1348.6,560.9,1332.8,563.4,1328"/>
		<path class="st2" d="M229.5,1009.6c6.9-17.8-9.5-32.6-23.2-26.1c-13.1,6.2-18.7,26.6-1.3,36.6
			C221.9,1028.5,229.1,1010.4,229.5,1009.6"/>
		<path class="st2" d="M520.7,1209.9c11.2-25.1,1.8-42.2-10-38c-14.2,5.1-26.8,40.7-15.6,53.7
			C503.2,1233.6,514.4,1223.9,520.7,1209.9"/>
		<path class="st2" d="M288.1,1029.8c7.3-19.7-12.6-36.3-27.6-28.6c-11.5,5.9-18.5,28,0.5,39.7
			C274.2,1048.1,284.1,1040.5,288.1,1029.8"/>
		<path class="st2" d="M577.2,1301.8c0.1-0.2,0.2-0.4,0.2-0.6c-1.6,2.1-23.6,46-27,53.3c-0.1,0.3-0.3,0.7-0.5,1.1
			c0.1-0.2,0.3-0.4,0.4-0.6C558.5,1339,569.9,1318.1,577.2,1301.8"/>
		<path class="st2" d="M545,1225.4c11.8-26.1,4.7-42.1-6.1-38.2c-13.5,4.8-27.5,42.1-17.7,55.5
			C527.4,1249.5,537.4,1242.2,545,1225.4"/>
		<path class="st2" d="M342.8,1052.2c8.5-23.7-14-37.5-26.9-31.8c-13.3,5.9-18.7,31.3-1.3,43C328.4,1071.2,338.9,1063,342.8,1052.2"
			/>
		<path class="st2" d="M-65,860.9c2.2-6.5-5.5-7.5-9.8-5.1c-5.9,3.2-1.9,9.1,1.6,10.6C-68.9,867.8-66.1,864.3-65,860.9"/>
		<path class="st2" d="M0,874.9c3.7-11.2-7.1-14.7-15.5-10.5c-10,5.1-4.9,14.3,1.5,17.3C-6.3,884.4-1.4,879.1,0,874.9"/>
		<path class="st2" d="M392.9,1072.5c7.6-20.4-8.9-39.1-23.5-32.9c-17.1,7.2-19.9,35.3-4.7,46.3
			C377.6,1094,389.1,1082.7,392.9,1072.5"/>
		<path class="st2" d="M62.1,892.2c5-12.4-5-21.7-15-17.8c-10,3.9-13.9,18.8-0.6,25.1C56.7,903.5,61,894.9,62.1,892.2"/>
		<path class="st2" d="M436.6,1092.5c8.8-23.1-4.8-41.7-19.7-34.8c-15.1,7-23.8,35.4-6.5,49C426.7,1117.6,436.2,1093.5,436.6,1092.5
			"/>
		<path class="st2" d="M126,907c4.4-15.6-13.7-24.5-23.5-18.3c-8,5.1-12.6,21,2.3,28.5C116.1,922,123.6,915.6,126,907"/>
		<path class="st2" d="M477,1112.2c8.9-25-4.9-42.4-17.4-36.3c-12.9,6.3-24.8,37.4-7.9,52.1C467.1,1139.4,476.6,1113.3,477,1112.2"
			/>
		<path class="st2" d="M186.8,926.4c5.8-16.1-9.6-29.1-22-23c-11.8,5.9-16.3,24.3-0.1,33C180.4,943.6,186.5,927.1,186.8,926.4"/>
		<path class="st2" d="M512.2,1130.5c9.8-27.7-3.9-43.1-14.7-37.4c-12.2,6.5-24.7,39.6-9.5,54.4
			C501.9,1159,511.8,1131.7,512.2,1130.5"/>
		<path class="st2" d="M246.7,946c5.8-17.7-13.6-32.8-26.8-25.6c-9.1,5-18.1,25,2.4,36.6C239.7,965.7,246.1,948.1,246.7,946"/>
		<path class="st2" d="M542.1,1147.7c7.7-20.9,2.5-46-11.4-38.9c-13.4,6.9-25,41.4-11.7,56C528.1,1173.4,538,1158.9,542.1,1147.7"/>
		<path class="st2" d="M304.9,967.6c6.5-20-14.7-34.1-27.9-28.1c-10.2,4.6-19.5,26.6,1.6,39.3C292.8,986.4,301.7,977.5,304.9,967.6"
			/>
		<path class="st2" d="M358.7,988.5c7-22.5-12.4-37.2-26.1-30.9c-11.6,5.4-17.9,30.8,1.2,43.6C351.4,1011.2,358.4,989.5,358.7,988.5
			"/>
		<path class="st2" d="M-49,800.1c1.8-4.7-5-8.8-9.3-6.8c-2.5,1.1-3.7,4.6-3.6,5.7c0.4,2.9,5,5,5,5C-51.3,805.7-49.1,800.3-49,800.1
			"/>
		<path class="st2" d="M15.2,813.7c2.5-8.6-7.5-14.9-14.3-11.3c-4.6,2.5-11.2,12.7,2,18.5C12,824.3,15.2,813.8,15.2,813.7"/>
		<path class="st2" d="M408.4,1010.9c7.8-21.7-9-40.7-23.5-33.2c-13.6,7-19.5,32.5-1.5,45.3C400.2,1033.3,408.1,1011.9,408.4,1010.9
			"/>
		<path class="st2" d="M78,829.2c3.2-10.9-10.4-20.6-18.5-16.3c-5.6,3-12.5,16.6,2.5,23.7C71.7,840.7,76.6,833.9,78,829.2"/>
		<path class="st2" d="M455.5,1029.1c5.2-20.6-13.4-39.5-26.5-32.5c-10.7,5.8-17.3,34.8-0.2,47.9
			C448.4,1056.3,455.4,1029.3,455.5,1029.1"/>
		<path class="st2" d="M140.1,846.1c3.9-12.9-8.6-24.7-19.7-18.6c-10.3,5.6-14.5,20.1,1,27.8C135.4,861.1,139.9,846.7,140.1,846.1"
			/>
		<path class="st2" d="M493.8,1050.4c7.8-24.8-7.5-42.9-19.6-36.5c-12.6,6.7-19.4,37.7-3.8,50.9
			C485.6,1075.7,493.5,1051.4,493.8,1050.4"/>
		<path class="st2" d="M199.9,866.1c5.8-15.4-8.9-29.1-20.5-23.6c-10.8,5.1-18.2,22.2,0.3,32C193.6,880.8,199,868.6,199.9,866.1"/>
		<path class="st2" d="M528.3,1067.7c7.2-27.3-7-42.7-16.8-37.1c-11.2,6.4-20.7,39.1-5.1,54C520.7,1096,528,1068.8,528.3,1067.7"/>
		<path class="st2" d="M259.5,885.5c6.3-18.6-11-32-22.8-26.8c-11.4,5-18.3,25.1,0.9,35.7C252.6,901.8,258.2,889.5,259.5,885.5"/>
		<path class="st2" d="M558.5,1085.3c6.6-26.6-5.9-43.7-16.4-36.5c-10.8,7.4-17.4,40.4-4.8,53.9
			C545.2,1109.9,554.1,1102.6,558.5,1085.3"/>
		<path class="st2" d="M616.8,1186.8"/>
		<path class="st2" d="M616.8,1186.8l2.2-9.3c-2.9,12.5-13.8,50.6-16.5,59.1l-0.1,0.4"/>
		<path class="st2" d="M318.8,904.2c3.4-16-12-35.4-29.2-23.7c-13.2,9-11.5,26,3.5,35.1C309,923.4,317.3,911.3,318.8,904.2"/>
		<path class="st2" d="M582.7,1098.6c5-22.1-1.5-44-11-37.2c-10.7,7.7-19.2,43.3-7.9,57.5C571.8,1127.4,579.7,1112.2,582.7,1098.6"
			/>
		<path class="st2" d="M372.2,928c5.6-21.1-17.7-37.9-29.4-31c-10,6-14.4,29.5,4.3,41.7C361.4,946.8,369.6,938,372.2,928"/>
		<path class="st2" d="M-34.9,741.5c1-4.2-1.9-6.2-3.2-6.9c-0.3-0.2-5.4,1.8-5.8,2.3c0,0.1-2.1,4.7,2.5,6.7c1.7,0.6,3,0.3,3.6,0.1
			C-35.2,742.9-34.9,741.9-34.9,741.5"/>
		<path class="st2" d="M29,754.3c2.7-7.1-4.7-13.1-12.2-10c-7.6,3.2-8.8,12,0,15.8C23.2,762.3,27.7,757.7,29,754.3"/>
		<path class="st2" d="M422.3,947.6c4.6-23.4-18.7-38.5-30.2-29.9c-7.8,5.8-13,29.8,5.3,42.4C411.2,968.3,420.3,957.7,422.3,947.6"
			/>
		<path class="st2" d="M91.9,770.7c3-10.2-9.5-19-17.4-14.9c-5.2,2.7-12.9,15.2,2.4,22.3C88.3,782.6,91.8,771.2,91.9,770.7"/>
		<path class="st2" d="M466.9,968c3.9-21.7-15.1-40.1-27-31.6c-10.2,7.3-12.8,33.5,2.8,45.5C452.3,988.3,463.7,985.6,466.9,968"/>
		<path class="st2" d="M153.9,788.1c4.5-12.9-11.2-23.7-21.5-18.3c-6.8,3.6-12.9,17.7,3.5,25.7C148.7,800.9,153.1,790.3,153.9,788.1
			"/>
		<path class="st2" d="M504.5,988.4c4.6-24.7-10.4-43.2-22.2-34.1c-8.5,6.6-14.7,30.9-0.8,46.8c0,1,0,1,1.4,2.2
			C499,1014.9,504,991.1,504.5,988.4"/>
		<path class="st2" d="M214.4,805.1c3.6-13.3-15.2-24.9-25.7-19.3c-6.4,3.4-13.5,19.3,4.2,28.6C209.4,821.6,214,806.8,214.4,805.1"
			/>
		<path class="st2" d="M540,1004.6c3.4-26.2-12.4-41.2-22.2-32.8c-9,7.7-11.5,37.7,1.4,49.6C530.2,1030.1,538.1,1019.2,540,1004.6"
			/>
		<path class="st2" d="M270.3,826.9c5.3-17.1-11.2-31.2-23.4-24.7c-11,5.9-13.9,23.4,3.4,33.1C264.6,842.2,269.5,829.5,270.3,826.9"
			/>
		<path class="st2" d="M567.9,1022.9c4.1-27.1-7.2-42.8-16.2-36.6c-10.2,7.1-14.4,40.3-0.8,54.7
			C563.3,1051.9,567.7,1024.1,567.9,1022.9"/>
		<path class="st2" d="M629.6,1119.5c-2.1,15.1-6.6,39.6-9.3,52.2C623.1,1156,627.5,1135.2,629.6,1119.5"/>
		<path class="st2" d="M326.2,847.6c5.3-19.2-12.9-35.1-25.7-27.4c-9.3,5.7-13.7,24.7,4.9,35.8C320.4,863.8,325.1,851.6,326.2,847.6
			"/>
		<path class="st2" d="M591.9,1038.7c2.7-18.6-2.8-44.3-13-36.8c-10.2,7.6-13.6,41.7-2.9,55C583.8,1065.2,590.1,1050.9,591.9,1038.7
			"/>
		<path class="st2" d="M380.4,867.5c3.8-19.7-16-36.2-27.9-28.1c-10.1,6.9-11.5,27.9,5.9,39C376.1,888.3,380.2,868.3,380.4,867.5"/>
		<path class="st2" d="M-20.7,686.2c1.6-4.3-3.8-6.1-5.7-5.4c-1.9,0.7-4.6,5.6-0.1,7.6c0.1,0,0.2,0.1,0.3,0.1
			c1.8,0.6,3.2,0.3,3.2,0.3S-21.3,687.9-20.7,686.2"/>
		<path class="st2" d="M43.2,699.1c2.3-6.7-6.6-11.7-12.7-8.8c-4.9,2.3-7.4,9.8,2.1,13.8C40.2,706.9,42.8,700.5,43.2,699.1"/>
		<path class="st2" d="M428.5,890.5c4.8-21.6-12.8-40-25.2-32c-9.9,6.4-14.7,28.8,4.8,42.4C423.3,910,427.8,893.9,428.5,890.5"/>
		<path class="st2" d="M105.3,714c2.6-10.5-10.8-15.3-18.1-10.9c-5.3,3.2-8.5,12.7,2.6,17.8C98,724,103.9,719.6,105.3,714"/>
		<path class="st2" d="M472.5,908.6c3.3-21.9-13.3-39.7-24.6-32c-10.3,7.1-12,32.2,4.6,44.5C468.8,931.8,472.3,909.5,472.5,908.6"/>
		<path class="st2" d="M163.2,732.7c3.6-12.2-9.3-22-18.1-17c-7.1,4.1-12.6,16,2.8,23.4C159,743.8,162.4,735.4,163.2,732.7"/>
		<path class="st2" d="M511.2,929.8c2.3-20.8-11.9-45.2-24.1-34.4c-9.3,8.2-8.1,35.1,4.8,45.7C508.4,952.9,511.1,930.8,511.2,929.8"
			/>
		<path class="st2" d="M222.1,750.7c3.7-12.8-9.5-26-20.2-20.2c-8.5,4.6-13.7,18.5,3.1,27.3C217.7,763.4,221.5,752.9,222.1,750.7"/>
		<path class="st2" d="M544.1,945.6c2.2-26.1-12-41.2-20.8-33.5c-8,6.9-10.9,35.2,4.7,49.4C541.7,972.2,544,946.7,544.1,945.6"/>
		<path class="st2" d="M279.9,768.4c3-16.3-18.7-26.1-28-19.5c-5.9,4.2-9.2,19.3,7.4,28.3C272.2,783.5,278.4,776.4,279.9,768.4"/>
		<path class="st2" d="M572.2,961.9c2.1-25.8-10.4-42.4-17.8-35.1c-7.9,7.8-8.9,38.9,3.3,51.5C569.8,989,572.2,962.2,572.2,961.9"/>
		<path class="st2" d="M634,1078.5l0.9-14.3c-0.9,17.1-2.3,31.1-3.1,37.9L634,1078.5"/>
		<path class="st2" d="M334.2,789.4c2.7-19.6-19.5-30.1-28.4-24c-7.5,5.1-9.4,23,7.8,33.1C327.9,805.7,333.3,796.2,334.2,789.4"/>
		<path class="st2" d="M595.7,977.9c1.4-25.2-8.7-40.9-15.2-35.8c-6.8,5.3-9.5,38.5,2.6,52.8C589.5,1001.5,594.8,994.3,595.7,977.9"
			/>
		<path class="st2" d="M385.8,809.9c2.4-18.9-16.6-34.2-27.1-26.1c-7.9,6.1-11.2,24.5,7.3,36.2C382.8,829.3,385.5,811.9,385.8,809.9
			"/>
		<path class="st2" d="M613.1,990.6c0.5-17.6-4.8-41.9-11.2-35.7c-7,6.7-7.4,42.2,1.3,54.6c5.8,7.2,8.8-5.5,9.6-13.2
			C612.9,994.7,613.1,992.4,613.1,990.6"/>
		<path class="st2" d="M433.1,832.1c1.8-18-15.1-39.3-27.8-29.5c-9,7-6.1,29,8.3,38.7C427.9,850.1,432.6,837.3,433.1,832.1"/>
		<path class="st2" d="M55.1,649.2c1.7-4.6-3.5-11-10-8.3c-2.3,1-3,5-3,5.2c-0.4,2,0.9,3.2,1.5,3.6c0,0.7,0.4,1,1.5,1.5l4.3,1.6
			c0.2,0.1,0.6-0.1,0.8-0.1C51.2,652.6,54.1,652,55.1,649.2"/>
		<path class="st2" d="M625.7,1000.3c0.1-20.5-4.5-38.3-7.8-35.4c-4.8,4.3-6.3,44.2,0.9,57.4c0.8,1.2,3.2,5,5.2-3.8
			C625.1,1014.2,625.7,1007.4,625.7,1000.3"/>
		<path class="st2" d="M116.2,663.7c2.5-6.9-8.9-15.8-15.9-12.3c-3.3,1.6-10.4,10.6,2.5,16.4C112.5,671.6,116.2,663.8,116.2,663.7"
			/>
		<path class="st2" d="M475.2,850.4c1.8-20.5-15.4-36.8-25.2-28.6c-8.7,7.2-8.9,28.7,7.2,40.6C473.1,872.7,475.2,850.6,475.2,850.4"
			/>
		<path class="st2" d="M174,680.6c3.4-10.2-10.8-20-18.7-15.8c-4.9,2.6-11.2,14,4.1,21.4C170.3,690.7,173.6,681.6,174,680.6"/>
		<path class="st2" d="M633.1,1011.6c-0.1-15.8-1.6-33.6-4.2-36.1c-0.1,0-0.3,0-0.5,0c-2.8,3.5-3.5,45.5,1,58.3
			c0.5,1.2,0.6,1.4,1.1,1.6C633.1,1034.2,633.1,1013.9,633.1,1011.6"/>
		<path class="st2" d="M513,868.2c-0.1-20.7-17.2-37.9-25.1-29.7c-6.3,6.6-6.4,31.2,8.4,43.1C507.4,889.7,513.1,880.9,513,868.2"/>
		<path class="st2" d="M229.6,697.3c2.7-12.1-11.3-22.9-21.2-16.3c-7,4.7-8.6,16.2,4.9,23C226.4,709.8,229.3,698.6,229.6,697.3"/>
		<path class="st2" d="M544.2,886.5c0-22-12.6-39.1-20.4-32.5c-0.7,0.6-6.7,6.4-4.4,24.3c1.8,13.7,10.5,22.8,10.6,22.8
			C543.8,911.9,544.2,889.2,544.2,886.5"/>
		<path class="st2" d="M635.1,1000.6c-0.6-13.6-1.1-14.8-1.3-15.2c-1.4,3.1-0.1,49.2,0.9,56.8c0.1,0.3,0.1,0.8,0.2,1.2
			c0.3-0.3,0.9-1,0.8-19.9L635.1,1000.6"/>
		<path class="st2" d="M284.8,715.7c2.8-13.5-13.2-26.4-23.6-19c-7.3,5.3-8,18.6,6.1,26.2C281.7,729.8,284.7,716.3,284.8,715.7"/>
		<path class="st2" d="M571.9,902.8c-0.5-23.5-13-38.3-19.4-32c-6.1,6-6.1,34.4,7.1,47.4C567,924.7,572.2,918.2,571.9,902.8"/>
		<path class="st2" d="M337.1,736.7c3-16.1-14.2-29.9-24.3-23.3c-8.3,5.4-8.5,21.4,6.9,30.3C333.7,750.8,336.6,739.1,337.1,736.7"/>
		<path class="st2" d="M593.2,916.7c-0.9-24-10.8-39.4-15.6-34.1c-5.7,6.4-4,38.9,6.5,51c9,8.9,9.1-12.2,9.1-14.6
			C593.2,918.4,593.2,917.4,593.2,916.7"/>
		<path class="st2" d="M386.9,754.3c1.4-18.7-20.1-29.8-28.3-22c-5.7,5.4-5.5,22,9.8,31.6C382.3,771.6,386.5,759.2,386.9,754.3"/>
		<path class="st2" d="M610.1,929.5c-1.6-23.2-8.9-39.3-12.9-33.9c-4.8,6.4-2.5,40.2,6.8,53.1c3.5,4.2,5.6,1.6,6.2-7.6
			C610.5,937.9,610.4,933.6,610.1,929.5"/>
		<path class="st2" d="M432.7,775.3c0.6-18.1-17.1-33.1-25.9-25.9c-7.4,6.2-6.2,25.4,9.3,35.7C432,794.4,432.7,776.1,432.7,775.3"/>
		<path class="st2" d="M68.1,600.7c1.7-3.6-5.2-7.2-8.9-5.6c-2.1,0.9-5.6,4.9,1.7,8c0,0,0.1,0.1,0.2,0.1
			C66.1,604.8,68,600.8,68.1,600.7"/>
		<path class="st2" d="M622.5,941.2c-1.8-21.2-7-36.1-9.9-33.5c-3.9,3.5-0.6,41.7,6,53.2c0.7,1,2.8,4.2,3.9-1.4
			C623.2,955.8,623.2,949.4,622.5,941.2"/>
		<path class="st2" d="M125.7,615.8c2.3-6.4-6.8-12.3-12.7-9.9c-2.7,1.1-10.5,8.2,2.5,14C122.8,622.7,125.3,617,125.7,615.8"/>
		<path class="st2" d="M473.4,794.5c-0.2-19.7-16.9-35.1-24.6-26.7c-5.9,6.5-5.8,26.4,9.9,37.9C473.4,815.1,473.4,795.4,473.4,794.5
			"/>
		<path class="st2" d="M182.1,631c2.6-9.6-10.4-16-16.8-12.6c-4,2.1-9.1,11.7,3.7,17.8C179.3,640.4,182,631.4,182.1,631"/>
		<path class="st2" d="M509.1,812.4c-0.5-18.2-14.8-36-22.5-27.9c-6.8,7.2-5.5,28.9,8.9,40.2C507.1,832.8,509.3,818.6,509.1,812.4"
			/>
		<path class="st2" d="M629.4,950.5c-1.4-13.8-4.9-34.6-7-34.9c-2.3,4,1.4,43.8,6,55.3c0.4,0.9,0.5,1.1,0.8,1.5c0.1,0,0.3,0,0.4,0
			C631.3,969.7,629.6,952.5,629.4,950.5"/>
		<path class="st2" d="M235.8,648c2.7-10.5-11.1-19.3-19.1-14.9c-6.7,3.7-7.5,14.9,4.2,20.7C232.9,658.9,235.8,648.1,235.8,648"/>
		<path class="st2" d="M539.8,829.4c-1.1-19.6-14.2-36.3-20.5-30.2c-6.4,6.1-3.6,32.2,9.3,43.2C540.9,851.8,539.8,829.6,539.8,829.4
			"/>
		<path class="st2" d="M633,970.1l-5.1-41.5c-0.4-2.2-0.5-2.6-0.6-3.2c-0.6,2,5.4,50.4,6,53.7c0.1,0.7,0.1,0.8,0.2,1.1
			c0.2-0.4,0.2-0.6-0.2-5.9L633,970.1"/>
		<path class="st2" d="M288.3,666.6c2-11.6-12.8-23.2-21.8-17c-6.5,4.5-6.8,16.2,6.1,23.1C286,679,288.3,667.1,288.3,666.6"/>
		<path class="st2" d="M565.6,845c-2.5-21.4-13.7-37.4-18.7-30.6c-5.8,8,0.4,36.5,9.8,45.6c10.4,8.9,9.4-9.1,9.1-12.8
			C565.7,846.5,565.6,845.7,565.6,845"/>
		<path class="st2" d="M338.4,683.2c0.3-12.1-14.8-26.5-25.2-16.6c-7,6.7-3.2,17.9,8.4,24.4C335,697.4,338.3,687.3,338.4,683.2"/>
		<path class="st2" d="M586,858.4c-3.3-22.7-12.4-35.6-16.1-31.4c-4.3,4.9-1.2,35,10.3,47.9c5.7,5.6,6.7-1.3,6.6-8.1
			C586.8,865.1,586.6,862.2,586,858.4"/>
		<path class="st2" d="M386,703.9c-0.2-17.3-21.2-28.4-27.3-21.1c-3.3,4-4.9,18.9,11.4,28.9C382.8,718.5,386.1,710,386,703.9"/>
		<path class="st2" d="M602.2,869.2c-4-21.9-11.4-33.5-14-29.4c-3.4,5.2,2.8,38.1,10.2,47.9c2.9,3.3,4.7,2.5,5.2-2.5
			C603.8,883.1,603.9,878.3,602.2,869.2"/>
		<path class="st2" d="M429.3,723.8c-0.3-15.8-17.2-31.4-24.8-22.8c-5.4,6-3.3,22.2,10.6,31.3C429.4,740.7,429.3,724.5,429.3,723.8"
			/>
		<path class="st2" d="M79.1,557.1c0.9-1.6,0.4-2.1,0.4-2.1c0,0-2.3-1.7-4.4-1c-2.1,0.7-2.7,3.5-0.4,4.7c0.1,0,0.2,0.1,0.3,0.1
			c0.9,0.3,1.6,0.4,2.9,0.2C78.4,558.4,78.8,557.8,79.1,557.1"/>
		<path class="st2" d="M613.3,881.1c-3.7-19.9-9.4-34.5-11.3-32.1c-2.1,2.6,3.3,38.9,10.6,51.1c0.8,1.2,1.9,2.8,2.5,0.6
			C615.7,898.1,615,890.4,613.3,881.1"/>
		<path class="st2" d="M135.1,571.8c1.4-3.4-0.3-4.7-1.4-5.5c-2.7-1.9-7.1-3-9.1-2.1c-4.1,1.8-4.8,7.7,1.8,10.6
			C132.9,577.2,134.3,573.8,135.1,571.8"/>
		<path class="st2" d="M468.2,741.6c-1.3-16.6-18.5-32.2-24.9-25.9c-5,5-2.8,24.7,11.6,35C465.8,757.7,468.9,750.2,468.2,741.6"/>
		<path class="st2" d="M188.7,586.8c1.4-7.1-10.2-13.9-16.2-9.5c-3.9,2.9-4.5,9.5,4.8,13.7C187,595,188.7,586.9,188.7,586.8"/>
		<path class="st2" d="M620.1,890.4c-2.7-13.6-6.8-29.2-8.6-30.7c-0.1,0.1-0.2,0.1-0.3,0.2c-1.1,3.9,6.6,41.4,10.4,50.1
			c0.5,1.1,0.6,1.3,1,1.5C624,910.6,620.7,893.8,620.1,890.4"/>
		<path class="st2" d="M501.5,760.1c-1.7-19-16.2-34.7-21.8-27.4c-4.8,6.1-3.2,25.6,11.6,37.2C502.6,777.6,501.8,763.1,501.5,760.1"
			/>
		<path class="st2" d="M240.4,603.8c2-8.4-11.3-18.5-18.1-13.7c-2.6,1.9-7.9,11.1,5.9,18C238,612.4,240.2,604.7,240.4,603.8"/>
		<path class="st2" d="M530.8,774.6c-2.6-16.5-14.8-33-19.8-26.8c-4.6,5.7-2.2,27.9,11.2,39.3c8.8,6.8,9.6-4.2,8.8-10.9
			C531,775.7,530.9,775.1,530.8,774.6"/>
		<path class="st2" d="M615.2,866.3l10.8,51.2c0.1,0.3,0.2,0.8,0.3,1.1c0-0.1,0-0.2,0-0.2C622.9,902.7,619.1,881.8,615.2,866.3"/>
		<path class="st2" d="M289.1,620.1c1.2-11-12.5-20.7-20-14.1c-4.8,4.1-4.5,13.5,6.9,19.5C287.6,630.8,288.9,621.2,289.1,620.1"/>
		<path class="st2" d="M554.7,788.1c-4.2-18-16.2-32.8-19.4-26.8c-3,5.5,2,30.2,13.1,40.7c6.4,5.5,8.1,0.3,7.6-5.8
			C555.8,793.8,555.3,790.6,554.7,788.1"/>
		<path class="st2" d="M336.3,637.7c0.7-12.6-15.4-22.8-21.9-16.9c-4.9,4.5-3.1,16.6,8.4,23C335.4,650.2,336.2,638.3,336.3,637.7"/>
		<path class="st2" d="M574.9,804.2c-3.5-14.9-13.8-36.5-17.2-30.7c-3.3,5.5,4.3,34.1,12.8,43.3c2.6,2.5,6.1,4.9,5.8-3.6
			C576.2,811.4,575.9,808.5,574.9,804.2"/>
		<path class="st2" d="M380.9,656.7c0.2-14.3-15.3-26.4-22.1-20.3c-5.4,4.8-4.3,17.8,9.7,26.3C380.1,669.1,380.8,658.9,380.9,656.7"
			/>
		<path class="st2" d="M589,814.2c-4.9-18.6-12.7-33.2-14.6-29.5c-2,3.9,5.2,34.9,13.7,45.6c1.1,1.3,3.1,3.5,3.4-0.8
			C591.7,826.5,590.7,820.8,589,814.2"/>
		<path class="st2" d="M422.5,674.8c-1.2-14.7-18.1-27.7-24.1-21.6c-3.6,3.7-4,18.3,12,28.6C423.4,689.4,422.7,676.3,422.5,674.8"/>
		<path class="st2" d="M599.4,824.1c-4.3-15.5-10.4-30.2-12.5-30.2c-1.9,2.4,7.8,37.2,13.9,46.7c1,1.4,1.2,1.5,1.7,1.4
			C603.7,840,600.4,827.8,599.4,824.1"/>
		<path class="st2" d="M143.6,532.2c1.6-4-5.4-5.3-8.7-3.8c-3.7,1.6-0.1,5.3,2.4,6.4C140.6,536.1,142.8,534.2,143.6,532.2"/>
		<path class="st2" d="M458.7,691.6c-2.8-16.2-17.5-28.8-22.1-21.8c-3.6,5.3-1.6,21.1,12.2,30.8
			C461.5,708.6,458.8,692.3,458.7,691.6"/>
		<path class="st2" d="M194.7,546.8c2.6-7.6-9.4-8.9-13.9-6.4c-5.3,2.9,1.2,8,4.8,9.7C190.1,551.9,193.3,550.7,194.7,546.8"/>
		<path class="st2" d="M491.1,709.2c-3.1-14.4-17.3-31.7-22-24c-3.6,5.8,1.1,23.4,13.2,32.7C494.4,726,491.5,710.9,491.1,709.2"/>
		<path class="st2" d="M605,831.3c-3.7-12.1-8.9-27.1-10.2-28.3c-0.7,2.6,11,40.1,14.4,47.4c0.4,0.8,0.5,1,0.7,1.2
			C610.5,849.8,605.5,833.2,605,831.3"/>
		<path class="st2" d="M242.6,562c0.7-7.1-11-14.2-16.2-9.8c-2.2,1.8-5.9,8.3,5.9,14.1C241.7,570.4,242.6,562.4,242.6,562"/>
		<path class="st2" d="M516.9,722.4c-4.4-16.4-16.1-29.6-19.3-24.3c-3,5,1.7,25.5,13.8,35.6c7.6,5.7,7.1-2.6,6.5-6.5
			C517.8,725.9,517.3,723.9,516.9,722.4"/>
		<path class="st2" d="M600.3,816.3c6.3,18.8,12.4,40.7,12.4,40.9L600.3,816.3"/>
		<path class="st2" d="M289.2,578.8c0.4-8.4-13.6-17.8-18.7-12.5c-2.9,3-3.7,11,7.5,16.9C286.5,587.3,289.1,582.1,289.2,578.8"/>
		<path class="st2" d="M539.6,736.3c-4.8-16.1-15.1-29.2-17.7-24.7c-2.6,4.6,3.2,26.9,14.2,37.2c3.9,3.3,5.7,2.1,5.3-3.5
			C541.3,743.6,540.9,740.6,539.6,736.3"/>
		<path class="st2" d="M333.4,595.5c-0.2-9.2-16-20.8-20.6-15.2c-0.1,0.1-6,11.2,9.5,19.9C333.3,605.6,333.4,596.5,333.4,595.5"/>
		<path class="st2" d="M557.5,749.1c-5.5-16.1-14.3-29.3-16.4-26.5c-2.3,3,5.7,29.8,15.3,39.9c1.2,1.1,4,3.8,3.9-1.2
			C560.3,760,560,756.3,557.5,749.1"/>
		<path class="st2" d="M373.8,612c-0.9-11.2-15.1-22.1-20.5-15.8c-4,4.7-0.6,14.9,9.8,21.1C374.5,623.5,373.8,612.5,373.8,612"/>
		<path class="st2" d="M570.6,758.2c-5.8-15.4-13.7-27.8-14.8-25c-1.3,3.3,8.8,31.4,16.1,40.3c0.8,0.9,2.8,3.1,2.9,0.2
			C575,770.4,572.3,762.6,570.6,758.2"/>
		<path class="st2" d="M412.1,630c-1.9-13.3-16-24.6-20.5-19c-3.1,3.9-2,16.1,11.4,24.7C413.2,641.6,412.3,632,412.1,630"/>
		<path class="st2" d="M579.6,767c-4.5-11.3-10.9-24.1-12.6-24.4c-1.2,1.9,11.9,34.3,16.8,41.8c0.3,0.4,0.8,1,1.2,1.3
			c0.1-0.1,0.2-0.1,0.2-0.2C585.5,782.3,581.8,772.5,579.6,767"/>
		<path class="st2" d="M446.5,645.2c-3.5-13.5-18.1-24.9-21.3-18.9c-2,3.7,0.3,17.4,13.4,26.5c10.2,6.5,8.7-3.8,8.3-5.9
			C446.8,646.4,446.7,645.8,446.5,645.2"/>
		<path class="st2" d="M151.3,498.4c0.2-0.5,0.3-1,0.1-1.5c-2-0.5-2.9,0.4-4.2,1.9c0.4,0.3,0.7,0.4,1,0.6
			C150.4,500.1,151.2,498.7,151.3,498.4"/>
		<path class="st2" d="M199.5,512.1c2-5.2-6.9-6.4-10.3-4.7c-3.9,1.9,0.8,5.6,3.5,6.8C195,515,198.1,515.7,199.5,512.1"/>
		<path class="st2" d="M585.3,776.3c-4.6-11.3-10.4-24.1-11.8-26.6c0,1.4,15.4,38.6,17.7,43.3c0.2,0.3,0.4,0.7,0.6,1
			C591.9,792.6,586.4,779,585.3,776.3"/>
		<path class="st2" d="M475.2,660.5c-4.3-13.8-16.2-25.3-19.1-20.5c-2.5,4.2,2.2,20.5,13.4,28.9c8.2,5.6,6.9-3,6.3-5.8
			C475.7,662.4,475.4,661.3,475.2,660.5"/>
		<path class="st2" d="M244.1,526.1c0.8-5.3-8.8-11.3-12.9-8c-1.8,1.5-4.3,6.3,5.1,10.9C242.9,531.8,243.9,527.1,244.1,526.1"/>
		<path class="st2" d="M500,674.4c-5.3-14.1-16.1-25.6-18.3-21.6c-2.2,3.9,4.4,22.7,15,31.4c4.3,3.2,6,2.1,5.2-3.1
			C501.8,680.5,501.3,678,500,674.4"/>
		<path class="st2" d="M287.7,541.9c0.6-5.9-11.6-14.1-16.1-10.8c-2.9,2.1-2.8,8.8,6,13.2C287,548.5,287.7,542,287.7,541.9"/>
		<path class="st2" d="M520.3,686.8c-6.2-14.7-15.6-26-17.2-22.6c-1.7,3.5,6.5,24.8,16.3,33.7c1.3,1.1,4.3,3.5,4-0.6
			C523.3,696.2,522.9,693,520.3,686.8"/>
		<path class="st2" d="M326.8,556.5c-0.3-8.1-12.5-16.4-16.7-11.5c-2.9,3.5-0.1,11,7.7,15.3C327.1,564.9,326.8,556.6,326.8,556.5"/>
		<path class="st2" d="M536.7,699.3c-7-15.8-15.8-27.3-16.7-24.7c-1,2.6,8.1,25.9,17.6,35.8c1,0.9,2.8,2.6,2.8,0.3
			C540.4,709.2,539.4,705.4,536.7,699.3"/>
		<path class="st2" d="M364.7,572.7c-1.4-8.7-13.4-19.8-17.5-13.9c-2.9,4.3,0,12.2,9.7,17.9C365.8,581.6,364.8,573.6,364.7,572.7"/>
		<path class="st2" d="M548.2,707.9c-5.2-10.7-12.9-23.4-14.9-23.7c-1.4,1.5,12.1,29.5,18.5,37.2c1.1,1.2,1.3,1.4,1.8,1.3
			C554.5,721,549.3,710.1,548.2,707.9"/>
		<path class="st2" d="M399.8,588c-2.7-10.2-15.5-20.3-18.5-14.6c-2.3,4.3,2.1,13.8,11.2,19.6C402.5,598.8,399.9,588.5,399.8,588"/>
		<path class="st2" d="M555.5,714.9c-5.3-10.3-11.8-21.4-13.3-22.8c0,0-0.1,0.1-0.1,0.1c0.9,3.4,15.1,31.3,19.5,37.5
			c0.7,1,0.8,1,1.1,1C562.4,728.4,556.7,717.1,555.5,714.9"/>
		<path class="st2" d="M430.4,603.6c-3.8-11.7-15.7-22-18.1-17.5c-2,3.6,1.5,15.4,12.9,23.2c6.7,4.1,6.5-0.5,5.9-3.6
			C430.8,605.1,430.6,604.2,430.4,603.6"/>
		<path class="st2" d="M202.7,481.9c0.3-2-1.5-3.2-2.6-3.8c0,0-1.6,0-3.6,0.5c-0.7,2,1,3.1,2.1,3.6c1.6,0.6,2.9,0.6,4.1-0.1
			C202.6,482.1,202.7,482,202.7,481.9"/>
		<path class="st2" d="M548.1,700.5c6.9,12.4,13.2,25.1,19.8,37.6c0.2,0.3,0.3,0.6,0.5,0.9c-0.1-0.3-0.2-0.6-0.4-0.9L548.1,700.5"/>
		<path class="st2" d="M456.9,616.3c-6.2-13.5-16.7-20.8-18.3-17.6c-1.5,2.9,4.3,17.3,14.8,25c4.2,2.8,6.1,2.3,5.4-1.7
			C458.7,621.1,458.2,619.2,456.9,616.3"/>
		<path class="st2" d="M244.4,495.7c0.6-3-6.1-8.6-9.3-6.7c-2.4,1.3-2,5.2,3.4,7.7C243.6,498.8,244.3,496,244.4,495.7"/>
		<path class="st2" d="M478.5,628.2c-6.1-12-15.5-20.9-16.6-17c-1,3.7,7.2,19.4,15.6,26.3c1.1,0.8,4.5,3.4,3.9-1.2
			C481.3,635.2,480.7,632.6,478.5,628.2"/>
		<path class="st2" d="M283.1,508.9c0-4.9-9.6-11.1-12.5-8.2c-1.2,1.2-2.2,5.9,5.8,10C282.5,513.4,283.1,510.4,283.1,508.9"/>
		<path class="st2" d="M496.8,640.6c-7.1-12.9-15.6-22-16.3-19.6c-0.7,2.6,8.4,21.4,17.5,29.4c1.1,0.9,3.2,2.7,2.9,0
			C500.7,648.6,499.2,644.9,496.8,640.6"/>
		<path class="st2" d="M319.3,522.7c-1.1-6.7-10.5-12.9-13.5-8.8c-1.9,2.7,0.6,8.1,7.2,11.8C320.2,529.1,319.4,523.3,319.3,522.7"/>
		<path class="st2" d="M510.6,650.3c-6.2-10.5-14.1-20.9-15.4-20.1c-0.6,2.3,11.7,23.9,18.9,31.1c1.2,1.1,1.4,1.2,1.9,1.2
			C517,661.3,511.7,652.2,510.6,650.3"/>
		<path class="st2" d="M353.6,537c-1.8-7.2-12.7-14.8-14.9-10.5c-1.5,3.1,2,10,8.8,13.9C355.4,544.6,353.6,537.1,353.6,537"/>
		<path class="st2" d="M521,659.4c-6.5-10.5-13.9-20.4-15.1-20.9c-0.1,2.1,15.3,26.6,20.3,32.3c1,1.1,1.1,1.2,1.5,1.2
			C528,670.8,522.7,662,521,659.4"/>
		<path class="st2" d="M384.4,551.4c-3-7.8-13.3-17.3-15.4-12.8c-1.4,3.1,1.5,10.7,10.8,16.5c6,3.4,5.6-0.4,5.2-2.2
			C384.8,552.4,384.6,551.9,384.4,551.4"/>
		<path class="st2" d="M527.5,666.7c-6.1-9.4-13.1-19.4-13.9-20.4c0.5,1.3,18.5,29.3,21.2,32.9c0.2,0.3,0.5,0.7,0.7,0.9
			C535.3,678.9,529.8,670.3,527.5,666.7"/>
		<path class="st2" d="M411.8,564.4c-4.6-9.3-14.8-17.2-15.8-13.4c-0.9,3.3,4.9,13.4,12.6,18.6c5.1,3.1,5,0.2,4.4-1.9
			C412.9,567,412.5,565.9,411.8,564.4"/>
		<path class="st2" d="M435,576.3c-3.9-6.4-13.5-17.1-14.6-13.4c-1,3.2,4.9,14,13.4,20.1c1.2,0.8,4.9,3.2,3.7-1.5
			C437.3,580.8,436.7,579.1,435,576.3"/>
		<path class="st2" d="M243.7,468.6c0.1-2-4.9-3.8-5.9-2.7c-0.6,0.6,0.4,2.7,2.4,3.7C243,470.6,243.7,469.2,243.7,468.6"/>
		<path class="st2" d="M454.8,589c-6.1-9.7-15.1-18.8-15.7-16.6c-0.5,2,7.7,16.3,16.1,22.9c1.1,0.8,3.2,2.3,2.9,0.3
			C457.9,595,457.4,593.2,454.8,589"/>
		<path class="st2" d="M278.4,481.2c-0.4-3.5-7.4-7.4-8.9-4.9c-1.9,3,4.1,6.2,4.8,6.6C278.8,485,278.4,481.3,278.4,481.2"/>
		<path class="st2" d="M469.8,598.2c-6.6-9.3-13.6-16.6-15-16.3c-0.8,1.7,11.1,18.6,17.9,24.6c1.3,1.1,1.6,1.2,2.1,1.2
			C475.6,606.7,472,601.3,469.8,598.2"/>
		<path class="st2" d="M310.9,494.2c-1-4.1-9.5-9.8-11.1-7.3c-0.7,1.1-0.4,5.1,6.4,8.8C311.4,498.2,311.2,495.5,310.9,494.2"/>
		<path class="st2" d="M481.7,607.5c-5.5-7.4-12.8-15.9-14.5-16.9c0,0-0.1,0.1-0.2,0.1c0.4,1.8,12.7,19.1,19.3,25.6
			c0.9,0.9,1.3,1.1,1.6,1.1C488,616.5,485.9,613.2,481.7,607.5"/>
		<path class="st2" d="M340.2,506.6c-2.3-5.1-11.4-11.4-12.4-8.6c-0.4,1.3,0.8,6.4,8.3,10.8c5.4,2.9,4.7-0.4,4.3-1.5
			C340.4,507.1,340.3,506.8,340.2,506.6"/>
		<path class="st2" d="M488.4,613c-5.5-7-11.9-14.5-13.2-15.8c0.6,1.4,17.3,23,20.7,26.8c0.3,0.3,0.6,0.6,0.9,0.9
			C496.4,623.3,490.8,616.1,488.4,613"/>
		<path class="st2" d="M367.5,519.3c-3.3-5.8-12.6-12.7-13.3-9.8c-0.4,1.6,2.3,8,10.4,13c4.5,2.6,4.3,0.4,4-0.6
			C368.3,520.9,367.9,519.9,367.5,519.3"/>
		<path class="st2" d="M491.9,617.3c4.3,5.4,8.4,10.8,10.5,13.6L491.9,617.3"/>
		<path class="st2" d="M391,531c-4.4-6.5-12.1-13-12.8-10.7c-0.6,1.9,4.4,9.9,11.6,14.6c1,0.6,3.6,2.2,3.3,0.1
			C392.8,534.1,392.1,532.7,391,531"/>
		<path class="st2" d="M410.7,542c-4.9-6.5-13-13.7-13.1-11.7c-0.2,2,6.6,11.4,13.5,16.3c0.9,0.6,3,2,2.6,0.2
			C413.5,546.4,413,545,410.7,542"/>
		<path class="st2" d="M427,552c-5-6.1-12.1-12.8-13.3-12.7c-0.3,1.6,9.7,13.8,15.6,18.4c1.2,0.8,1.5,1,1.9,1
			C431.6,557.7,428.4,553.7,427,552"/>
		<path class="st2" d="M272.3,458.9c-0.4-1.6-4.4-3.3-5-2.4c-0.3,0.5,0.9,2.2,2.6,3.1C272.2,460.5,272.5,459.5,272.3,458.9"/>
		<path class="st2" d="M438.8,559.8c-5.1-5.7-11.3-11.7-12.5-12.2c0,0-0.1,0.1-0.1,0.1c0.7,1.8,12,14.6,17.3,19.1
			c0.9,0.7,1.2,0.9,1.5,1c0-0.1,0-0.1,0.1-0.2C444.6,566.3,440.9,562.2,438.8,559.8"/>
		<path class="st2" d="M300.3,470.7c-0.7-2.1-6.9-6.6-7.6-5c-0.7,1.3,1.6,3.8,4.7,5.5C301,472.9,300.4,470.9,300.3,470.7"/>
		<path class="st2" d="M448.9,568.4c-6.1-6.6-13.1-13.5-14.3-14.4c0.3,0.6,16.6,18.2,20.1,21.5c0.5,0.5,0.7,0.6,0.9,0.7
			C455.5,575.5,449.6,569.1,448.9,568.4"/>
		<path class="st2" d="M325.3,481.3c-2-3.2-8.2-7.4-8.8-5.9c-0.2,0.5,0.3,3.8,6.9,7.5c0.8,0.4,3,1.6,2.5-0.3
			C326,482.5,325.8,482,325.3,481.3"/>
		<path class="st2" d="M448.7,567.9c4.3,4.5,6.3,6.7,13.7,14.6c0.1,0.2,0.3,0.4,0.5,0.5L448.7,567.9"/>
		<path class="st2" d="M347.9,492c-3-3.8-9.4-8.3-9.8-6.9c-0.1,0.6,1.8,5,9,9.3c0.8,0.4,2.8,1.6,2.5,0.2
			C349.5,494.3,349,493.3,347.9,492"/>
		<path class="st2" d="M368,503.1c-3.5-4-10.3-9.3-11.2-8.8c-0.2,0.8,4.8,7,11.3,11.3c0.6,0.4,2.1,1.3,2.1,0.6
			C370.1,505.6,369,504.2,368,503.1"/>
		<path class="st2" d="M383.9,512.1c-4.4-4.4-10.5-9.2-11.5-9.4c0,0,0,0.1-0.1,0.1c0.5,1.1,7.3,8.4,13.3,12.6
			c1.1,0.7,1.5,0.9,1.7,0.8C387.4,515.7,385.2,513.4,383.9,512.1"/>
		<path class="st2" d="M396.4,520.2c-4.7-4.3-10.7-9.3-11.5-9.6c0.4,0.9,10.9,10.7,15.2,14c0.8,0.6,0.9,0.7,1.2,0.8
			C401.3,524.8,397.9,521.6,396.4,520.2"/>
		<path class="st2" d="M398.2,521c4.4,3.9,8.7,7.9,13.2,11.7c0.5,0.4,0.6,0.5,0.8,0.6c0-0.1-0.1-0.3-2.4-2.3L398.2,521"/>
		<path class="st2" d="M288.6,452.4c-0.8-1-2.1-1.8-2.8-2.2c0,0-0.6-0.1-1.1,0.1c0.7,1,1.8,1.8,2.5,2.1c0.6,0.3,1.4,0.6,1.5,0.2
			C288.7,452.6,288.6,452.5,288.6,452.4"/>
		<path class="st2" d="M309.2,461.8c-2.1-2.4-5.2-3.6-5.2-2.9c-0.1,0.8,3.2,2.9,4.5,3.6c0.9,0.5,1.2,0.6,1.5,0.5
			C309.9,462.8,310,462.7,309.2,461.8"/>
		<path class="st2" d="M326.6,470.6c-2.8-2.5-6.1-4.5-6.2-3.9c-0.1,0.7,4.2,3.8,6.5,5.2c0.9,0.5,1.2,0.6,1.4,0.6
			C328.3,472.4,328.4,472.1,326.6,470.6"/>
		<path class="st2" d="M342,479.3c-2.8-2.2-7-5-7.7-5.3c0,0.4,6,5,9.3,7.2c0.7,0.4,1,0.6,1.2,0.6C344.7,481.6,343.8,480.7,342,479.3
			"/>
		<path class="st2" d="M347.3,482.4c3.3,2.4,6.6,4.9,10,7.2c0.5,0.4,0.7,0.4,0.8,0.6c-0.1-0.1-0.1-0.2-1.6-1.3L347.3,482.4"/>
		<path class="st2" d="M291.9,448.3L291.9,448.3c-0.1-0.1-0.1-0.1-0.1-0.1l-0.1,0l-0.1-0.1l-0.1,0l-0.1,0l-0.1,0l-0.1,0c0,0,0,0,0,0
			c0,0-0.1,0-0.1,0l-0.1-0.1l-0.1,0l-0.1,0l-0.1-0.1l-0.1,0c-0.4-0.2-0.5-0.2-0.5-0.2c0,0.1,0.3,0.2,0.7,0.4
			C291.7,448.2,291.9,448.3,291.9,448.3L291.9,448.3"/>
	</g>
</g>
</svg>
