<?xml version="1.0" encoding="UTF-8"?>
<svg id="_레이어_2" data-name="레이어 2" xmlns="http://www.w3.org/2000/svg" viewBox="0 0 95.4 96.93">
  <defs>
    <style>
      .cls-1 {
        fill: #e6ebee;
      }

      .cls-1, .cls-2 {
        stroke-width: 0px;
      }

      .cls-2 {
        fill: #12669a;
      }
    </style>
  </defs>
  <g id="_레이어_1-2" data-name="레이어 1">
    <g>
      <circle class="cls-1" cx="35.28" cy="61.65" r="35.28"/>
      <path class="cls-2" d="M77.43,30.21c-8.54,6.84-17.04,13.75-25.55,20.62-4.47,3.61-8.95,7.22-13.42,10.83.08-2.04.76-3.48,1.47-4.91,6.73-13.45,13.51-26.88,20.18-40.36,2.91-5.87,1.54-10.89-3.62-14.3-5.46-3.61-9.43-2.6-14.53,3.71-4.18,5.17-3.36,10.71,2.11,14.45,2.09,1.43,4.51,2.16,7,3.04-5.21,10.94-10.54,21.41-15.23,32.17-3.9,8.94-8.64,16.91-17.1,22.33-2.77,1.78-4.94,4.54-5.7,9,4.11-3.13,7.57-5.77,11.96-9.11-2.32,5.03-4.12,8.93-6.42,13.89,5.94-3.34,8.03-8.14,10.29-12.78,1.92-3.94,3.94-7.56,7.7-10.34,10.34-7.63,20.33-15.72,30.47-23.63,1.62-1.26,3.12-3.29,4.9-3.57,2.32-.37,1.92,3.13,3.65,4.19.56.35.94.99,1.43,1.46,4.03,3.84,9.37,3.96,13.21.3,5.75-5.49,6.68-10.67,2.78-15.39-4.18-5.06-10.43-5.74-15.6-1.59ZM50.64,18.36c-2.45.31-4.56-.67-6.1-2.6-1.38-1.73-1.08-3.64.06-5.34,1.14-1.69,2.36-3.37,3.79-4.8,1.42-1.41,3.24-2.02,5.22-.94,2.01,1.09,3.44,2.63,3.75,4.57.06,2.64-4.58,8.85-6.72,9.12ZM82.06,45.64c-1.53-.04-2.91-1.37-3.92-3.31-.95-1.83-1.27-3.5.35-5.18,1.22-1.27,2.26-2.71,3.41-4.05,1.44-1.67,3.34-1.86,5.21-1.14,1.95.74,3.53,2.08,3.88,4.33.52,3.32-4.81,9.4-8.93,9.35Z"/>
    </g>
  </g>
</svg>