<?xml version="1.0" encoding="UTF-8"?>
<svg id="_레이어_2" data-name="레이어 2" xmlns="http://www.w3.org/2000/svg" viewBox="0 0 96.73 96.65">
  <defs>
    <style>
      .cls-1 {
        fill: #e6ebee;
      }

      .cls-1, .cls-2 {
        stroke-width: 0px;
      }

      .cls-2 {
        fill: #12669a;
      }
    </style>
  </defs>
  <g id="_레이어_1-2" data-name="레이어 1">
    <g>
      <circle class="cls-1" cx="35.28" cy="61.38" r="35.28"/>
      <path class="cls-2" d="M43.04,26.27c-3.12-.82-2.33-4.53-4.06-6.59-.96-1.15,1.48-1.82,2.36-2.7,3.37-3.34,3.65-7.21,2.04-12.03C42.16,1.3,38.78.15,35.12.01c-2.22-.08-4.37.3-6.44,1.06C17.06,5.37,10.24,15.98,10.66,29.03c.41,12.72,8.2,23.31,19.73,26.82,4.92,1.5,10.4-.3,12.69-4.17,2.43-4.1,1.49-9.1-2.41-13.01-.64-.64-2.21-1.36-1.67-1.98,1.41-1.59,1.24-4.71,3.22-5.04,2.16-.36,3.39,2.01,3.94,4.06.38,1.43.53,2.97.51,4.45-.05,4.61-.79,9.38-.42,13.79.53,6.42-.1,12.81.49,18.08,0,5.9-.04,10.7.02,15.49.02,1.61-.77,3.64,2.27,3.72,3.26.09,2.57-2.05,2.57-3.85.05-16.03.04-32.06.12-48.09.03-6.36-1.84-11.22-8.68-13.03Z"/>
      <path class="cls-2" d="M72.18,0c-4.03.12-7.17,1.71-8.77,5.57-1.51,3.63-.45,8.93,2.49,11.33,1.86,1.51,3.35,2.65,1.17,4.97-1.28,1.36-.3,3.86-3.2,4.67-6.06,1.69-8.2,4.8-8.29,11.01-.12,8.22-.03,16.44-.03,24.66h.01c0,8.36-.02,16.72.02,25.07,0,1.76-.75,3.96,2.51,3.96,3.28,0,2.49-2.22,2.49-3.97.04-15.07.02-30.14.04-45.22,0-2.05-.13-4.17.32-6.14.49-2.15,1.67-4.25,4.22-4.44,2.22-.17.32,2.19,1.62,3.09,2.44,1.69,1.01,3.02-.68,4.58-3.03,2.79-4.15,6.53-2.92,10.48,1.08,3.47,3.79,5.68,7.36,6.49,2.87.65,5.69.12,8.4-1.05,13.9-6,20.89-21.3,16.48-36.11C92.3,8.49,81.56-.27,72.18,0Z"/>
    </g>
  </g>
</svg>