<?xml version="1.0" encoding="UTF-8"?>
<svg id="_레이어_2" data-name="레이어 2" xmlns="http://www.w3.org/2000/svg" viewBox="0 0 94.58 94.98">
  <defs>
    <style>
      .cls-1 {
        fill: #e6ebee;
      }

      .cls-1, .cls-2 {
        stroke-width: 0px;
      }

      .cls-2 {
        fill: #12669a;
      }
    </style>
  </defs>
  <g id="_레이어_1-2" data-name="레이어 1">
    <g>
      <circle class="cls-1" cx="59.3" cy="59.71" r="35.28"/>
      <path class="cls-2" d="M83.52,9.55C80.69,3.59,75.75.2,68.96.02c-4.7-.2-8.44,1.67-11.71,4.92C39.92,22.21,22.53,39.43,5.19,56.7c-6.54,6.52-6.92,15.8-1.03,22.04,6.3,6.67,16.67,7.37,23.14,1.02,17.75-17.45,35.42-34.98,52.82-52.78,4.61-4.71,6.46-11,3.4-17.43ZM12.75,65.01c-.95,0-1.72-.77-1.72-1.72s.77-1.72,1.72-1.72,1.72.77,1.72,1.72-.77,1.72-1.72,1.72ZM17.32,69.58c-.95,0-1.72-.77-1.72-1.72s.77-1.72,1.72-1.72,1.72.77,1.72,1.72-.77,1.72-1.72,1.72ZM18.31,63.16c-.95,0-1.72-.77-1.72-1.72s.77-1.72,1.72-1.72,1.72.77,1.72,1.72-.77,1.72-1.72,1.72ZM21.89,74.15c-.95,0-1.72-.77-1.72-1.72s.77-1.72,1.72-1.72,1.72.77,1.72,1.72-.77,1.72-1.72,1.72ZM22.88,67.73c-.95,0-1.72-.77-1.72-1.72s.77-1.72,1.72-1.72,1.72.77,1.72,1.72-.77,1.72-1.72,1.72ZM57.67,38.58c-6.67,6.65-13.4,13.25-20.01,19.97-1.57,1.59-2.59,1.97-4.24.11-2.35-2.65-4.95-5.09-7.51-7.54-1.38-1.32-1.75-2.3-.11-3.87,6.88-6.64,13.62-13.43,20.4-20.17.89-.89,1.67-1.91,3.02-.58,3.1,3.08,6.24,6.12,9.36,9.19.28.28.45.67.74,1.1-.55.61-1.07,1.23-1.64,1.79ZM61.37,20.97c-.95,0-1.72-.77-1.72-1.72s.77-1.72,1.72-1.72,1.72.77,1.72,1.72-.77,1.72-1.72,1.72ZM62.36,14.54c-.95,0-1.72-.77-1.72-1.72s.77-1.72,1.72-1.72,1.72.77,1.72,1.72-.77,1.72-1.72,1.72ZM65.94,25.54c-.95,0-1.72-.77-1.72-1.72s.77-1.72,1.72-1.72,1.72.77,1.72,1.72-.77,1.72-1.72,1.72ZM66.93,19.11c-.95,0-1.72-.77-1.72-1.72s.77-1.72,1.72-1.72,1.72.77,1.72,1.72-.77,1.72-1.72,1.72ZM71.5,23.68c-.95,0-1.72-.77-1.72-1.72s.77-1.72,1.72-1.72,1.72.77,1.72,1.72-.77,1.72-1.72,1.72Z"/>
    </g>
  </g>
</svg>