<?xml version="1.0" encoding="UTF-8"?>
<svg id="_레이어_2" data-name="레이어 2" xmlns="http://www.w3.org/2000/svg" viewBox="0 0 61.18 55.97">
  <defs>
    <style>
      .cls-1 {
        fill: #fff;
      }
    </style>
  </defs>
  <g id="_레이어_1-2" data-name="레이어 1">
    <g>
      <path class="cls-1" d="M31.12,40.6c-.15-.19-.42-.23-.61-.08l-4.14,3.2c-.19,.15-.23,.42-.08,.61l.07,.1c-2.89-.25-8.1-3.87-11.17-7.79-3.01-3.96-5.2-9.92-4.71-12.78l.07,.1c.15,.19,.42,.23,.61,.08l4.14-3.2c.19-.15,.23-.42,.08-.61L7.3,9.74c-.15-.19-.42-.23-.61-.08l-4.15,3.2c-.19,.15-.22,.42-.08,.61h0C.27,15.76-.48,18.41,.3,22.17c.39,1.88,1.36,9.4,8.84,19.12,7.51,9.7,14.55,12.56,16.27,13.41,3.44,1.7,6.2,1.65,8.96,.11h0c.15,.19,.42,.23,.61,.08l4.15-3.2c.19-.15,.23-.42,.08-.61l-8.09-10.48Z"/>
      <path class="cls-1" d="M56.71,35.29c.79-1.39,1.24-2.94,1.24-4.57,0-3.75-2.35-7.07-5.94-9.07-2.99,4.34-8.78,7.29-15.43,7.29-2.11,0-4.12-.31-5.99-.85-.26,.84-.41,1.72-.41,2.63,0,6.11,6.22,11.07,13.89,11.07,3.66,0,7-1.13,9.48-2.98,.67,.83,2.6,2.33,7.64,2.05,0,0-3.01-1.33-4.47-5.56Zm-16.24,1.61c-.74,0-1.35-.6-1.35-1.35s.6-1.35,1.35-1.35,1.35,.6,1.35,1.35-.6,1.35-1.35,1.35Zm4.03,0c-.74,0-1.35-.6-1.35-1.35s.6-1.35,1.35-1.35,1.35,.6,1.35,1.35-.6,1.35-1.35,1.35Zm4.03,0c-.74,0-1.35-.6-1.35-1.35s.6-1.35,1.35-1.35,1.35,.6,1.35,1.35-.6,1.35-1.35,1.35Z"/>
      <path class="cls-1" d="M14.38,26.85c6.39,.36,8.82-1.54,9.67-2.59,1.72,1.28,3.76,2.27,6.01,2.92,1.87,.54,3.89,.85,5.99,.85,6.65,0,12.44-2.95,15.43-7.29,1.37-2,2.16-4.29,2.16-6.73,0-7.74-7.87-14.02-17.59-14.02S18.48,6.28,18.48,14.02c0,2.07,.57,4.03,1.57,5.79-1.85,5.35-5.66,7.04-5.66,7.04Zm23.96-5.54h-4.61v-4.31h4.61v4.31Zm-2.33-16.3c3.56,0,5.96,1.86,5.96,4.75,0,3.17-3.98,4.1-3.98,5.33v.49h-3.98v-1.16c0-1.7,3.03-2.68,3.03-4.57,0-.86-.56-1.63-1.54-1.63-1.26,0-1.51,.98-1.51,1.96,0,.21,0,.42,.02,.63h-4.29c-.02-.3-.07-.58-.07-.89,0-3.03,2.7-4.91,6.36-4.91Z"/>
    </g>
  </g>
</svg>