<?xml version="1.0" encoding="UTF-8"?>
<svg id="_레이어_2" data-name="레이어 2" xmlns="http://www.w3.org/2000/svg" viewBox="0 0 45.22 51">
  <defs>
    <style>
      .cls-1 {
        fill: #fff;
      }
    </style>
  </defs>
  <g id="_레이어_1-2" data-name="레이어 1">
    <g>
      <path class="cls-1" d="M36.2,40.68l7.62,8.93H1.39l7.62-8.93h9.99l1.77,2.39c.58,.75,1.34,1.12,2.09,1.12s1.54-.39,2.12-1.18l1.64-2.33h9.58m0-1.39h-9.58c-.45,0-.88,.22-1.14,.59l-1.64,2.33c-.27,.37-.63,.59-.98,.59s-.7-.21-.99-.59l-1.75-2.37c-.26-.35-.68-.56-1.12-.56H9.01c-.41,0-.79,.18-1.06,.49L.33,48.71c-.35,.41-.43,.99-.2,1.48,.23,.49,.72,.81,1.26,.81H43.83c.54,0,1.03-.32,1.26-.81s.15-1.07-.2-1.48l-7.62-8.93c-.26-.31-.65-.49-1.06-.49h0Z"/>
      <path class="cls-1" d="M39.51,16.75C39.39,7.38,31.7-.12,22.32,0,12.95,.12,5.45,7.82,5.58,17.19c.05,3.81,1.35,7.3,3.5,10.11h0s9.93,13.39,9.93,13.39l1.77,2.39c1.18,1.52,3.08,1.5,4.21-.05l1.64-2.33,9.65-13.74h0c2.08-2.86,3.29-6.39,3.24-10.19Zm-16.9,11.14c-6.03,0-10.92-4.89-10.92-10.92s4.89-10.92,10.92-10.92,10.92,4.89,10.92,10.92-4.89,10.92-10.92,10.92Z"/>
    </g>
  </g>
</svg>