<?xml version="1.0" encoding="UTF-8"?>
<svg id="_레이어_2" data-name="레이어 2" xmlns="http://www.w3.org/2000/svg" viewBox="0 0 55.47 58.76">
  <defs>
    <style>
      .cls-1 {
        fill: #fff;
      }
    </style>
  </defs>
  <g id="_레이어_1-2" data-name="레이어 1">
    <g>
      <path class="cls-1" d="M49.91,21.83c-.96-4.51-3.82-12.28-12.73-14.59,4.13,3.51,5.81,8.48,6.51,11.77,1.97,3.38,8.47,10.37,4.6,10.77-1.9,.2-2.76,.25-4.06,.34-.06,1.3-.11,2.15-.25,3.74l-3.6,.28,.05,.05,3.3,2.72s-.57,4.23-.63,4.6c-.36,2.42-5.61,2.64-12.25,2.65v12.74l6.76,1.86v-12.84c6.37,0,11.39-.22,11.74-2.53,.26-1.74,.46-3.37,.61-4.89l-3.24-2.16,3.47-.27c.13-1.52,.18-2.34,.23-3.58,1.25-.08,2.07-.13,3.89-.33,3.7-.39-2.52-7.08-4.41-10.32Z"/>
      <polygon class="cls-1" points="41.92 33.74 41.87 33.7 41.85 33.7 41.92 33.74"/>
      <path class="cls-1" d="M37.51,39.07c.11-.75,.2-1.47,.3-2.18,.13-.98,.24-1.94,.34-2.85,0-.05,.01-.11,.02-.16l-.65-.43-2.79-1.86,.74-.06,2.94-.23c.14-1.61,.19-2.48,.25-3.81,1.33-.09,2.2-.14,4.13-.35,3.93-.41-2.68-7.52-4.68-10.96-.73-3.43-2.5-8.63-6.92-12.21C28.46,1.76,24.71,.17,19.57,0l1.17,12.18c4.6,.21,8.27,3.99,8.27,8.64,0,2.63-1.18,4.98-3.02,6.57l6.47,6.06,1.48,.31c.7,.15,1.13,.89,.97,1.65v.03c-.17,.77-.86,1.27-1.56,1.13l-1.81-.38c-.56-.12-.95-.62-1-1.21l-6.67-6.24c-1.08,.48-2.27,.75-3.52,.75-4.78,0-8.66-3.88-8.66-8.66,0-3.72,2.35-6.89,5.65-8.11L16.13,.14C6.78,1.25,0,8.45,0,19.05c0,5.25,3.47,11.87,6.42,15.54L1.68,48.95l23.37,6.44v-13.63c6.76,0,12.1-.23,12.46-2.69Z"/>
      <path class="cls-1" d="M13.79,20.82c0,3.62,2.94,6.56,6.56,6.56,.63,0,1.23-.09,1.81-.26,.84-.24,1.62-.65,2.28-1.18,1.5-1.2,2.47-3.05,2.47-5.12,0-3.43-2.64-6.25-6-6.53-.18-.02-.37-.03-.56-.03-.95,0-1.85,.21-2.67,.57-2.29,1.02-3.89,3.32-3.89,5.99Z"/>
    </g>
  </g>
</svg>